<?xml version="1.0" encoding="UTF-8"?>
<!--Generator: Apple Native CoreSVG 326-->
<!DOCTYPE svg
PUBLIC "-//W3C//DTD SVG 1.1//EN"
       "http://www.w3.org/Graphics/SVG/1.1/DTD/svg11.dtd">
<svg version="1.1" xmlns="http://www.w3.org/2000/svg" xmlns:xlink="http://www.w3.org/1999/xlink" viewBox="0 0 3300 2200">
 <!--glyph: "", point size: 100.0, font version: "20.0d10e1", template writer version: "138.0.0"-->
 <style>.monochrome-0 {-sfsymbols-motion-group:5;-sfsymbols-layer-tags:-3a4b3c65c29b2a22}
.monochrome-1 {-sfsymbols-motion-group:4;-sfsymbols-layer-tags:-3a4b3c65c29b2a22}
.monochrome-2 {-sfsymbols-motion-group:3;-sfsymbols-layer-tags:-3a4b3c65c29b2a22}
.monochrome-3 {-sfsymbols-motion-group:2;-sfsymbols-layer-tags:-3a4b3c65c29b2a22}
.monochrome-4 {-sfsymbols-motion-group:1;-sfsymbols-layer-tags:-3a4b3c65c29b2a22}
.monochrome-5 {-sfsymbols-motion-group:0;-sfsymbols-layer-tags:-3a4b3c65c29b2a22}

.multicolor-0:tintColor {-sfsymbols-motion-group:5;-sfsymbols-layer-tags:-3a4b3c65c29b2a22}
.multicolor-1:tintColor {-sfsymbols-motion-group:4;-sfsymbols-layer-tags:-3a4b3c65c29b2a22}
.multicolor-2:tintColor {-sfsymbols-motion-group:3;-sfsymbols-layer-tags:-3a4b3c65c29b2a22}
.multicolor-3:tintColor {-sfsymbols-motion-group:2;-sfsymbols-layer-tags:-3a4b3c65c29b2a22}
.multicolor-4:tintColor {-sfsymbols-motion-group:1;-sfsymbols-layer-tags:-3a4b3c65c29b2a22}
.multicolor-5:tintColor {-sfsymbols-motion-group:0;-sfsymbols-layer-tags:-3a4b3c65c29b2a22}

.hierarchical-0:primary {-sfsymbols-motion-group:5;-sfsymbols-layer-tags:-3a4b3c65c29b2a22}
.hierarchical-1:secondary {-sfsymbols-motion-group:4;-sfsymbols-layer-tags:-3a4b3c65c29b2a22}
.hierarchical-2:primary {-sfsymbols-motion-group:3;-sfsymbols-layer-tags:-3a4b3c65c29b2a22}
.hierarchical-3:tertiary {-sfsymbols-motion-group:2;-sfsymbols-layer-tags:-3a4b3c65c29b2a22}
.hierarchical-4:primary {-sfsymbols-motion-group:1;-sfsymbols-layer-tags:-3a4b3c65c29b2a22}
.hierarchical-5:tertiary {-sfsymbols-motion-group:0;-sfsymbols-layer-tags:-3a4b3c65c29b2a22}

.SFSymbolsPreviewWireframe {fill:none;opacity:1.0;stroke:black;stroke-width:0.5}
</style>
 <g id="Notes">
  <rect height="2200" id="artboard" style="fill:white;opacity:1" width="3300" x="0" y="0"/>
  <line style="fill:none;stroke:black;opacity:1;stroke-width:0.5;" x1="263" x2="3036" y1="292" y2="292"/>
  <text style="stroke:none;fill:black;font-family:sans-serif;font-size:13;font-weight:bold;" transform="matrix(1 0 0 1 263 322)">Weight/Scale Variations</text>
  <text style="stroke:none;fill:black;font-family:sans-serif;font-size:13;text-anchor:middle;" transform="matrix(1 0 0 1 559.711 322)">Ultralight</text>
  <text style="stroke:none;fill:black;font-family:sans-serif;font-size:13;text-anchor:middle;" transform="matrix(1 0 0 1 856.422 322)">Thin</text>
  <text style="stroke:none;fill:black;font-family:sans-serif;font-size:13;text-anchor:middle;" transform="matrix(1 0 0 1 1153.13 322)">Light</text>
  <text style="stroke:none;fill:black;font-family:sans-serif;font-size:13;text-anchor:middle;" transform="matrix(1 0 0 1 1449.84 322)">Regular</text>
  <text style="stroke:none;fill:black;font-family:sans-serif;font-size:13;text-anchor:middle;" transform="matrix(1 0 0 1 1746.56 322)">Medium</text>
  <text style="stroke:none;fill:black;font-family:sans-serif;font-size:13;text-anchor:middle;" transform="matrix(1 0 0 1 2043.27 322)">Semibold</text>
  <text style="stroke:none;fill:black;font-family:sans-serif;font-size:13;text-anchor:middle;" transform="matrix(1 0 0 1 2339.98 322)">Bold</text>
  <text style="stroke:none;fill:black;font-family:sans-serif;font-size:13;text-anchor:middle;" transform="matrix(1 0 0 1 2636.69 322)">Heavy</text>
  <text style="stroke:none;fill:black;font-family:sans-serif;font-size:13;text-anchor:middle;" transform="matrix(1 0 0 1 2933.4 322)">Black</text>
  <line style="fill:none;stroke:black;opacity:1;stroke-width:0.5;" x1="263" x2="3036" y1="1903" y2="1903"/>
  <g transform="matrix(0.2 0 0 0.2 263 1933)">
   <path d="m46.2402 4.15039c21.7773 0 39.4531-17.627 39.4531-39.4043s-17.6758-39.4043-39.4531-39.4043c-21.7285 0-39.4043 17.627-39.4043 39.4043s17.6758 39.4043 39.4043 39.4043Zm0-7.42188c-17.6758 0-31.9336-14.3066-31.9336-31.9824s14.2578-31.9824 31.9336-31.9824 31.9824 14.3066 31.9824 31.9824-14.3066 31.9824-31.9824 31.9824Zm-17.9688-31.9824c0 2.14844 1.51367 3.61328 3.75977 3.61328h10.498v10.5957c0 2.19727 1.46484 3.71094 3.61328 3.71094 2.24609 0 3.71094-1.51367 3.71094-3.71094v-10.5957h10.5957c2.19727 0 3.71094-1.46484 3.71094-3.61328 0-2.19727-1.51367-3.71094-3.71094-3.71094h-10.5957v-10.5469c0-2.24609-1.46484-3.75977-3.71094-3.75977-2.14844 0-3.61328 1.51367-3.61328 3.75977v10.5469h-10.498c-2.24609 0-3.75977 1.51367-3.75977 3.71094Z"/>
  </g>
  <g transform="matrix(0.2 0 0 0.2 281.506 1933)">
   <path d="m58.5449 14.5508c27.4902 0 49.8047-22.3145 49.8047-49.8047s-22.3145-49.8047-49.8047-49.8047-49.8047 22.3145-49.8047 49.8047 22.3145 49.8047 49.8047 49.8047Zm0-8.30078c-22.9492 0-41.5039-18.5547-41.5039-41.5039s18.5547-41.5039 41.5039-41.5039 41.5039 18.5547 41.5039 41.5039-18.5547 41.5039-41.5039 41.5039Zm-22.6562-41.5039c0 2.39258 1.66016 4.00391 4.15039 4.00391h14.3555v14.4043c0 2.44141 1.66016 4.15039 4.05273 4.15039 2.44141 0 4.15039-1.66016 4.15039-4.15039v-14.4043h14.4043c2.44141 0 4.15039-1.61133 4.15039-4.00391 0-2.44141-1.70898-4.15039-4.15039-4.15039h-14.4043v-14.3555c0-2.49023-1.70898-4.19922-4.15039-4.19922-2.39258 0-4.05273 1.70898-4.05273 4.19922v14.3555h-14.3555c-2.49023 0-4.15039 1.70898-4.15039 4.15039Z"/>
  </g>
  <g transform="matrix(0.2 0 0 0.2 304.924 1933)">
   <path d="m74.8535 28.3203c35.1074 0 63.623-28.4668 63.623-63.5742s-28.5156-63.623-63.623-63.623-63.5742 28.5156-63.5742 63.623 28.4668 63.5742 63.5742 63.5742Zm0-9.08203c-30.127 0-54.4922-24.3652-54.4922-54.4922s24.3652-54.4922 54.4922-54.4922 54.4922 24.3652 54.4922 54.4922-24.3652 54.4922-54.4922 54.4922Zm-28.8574-54.4922c0 2.58789 1.85547 4.39453 4.58984 4.39453h19.7266v19.7754c0 2.68555 1.85547 4.58984 4.44336 4.58984 2.68555 0 4.54102-1.85547 4.54102-4.58984v-19.7754h19.7754c2.68555 0 4.58984-1.80664 4.58984-4.39453 0-2.73438-1.85547-4.58984-4.58984-4.58984h-19.7754v-19.7266c0-2.73438-1.85547-4.63867-4.54102-4.63867-2.58789 0-4.44336 1.9043-4.44336 4.63867v19.7266h-19.7266c-2.73438 0-4.58984 1.85547-4.58984 4.58984Z"/>
  </g>
  <text style="stroke:none;fill:black;font-family:sans-serif;font-size:13;font-weight:bold;" transform="matrix(1 0 0 1 263 1953)">Design Variations</text>
  <text style="stroke:none;fill:black;font-family:sans-serif;font-size:13;" transform="matrix(1 0 0 1 263 1971)">Symbols are supported in up to nine weights and three scales.</text>
  <text style="stroke:none;fill:black;font-family:sans-serif;font-size:13;" transform="matrix(1 0 0 1 263 1989)">For optimal layout with text and other symbols, vertically align</text>
  <text style="stroke:none;fill:black;font-family:sans-serif;font-size:13;" transform="matrix(1 0 0 1 263 2007)">symbols with the adjacent text.</text>
  <line style="fill:none;stroke:#00AEEF;stroke-width:0.5;opacity:1.0;" x1="776" x2="776" y1="1919" y2="1933"/>
  <g transform="matrix(0.2 0 0 0.2 776 1933)">
   <path d="m16.5527 0.78125c2.58789 0 3.85742-0.976562 4.78516-3.71094l6.29883-17.2363h28.8086l6.29883 17.2363c0.927734 2.73438 2.19727 3.71094 4.73633 3.71094 2.58789 0 4.24805-1.5625 4.24805-4.00391 0-0.830078-0.146484-1.61133-0.537109-2.63672l-22.9004-60.9863c-1.12305-2.97852-3.125-4.49219-6.25-4.49219-3.02734 0-5.07812 1.46484-6.15234 4.44336l-22.9004 61.084c-0.390625 1.02539-0.537109 1.80664-0.537109 2.63672 0 2.44141 1.5625 3.95508 4.10156 3.95508Zm13.4766-28.3691 11.8652-32.8613h0.244141l11.8652 32.8613Z"/>
  </g>
  <line style="fill:none;stroke:#00AEEF;stroke-width:0.5;opacity:1.0;" x1="792.836" x2="792.836" y1="1919" y2="1933"/>
  <text style="stroke:none;fill:black;font-family:sans-serif;font-size:13;font-weight:bold;" transform="matrix(1 0 0 1 776 1953)">Margins</text>
  <text style="stroke:none;fill:black;font-family:sans-serif;font-size:13;" transform="matrix(1 0 0 1 776 1971)">Leading and trailing margins on the left and right side of each symbol</text>
  <text style="stroke:none;fill:black;font-family:sans-serif;font-size:13;" transform="matrix(1 0 0 1 776 1989)">can be adjusted by modifying the x-location of the margin guidelines.</text>
  <text style="stroke:none;fill:black;font-family:sans-serif;font-size:13;" transform="matrix(1 0 0 1 776 2007)">Modifications are automatically applied proportionally to all</text>
  <text style="stroke:none;fill:black;font-family:sans-serif;font-size:13;" transform="matrix(1 0 0 1 776 2025)">scales and weights.</text>
  <g transform="matrix(0.2 0 0 0.2 1289 1933)">
   <path d="m14.209 9.32617 8.49609 8.54492c4.29688 4.3457 9.22852 4.05273 13.8672-1.07422l53.4668-58.9355-4.83398-4.88281-53.0762 58.3984c-1.75781 2.00195-3.41797 2.49023-5.76172 0.146484l-5.85938-5.81055c-2.34375-2.29492-1.80664-4.00391 0.195312-5.81055l57.373-54.0039-4.88281-4.83398-57.959 54.4434c-4.93164 4.58984-5.32227 9.47266-1.02539 13.8184Zm32.0801-90.9668c-2.09961 2.05078-2.24609 4.93164-1.07422 6.88477 1.17188 1.80664 3.4668 2.97852 6.68945 2.14844 7.32422-1.70898 14.9414-2.00195 22.0703 2.68555l-2.92969 7.27539c-1.70898 4.15039-0.830078 7.08008 1.85547 9.81445l11.4746 11.5723c2.44141 2.44141 4.49219 2.53906 7.32422 2.05078l5.32227-0.976562 3.32031 3.36914-0.195312 2.7832c-0.195312 2.49023 0.439453 4.39453 2.88086 6.78711l3.80859 3.71094c2.39258 2.39258 5.46875 2.53906 7.8125 0.195312l14.5508-14.5996c2.34375-2.34375 2.24609-5.32227-0.146484-7.71484l-3.85742-3.80859c-2.39258-2.39258-4.24805-3.17383-6.64062-2.97852l-2.88086 0.244141-3.22266-3.17383 1.2207-5.61523c0.634766-2.83203-0.146484-5.0293-3.07617-7.95898l-10.9863-10.9375c-16.6992-16.6016-38.8672-16.2109-53.3203-1.75781Zm7.4707 1.85547c12.1582-8.88672 28.6133-7.37305 39.7461 3.75977l12.1582 12.0605c1.17188 1.17188 1.36719 2.09961 1.02539 3.80859l-1.61133 7.42188 7.51953 7.42188 4.93164-0.292969c1.26953-0.0488281 1.66016 0.0488281 2.63672 1.02539l2.88086 2.88086-12.207 12.207-2.88086-2.88086c-0.976562-0.976562-1.12305-1.36719-1.07422-2.68555l0.341797-4.88281-7.4707-7.42188-7.61719 1.26953c-1.61133 0.341797-2.34375 0.195312-3.56445-0.976562l-10.0098-10.0098c-1.26953-1.17188-1.41602-2.00195-0.634766-3.85742l4.39453-10.4492c-7.8125-7.27539-17.9688-10.4004-28.125-7.42188-0.78125 0.195312-1.07422-0.439453-0.439453-0.976562Z"/>
  </g>
  <text style="stroke:none;fill:black;font-family:sans-serif;font-size:13;font-weight:bold;" transform="matrix(1 0 0 1 1289 1953)">Exporting</text>
  <text style="stroke:none;fill:black;font-family:sans-serif;font-size:13;" transform="matrix(1 0 0 1 1289 1971)">Symbols should be outlined when exporting to ensure the</text>
  <text style="stroke:none;fill:black;font-family:sans-serif;font-size:13;" transform="matrix(1 0 0 1 1289 1989)">design is preserved when submitting to Xcode.</text>
  <text id="template-version" style="stroke:none;fill:black;font-family:sans-serif;font-size:13;text-anchor:end;" transform="matrix(1 0 0 1 3036 1933)">Template v.5.0</text>
  <text style="stroke:none;fill:black;font-family:sans-serif;font-size:13;text-anchor:end;" transform="matrix(1 0 0 1 3036 1951)">Requires Xcode 15 or greater</text>
  <text id="descriptive-name" style="stroke:none;fill:black;font-family:sans-serif;font-size:13;text-anchor:end;" transform="matrix(1 0 0 1 3036 1969)">Generated from CBZ</text>
  <text style="stroke:none;fill:black;font-family:sans-serif;font-size:13;text-anchor:end;" transform="matrix(1 0 0 1 3036 1987)">Typeset at 100.0 points</text>
  <text style="stroke:none;fill:black;font-family:sans-serif;font-size:13;" transform="matrix(1 0 0 1 263 726)">Small</text>
  <text style="stroke:none;fill:black;font-family:sans-serif;font-size:13;" transform="matrix(1 0 0 1 263 1156)">Medium</text>
  <text style="stroke:none;fill:black;font-family:sans-serif;font-size:13;" transform="matrix(1 0 0 1 263 1586)">Large</text>
 </g>
 <g id="Guides">
  <g id="H-reference" style="fill:#27AAE1;stroke:none;" transform="matrix(1 0 0 1 339 696)">
   <path d="M0.993654 0L3.63775 0L29.3281-67.1323L30.0303-67.1323L30.0303-70.459L28.1226-70.459ZM11.6885-24.4799L46.9815-24.4799L46.2315-26.7285L12.4385-26.7285ZM55.1196 0L57.7637 0L30.6382-70.459L29.4326-70.459L29.4326-67.1323Z"/>
  </g>
  <line id="Baseline-S" style="fill:none;stroke:#27AAE1;opacity:1;stroke-width:0.5;" x1="263" x2="3036" y1="696" y2="696"/>
  <line id="Capline-S" style="fill:none;stroke:#27AAE1;opacity:1;stroke-width:0.5;" x1="263" x2="3036" y1="625.541" y2="625.541"/>
  <g id="H-reference" style="fill:#27AAE1;stroke:none;" transform="matrix(1 0 0 1 339 1126)">
   <path d="M0.993654 0L3.63775 0L29.3281-67.1323L30.0303-67.1323L30.0303-70.459L28.1226-70.459ZM11.6885-24.4799L46.9815-24.4799L46.2315-26.7285L12.4385-26.7285ZM55.1196 0L57.7637 0L30.6382-70.459L29.4326-70.459L29.4326-67.1323Z"/>
  </g>
  <line id="Baseline-M" style="fill:none;stroke:#27AAE1;opacity:1;stroke-width:0.5;" x1="263" x2="3036" y1="1126" y2="1126"/>
  <line id="Capline-M" style="fill:none;stroke:#27AAE1;opacity:1;stroke-width:0.5;" x1="263" x2="3036" y1="1055.54" y2="1055.54"/>
  <g id="H-reference" style="fill:#27AAE1;stroke:none;" transform="matrix(1 0 0 1 339 1556)">
   <path d="M0.993654 0L3.63775 0L29.3281-67.1323L30.0303-67.1323L30.0303-70.459L28.1226-70.459ZM11.6885-24.4799L46.9815-24.4799L46.2315-26.7285L12.4385-26.7285ZM55.1196 0L57.7637 0L30.6382-70.459L29.4326-70.459L29.4326-67.1323Z"/>
  </g>
  <line id="Baseline-L" style="fill:none;stroke:#27AAE1;opacity:1;stroke-width:0.5;" x1="263" x2="3036" y1="1556" y2="1556"/>
  <line id="Capline-L" style="fill:none;stroke:#27AAE1;opacity:1;stroke-width:0.5;" x1="263" x2="3036" y1="1485.54" y2="1485.54"/>
  <line id="right-margin-Black-S" style="fill:none;stroke:#00AEEF;stroke-width:0.5;opacity:1.0;" x1="2979.1" x2="2979.1" y1="600.785" y2="720.121"/>
  <line id="left-margin-Black-S" style="fill:none;stroke:#00AEEF;stroke-width:0.5;opacity:1.0;" x1="2887.7" x2="2887.7" y1="600.785" y2="720.121"/>
  <line id="right-margin-Regular-S" style="fill:none;stroke:#00AEEF;stroke-width:0.5;opacity:1.0;" x1="1492.13" x2="1492.13" y1="600.785" y2="720.121"/>
  <line id="left-margin-Regular-S" style="fill:none;stroke:#00AEEF;stroke-width:0.5;opacity:1.0;" x1="1407.56" x2="1407.56" y1="600.785" y2="720.121"/>
  <line id="right-margin-Ultralight-S" style="fill:none;stroke:#00AEEF;stroke-width:0.5;opacity:1.0;" x1="600.134" x2="600.134" y1="600.785" y2="720.121"/>
  <line id="left-margin-Ultralight-S" style="fill:none;stroke:#00AEEF;stroke-width:0.5;opacity:1.0;" x1="519.288" x2="519.288" y1="600.785" y2="720.121"/>
 </g>
 <g id="Symbols">
  <g id="Black-S" transform="matrix(1 0 0 1 2887.7 696)">
   <path class="monochrome-0 multicolor-0:tintColor hierarchical-0:primary SFSymbolsPreviewWireframe" d="M18.3-75L18.3 7L75.3 7L75.3-75L18.3-75ZM17.3-71L17.3-66L76.3-66L76.3-71L17.3-71ZM18.3-75L18.3-69L75.3-69L75.3-75L18.3-75ZM77.3-78.5L16.3-78.5C15.47-78.5 14.8-77.828 14.8-77L14.8 9C14.8 9.828 15.47 10.5 16.3 10.5L77.3 10.5C78.13 10.5 78.8 9.828 78.8 9L78.8-77C78.8-77.828 78.13-78.5 77.3-78.5ZM16.3-79C15.2-79 14.3-78.105 14.3-77L14.3 9C14.3 10.105 15.2 11 16.3 11L77.3 11C78.4 11 79.3 10.105 79.3 9L79.3-77C79.3-78.105 78.4-79 77.3-79L16.3-79Z"/>
   <path class="monochrome-1 multicolor-1:tintColor hierarchical-1:secondary SFSymbolsPreviewWireframe" d="M74.78-74.488L18.82-74.488L18.82 6.487L74.78 6.487L74.78-74.488Z"/>
   <path class="monochrome-2 multicolor-2:tintColor hierarchical-2:primary SFSymbolsPreviewWireframe" d="M75.76-70.503L17.84-70.503L17.84-66.497L75.76-66.497L75.76-70.503Z"/>
   <path class="monochrome-3 multicolor-3:tintColor hierarchical-3:tertiary SFSymbolsPreviewWireframe" d="M74.78-74.5L18.82-74.5L18.82-69.5L74.78-69.5L74.78-74.5Z"/>
   <path class="monochrome-4 multicolor-4:tintColor hierarchical-4:primary SFSymbolsPreviewWireframe" d="M55.59-2C55.17-2 54.85-2.113 54.61-2.34C54.37-2.567 54.25-2.867 54.25-3.24C54.25-3.587 54.34-3.873 54.53-4.1L63.29-14.26L63.09-14.42L62.25-13.5L56.81-13.5C56.13-13.5 55.61-13.713 55.25-14.14C54.9-14.567 54.73-15.187 54.73-16L65.47-16C65.89-16 66.22-15.893 66.45-15.68C66.69-15.467 66.81-15.16 66.81-14.76C66.81-14.413 66.71-14.127 66.53-13.9L57.87-3.74L58.07-3.58L58.89-4.5L64.79-4.5C65.45-4.5 65.96-4.287 66.31-3.86C66.67-3.433 66.85-2.813 66.85-2L55.59-2ZM42.59-2C42.19-2 41.84-2.127 41.55-2.38C41.26-2.647 41.11-2.967 41.11-3.34L41.11-14.66C41.11-15.033 41.25-15.347 41.53-15.6C41.82-15.867 42.18-16 42.59-16L47.89-16C49.22-16 50.28-15.64 51.07-14.92C51.87-14.2 52.27-13.233 52.27-12.02C52.27-11.473 52.12-10.947 51.81-10.44C51.52-9.947 51.12-9.553 50.63-9.26L50.63-9.18C51.31-8.94 51.85-8.547 52.25-8C52.65-7.453 52.85-6.847 52.85-6.18C52.85-5.367 52.66-4.64 52.27-4C51.88-3.373 51.34-2.88 50.65-2.52C49.96-2.173 49.16-2 48.27-2L42.59-2ZM47.85-10.22C48.26-10.22 48.61-10.38 48.89-10.7C49.18-11.033 49.33-11.433 49.33-11.9C49.33-12.407 49.2-12.8 48.93-13.08C48.66-13.373 48.3-13.52 47.85-13.52L43.97-13.52L43.97-10.22L47.85-10.22ZM48.25-4.48C48.76-4.48 49.16-4.627 49.45-4.92C49.76-5.227 49.91-5.633 49.91-6.14C49.91-6.66 49.76-7.06 49.47-7.34C49.18-7.633 48.77-7.78 48.25-7.78L43.97-7.78L43.97-4.48L48.25-4.48ZM33.22-1.82C32.02-1.82 30.95-2.053 30-2.52C29.05-2.987 28.31-3.633 27.78-4.46C27.26-5.3 27-6.253 27-7.32L27-10.72C27-11.787 27.25-12.733 27.76-13.56C28.28-14.387 29-15.027 29.92-15.48C30.85-15.947 31.91-16.18 33.1-16.18C34.29-16.18 35.35-16 36.28-15.64C37.21-15.293 37.93-14.8 38.44-14.16C38.96-13.52 39.22-12.793 39.22-11.98C39.22-11.447 39.05-11.027 38.7-10.72C38.35-10.427 37.88-10.28 37.28-10.28C36.93-10.28 36.59-10.327 36.26-10.42C36.3-10.7 36.32-11.04 36.32-11.44C36.32-12.08 36.02-12.6 35.42-13C34.82-13.413 34.05-13.62 33.1-13.62C32.17-13.62 31.41-13.347 30.82-12.8C30.23-12.267 29.94-11.573 29.94-10.72L29.94-7.32C29.94-6.453 30.24-5.747 30.84-5.2C31.45-4.653 32.25-4.38 33.22-4.38C34.17-4.38 34.93-4.58 35.52-4.98C36.12-5.38 36.42-5.9 36.42-6.54C36.42-6.98 36.4-7.3 36.36-7.5C36.72-7.58 37.05-7.62 37.34-7.62C37.94-7.62 38.42-7.467 38.78-7.16C39.14-6.853 39.32-6.433 39.32-5.9C39.32-5.113 39.06-4.407 38.54-3.78C38.03-3.167 37.31-2.687 36.38-2.34C35.46-1.993 34.41-1.82 33.22-1.82Z"/>
   <path class="monochrome-0 monochrome-5 multicolor-0:tintColor multicolor-5:tintColor hierarchical-0:primary hierarchical-5:tertiary SFSymbolsPreviewWireframe" d="M39-57.75L27.6-57.75C27.57-57.75 27.55-57.728 27.55-57.7L27.55-57.3C27.55-57.272 27.57-57.25 27.6-57.25L39-57.25C39.03-57.25 39.05-57.272 39.05-57.3L39.05-57.7C39.05-57.728 39.03-57.75 39-57.75Z"/>
   <path class="monochrome-5 multicolor-5:tintColor hierarchical-5:tertiary SFSymbolsPreviewWireframe" d="M27.6-58C27.43-58 27.3-57.866 27.3-57.7L27.3-57.3C27.3-57.134 27.43-57 27.6-57L39-57C39.17-57 39.3-57.134 39.3-57.3L39.3-57.7C39.3-57.866 39.17-58 39-58L27.6-58Z"/>
   <path class="monochrome-0 monochrome-5 multicolor-0:tintColor multicolor-5:tintColor hierarchical-0:primary hierarchical-5:tertiary SFSymbolsPreviewWireframe" d="M56-54.75L31.6-54.75C31.57-54.75 31.55-54.728 31.55-54.7L31.55-54.3C31.55-54.272 31.57-54.25 31.6-54.25L56-54.25C56.03-54.25 56.05-54.272 56.05-54.3L56.05-54.7C56.05-54.728 56.03-54.75 56-54.75ZM31.6-55C31.43-55 31.3-54.866 31.3-54.7L31.3-54.3C31.3-54.134 31.43-54 31.6-54L56-54C56.17-54 56.3-54.134 56.3-54.3L56.3-54.7C56.3-54.866 56.17-55 56-55L31.6-55ZM54-51.75L34.6-51.75C34.57-51.75 34.55-51.728 34.55-51.7L34.55-51.3C34.55-51.272 34.57-51.25 34.6-51.25L54-51.25C54.03-51.25 54.05-51.272 54.05-51.3L54.05-51.7C54.05-51.728 54.03-51.75 54-51.75ZM34.6-52C34.43-52 34.3-51.866 34.3-51.7L34.3-51.3C34.3-51.134 34.43-51 34.6-51L54-51C54.17-51 54.3-51.134 54.3-51.3L54.3-51.7C54.3-51.866 54.17-52 54-52L34.6-52ZM47-48.75L27.6-48.75C27.57-48.75 27.55-48.728 27.55-48.7L27.55-48.3C27.55-48.272 27.57-48.25 27.6-48.25L47-48.25C47.03-48.25 47.05-48.272 47.05-48.3L47.05-48.7C47.05-48.728 47.03-48.75 47-48.75ZM27.6-49C27.43-49 27.3-48.866 27.3-48.7L27.3-48.3C27.3-48.134 27.43-48 27.6-48L47-48C47.17-48 47.3-48.134 47.3-48.3L47.3-48.7C47.3-48.866 47.17-49 47-49L27.6-49ZM58-45.75L27.6-45.75C27.57-45.75 27.55-45.728 27.55-45.7L27.55-45.3C27.55-45.272 27.57-45.25 27.6-45.25L58-45.25C58.03-45.25 58.05-45.272 58.05-45.3L58.05-45.7C58.05-45.728 58.03-45.75 58-45.75ZM27.6-46C27.43-46 27.3-45.866 27.3-45.7L27.3-45.3C27.3-45.134 27.43-45 27.6-45L58-45C58.17-45 58.3-45.134 58.3-45.3L58.3-45.7C58.3-45.866 58.17-46 58-46L27.6-46ZM67-45.75L59.6-45.75C59.57-45.75 59.55-45.728 59.55-45.7L59.55-45.3C59.55-45.272 59.57-45.25 59.6-45.25L67-45.25C67.03-45.25 67.05-45.272 67.05-45.3L67.05-45.7C67.05-45.728 67.03-45.75 67-45.75ZM59.6-46C59.43-46 59.3-45.866 59.3-45.7L59.3-45.3C59.3-45.134 59.43-45 59.6-45L67-45C67.17-45 67.3-45.134 67.3-45.3L67.3-45.7C67.3-45.866 67.17-46 67-46L59.6-46ZM50-48.75L48.6-48.75C48.57-48.75 48.55-48.728 48.55-48.7L48.55-48.3C48.55-48.272 48.57-48.25 48.6-48.25L50-48.25C50.03-48.25 50.05-48.272 50.05-48.3L50.05-48.7C50.05-48.728 50.03-48.75 50-48.75ZM48.6-49C48.43-49 48.3-48.866 48.3-48.7L48.3-48.3C48.3-48.134 48.43-48 48.6-48L50-48C50.17-48 50.3-48.134 50.3-48.3L50.3-48.7C50.3-48.866 50.17-49 50-49L48.6-49ZM67-48.75L51.6-48.75C51.57-48.75 51.55-48.728 51.55-48.7L51.55-48.3C51.55-48.272 51.57-48.25 51.6-48.25L67-48.25C67.03-48.25 67.05-48.272 67.05-48.3L67.05-48.7C67.05-48.728 67.03-48.75 67-48.75ZM51.6-49C51.43-49 51.3-48.866 51.3-48.7L51.3-48.3C51.3-48.134 51.43-48 51.6-48L67-48C67.17-48 67.3-48.134 67.3-48.3L67.3-48.7C67.3-48.866 67.17-49 67-49L51.6-49ZM53-57.75L44.6-57.75C44.57-57.75 44.55-57.728 44.55-57.7L44.55-57.3C44.55-57.272 44.57-57.25 44.6-57.25L53-57.25C53.03-57.25 53.05-57.272 53.05-57.3L53.05-57.7C53.05-57.728 53.03-57.75 53-57.75ZM44.6-58C44.43-58 44.3-57.866 44.3-57.7L44.3-57.3C44.3-57.134 44.43-57 44.6-57L53-57C53.17-57 53.3-57.134 53.3-57.3L53.3-57.7C53.3-57.866 53.17-58 53-58L44.6-58ZM64-51.75L55.6-51.75C55.57-51.75 55.55-51.728 55.55-51.7L55.55-51.3C55.55-51.272 55.57-51.25 55.6-51.25L64-51.25C64.03-51.25 64.05-51.272 64.05-51.3L64.05-51.7C64.05-51.728 64.03-51.75 64-51.75ZM55.6-52C55.43-52 55.3-51.866 55.3-51.7L55.3-51.3C55.3-51.134 55.43-51 55.6-51L64-51C64.17-51 64.3-51.134 64.3-51.3L64.3-51.7C64.3-51.866 64.17-52 64-52L55.6-52ZM43-57.75L40.6-57.75C40.57-57.75 40.55-57.728 40.55-57.7L40.55-57.3C40.55-57.272 40.57-57.25 40.6-57.25L43-57.25C43.03-57.25 43.05-57.272 43.05-57.3L43.05-57.7C43.05-57.728 43.03-57.75 43-57.75ZM40.6-58C40.43-58 40.3-57.866 40.3-57.7L40.3-57.3C40.3-57.134 40.43-57 40.6-57L43-57C43.17-57 43.3-57.134 43.3-57.3L43.3-57.7C43.3-57.866 43.17-58 43-58L40.6-58ZM30-54.75L27.6-54.75C27.57-54.75 27.55-54.728 27.55-54.7L27.55-54.3C27.55-54.272 27.57-54.25 27.6-54.25L30-54.25C30.03-54.25 30.05-54.272 30.05-54.3L30.05-54.7C30.05-54.728 30.03-54.75 30-54.75ZM27.6-55C27.43-55 27.3-54.866 27.3-54.7L27.3-54.3C27.3-54.134 27.43-54 27.6-54L30-54C30.17-54 30.3-54.134 30.3-54.3L30.3-54.7C30.3-54.866 30.17-55 30-55L27.6-55ZM33-51.75L27.6-51.75C27.57-51.75 27.55-51.728 27.55-51.7L27.55-51.3C27.55-51.272 27.57-51.25 27.6-51.25L33-51.25C33.03-51.25 33.05-51.272 33.05-51.3L33.05-51.7C33.05-51.728 33.03-51.75 33-51.75ZM27.6-52C27.43-52 27.3-51.866 27.3-51.7L27.3-51.3C27.3-51.134 27.43-51 27.6-51L33-51C33.17-51 33.3-51.134 33.3-51.3L33.3-51.7C33.3-51.866 33.17-52 33-52L27.6-52Z"/>
  </g>
  <g id="Regular-S" transform="matrix(1 0 0 1 1407.56 696)">
   <path class="monochrome-0 multicolor-0:tintColor hierarchical-0:primary SFSymbolsPreviewWireframe" d="M14.44-77L14.44 5L71.44 5L71.44-77L14.44-77ZM13.44-73L13.44-68L72.44-68L72.44-73L13.44-73ZM14.44-77L14.44-71L71.44-71L71.44-77L14.44-77ZM73.44-80.5L12.44-80.5C11.61-80.5 10.94-79.828 10.94-79L10.94 7C10.94 7.828 11.61 8.5 12.44 8.5L73.44 8.5C74.27 8.5 74.94 7.828 74.94 7L74.94-79C74.94-79.828 74.27-80.5 73.44-80.5ZM12.44-81C11.34-81 10.44-80.105 10.44-79L10.44 7C10.44 8.105 11.34 9 12.44 9L73.44 9C74.54 9 75.44 8.105 75.44 7L75.44-79C75.44-80.105 74.54-81 73.44-81L12.44-81Z"/>
   <path class="monochrome-1 multicolor-1:tintColor hierarchical-1:secondary SFSymbolsPreviewWireframe" d="M70.92-76.488L14.96-76.488L14.96 4.487L70.92 4.487L70.92-76.488Z"/>
   <path class="monochrome-2 multicolor-2:tintColor hierarchical-2:primary SFSymbolsPreviewWireframe" d="M71.9-72.503L13.98-72.503L13.98-68.497L71.9-68.497L71.9-72.503Z"/>
   <path class="monochrome-3 multicolor-3:tintColor hierarchical-3:tertiary SFSymbolsPreviewWireframe" d="M70.92-76.5L14.96-76.5L14.96-71.5L70.92-71.5L70.92-76.5Z"/>
   <path class="monochrome-4 multicolor-4:tintColor hierarchical-4:primary SFSymbolsPreviewWireframe" d="M51.73-4C51.31-4 50.99-4.113 50.75-4.34C50.51-4.567 50.39-4.867 50.39-5.24C50.39-5.587 50.48-5.873 50.67-6.1L59.43-16.26L59.23-16.42L58.39-15.5L52.95-15.5C52.27-15.5 51.75-15.713 51.39-16.14C51.04-16.567 50.87-17.187 50.87-18L61.61-18C62.03-18 62.36-17.893 62.59-17.68C62.83-17.467 62.95-17.16 62.95-16.76C62.95-16.413 62.85-16.127 62.67-15.9L54.01-5.74L54.21-5.58L55.03-6.5L60.93-6.5C61.59-6.5 62.1-6.287 62.45-5.86C62.81-5.433 62.99-4.813 62.99-4L51.73-4ZM38.73-4C38.33-4 37.98-4.127 37.69-4.38C37.4-4.647 37.25-4.967 37.25-5.34L37.25-16.66C37.25-17.033 37.39-17.347 37.67-17.6C37.96-17.867 38.32-18 38.73-18L44.03-18C45.36-18 46.42-17.64 47.21-16.92C48.01-16.2 48.41-15.233 48.41-14.02C48.41-13.473 48.26-12.947 47.95-12.44C47.66-11.947 47.26-11.553 46.77-11.26L46.77-11.18C47.45-10.94 47.99-10.547 48.39-10C48.79-9.453 48.99-8.847 48.99-8.18C48.99-7.367 48.8-6.64 48.41-6C48.02-5.373 47.48-4.88 46.79-4.52C46.1-4.173 45.3-4 44.41-4L38.73-4ZM43.99-12.22C44.4-12.22 44.75-12.38 45.03-12.7C45.32-13.033 45.47-13.433 45.47-13.9C45.47-14.407 45.34-14.8 45.07-15.08C44.8-15.373 44.44-15.52 43.99-15.52L40.11-15.52L40.11-12.22L43.99-12.22ZM44.39-6.48C44.9-6.48 45.3-6.627 45.59-6.92C45.9-7.227 46.05-7.633 46.05-8.14C46.05-8.66 45.9-9.06 45.61-9.34C45.32-9.633 44.91-9.78 44.39-9.78L40.11-9.78L40.11-6.48L44.39-6.48ZM29.36-3.82C28.16-3.82 27.09-4.053 26.14-4.52C25.19-4.987 24.45-5.633 23.92-6.46C23.4-7.3 23.14-8.253 23.14-9.32L23.14-12.72C23.14-13.787 23.39-14.733 23.9-15.56C24.42-16.387 25.14-17.027 26.06-17.48C26.99-17.947 28.05-18.18 29.24-18.18C30.43-18.18 31.49-18 32.42-17.64C33.35-17.293 34.07-16.8 34.58-16.16C35.1-15.52 35.36-14.793 35.36-13.98C35.36-13.447 35.19-13.027 34.84-12.72C34.49-12.427 34.02-12.28 33.42-12.28C33.07-12.28 32.73-12.327 32.4-12.42C32.44-12.7 32.46-13.04 32.46-13.44C32.46-14.08 32.16-14.6 31.56-15C30.96-15.413 30.19-15.62 29.24-15.62C28.31-15.62 27.55-15.347 26.96-14.8C26.37-14.267 26.08-13.573 26.08-12.72L26.08-9.32C26.08-8.453 26.38-7.747 26.98-7.2C27.59-6.653 28.39-6.38 29.36-6.38C30.31-6.38 31.07-6.58 31.66-6.98C32.26-7.38 32.56-7.9 32.56-8.54C32.56-8.98 32.54-9.3 32.5-9.5C32.86-9.58 33.19-9.62 33.48-9.62C34.08-9.62 34.56-9.467 34.92-9.16C35.28-8.853 35.46-8.433 35.46-7.9C35.46-7.113 35.2-6.407 34.68-5.78C34.17-5.167 33.45-4.687 32.52-4.34C31.6-3.993 30.55-3.82 29.36-3.82Z"/>
   <path class="monochrome-0 monochrome-5 multicolor-0:tintColor multicolor-5:tintColor hierarchical-0:primary hierarchical-5:tertiary SFSymbolsPreviewWireframe" d="M35.14-59.75L23.74-59.75C23.71-59.75 23.69-59.728 23.69-59.7L23.69-59.3C23.69-59.272 23.71-59.25 23.74-59.25L35.14-59.25C35.17-59.25 35.19-59.272 35.19-59.3L35.19-59.7C35.19-59.728 35.17-59.75 35.14-59.75Z"/>
   <path class="monochrome-5 multicolor-5:tintColor hierarchical-5:tertiary SFSymbolsPreviewWireframe" d="M23.74-60C23.57-60 23.44-59.866 23.44-59.7L23.44-59.3C23.44-59.134 23.57-59 23.74-59L35.14-59C35.31-59 35.44-59.134 35.44-59.3L35.44-59.7C35.44-59.866 35.31-60 35.14-60L23.74-60Z"/>
   <path class="monochrome-0 monochrome-5 multicolor-0:tintColor multicolor-5:tintColor hierarchical-0:primary hierarchical-5:tertiary SFSymbolsPreviewWireframe" d="M52.14-56.75L27.74-56.75C27.71-56.75 27.69-56.728 27.69-56.7L27.69-56.3C27.69-56.272 27.71-56.25 27.74-56.25L52.14-56.25C52.17-56.25 52.19-56.272 52.19-56.3L52.19-56.7C52.19-56.728 52.17-56.75 52.14-56.75ZM27.74-57C27.57-57 27.44-56.866 27.44-56.7L27.44-56.3C27.44-56.134 27.57-56 27.74-56L52.14-56C52.31-56 52.44-56.134 52.44-56.3L52.44-56.7C52.44-56.866 52.31-57 52.14-57L27.74-57ZM50.14-53.75L30.74-53.75C30.71-53.75 30.69-53.728 30.69-53.7L30.69-53.3C30.69-53.272 30.71-53.25 30.74-53.25L50.14-53.25C50.17-53.25 50.19-53.272 50.19-53.3L50.19-53.7C50.19-53.728 50.17-53.75 50.14-53.75ZM30.74-54C30.57-54 30.44-53.866 30.44-53.7L30.44-53.3C30.44-53.134 30.57-53 30.74-53L50.14-53C50.31-53 50.44-53.134 50.44-53.3L50.44-53.7C50.44-53.866 50.31-54 50.14-54L30.74-54ZM43.14-50.75L23.74-50.75C23.71-50.75 23.69-50.728 23.69-50.7L23.69-50.3C23.69-50.272 23.71-50.25 23.74-50.25L43.14-50.25C43.17-50.25 43.19-50.272 43.19-50.3L43.19-50.7C43.19-50.728 43.17-50.75 43.14-50.75ZM23.74-51C23.57-51 23.44-50.866 23.44-50.7L23.44-50.3C23.44-50.134 23.57-50 23.74-50L43.14-50C43.31-50 43.44-50.134 43.44-50.3L43.44-50.7C43.44-50.866 43.31-51 43.14-51L23.74-51ZM54.14-47.75L23.74-47.75C23.71-47.75 23.69-47.728 23.69-47.7L23.69-47.3C23.69-47.272 23.71-47.25 23.74-47.25L54.14-47.25C54.17-47.25 54.19-47.272 54.19-47.3L54.19-47.7C54.19-47.728 54.17-47.75 54.14-47.75ZM23.74-48C23.57-48 23.44-47.866 23.44-47.7L23.44-47.3C23.44-47.134 23.57-47 23.74-47L54.14-47C54.31-47 54.44-47.134 54.44-47.3L54.44-47.7C54.44-47.866 54.31-48 54.14-48L23.74-48ZM63.14-47.75L55.74-47.75C55.71-47.75 55.69-47.728 55.69-47.7L55.69-47.3C55.69-47.272 55.71-47.25 55.74-47.25L63.14-47.25C63.17-47.25 63.19-47.272 63.19-47.3L63.19-47.7C63.19-47.728 63.17-47.75 63.14-47.75ZM55.74-48C55.57-48 55.44-47.866 55.44-47.7L55.44-47.3C55.44-47.134 55.57-47 55.74-47L63.14-47C63.31-47 63.44-47.134 63.44-47.3L63.44-47.7C63.44-47.866 63.31-48 63.14-48L55.74-48ZM46.14-50.75L44.74-50.75C44.71-50.75 44.69-50.728 44.69-50.7L44.69-50.3C44.69-50.272 44.71-50.25 44.74-50.25L46.14-50.25C46.17-50.25 46.19-50.272 46.19-50.3L46.19-50.7C46.19-50.728 46.17-50.75 46.14-50.75ZM44.74-51C44.57-51 44.44-50.866 44.44-50.7L44.44-50.3C44.44-50.134 44.57-50 44.74-50L46.14-50C46.31-50 46.44-50.134 46.44-50.3L46.44-50.7C46.44-50.866 46.31-51 46.14-51L44.74-51ZM63.14-50.75L47.74-50.75C47.71-50.75 47.69-50.728 47.69-50.7L47.69-50.3C47.69-50.272 47.71-50.25 47.74-50.25L63.14-50.25C63.17-50.25 63.19-50.272 63.19-50.3L63.19-50.7C63.19-50.728 63.17-50.75 63.14-50.75ZM47.74-51C47.57-51 47.44-50.866 47.44-50.7L47.44-50.3C47.44-50.134 47.57-50 47.74-50L63.14-50C63.31-50 63.44-50.134 63.44-50.3L63.44-50.7C63.44-50.866 63.31-51 63.14-51L47.74-51ZM49.14-59.75L40.74-59.75C40.71-59.75 40.69-59.728 40.69-59.7L40.69-59.3C40.69-59.272 40.71-59.25 40.74-59.25L49.14-59.25C49.17-59.25 49.19-59.272 49.19-59.3L49.19-59.7C49.19-59.728 49.17-59.75 49.14-59.75ZM40.74-60C40.57-60 40.44-59.866 40.44-59.7L40.44-59.3C40.44-59.134 40.57-59 40.74-59L49.14-59C49.31-59 49.44-59.134 49.44-59.3L49.44-59.7C49.44-59.866 49.31-60 49.14-60L40.74-60ZM60.14-53.75L51.74-53.75C51.71-53.75 51.69-53.728 51.69-53.7L51.69-53.3C51.69-53.272 51.71-53.25 51.74-53.25L60.14-53.25C60.17-53.25 60.19-53.272 60.19-53.3L60.19-53.7C60.19-53.728 60.17-53.75 60.14-53.75ZM51.74-54C51.57-54 51.44-53.866 51.44-53.7L51.44-53.3C51.44-53.134 51.57-53 51.74-53L60.14-53C60.31-53 60.44-53.134 60.44-53.3L60.44-53.7C60.44-53.866 60.31-54 60.14-54L51.74-54ZM39.14-59.75L36.74-59.75C36.71-59.75 36.69-59.728 36.69-59.7L36.69-59.3C36.69-59.272 36.71-59.25 36.74-59.25L39.14-59.25C39.17-59.25 39.19-59.272 39.19-59.3L39.19-59.7C39.19-59.728 39.17-59.75 39.14-59.75ZM36.74-60C36.57-60 36.44-59.866 36.44-59.7L36.44-59.3C36.44-59.134 36.57-59 36.74-59L39.14-59C39.31-59 39.44-59.134 39.44-59.3L39.44-59.7C39.44-59.866 39.31-60 39.14-60L36.74-60ZM26.14-56.75L23.74-56.75C23.71-56.75 23.69-56.728 23.69-56.7L23.69-56.3C23.69-56.272 23.71-56.25 23.74-56.25L26.14-56.25C26.17-56.25 26.19-56.272 26.19-56.3L26.19-56.7C26.19-56.728 26.17-56.75 26.14-56.75ZM23.74-57C23.57-57 23.44-56.866 23.44-56.7L23.44-56.3C23.44-56.134 23.57-56 23.74-56L26.14-56C26.31-56 26.44-56.134 26.44-56.3L26.44-56.7C26.44-56.866 26.31-57 26.14-57L23.74-57ZM29.14-53.75L23.74-53.75C23.71-53.75 23.69-53.728 23.69-53.7L23.69-53.3C23.69-53.272 23.71-53.25 23.74-53.25L29.14-53.25C29.17-53.25 29.19-53.272 29.19-53.3L29.19-53.7C29.19-53.728 29.17-53.75 29.14-53.75ZM23.74-54C23.57-54 23.44-53.866 23.44-53.7L23.44-53.3C23.44-53.134 23.57-53 23.74-53L29.14-53C29.31-53 29.44-53.134 29.44-53.3L29.44-53.7C29.44-53.866 29.31-54 29.14-54L23.74-54Z"/>
  </g>
  <g id="Ultralight-S" transform="matrix(1 0 0 1 519.288 696)">
   <path class="monochrome-0 multicolor-0:tintColor hierarchical-0:primary SFSymbolsPreviewWireframe" d="M11.712-75L11.712 7L68.712 7L68.712-75L11.712-75ZM10.712-71L10.712-66L69.712-66L69.712-71L10.712-71ZM11.712-75L11.712-69L68.712-69L68.712-75L11.712-75ZM70.712-78.5L9.712-78.5C8.884-78.5 8.212-77.828 8.212-77L8.212 9C8.212 9.828 8.884 10.5 9.712 10.5L70.712 10.5C71.54 10.5 72.212 9.828 72.212 9L72.212-77C72.212-77.828 71.54-78.5 70.712-78.5ZM9.712-79C8.607-79 7.712-78.105 7.712-77L7.712 9C7.712 10.105 8.607 11 9.712 11L70.712 11C71.817 11 72.712 10.105 72.712 9L72.712-77C72.712-78.105 71.817-79 70.712-79L9.712-79Z"/>
   <path class="monochrome-1 multicolor-1:tintColor hierarchical-1:secondary SFSymbolsPreviewWireframe" d="M68.194-74.488L12.23-74.488L12.23 6.487L68.194 6.487L68.194-74.488Z"/>
   <path class="monochrome-2 multicolor-2:tintColor hierarchical-2:primary SFSymbolsPreviewWireframe" d="M69.176-70.503L11.248-70.503L11.248-66.497L69.176-66.497L69.176-70.503Z"/>
   <path class="monochrome-3 multicolor-3:tintColor hierarchical-3:tertiary SFSymbolsPreviewWireframe" d="M68.194-74.5L12.23-74.5L12.23-69.5L68.194-69.5L68.194-74.5Z"/>
   <path class="monochrome-4 multicolor-4:tintColor hierarchical-4:primary SFSymbolsPreviewWireframe" d="M48.998-2C48.585-2 48.258-2.113 48.018-2.34C47.778-2.567 47.658-2.867 47.658-3.24C47.658-3.587 47.751-3.873 47.938-4.1L56.698-14.26L56.498-14.42L55.658-13.5L50.218-13.5C49.538-13.5 49.018-13.713 48.658-14.14C48.311-14.567 48.138-15.187 48.138-16L58.878-16C59.305-16 59.631-15.893 59.858-15.68C60.098-15.467 60.218-15.16 60.218-14.76C60.218-14.413 60.125-14.127 59.938-13.9L51.278-3.74L51.478-3.58L52.298-4.5L58.198-4.5C58.865-4.5 59.371-4.287 59.718-3.86C60.078-3.433 60.258-2.813 60.258-2L48.998-2ZM36.003-2C35.603-2 35.256-2.127 34.963-2.38C34.67-2.647 34.523-2.967 34.523-3.34L34.523-14.66C34.523-15.033 34.663-15.347 34.943-15.6C35.236-15.867 35.59-16 36.003-16L41.303-16C42.636-16 43.696-15.64 44.483-14.92C45.283-14.2 45.683-13.233 45.683-12.02C45.683-11.473 45.53-10.947 45.223-10.44C44.93-9.947 44.536-9.553 44.043-9.26L44.043-9.18C44.723-8.94 45.263-8.547 45.663-8C46.063-7.453 46.263-6.847 46.263-6.18C46.263-5.367 46.07-4.64 45.683-4C45.296-3.373 44.756-2.88 44.063-2.52C43.37-2.173 42.576-2 41.683-2L36.003-2ZM41.263-10.22C41.676-10.22 42.023-10.38 42.303-10.7C42.596-11.033 42.743-11.433 42.743-11.9C42.743-12.407 42.61-12.8 42.343-13.08C42.076-13.373 41.716-13.52 41.263-13.52L37.383-13.52L37.383-10.22L41.263-10.22ZM41.663-4.48C42.17-4.48 42.57-4.627 42.863-4.92C43.17-5.227 43.323-5.633 43.323-6.14C43.323-6.66 43.176-7.06 42.883-7.34C42.59-7.633 42.183-7.78 41.663-7.78L37.383-7.78L37.383-4.48L41.663-4.48ZM26.632-1.82C25.432-1.82 24.359-2.053 23.412-2.52C22.465-2.987 21.725-3.633 21.192-4.46C20.672-5.3 20.412-6.253 20.412-7.32L20.412-10.72C20.412-11.787 20.665-12.733 21.172-13.56C21.692-14.387 22.412-15.027 23.332-15.48C24.265-15.947 25.325-16.18 26.512-16.18C27.699-16.18 28.759-16 29.692-15.64C30.625-15.293 31.345-14.8 31.852-14.16C32.372-13.52 32.632-12.793 32.632-11.98C32.632-11.447 32.459-11.027 32.112-10.72C31.765-10.427 31.292-10.28 30.692-10.28C30.345-10.28 30.005-10.327 29.672-10.42C29.712-10.7 29.732-11.04 29.732-11.44C29.732-12.08 29.432-12.6 28.832-13C28.232-13.413 27.459-13.62 26.512-13.62C25.579-13.62 24.819-13.347 24.232-12.8C23.645-12.267 23.352-11.573 23.352-10.72L23.352-7.32C23.352-6.453 23.652-5.747 24.252-5.2C24.865-4.653 25.659-4.38 26.632-4.38C27.579-4.38 28.345-4.58 28.932-4.98C29.532-5.38 29.832-5.9 29.832-6.54C29.832-6.98 29.812-7.3 29.772-7.5C30.132-7.58 30.459-7.62 30.752-7.62C31.352-7.62 31.832-7.467 32.192-7.16C32.552-6.853 32.732-6.433 32.732-5.9C32.732-5.113 32.472-4.407 31.952-3.78C31.445-3.167 30.725-2.687 29.792-2.34C28.872-1.993 27.819-1.82 26.632-1.82Z"/>
   <path class="monochrome-0 monochrome-5 multicolor-0:tintColor multicolor-5:tintColor hierarchical-0:primary hierarchical-5:tertiary SFSymbolsPreviewWireframe" d="M32.412-57.75L21.012-57.75C20.984-57.75 20.962-57.728 20.962-57.7L20.962-57.3C20.962-57.272 20.984-57.25 21.012-57.25L32.412-57.25C32.44-57.25 32.462-57.272 32.462-57.3L32.462-57.7C32.462-57.728 32.44-57.75 32.412-57.75Z"/>
   <path class="monochrome-5 multicolor-5:tintColor hierarchical-5:tertiary SFSymbolsPreviewWireframe" d="M21.012-58C20.846-58 20.712-57.866 20.712-57.7L20.712-57.3C20.712-57.134 20.846-57 21.012-57L32.412-57C32.578-57 32.712-57.134 32.712-57.3L32.712-57.7C32.712-57.866 32.578-58 32.412-58L21.012-58Z"/>
   <path class="monochrome-0 monochrome-5 multicolor-0:tintColor multicolor-5:tintColor hierarchical-0:primary hierarchical-5:tertiary SFSymbolsPreviewWireframe" d="M49.412-54.75L25.012-54.75C24.984-54.75 24.962-54.728 24.962-54.7L24.962-54.3C24.962-54.272 24.984-54.25 25.012-54.25L49.412-54.25C49.44-54.25 49.462-54.272 49.462-54.3L49.462-54.7C49.462-54.728 49.44-54.75 49.412-54.75ZM25.012-55C24.846-55 24.712-54.866 24.712-54.7L24.712-54.3C24.712-54.134 24.846-54 25.012-54L49.412-54C49.578-54 49.712-54.134 49.712-54.3L49.712-54.7C49.712-54.866 49.578-55 49.412-55L25.012-55ZM47.412-51.75L28.012-51.75C27.984-51.75 27.962-51.728 27.962-51.7L27.962-51.3C27.962-51.272 27.984-51.25 28.012-51.25L47.412-51.25C47.44-51.25 47.462-51.272 47.462-51.3L47.462-51.7C47.462-51.728 47.44-51.75 47.412-51.75ZM28.012-52C27.846-52 27.712-51.866 27.712-51.7L27.712-51.3C27.712-51.134 27.846-51 28.012-51L47.412-51C47.578-51 47.712-51.134 47.712-51.3L47.712-51.7C47.712-51.866 47.578-52 47.412-52L28.012-52ZM40.412-48.75L21.012-48.75C20.984-48.75 20.962-48.728 20.962-48.7L20.962-48.3C20.962-48.272 20.984-48.25 21.012-48.25L40.412-48.25C40.44-48.25 40.462-48.272 40.462-48.3L40.462-48.7C40.462-48.728 40.44-48.75 40.412-48.75ZM21.012-49C20.846-49 20.712-48.866 20.712-48.7L20.712-48.3C20.712-48.134 20.846-48 21.012-48L40.412-48C40.578-48 40.712-48.134 40.712-48.3L40.712-48.7C40.712-48.866 40.578-49 40.412-49L21.012-49ZM51.412-45.75L21.012-45.75C20.984-45.75 20.962-45.728 20.962-45.7L20.962-45.3C20.962-45.272 20.984-45.25 21.012-45.25L51.412-45.25C51.44-45.25 51.462-45.272 51.462-45.3L51.462-45.7C51.462-45.728 51.44-45.75 51.412-45.75ZM21.012-46C20.846-46 20.712-45.866 20.712-45.7L20.712-45.3C20.712-45.134 20.846-45 21.012-45L51.412-45C51.578-45 51.712-45.134 51.712-45.3L51.712-45.7C51.712-45.866 51.578-46 51.412-46L21.012-46ZM60.412-45.75L53.012-45.75C52.984-45.75 52.962-45.728 52.962-45.7L52.962-45.3C52.962-45.272 52.984-45.25 53.012-45.25L60.412-45.25C60.44-45.25 60.462-45.272 60.462-45.3L60.462-45.7C60.462-45.728 60.44-45.75 60.412-45.75ZM53.012-46C52.846-46 52.712-45.866 52.712-45.7L52.712-45.3C52.712-45.134 52.846-45 53.012-45L60.412-45C60.578-45 60.712-45.134 60.712-45.3L60.712-45.7C60.712-45.866 60.578-46 60.412-46L53.012-46ZM43.412-48.75L42.012-48.75C41.984-48.75 41.962-48.728 41.962-48.7L41.962-48.3C41.962-48.272 41.984-48.25 42.012-48.25L43.412-48.25C43.44-48.25 43.462-48.272 43.462-48.3L43.462-48.7C43.462-48.728 43.44-48.75 43.412-48.75ZM42.012-49C41.846-49 41.712-48.866 41.712-48.7L41.712-48.3C41.712-48.134 41.846-48 42.012-48L43.412-48C43.578-48 43.712-48.134 43.712-48.3L43.712-48.7C43.712-48.866 43.578-49 43.412-49L42.012-49ZM60.412-48.75L45.012-48.75C44.984-48.75 44.962-48.728 44.962-48.7L44.962-48.3C44.962-48.272 44.984-48.25 45.012-48.25L60.412-48.25C60.44-48.25 60.462-48.272 60.462-48.3L60.462-48.7C60.462-48.728 60.44-48.75 60.412-48.75ZM45.012-49C44.846-49 44.712-48.866 44.712-48.7L44.712-48.3C44.712-48.134 44.846-48 45.012-48L60.412-48C60.578-48 60.712-48.134 60.712-48.3L60.712-48.7C60.712-48.866 60.578-49 60.412-49L45.012-49ZM46.412-57.75L38.012-57.75C37.984-57.75 37.962-57.728 37.962-57.7L37.962-57.3C37.962-57.272 37.984-57.25 38.012-57.25L46.412-57.25C46.44-57.25 46.462-57.272 46.462-57.3L46.462-57.7C46.462-57.728 46.44-57.75 46.412-57.75ZM38.012-58C37.846-58 37.712-57.866 37.712-57.7L37.712-57.3C37.712-57.134 37.846-57 38.012-57L46.412-57C46.578-57 46.712-57.134 46.712-57.3L46.712-57.7C46.712-57.866 46.578-58 46.412-58L38.012-58ZM57.412-51.75L49.012-51.75C48.984-51.75 48.962-51.728 48.962-51.7L48.962-51.3C48.962-51.272 48.984-51.25 49.012-51.25L57.412-51.25C57.44-51.25 57.462-51.272 57.462-51.3L57.462-51.7C57.462-51.728 57.44-51.75 57.412-51.75ZM49.012-52C48.846-52 48.712-51.866 48.712-51.7L48.712-51.3C48.712-51.134 48.846-51 49.012-51L57.412-51C57.578-51 57.712-51.134 57.712-51.3L57.712-51.7C57.712-51.866 57.578-52 57.412-52L49.012-52ZM36.412-57.75L34.012-57.75C33.984-57.75 33.962-57.728 33.962-57.7L33.962-57.3C33.962-57.272 33.984-57.25 34.012-57.25L36.412-57.25C36.44-57.25 36.462-57.272 36.462-57.3L36.462-57.7C36.462-57.728 36.44-57.75 36.412-57.75ZM34.012-58C33.846-58 33.712-57.866 33.712-57.7L33.712-57.3C33.712-57.134 33.846-57 34.012-57L36.412-57C36.578-57 36.712-57.134 36.712-57.3L36.712-57.7C36.712-57.866 36.578-58 36.412-58L34.012-58ZM23.412-54.75L21.012-54.75C20.984-54.75 20.962-54.728 20.962-54.7L20.962-54.3C20.962-54.272 20.984-54.25 21.012-54.25L23.412-54.25C23.44-54.25 23.462-54.272 23.462-54.3L23.462-54.7C23.462-54.728 23.44-54.75 23.412-54.75ZM21.012-55C20.846-55 20.712-54.866 20.712-54.7L20.712-54.3C20.712-54.134 20.846-54 21.012-54L23.412-54C23.578-54 23.712-54.134 23.712-54.3L23.712-54.7C23.712-54.866 23.578-55 23.412-55L21.012-55ZM26.412-51.75L21.012-51.75C20.984-51.75 20.962-51.728 20.962-51.7L20.962-51.3C20.962-51.272 20.984-51.25 21.012-51.25L26.412-51.25C26.44-51.25 26.462-51.272 26.462-51.3L26.462-51.7C26.462-51.728 26.44-51.75 26.412-51.75ZM21.012-52C20.846-52 20.712-51.866 20.712-51.7L20.712-51.3C20.712-51.134 20.846-51 21.012-51L26.412-51C26.578-51 26.712-51.134 26.712-51.3L26.712-51.7C26.712-51.866 26.578-52 26.412-52L21.012-52Z"/>
  </g>
 </g>
</svg>
