<?xml version="1.0" encoding="UTF-8"?>
<!--Generator: Apple Native CoreSVG 326-->
<!DOCTYPE svg
PUBLIC "-//W3C//DTD SVG 1.1//EN"
       "http://www.w3.org/Graphics/SVG/1.1/DTD/svg11.dtd">
<svg version="1.1" xmlns="http://www.w3.org/2000/svg" xmlns:xlink="http://www.w3.org/1999/xlink" viewBox="0 0 3300 2200">
 <!--glyph: "", point size: 100.0, font version: "20.0d10e1", template writer version: "138.0.0"-->
 <style>.monochrome-0 {-sfsymbols-motion-group:1;-sfsymbols-layer-tags:27d058ca156466c0 books.vertical}
.monochrome-1 {-sfsymbols-motion-group:0;-sfsymbols-layer-tags:27d058ca156466c0}

.multicolor-0:tintColor {-sfsymbols-motion-group:1;-sfsymbols-layer-tags:27d058ca156466c0 books.vertical}
.multicolor-1:tintColor {-sfsymbols-motion-group:0;-sfsymbols-layer-tags:27d058ca156466c0}

.hierarchical-0:primary {-sfsymbols-motion-group:1;-sfsymbols-layer-tags:27d058ca156466c0 books.vertical}
.hierarchical-1:secondary {-sfsymbols-motion-group:0;-sfsymbols-layer-tags:27d058ca156466c0}

.SFSymbolsPreviewWireframe {fill:none;opacity:1.0;stroke:black;stroke-width:0.5}
</style>
 <g id="Notes">
  <rect height="2200" id="artboard" style="fill:white;opacity:1" width="3300" x="0" y="0"/>
  <line style="fill:none;stroke:black;opacity:1;stroke-width:0.5;" x1="263" x2="3036" y1="292" y2="292"/>
  <text style="stroke:none;fill:black;font-family:sans-serif;font-size:13;font-weight:bold;" transform="matrix(1 0 0 1 263 322)">Weight/Scale Variations</text>
  <text style="stroke:none;fill:black;font-family:sans-serif;font-size:13;text-anchor:middle;" transform="matrix(1 0 0 1 559.711 322)">Ultralight</text>
  <text style="stroke:none;fill:black;font-family:sans-serif;font-size:13;text-anchor:middle;" transform="matrix(1 0 0 1 856.422 322)">Thin</text>
  <text style="stroke:none;fill:black;font-family:sans-serif;font-size:13;text-anchor:middle;" transform="matrix(1 0 0 1 1153.13 322)">Light</text>
  <text style="stroke:none;fill:black;font-family:sans-serif;font-size:13;text-anchor:middle;" transform="matrix(1 0 0 1 1449.84 322)">Regular</text>
  <text style="stroke:none;fill:black;font-family:sans-serif;font-size:13;text-anchor:middle;" transform="matrix(1 0 0 1 1746.56 322)">Medium</text>
  <text style="stroke:none;fill:black;font-family:sans-serif;font-size:13;text-anchor:middle;" transform="matrix(1 0 0 1 2043.27 322)">Semibold</text>
  <text style="stroke:none;fill:black;font-family:sans-serif;font-size:13;text-anchor:middle;" transform="matrix(1 0 0 1 2339.98 322)">Bold</text>
  <text style="stroke:none;fill:black;font-family:sans-serif;font-size:13;text-anchor:middle;" transform="matrix(1 0 0 1 2636.69 322)">Heavy</text>
  <text style="stroke:none;fill:black;font-family:sans-serif;font-size:13;text-anchor:middle;" transform="matrix(1 0 0 1 2933.4 322)">Black</text>
  <line style="fill:none;stroke:black;opacity:1;stroke-width:0.5;" x1="263" x2="3036" y1="1903" y2="1903"/>
  <g transform="matrix(0.2 0 0 0.2 263 1933)">
   <path d="m46.2402 4.15039c21.7773 0 39.4531-17.627 39.4531-39.4043s-17.6758-39.4043-39.4531-39.4043c-21.7285 0-39.4043 17.627-39.4043 39.4043s17.6758 39.4043 39.4043 39.4043Zm0-7.42188c-17.6758 0-31.9336-14.3066-31.9336-31.9824s14.2578-31.9824 31.9336-31.9824 31.9824 14.3066 31.9824 31.9824-14.3066 31.9824-31.9824 31.9824Zm-17.9688-31.9824c0 2.14844 1.51367 3.61328 3.75977 3.61328h10.498v10.5957c0 2.19727 1.46484 3.71094 3.61328 3.71094 2.24609 0 3.71094-1.51367 3.71094-3.71094v-10.5957h10.5957c2.19727 0 3.71094-1.46484 3.71094-3.61328 0-2.19727-1.51367-3.71094-3.71094-3.71094h-10.5957v-10.5469c0-2.24609-1.46484-3.75977-3.71094-3.75977-2.14844 0-3.61328 1.51367-3.61328 3.75977v10.5469h-10.498c-2.24609 0-3.75977 1.51367-3.75977 3.71094Z"/>
  </g>
  <g transform="matrix(0.2 0 0 0.2 281.506 1933)">
   <path d="m58.5449 14.5508c27.4902 0 49.8047-22.3145 49.8047-49.8047s-22.3145-49.8047-49.8047-49.8047-49.8047 22.3145-49.8047 49.8047 22.3145 49.8047 49.8047 49.8047Zm0-8.30078c-22.9492 0-41.5039-18.5547-41.5039-41.5039s18.5547-41.5039 41.5039-41.5039 41.5039 18.5547 41.5039 41.5039-18.5547 41.5039-41.5039 41.5039Zm-22.6562-41.5039c0 2.39258 1.66016 4.00391 4.15039 4.00391h14.3555v14.4043c0 2.44141 1.66016 4.15039 4.05273 4.15039 2.44141 0 4.15039-1.66016 4.15039-4.15039v-14.4043h14.4043c2.44141 0 4.15039-1.61133 4.15039-4.00391 0-2.44141-1.70898-4.15039-4.15039-4.15039h-14.4043v-14.3555c0-2.49023-1.70898-4.19922-4.15039-4.19922-2.39258 0-4.05273 1.70898-4.05273 4.19922v14.3555h-14.3555c-2.49023 0-4.15039 1.70898-4.15039 4.15039Z"/>
  </g>
  <g transform="matrix(0.2 0 0 0.2 304.924 1933)">
   <path d="m74.8535 28.3203c35.1074 0 63.623-28.4668 63.623-63.5742s-28.5156-63.623-63.623-63.623-63.5742 28.5156-63.5742 63.623 28.4668 63.5742 63.5742 63.5742Zm0-9.08203c-30.127 0-54.4922-24.3652-54.4922-54.4922s24.3652-54.4922 54.4922-54.4922 54.4922 24.3652 54.4922 54.4922-24.3652 54.4922-54.4922 54.4922Zm-28.8574-54.4922c0 2.58789 1.85547 4.39453 4.58984 4.39453h19.7266v19.7754c0 2.68555 1.85547 4.58984 4.44336 4.58984 2.68555 0 4.54102-1.85547 4.54102-4.58984v-19.7754h19.7754c2.68555 0 4.58984-1.80664 4.58984-4.39453 0-2.73438-1.85547-4.58984-4.58984-4.58984h-19.7754v-19.7266c0-2.73438-1.85547-4.63867-4.54102-4.63867-2.58789 0-4.44336 1.9043-4.44336 4.63867v19.7266h-19.7266c-2.73438 0-4.58984 1.85547-4.58984 4.58984Z"/>
  </g>
  <text style="stroke:none;fill:black;font-family:sans-serif;font-size:13;font-weight:bold;" transform="matrix(1 0 0 1 263 1953)">Design Variations</text>
  <text style="stroke:none;fill:black;font-family:sans-serif;font-size:13;" transform="matrix(1 0 0 1 263 1971)">Symbols are supported in up to nine weights and three scales.</text>
  <text style="stroke:none;fill:black;font-family:sans-serif;font-size:13;" transform="matrix(1 0 0 1 263 1989)">For optimal layout with text and other symbols, vertically align</text>
  <text style="stroke:none;fill:black;font-family:sans-serif;font-size:13;" transform="matrix(1 0 0 1 263 2007)">symbols with the adjacent text.</text>
  <line style="fill:none;stroke:#00AEEF;stroke-width:0.5;opacity:1.0;" x1="776" x2="776" y1="1919" y2="1933"/>
  <g transform="matrix(0.2 0 0 0.2 776 1933)">
   <path d="m16.5527 0.78125c2.58789 0 3.85742-0.976562 4.78516-3.71094l6.29883-17.2363h28.8086l6.29883 17.2363c0.927734 2.73438 2.19727 3.71094 4.73633 3.71094 2.58789 0 4.24805-1.5625 4.24805-4.00391 0-0.830078-0.146484-1.61133-0.537109-2.63672l-22.9004-60.9863c-1.12305-2.97852-3.125-4.49219-6.25-4.49219-3.02734 0-5.07812 1.46484-6.15234 4.44336l-22.9004 61.084c-0.390625 1.02539-0.537109 1.80664-0.537109 2.63672 0 2.44141 1.5625 3.95508 4.10156 3.95508Zm13.4766-28.3691 11.8652-32.8613h0.244141l11.8652 32.8613Z"/>
  </g>
  <line style="fill:none;stroke:#00AEEF;stroke-width:0.5;opacity:1.0;" x1="792.836" x2="792.836" y1="1919" y2="1933"/>
  <text style="stroke:none;fill:black;font-family:sans-serif;font-size:13;font-weight:bold;" transform="matrix(1 0 0 1 776 1953)">Margins</text>
  <text style="stroke:none;fill:black;font-family:sans-serif;font-size:13;" transform="matrix(1 0 0 1 776 1971)">Leading and trailing margins on the left and right side of each symbol</text>
  <text style="stroke:none;fill:black;font-family:sans-serif;font-size:13;" transform="matrix(1 0 0 1 776 1989)">can be adjusted by modifying the x-location of the margin guidelines.</text>
  <text style="stroke:none;fill:black;font-family:sans-serif;font-size:13;" transform="matrix(1 0 0 1 776 2007)">Modifications are automatically applied proportionally to all</text>
  <text style="stroke:none;fill:black;font-family:sans-serif;font-size:13;" transform="matrix(1 0 0 1 776 2025)">scales and weights.</text>
  <g transform="matrix(0.2 0 0 0.2 1289 1933)">
   <path d="m14.209 9.32617 8.49609 8.54492c4.29688 4.3457 9.22852 4.05273 13.8672-1.07422l53.4668-58.9355-4.83398-4.88281-53.0762 58.3984c-1.75781 2.00195-3.41797 2.49023-5.76172 0.146484l-5.85938-5.81055c-2.34375-2.29492-1.80664-4.00391 0.195312-5.81055l57.373-54.0039-4.88281-4.83398-57.959 54.4434c-4.93164 4.58984-5.32227 9.47266-1.02539 13.8184Zm32.0801-90.9668c-2.09961 2.05078-2.24609 4.93164-1.07422 6.88477 1.17188 1.80664 3.4668 2.97852 6.68945 2.14844 7.32422-1.70898 14.9414-2.00195 22.0703 2.68555l-2.92969 7.27539c-1.70898 4.15039-0.830078 7.08008 1.85547 9.81445l11.4746 11.5723c2.44141 2.44141 4.49219 2.53906 7.32422 2.05078l5.32227-0.976562 3.32031 3.36914-0.195312 2.7832c-0.195312 2.49023 0.439453 4.39453 2.88086 6.78711l3.80859 3.71094c2.39258 2.39258 5.46875 2.53906 7.8125 0.195312l14.5508-14.5996c2.34375-2.34375 2.24609-5.32227-0.146484-7.71484l-3.85742-3.80859c-2.39258-2.39258-4.24805-3.17383-6.64062-2.97852l-2.88086 0.244141-3.22266-3.17383 1.2207-5.61523c0.634766-2.83203-0.146484-5.0293-3.07617-7.95898l-10.9863-10.9375c-16.6992-16.6016-38.8672-16.2109-53.3203-1.75781Zm7.4707 1.85547c12.1582-8.88672 28.6133-7.37305 39.7461 3.75977l12.1582 12.0605c1.17188 1.17188 1.36719 2.09961 1.02539 3.80859l-1.61133 7.42188 7.51953 7.42188 4.93164-0.292969c1.26953-0.0488281 1.66016 0.0488281 2.63672 1.02539l2.88086 2.88086-12.207 12.207-2.88086-2.88086c-0.976562-0.976562-1.12305-1.36719-1.07422-2.68555l0.341797-4.88281-7.4707-7.42188-7.61719 1.26953c-1.61133 0.341797-2.34375 0.195312-3.56445-0.976562l-10.0098-10.0098c-1.26953-1.17188-1.41602-2.00195-0.634766-3.85742l4.39453-10.4492c-7.8125-7.27539-17.9688-10.4004-28.125-7.42188-0.78125 0.195312-1.07422-0.439453-0.439453-0.976562Z"/>
  </g>
  <text style="stroke:none;fill:black;font-family:sans-serif;font-size:13;font-weight:bold;" transform="matrix(1 0 0 1 1289 1953)">Exporting</text>
  <text style="stroke:none;fill:black;font-family:sans-serif;font-size:13;" transform="matrix(1 0 0 1 1289 1971)">Symbols should be outlined when exporting to ensure the</text>
  <text style="stroke:none;fill:black;font-family:sans-serif;font-size:13;" transform="matrix(1 0 0 1 1289 1989)">design is preserved when submitting to Xcode.</text>
  <text id="template-version" style="stroke:none;fill:black;font-family:sans-serif;font-size:13;text-anchor:end;" transform="matrix(1 0 0 1 3036 1933)">Template v.5.0</text>
  <text style="stroke:none;fill:black;font-family:sans-serif;font-size:13;text-anchor:end;" transform="matrix(1 0 0 1 3036 1951)">Requires Xcode 15 or greater</text>
  <text id="descriptive-name" style="stroke:none;fill:black;font-family:sans-serif;font-size:13;text-anchor:end;" transform="matrix(1 0 0 1 3036 1969)">Generated from custom.books.vertical</text>
  <text style="stroke:none;fill:black;font-family:sans-serif;font-size:13;text-anchor:end;" transform="matrix(1 0 0 1 3036 1987)">Typeset at 100.0 points</text>
  <text style="stroke:none;fill:black;font-family:sans-serif;font-size:13;" transform="matrix(1 0 0 1 263 726)">Small</text>
  <text style="stroke:none;fill:black;font-family:sans-serif;font-size:13;" transform="matrix(1 0 0 1 263 1156)">Medium</text>
  <text style="stroke:none;fill:black;font-family:sans-serif;font-size:13;" transform="matrix(1 0 0 1 263 1586)">Large</text>
 </g>
 <g id="Guides">
  <g id="H-reference" style="fill:#27AAE1;stroke:none;" transform="matrix(1 0 0 1 339 696)">
   <path d="M0.993654 0L3.63775 0L29.3281-67.1323L30.0303-67.1323L30.0303-70.459L28.1226-70.459ZM11.6885-24.4799L46.9815-24.4799L46.2315-26.7285L12.4385-26.7285ZM55.1196 0L57.7637 0L30.6382-70.459L29.4326-70.459L29.4326-67.1323Z"/>
  </g>
  <line id="Baseline-S" style="fill:none;stroke:#27AAE1;opacity:1;stroke-width:0.5;" x1="263" x2="3036" y1="696" y2="696"/>
  <line id="Capline-S" style="fill:none;stroke:#27AAE1;opacity:1;stroke-width:0.5;" x1="263" x2="3036" y1="625.541" y2="625.541"/>
  <g id="H-reference" style="fill:#27AAE1;stroke:none;" transform="matrix(1 0 0 1 339 1126)">
   <path d="M0.993654 0L3.63775 0L29.3281-67.1323L30.0303-67.1323L30.0303-70.459L28.1226-70.459ZM11.6885-24.4799L46.9815-24.4799L46.2315-26.7285L12.4385-26.7285ZM55.1196 0L57.7637 0L30.6382-70.459L29.4326-70.459L29.4326-67.1323Z"/>
  </g>
  <line id="Baseline-M" style="fill:none;stroke:#27AAE1;opacity:1;stroke-width:0.5;" x1="263" x2="3036" y1="1126" y2="1126"/>
  <line id="Capline-M" style="fill:none;stroke:#27AAE1;opacity:1;stroke-width:0.5;" x1="263" x2="3036" y1="1055.54" y2="1055.54"/>
  <g id="H-reference" style="fill:#27AAE1;stroke:none;" transform="matrix(1 0 0 1 339 1556)">
   <path d="M0.993654 0L3.63775 0L29.3281-67.1323L30.0303-67.1323L30.0303-70.459L28.1226-70.459ZM11.6885-24.4799L46.9815-24.4799L46.2315-26.7285L12.4385-26.7285ZM55.1196 0L57.7637 0L30.6382-70.459L29.4326-70.459L29.4326-67.1323Z"/>
  </g>
  <line id="Baseline-L" style="fill:none;stroke:#27AAE1;opacity:1;stroke-width:0.5;" x1="263" x2="3036" y1="1556" y2="1556"/>
  <line id="Capline-L" style="fill:none;stroke:#27AAE1;opacity:1;stroke-width:0.5;" x1="263" x2="3036" y1="1485.54" y2="1485.54"/>
  <line id="right-margin-Black-S" style="fill:none;stroke:#00AEEF;stroke-width:0.5;opacity:1.0;" x1="2999.86" x2="2999.86" y1="600.785" y2="720.121"/>
  <line id="left-margin-Black-S" style="fill:none;stroke:#00AEEF;stroke-width:0.5;opacity:1.0;" x1="2866.94" x2="2866.94" y1="600.785" y2="720.121"/>
  <line id="right-margin-Regular-S" style="fill:none;stroke:#00AEEF;stroke-width:0.5;opacity:1.0;" x1="1508.56" x2="1508.56" y1="600.785" y2="720.121"/>
  <line id="left-margin-Regular-S" style="fill:none;stroke:#00AEEF;stroke-width:0.5;opacity:1.0;" x1="1391.13" x2="1391.13" y1="600.785" y2="720.121"/>
  <line id="right-margin-Ultralight-S" style="fill:none;stroke:#00AEEF;stroke-width:0.5;opacity:1.0;" x1="609.186" x2="609.186" y1="600.785" y2="720.121"/>
  <line id="left-margin-Ultralight-S" style="fill:none;stroke:#00AEEF;stroke-width:0.5;opacity:1.0;" x1="510.236" x2="510.236" y1="600.785" y2="720.121"/>
 </g>
 <g id="Symbols">
  <g id="Black-S" transform="matrix(1 0 0 1 2866.94 696)">
   <path class="monochrome-0 multicolor-0:tintColor hierarchical-0:primary SFSymbolsPreviewWireframe" d="M9.76562-4.63867C9.76562 3.75977 14.1602 8.1543 22.5586 8.1543L81.6406 8.1543C90.0391 8.1543 94.4336 3.75977 94.4336-4.63867L94.4336-65.7715C94.4336-74.1699 90.0391-78.5645 81.6406-78.5645L71.1914-78.5645C62.793-78.5645 58.3984-74.1699 58.3984-65.7715L58.3984-50.9766C58.252-50.9766 58.1543-50.9766 58.0078-50.9766L44.8242-50.9766C44.6777-50.9766 44.4824-50.9766 44.3359-50.9766L44.3359-54.0527C44.3359-62.4512 39.9414-66.8457 31.543-66.8457L22.5586-66.8457C14.1602-66.8457 9.76562-62.4512 9.76562-54.0527ZM23.9258-7.95898L23.9258-50.7324C23.9258-52.002 24.6094-52.6855 25.8789-52.6855L28.2227-52.6855C29.4922-52.6855 30.1758-52.002 30.1758-50.7324L30.1758-6.00586L25.8789-6.00586C24.6094-6.00586 23.9258-6.68945 23.9258-7.95898ZM44.3359-6.00586L44.3359-34.8633C44.3359-36.1328 45.0195-36.8164 46.2891-36.8164L56.4453-36.8164C57.7148-36.8164 58.3984-36.1328 58.3984-34.8633L58.3984-6.00586ZM72.5586-6.00586L72.5586-62.4512C72.5586-63.7207 73.2422-64.4043 74.5117-64.4043L78.3203-64.4043C79.5898-64.4043 80.2734-63.7207 80.2734-62.4512L80.2734-7.95898C80.2734-6.68945 79.5898-6.00586 78.3203-6.00586ZM46.0449-30.8594C46.0449-29.248 47.3633-27.9297 49.0234-27.9297L54.1504-27.9297C55.8105-27.9297 57.0801-29.248 57.0801-30.8594C57.0801-32.5684 55.8105-33.8867 54.1504-33.8867L49.0234-33.8867C47.3145-33.8867 46.0449-32.5684 46.0449-30.8594ZM46.0449-11.9141C46.0449-10.2539 47.3145-8.93555 49.0234-8.93555L54.1504-8.93555C55.8105-8.93555 57.0801-10.2539 57.0801-11.9141C57.0801-13.5742 55.8105-14.9414 54.1504-14.9414L49.0234-14.9414C47.3633-14.9414 46.0449-13.5742 46.0449-11.9141Z"/>
   <path class="monochrome-1 multicolor-1:tintColor hierarchical-1:secondary SFSymbolsPreviewWireframe" d="M89.8438-2.68555C90.5762 5.66406 95.3613 9.66797 103.711 8.93555L111.426 8.25195C119.775 7.51953 123.779 2.73438 123.047-5.61523L118.75-54.834C118.018-63.1836 113.232-67.1875 104.883-66.4551L97.168-65.7715C88.8184-65.0391 84.8145-60.3027 85.5469-51.9043ZM103.662-7.22656L99.9512-49.8535C99.8535-51.123 100.439-51.8555 101.709-51.9531L102.832-52.0508C104.102-52.1484 104.834-51.5625 104.932-50.293L108.643-7.66602C108.74-6.44531 108.154-5.66406 106.885-5.56641L105.762-5.46875C104.59-5.37109 103.76-5.95703 103.662-7.22656Z"/>
  </g>
  <g id="Regular-S" transform="matrix(1 0 0 1 1391.13 696)">
   <path class="monochrome-0 multicolor-0:tintColor hierarchical-0:primary SFSymbolsPreviewWireframe" d="M9.76562-3.71094C9.76562 2.73438 12.8906 5.9082 19.2871 5.9082L72.0703 5.9082C78.418 5.9082 81.543 2.73438 81.543-3.71094L81.543-70.0195C81.543-76.416 78.418-79.5898 72.0703-79.5898L64.7461-79.5898C58.3496-79.5898 55.2246-76.416 55.2246-70.0195L55.2246-55.0781C54.3457-55.2734 53.3691-55.3711 52.3438-55.3711L35.791-55.3711C34.668-55.3711 33.6914-55.2734 32.8613-55.0781L32.8613-58.9355C32.8613-65.332 29.6875-68.5059 23.3887-68.5059L19.2871-68.5059C12.8906-68.5059 9.76562-65.332 9.76562-58.9355ZM16.3574-4.24805L16.3574-58.3984C16.3574-60.6445 17.5781-61.9629 19.9707-61.9629L22.6074-61.9629C25.0488-61.9629 26.2695-60.6445 26.2695-58.3984L26.2695-0.683594L19.9707-0.683594C17.5781-0.683594 16.3574-1.95312 16.3574-4.24805ZM32.8613-0.683594L32.8613-45.2637C32.8613-47.5098 34.082-48.7793 36.4746-48.7793L51.6113-48.7793C54.0527-48.7793 55.2246-47.5098 55.2246-45.2637L55.2246-0.683594ZM61.8164-0.683594L61.8164-69.4824C61.8164-71.7285 63.0859-73.0469 65.4785-73.0469L71.3379-73.0469C73.7793-73.0469 74.9512-71.7285 74.9512-69.4824L74.9512-4.24805C74.9512-1.95312 73.7793-0.683594 71.3379-0.683594ZM36.084-41.2598C36.084-39.7461 37.207-38.5742 38.7695-38.5742L49.4141-38.5742C50.9277-38.5742 52.0508-39.7461 52.0508-41.2598C52.0508-42.7246 50.9277-43.8477 49.4141-43.8477L38.7695-43.8477C37.207-43.8477 36.084-42.7246 36.084-41.2598ZM36.084-8.25195C36.084-6.73828 37.207-5.56641 38.7695-5.56641L49.4141-5.56641C50.9277-5.56641 52.0508-6.73828 52.0508-8.25195C52.0508-9.7168 50.9277-10.8398 49.4141-10.8398L38.7695-10.8398C37.207-10.8398 36.084-9.7168 36.084-8.25195Z"/>
   <path class="monochrome-1 multicolor-1:tintColor hierarchical-1:secondary SFSymbolsPreviewWireframe" d="M85.0098-2.53906C85.8398 3.80859 89.2578 6.78711 95.5566 5.81055L99.2676 5.32227C105.615 4.3457 108.252 1.02539 107.52-5.32227L100.635-62.3535C99.9023-68.6523 96.4355-71.6797 90.0879-70.7031L86.377-70.166C79.9805-69.2383 77.2949-65.918 78.0762-59.5215ZM91.4551-3.90625L84.7168-59.8145C84.4238-62.0605 85.498-63.3789 87.8906-63.7695L90.1367-64.1113C92.5293-64.502 93.8965-63.2324 94.1895-61.0352L100.928-5.12695C101.221-2.83203 100.146-1.51367 97.8027-1.12305L95.459-0.78125C93.1152-0.390625 91.748-1.61133 91.4551-3.90625Z"/>
  </g>
  <g id="Ultralight-S" transform="matrix(1 0 0 1 510.236 696)">
   <path class="monochrome-0 multicolor-0:tintColor hierarchical-0:primary SFSymbolsPreviewWireframe" d="M9.76562-0.0327438C9.76562 3.3247 11.3013 5.18165 14.9732 5.18165L64.8502 5.18165C68.4732 5.18165 70.0089 3.3247 70.0089-0.0327438L70.0089-70.4282C70.0089-73.8277 68.4732-75.6392 64.8502-75.6392L56.5723-75.6392C52.9004-75.6392 51.3648-73.8277 51.3648-70.4282L51.3648-53.8067C50.5767-54.2744 49.6001-54.5083 48.3477-54.5083L31.2954-54.5083C30.0362-54.5083 29.0596-54.2744 28.2749-53.8067L28.2749-61.978C28.2749-65.3774 26.7359-67.189 23.0708-67.189L14.9732-67.189C11.3013-67.189 9.76562-65.3774 9.76562-61.978ZM11.9527-0.161165L11.9527-61.895C11.9527-64.1411 12.8555-65.0053 15.1119-65.0053L22.9253-65.0053C25.1851-65.0053 26.0879-64.1411 26.0879-61.895L26.0879 2.9946L15.1119 2.9946C12.8555 2.9946 11.9527 2.08835 11.9527-0.161165ZM28.2749 2.9946L28.2749-49.1689C28.2749-51.415 29.1778-52.3213 31.4341-52.3213L48.2056-52.3213C50.4654-52.3213 51.3648-51.415 51.3648-49.1689L51.3648 2.9946ZM53.5518 2.9946L53.5518-70.2998C53.5518-72.5459 54.4581-73.4556 56.7144-73.4556L64.7081-73.4556C66.9678-73.4556 67.8672-72.5459 67.8672-70.2998L67.8672-0.161165C67.8672 2.08835 66.9678 2.9946 64.7081 2.9946ZM32.6782-45.4375C32.6782-44.832 33.1656-44.3867 33.8199-44.3867L45.8267-44.3867C46.4776-44.3867 46.9649-44.832 46.9649-45.4375C46.9649-46.0395 46.4776-46.4814 45.8267-46.4814L33.8199-46.4814C33.1656-46.4814 32.6782-46.0395 32.6782-45.4375ZM32.6782-3.89261C32.6782-3.28714 33.1656-2.84182 33.8199-2.84182L45.8267-2.84182C46.4776-2.84182 46.9649-3.28714 46.9649-3.89261C46.9649-4.44926 46.4776-4.93657 45.8267-4.93657L33.8199-4.93657C33.1656-4.93657 32.6782-4.44926 32.6782-3.89261Z"/>
   <path class="monochrome-1 multicolor-1:tintColor hierarchical-1:secondary SFSymbolsPreviewWireframe" d="M73.4757 0.730443C73.8062 4.03564 75.4532 5.69727 79.1183 5.40186L84.4186 4.95899C88.0871 4.61816 89.4523 2.66014 89.1286-0.735876L83.9694-58.8116C83.6456-62.2042 81.9498-63.9146 78.2813-63.5738L73.0265-63.0821C69.3546-62.6993 67.9859-60.7867 68.2677-57.4326ZM75.6071 0.362271L70.4581-57.4986C70.256-59.7446 71.1031-60.7451 73.3595-60.9541L78.3756-61.3867C80.6319-61.5957 81.5904-60.7349 81.7926-58.5376L86.9415-0.631383C87.1437 1.61813 86.3419 2.57321 84.089 2.7822L79.066 3.21481C76.8131 3.4238 75.8092 2.61178 75.6071 0.362271Z"/>
  </g>
 </g>
</svg>
