<?xml version="1.0" encoding="UTF-8"?>
<!--Generator: Apple Native CoreSVG 326-->
<!DOCTYPE svg
PUBLIC "-//W3C//DTD SVG 1.1//EN"
       "http://www.w3.org/Graphics/SVG/1.1/DTD/svg11.dtd">
<svg version="1.1" xmlns="http://www.w3.org/2000/svg" xmlns:xlink="http://www.w3.org/1999/xlink" viewBox="0 0 3300 2200">
 <!--glyph: "", point size: 100.0, font version: "20.0d10e1", template writer version: "138.0.0"-->
 <style>.monochrome-0 {-sfsymbols-motion-group:1;-sfsymbols-layer-tags:-21a336618ebd1eb7 cef31687e677244 chart.line.text.clipboard}
.monochrome-1 {-sfsymbols-motion-group:1;-sfsymbols-layer-tags:-21a336618ebd1eb7 cef31687e677244 chart.line.text.clipboard}
.monochrome-2 {opacity:0.0;-sfsymbols-clear-behind:true;-sfsymbols-motion-group:0;-sfsymbols-layer-tags:_badge arrow.up cef31687e677244}
.monochrome-3 {-sfsymbols-motion-group:0;-sfsymbols-always-pulses:true;-sfsymbols-layer-tags:_badge arrow.up cef31687e677244}
.monochrome-4 {opacity:0.0;-sfsymbols-clear-behind:true;-sfsymbols-motion-group:0;-sfsymbols-always-pulses:true;-sfsymbols-layer-tags:_badge arrow.up cef31687e677244}

.multicolor-0:tintColor {-sfsymbols-motion-group:1;-sfsymbols-layer-tags:-21a336618ebd1eb7 cef31687e677244 chart.line.text.clipboard}
.multicolor-1:tintColor {-sfsymbols-motion-group:1;-sfsymbols-layer-tags:-21a336618ebd1eb7 cef31687e677244 chart.line.text.clipboard}
.multicolor-2:tintColor {opacity:0.0;-sfsymbols-clear-behind:true;-sfsymbols-motion-group:0;-sfsymbols-layer-tags:_badge arrow.up cef31687e677244}
.multicolor-3:tintColor {-sfsymbols-motion-group:0;-sfsymbols-always-pulses:true;-sfsymbols-layer-tags:_badge arrow.up cef31687e677244}
.multicolor-4:white {-sfsymbols-motion-group:0;-sfsymbols-always-pulses:true;-sfsymbols-layer-tags:_badge arrow.up cef31687e677244}

.hierarchical-0:secondary {-sfsymbols-motion-group:1;-sfsymbols-layer-tags:-21a336618ebd1eb7 cef31687e677244 chart.line.text.clipboard}
.hierarchical-1:secondary {-sfsymbols-motion-group:1;-sfsymbols-layer-tags:-21a336618ebd1eb7 cef31687e677244 chart.line.text.clipboard}
.hierarchical-2:primary {opacity:0.0;-sfsymbols-clear-behind:true;-sfsymbols-motion-group:0;-sfsymbols-layer-tags:_badge arrow.up cef31687e677244}
.hierarchical-3:primary {-sfsymbols-motion-group:0;-sfsymbols-layer-tags:_badge arrow.up cef31687e677244}
.hierarchical-4:primary {opacity:0.0;-sfsymbols-clear-behind:true;-sfsymbols-motion-group:0;-sfsymbols-layer-tags:_badge arrow.up cef31687e677244}

.SFSymbolsPreviewWireframe {fill:none;opacity:1.0;stroke:black;stroke-width:0.5}
</style>
 <g id="Notes">
  <rect height="2200" id="artboard" style="fill:white;opacity:1" width="3300" x="0" y="0"/>
  <line style="fill:none;stroke:black;opacity:1;stroke-width:0.5;" x1="263" x2="3036" y1="292" y2="292"/>
  <text style="stroke:none;fill:black;font-family:sans-serif;font-size:13;font-weight:bold;" transform="matrix(1 0 0 1 263 322)">Weight/Scale Variations</text>
  <text style="stroke:none;fill:black;font-family:sans-serif;font-size:13;text-anchor:middle;" transform="matrix(1 0 0 1 559.711 322)">Ultralight</text>
  <text style="stroke:none;fill:black;font-family:sans-serif;font-size:13;text-anchor:middle;" transform="matrix(1 0 0 1 856.422 322)">Thin</text>
  <text style="stroke:none;fill:black;font-family:sans-serif;font-size:13;text-anchor:middle;" transform="matrix(1 0 0 1 1153.13 322)">Light</text>
  <text style="stroke:none;fill:black;font-family:sans-serif;font-size:13;text-anchor:middle;" transform="matrix(1 0 0 1 1449.84 322)">Regular</text>
  <text style="stroke:none;fill:black;font-family:sans-serif;font-size:13;text-anchor:middle;" transform="matrix(1 0 0 1 1746.56 322)">Medium</text>
  <text style="stroke:none;fill:black;font-family:sans-serif;font-size:13;text-anchor:middle;" transform="matrix(1 0 0 1 2043.27 322)">Semibold</text>
  <text style="stroke:none;fill:black;font-family:sans-serif;font-size:13;text-anchor:middle;" transform="matrix(1 0 0 1 2339.98 322)">Bold</text>
  <text style="stroke:none;fill:black;font-family:sans-serif;font-size:13;text-anchor:middle;" transform="matrix(1 0 0 1 2636.69 322)">Heavy</text>
  <text style="stroke:none;fill:black;font-family:sans-serif;font-size:13;text-anchor:middle;" transform="matrix(1 0 0 1 2933.4 322)">Black</text>
  <line style="fill:none;stroke:black;opacity:1;stroke-width:0.5;" x1="263" x2="3036" y1="1903" y2="1903"/>
  <g transform="matrix(0.2 0 0 0.2 263 1933)">
   <path d="m46.2402 4.15039c21.7773 0 39.4531-17.627 39.4531-39.4043s-17.6758-39.4043-39.4531-39.4043c-21.7285 0-39.4043 17.627-39.4043 39.4043s17.6758 39.4043 39.4043 39.4043Zm0-7.42188c-17.6758 0-31.9336-14.3066-31.9336-31.9824s14.2578-31.9824 31.9336-31.9824 31.9824 14.3066 31.9824 31.9824-14.3066 31.9824-31.9824 31.9824Zm-17.9688-31.9824c0 2.14844 1.51367 3.61328 3.75977 3.61328h10.498v10.5957c0 2.19727 1.46484 3.71094 3.61328 3.71094 2.24609 0 3.71094-1.51367 3.71094-3.71094v-10.5957h10.5957c2.19727 0 3.71094-1.46484 3.71094-3.61328 0-2.19727-1.51367-3.71094-3.71094-3.71094h-10.5957v-10.5469c0-2.24609-1.46484-3.75977-3.71094-3.75977-2.14844 0-3.61328 1.51367-3.61328 3.75977v10.5469h-10.498c-2.24609 0-3.75977 1.51367-3.75977 3.71094Z"/>
  </g>
  <g transform="matrix(0.2 0 0 0.2 281.506 1933)">
   <path d="m58.5449 14.5508c27.4902 0 49.8047-22.3145 49.8047-49.8047s-22.3145-49.8047-49.8047-49.8047-49.8047 22.3145-49.8047 49.8047 22.3145 49.8047 49.8047 49.8047Zm0-8.30078c-22.9492 0-41.5039-18.5547-41.5039-41.5039s18.5547-41.5039 41.5039-41.5039 41.5039 18.5547 41.5039 41.5039-18.5547 41.5039-41.5039 41.5039Zm-22.6562-41.5039c0 2.39258 1.66016 4.00391 4.15039 4.00391h14.3555v14.4043c0 2.44141 1.66016 4.15039 4.05273 4.15039 2.44141 0 4.15039-1.66016 4.15039-4.15039v-14.4043h14.4043c2.44141 0 4.15039-1.61133 4.15039-4.00391 0-2.44141-1.70898-4.15039-4.15039-4.15039h-14.4043v-14.3555c0-2.49023-1.70898-4.19922-4.15039-4.19922-2.39258 0-4.05273 1.70898-4.05273 4.19922v14.3555h-14.3555c-2.49023 0-4.15039 1.70898-4.15039 4.15039Z"/>
  </g>
  <g transform="matrix(0.2 0 0 0.2 304.924 1933)">
   <path d="m74.8535 28.3203c35.1074 0 63.623-28.4668 63.623-63.5742s-28.5156-63.623-63.623-63.623-63.5742 28.5156-63.5742 63.623 28.4668 63.5742 63.5742 63.5742Zm0-9.08203c-30.127 0-54.4922-24.3652-54.4922-54.4922s24.3652-54.4922 54.4922-54.4922 54.4922 24.3652 54.4922 54.4922-24.3652 54.4922-54.4922 54.4922Zm-28.8574-54.4922c0 2.58789 1.85547 4.39453 4.58984 4.39453h19.7266v19.7754c0 2.68555 1.85547 4.58984 4.44336 4.58984 2.68555 0 4.54102-1.85547 4.54102-4.58984v-19.7754h19.7754c2.68555 0 4.58984-1.80664 4.58984-4.39453 0-2.73438-1.85547-4.58984-4.58984-4.58984h-19.7754v-19.7266c0-2.73438-1.85547-4.63867-4.54102-4.63867-2.58789 0-4.44336 1.9043-4.44336 4.63867v19.7266h-19.7266c-2.73438 0-4.58984 1.85547-4.58984 4.58984Z"/>
  </g>
  <text style="stroke:none;fill:black;font-family:sans-serif;font-size:13;font-weight:bold;" transform="matrix(1 0 0 1 263 1953)">Design Variations</text>
  <text style="stroke:none;fill:black;font-family:sans-serif;font-size:13;" transform="matrix(1 0 0 1 263 1971)">Symbols are supported in up to nine weights and three scales.</text>
  <text style="stroke:none;fill:black;font-family:sans-serif;font-size:13;" transform="matrix(1 0 0 1 263 1989)">For optimal layout with text and other symbols, vertically align</text>
  <text style="stroke:none;fill:black;font-family:sans-serif;font-size:13;" transform="matrix(1 0 0 1 263 2007)">symbols with the adjacent text.</text>
  <line style="fill:none;stroke:#00AEEF;stroke-width:0.5;opacity:1.0;" x1="776" x2="776" y1="1919" y2="1933"/>
  <g transform="matrix(0.2 0 0 0.2 776 1933)">
   <path d="m16.5527 0.78125c2.58789 0 3.85742-0.976562 4.78516-3.71094l6.29883-17.2363h28.8086l6.29883 17.2363c0.927734 2.73438 2.19727 3.71094 4.73633 3.71094 2.58789 0 4.24805-1.5625 4.24805-4.00391 0-0.830078-0.146484-1.61133-0.537109-2.63672l-22.9004-60.9863c-1.12305-2.97852-3.125-4.49219-6.25-4.49219-3.02734 0-5.07812 1.46484-6.15234 4.44336l-22.9004 61.084c-0.390625 1.02539-0.537109 1.80664-0.537109 2.63672 0 2.44141 1.5625 3.95508 4.10156 3.95508Zm13.4766-28.3691 11.8652-32.8613h0.244141l11.8652 32.8613Z"/>
  </g>
  <line style="fill:none;stroke:#00AEEF;stroke-width:0.5;opacity:1.0;" x1="792.836" x2="792.836" y1="1919" y2="1933"/>
  <text style="stroke:none;fill:black;font-family:sans-serif;font-size:13;font-weight:bold;" transform="matrix(1 0 0 1 776 1953)">Margins</text>
  <text style="stroke:none;fill:black;font-family:sans-serif;font-size:13;" transform="matrix(1 0 0 1 776 1971)">Leading and trailing margins on the left and right side of each symbol</text>
  <text style="stroke:none;fill:black;font-family:sans-serif;font-size:13;" transform="matrix(1 0 0 1 776 1989)">can be adjusted by modifying the x-location of the margin guidelines.</text>
  <text style="stroke:none;fill:black;font-family:sans-serif;font-size:13;" transform="matrix(1 0 0 1 776 2007)">Modifications are automatically applied proportionally to all</text>
  <text style="stroke:none;fill:black;font-family:sans-serif;font-size:13;" transform="matrix(1 0 0 1 776 2025)">scales and weights.</text>
  <g transform="matrix(0.2 0 0 0.2 1289 1933)">
   <path d="m14.209 9.32617 8.49609 8.54492c4.29688 4.3457 9.22852 4.05273 13.8672-1.07422l53.4668-58.9355-4.83398-4.88281-53.0762 58.3984c-1.75781 2.00195-3.41797 2.49023-5.76172 0.146484l-5.85938-5.81055c-2.34375-2.29492-1.80664-4.00391 0.195312-5.81055l57.373-54.0039-4.88281-4.83398-57.959 54.4434c-4.93164 4.58984-5.32227 9.47266-1.02539 13.8184Zm32.0801-90.9668c-2.09961 2.05078-2.24609 4.93164-1.07422 6.88477 1.17188 1.80664 3.4668 2.97852 6.68945 2.14844 7.32422-1.70898 14.9414-2.00195 22.0703 2.68555l-2.92969 7.27539c-1.70898 4.15039-0.830078 7.08008 1.85547 9.81445l11.4746 11.5723c2.44141 2.44141 4.49219 2.53906 7.32422 2.05078l5.32227-0.976562 3.32031 3.36914-0.195312 2.7832c-0.195312 2.49023 0.439453 4.39453 2.88086 6.78711l3.80859 3.71094c2.39258 2.39258 5.46875 2.53906 7.8125 0.195312l14.5508-14.5996c2.34375-2.34375 2.24609-5.32227-0.146484-7.71484l-3.85742-3.80859c-2.39258-2.39258-4.24805-3.17383-6.64062-2.97852l-2.88086 0.244141-3.22266-3.17383 1.2207-5.61523c0.634766-2.83203-0.146484-5.0293-3.07617-7.95898l-10.9863-10.9375c-16.6992-16.6016-38.8672-16.2109-53.3203-1.75781Zm7.4707 1.85547c12.1582-8.88672 28.6133-7.37305 39.7461 3.75977l12.1582 12.0605c1.17188 1.17188 1.36719 2.09961 1.02539 3.80859l-1.61133 7.42188 7.51953 7.42188 4.93164-0.292969c1.26953-0.0488281 1.66016 0.0488281 2.63672 1.02539l2.88086 2.88086-12.207 12.207-2.88086-2.88086c-0.976562-0.976562-1.12305-1.36719-1.07422-2.68555l0.341797-4.88281-7.4707-7.42188-7.61719 1.26953c-1.61133 0.341797-2.34375 0.195312-3.56445-0.976562l-10.0098-10.0098c-1.26953-1.17188-1.41602-2.00195-0.634766-3.85742l4.39453-10.4492c-7.8125-7.27539-17.9688-10.4004-28.125-7.42188-0.78125 0.195312-1.07422-0.439453-0.439453-0.976562Z"/>
  </g>
  <text style="stroke:none;fill:black;font-family:sans-serif;font-size:13;font-weight:bold;" transform="matrix(1 0 0 1 1289 1953)">Exporting</text>
  <text style="stroke:none;fill:black;font-family:sans-serif;font-size:13;" transform="matrix(1 0 0 1 1289 1971)">Symbols should be outlined when exporting to ensure the</text>
  <text style="stroke:none;fill:black;font-family:sans-serif;font-size:13;" transform="matrix(1 0 0 1 1289 1989)">design is preserved when submitting to Xcode.</text>
  <text id="template-version" style="stroke:none;fill:black;font-family:sans-serif;font-size:13;text-anchor:end;" transform="matrix(1 0 0 1 3036 1933)">Template v.5.0</text>
  <text style="stroke:none;fill:black;font-family:sans-serif;font-size:13;text-anchor:end;" transform="matrix(1 0 0 1 3036 1951)">Requires Xcode 15 or greater</text>
  <text id="descriptive-name" style="stroke:none;fill:black;font-family:sans-serif;font-size:13;text-anchor:end;" transform="matrix(1 0 0 1 3036 1969)">Generated from </text>
  <text style="stroke:none;fill:black;font-family:sans-serif;font-size:13;text-anchor:end;" transform="matrix(1 0 0 1 3036 1987)">Typeset at 100.0 points</text>
  <text style="stroke:none;fill:black;font-family:sans-serif;font-size:13;" transform="matrix(1 0 0 1 263 726)">Small</text>
  <text style="stroke:none;fill:black;font-family:sans-serif;font-size:13;" transform="matrix(1 0 0 1 263 1156)">Medium</text>
  <text style="stroke:none;fill:black;font-family:sans-serif;font-size:13;" transform="matrix(1 0 0 1 263 1586)">Large</text>
 </g>
 <g id="Guides">
  <g id="H-reference" style="fill:#27AAE1;stroke:none;" transform="matrix(1 0 0 1 339 696)">
   <path d="M0.993654 0L3.63775 0L29.3281-67.1323L30.0303-67.1323L30.0303-70.459L28.1226-70.459ZM11.6885-24.4799L46.9815-24.4799L46.2315-26.7285L12.4385-26.7285ZM55.1196 0L57.7637 0L30.6382-70.459L29.4326-70.459L29.4326-67.1323Z"/>
  </g>
  <line id="Baseline-S" style="fill:none;stroke:#27AAE1;opacity:1;stroke-width:0.5;" x1="263" x2="3036" y1="696" y2="696"/>
  <line id="Capline-S" style="fill:none;stroke:#27AAE1;opacity:1;stroke-width:0.5;" x1="263" x2="3036" y1="625.541" y2="625.541"/>
  <g id="H-reference" style="fill:#27AAE1;stroke:none;" transform="matrix(1 0 0 1 339 1126)">
   <path d="M0.993654 0L3.63775 0L29.3281-67.1323L30.0303-67.1323L30.0303-70.459L28.1226-70.459ZM11.6885-24.4799L46.9815-24.4799L46.2315-26.7285L12.4385-26.7285ZM55.1196 0L57.7637 0L30.6382-70.459L29.4326-70.459L29.4326-67.1323Z"/>
  </g>
  <line id="Baseline-M" style="fill:none;stroke:#27AAE1;opacity:1;stroke-width:0.5;" x1="263" x2="3036" y1="1126" y2="1126"/>
  <line id="Capline-M" style="fill:none;stroke:#27AAE1;opacity:1;stroke-width:0.5;" x1="263" x2="3036" y1="1055.54" y2="1055.54"/>
  <g id="H-reference" style="fill:#27AAE1;stroke:none;" transform="matrix(1 0 0 1 339 1556)">
   <path d="M0.993654 0L3.63775 0L29.3281-67.1323L30.0303-67.1323L30.0303-70.459L28.1226-70.459ZM11.6885-24.4799L46.9815-24.4799L46.2315-26.7285L12.4385-26.7285ZM55.1196 0L57.7637 0L30.6382-70.459L29.4326-70.459L29.4326-67.1323Z"/>
  </g>
  <line id="Baseline-L" style="fill:none;stroke:#27AAE1;opacity:1;stroke-width:0.5;" x1="263" x2="3036" y1="1556" y2="1556"/>
  <line id="Capline-L" style="fill:none;stroke:#27AAE1;opacity:1;stroke-width:0.5;" x1="263" x2="3036" y1="1485.54" y2="1485.54"/>
  <line id="right-margin-Black-S" style="fill:none;stroke:#FF3B30;stroke-width:0.5;opacity:1.0;" x1="2978.71" x2="2978.71" y1="600.785" y2="720.121"/>
  <line id="left-margin-Black-S" style="fill:none;stroke:#00AEEF;stroke-width:0.5;opacity:1.0;" x1="2888.09" x2="2888.09" y1="600.785" y2="720.121"/>
  <line id="right-margin-Regular-S" style="fill:none;stroke:#FF3B30;stroke-width:0.5;opacity:1.0;" x1="1492.13" x2="1492.13" y1="600.785" y2="720.121"/>
  <line id="left-margin-Regular-S" style="fill:none;stroke:#00AEEF;stroke-width:0.5;opacity:1.0;" x1="1407.56" x2="1407.56" y1="600.785" y2="720.121"/>
  <line id="right-margin-Ultralight-S" style="fill:none;stroke:#FF3B30;stroke-width:0.5;opacity:1.0;" x1="600.134" x2="600.134" y1="600.785" y2="720.121"/>
  <line id="left-margin-Ultralight-S" style="fill:none;stroke:#00AEEF;stroke-width:0.5;opacity:1.0;" x1="519.288" x2="519.288" y1="600.785" y2="720.121"/>
 </g>
 <g id="Symbols">
  <g id="Black-S" transform="matrix(1 0 0 1 2888.09 696)">
   <path class="monochrome-0 multicolor-0:tintColor hierarchical-0:secondary SFSymbolsPreviewWireframe" d="M25.0977 10.9863L65.5273 10.9863C74.707 10.9863 80.8594 4.78516 80.8594-4.54102L80.8594-61.9141C80.8594-71.2402 74.707-77.4414 65.5273-77.4414L64.8438-77.4414C65.5273-76.123 65.8691-74.5605 65.8691-72.8516L65.8691-68.8477C65.8691-67.1387 65.5273-65.5762 64.8438-64.2578L65.1367-64.2578C66.6504-64.2578 67.6758-63.2812 67.6758-61.8164L67.6758-4.63867C67.6758-3.17383 66.6504-2.19727 65.1367-2.19727L25.4883-2.19727C23.9746-2.19727 22.9492-3.17383 22.9492-4.63867L22.9492-61.8164C22.9492-63.2812 23.9746-64.2578 25.4883-64.2578L25.7812-64.2578C25.0977-65.5762 24.7559-67.1387 24.7559-68.8477L24.7559-72.8516C24.7559-74.5605 25.0977-76.123 25.7812-77.4414L25.0977-77.4414C15.918-77.4414 9.76562-71.2402 9.76562-61.9141L9.76562-4.54102C9.76562 4.78516 15.918 10.9863 25.0977 10.9863ZM33.6914-64.2578L56.9336-64.2578C59.6191-64.2578 61.2305-65.9668 61.2305-68.8477L61.2305-72.8516C61.2305-75.7324 59.6191-77.4414 56.9336-77.4414L55.0293-77.4414C54.6387-82.4707 50.4883-86.4746 45.3125-86.4746C40.1367-86.4746 35.9863-82.4707 35.5957-77.4414L33.6914-77.4414C31.0059-77.4414 29.3945-75.7324 29.3945-72.8516L29.3945-68.8477C29.3945-65.9668 31.0059-64.2578 33.6914-64.2578ZM45.3125-73.4375C43.3105-73.4375 41.6992-75.0977 41.6992-77.0508C41.6992-79.0039 43.3105-80.6152 45.3125-80.6152C47.3145-80.6152 48.9258-79.0039 48.9258-77.0508C48.9258-75.0977 47.3145-73.4375 45.3125-73.4375Z"/>
   <path class="monochrome-1 multicolor-1:tintColor hierarchical-1:secondary SFSymbolsPreviewWireframe" d="M30.7617-26.5625L59.9609-26.5625C61.5234-26.5625 62.6953-27.7832 62.6953-29.3457C62.6953-30.8594 61.5234-32.0312 59.9609-32.0312L30.7617-32.0312C29.1504-32.0312 27.9785-30.8594 27.9785-29.3457C27.9785-27.7832 29.1504-26.5625 30.7617-26.5625ZM30.7617-12.5L48.7305-12.5C50.293-12.5 51.4648-13.7207 51.4648-15.2832C51.4648-16.7969 50.293-17.9688 48.7305-17.9688L30.7617-17.9688C29.1504-17.9688 27.9785-16.7969 27.9785-15.2832C27.9785-13.7207 29.1504-12.5 30.7617-12.5ZM32.0312-44.2383C34.5703-44.2383 36.5723-46.3379 36.5723-48.7793C36.5723-51.2695 34.5703-53.3691 32.0312-53.3691C29.4922-53.3691 27.4902-51.2695 27.4902-48.7793C27.4902-46.3379 29.4922-44.2383 32.0312-44.2383ZM30.127-47.2656L43.3105-39.1113L45.7031-42.4316L32.3242-50.6836ZM43.6523-37.0605C46.1914-37.0605 48.1934-39.1602 48.1934-41.6016C48.1934-44.0918 46.1914-46.1914 43.6523-46.1914C41.1133-46.1914 39.1113-44.0918 39.1113-41.6016C39.1113-39.1602 41.1133-37.0605 43.6523-37.0605ZM42.4316-42.627L44.7754-39.3066L61.1816-51.0742L58.7402-54.3945ZM58.6426-47.8516C61.1816-47.8516 63.1836-49.9512 63.1836-52.3926C63.1836-54.8828 61.1816-56.9824 58.6426-56.9824C56.1035-56.9824 54.1016-54.8828 54.1016-52.3926C54.1016-49.9512 56.1035-47.8516 58.6426-47.8516Z"/>
   <path class="monochrome-2 multicolor-2:tintColor hierarchical-2:primary SFSymbolsPreviewWireframe" d="M81.558 20.249C96.4994 20.249 108.853 7.84668 108.853-7.09472C108.853-22.0361 96.4994-34.3408 81.558-34.3408C66.6166-34.3408 54.2631-22.0361 54.2631-7.09472C54.2631 7.84668 66.6166 20.249 81.558 20.249Z"/>
   <path class="monochrome-3 multicolor-3:tintColor hierarchical-3:primary SFSymbolsPreviewWireframe" d="M81.558 13.9014C93.0326 13.9014 102.505 4.33106 102.505-7.09472C102.505-18.5205 93.0326-27.9932 81.558-27.9932C70.0834-27.9932 60.6107-18.5205 60.6107-7.09472C60.6107 4.33106 70.0834 13.9014 81.558 13.9014Z"/>
   <path class="monochrome-4 multicolor-4:white hierarchical-4:primary SFSymbolsPreviewWireframe" d="M81.558-20.1807C82.7299-20.1807 83.8041-19.79 84.8783-18.7158L94.0091-9.92675C94.7904-9.19433 95.2299-8.21777 95.2299-7.14355C95.2299-4.84863 93.3744-2.94433 91.0306-2.94433C89.9076-2.94433 88.7357-3.38378 88.1498-4.21386L86.0013-7.14355L85.9525-7.19238L86.099-4.55566L86.099 1.69434C86.099 4.33106 84.2923 6.08887 81.558 6.08887C78.8236 6.08887 77.017 4.33106 77.017 1.69434L77.017-4.55566L77.1634-7.19238L77.1146-7.14355L74.9662-4.21386C74.3802-3.38378 73.2084-2.94433 72.0853-2.94433C69.7416-2.94433 67.8861-4.84863 67.8861-7.14355C67.8861-8.21777 68.3255-9.19433 69.1068-9.92675L78.2377-18.7158C79.3119-19.79 80.3861-20.1807 81.558-20.1807Z"/>
  </g>
  <g id="Regular-S" transform="matrix(1 0 0 1 1407.56 696)">
   <path class="monochrome-0 multicolor-0:tintColor hierarchical-0:secondary SFSymbolsPreviewWireframe" d="M22.0215 9.13086L62.5 9.13086C70.7031 9.13086 74.8047 5.0293 74.8047-3.32031L74.8047-60.7422C74.8047-68.8477 70.8984-73.1934 63.0371-73.1934L62.7441-73.1934C62.793-72.8516 62.793-72.4609 62.793-72.1191L62.793-68.1641C62.793-67.4316 62.7441-66.748 62.5977-66.1133L62.8906-66.1133C66.1133-66.1133 67.7246-63.916 67.7246-60.6445L67.7246-3.41797C67.7246 0.0976562 65.8203 2.09961 62.1582 2.09961L22.4121 2.09961C18.7012 2.09961 16.7969 0.0976562 16.7969-3.41797L16.7969-60.6445C16.7969-63.916 18.4082-66.1133 21.6797-66.1133L21.9727-66.1133C21.8262-66.748 21.7773-67.4316 21.7773-68.1641L21.7773-72.1191C21.7773-72.4609 21.7773-72.8516 21.8262-73.1934L21.5332-73.1934C13.623-73.1934 9.76562-68.8477 9.76562-60.7422L9.76562-3.32031C9.76562 5.0293 13.8184 9.13086 22.0215 9.13086ZM30.3711-63.916L54.1504-63.916C56.543-63.916 58.0078-65.4297 58.0078-68.0176L58.0078-72.1191C58.0078-74.707 56.543-76.2207 54.1504-76.2207L50.9766-76.2207C50.6836-80.7129 46.9238-84.3262 42.2852-84.3262C37.6465-84.3262 33.8867-80.7129 33.5449-76.2207L30.3711-76.2207C27.9785-76.2207 26.5625-74.707 26.5625-72.1191L26.5625-68.0176C26.5625-65.4297 27.9785-63.916 30.3711-63.916ZM42.2852-72.5586C40.4785-72.5586 38.9648-74.0723 38.9648-75.8789C38.9648-77.6855 40.4785-79.1504 42.2852-79.1504C44.0918-79.1504 45.5566-77.6855 45.5566-75.8789C45.5566-74.0723 44.0918-72.5586 42.2852-72.5586Z"/>
   <path class="monochrome-1 multicolor-1:tintColor hierarchical-1:secondary SFSymbolsPreviewWireframe" d="M25.6836-23.6328L58.8867-23.6328C60.4004-23.6328 61.5723-24.8047 61.5723-26.3184C61.5723-27.7832 60.4004-28.9551 58.8867-28.9551L25.6836-28.9551C24.1699-28.9551 22.998-27.7832 22.998-26.3184C22.998-24.8047 24.1699-23.6328 25.6836-23.6328ZM25.6836-9.47266L44.6289-9.47266C46.0938-9.47266 47.3145-10.6934 47.3145-12.1582C47.3145-13.623 46.1426-14.7949 44.6289-14.7949L25.6836-14.7949C24.1699-14.7949 22.998-13.623 22.998-12.1582C22.998-10.6934 24.2188-9.47266 25.6836-9.47266ZM26.416-43.7988C28.6133-43.7988 30.3711-45.5566 30.3711-47.7051C30.3711-49.9023 28.6133-51.6602 26.416-51.6602C24.2676-51.6602 22.5098-49.9023 22.5098-47.7051C22.5098-45.5566 24.2676-43.7988 26.416-43.7988ZM24.5605-46.4844L41.6016-37.8418L43.6523-41.3086L26.5625-49.8535ZM42.0898-36.2305C44.2871-36.2305 45.9961-37.9883 45.9961-40.1367C45.9961-42.334 44.2871-44.043 42.0898-44.043C39.8926-44.043 38.1836-42.334 38.1836-40.1367C38.1836-37.9883 39.8926-36.2305 42.0898-36.2305ZM40.9668-41.5527L43.2617-38.3301L59.5215-50.1465L57.2266-53.3691ZM58.1055-47.4609C60.3027-47.4609 62.0117-49.1699 62.0117-51.3184C62.0117-53.5645 60.3027-55.2734 58.1055-55.2734C55.9082-55.2734 54.1992-53.5645 54.1992-51.3184C54.1992-49.1699 55.9082-47.4609 58.1055-47.4609Z"/>
   <path class="monochrome-2 multicolor-2:tintColor hierarchical-2:primary SFSymbolsPreviewWireframe" d="M76.113 18.3692C89.9314 18.3692 101.504 6.79688 101.504-7.0703C101.504-20.9863 90.0291-32.4609 76.113-32.4609C62.197-32.4609 50.7224-20.9863 50.7224-7.0703C50.7224 6.94337 62.1482 18.3692 76.113 18.3692Z"/>
   <path class="monochrome-3 multicolor-3:tintColor hierarchical-3:primary SFSymbolsPreviewWireframe" d="M76.113 12.6563C86.7576 12.6563 95.7908 3.72071 95.7908-7.0703C95.7908-17.8613 86.9041-26.748 76.113-26.748C65.322-26.748 56.4353-17.8613 56.4353-7.0703C56.4353 3.76954 65.322 12.6563 76.113 12.6563Z"/>
   <path class="monochrome-4 multicolor-4:white hierarchical-4:primary SFSymbolsPreviewWireframe" d="M76.1619-19.3749C76.8943-19.3749 77.4314-19.0331 78.1638-18.3496L88.1248-9.26757C88.7107-8.77929 88.9548-8.14452 88.9548-7.36327C88.9548-5.94726 87.8318-4.82421 86.4158-4.92187C85.6834-4.97069 85.0486-5.26366 84.5115-5.75194L80.4588-9.80468L78.7498-11.6601L78.9451-6.97265L78.9451 2.54884C78.9451 4.01368 77.6756 5.23438 76.1619 5.23438C74.6482 5.23438 73.3787 4.01368 73.3787 2.54884L73.3787-6.97265L73.6228-11.6601L71.8161-9.80468L67.8122-5.75194C67.3239-5.26366 66.5915-4.87304 65.8591-4.92187C64.4431-4.92187 63.2712-5.94726 63.3689-7.36327C63.4177-8.14452 63.6618-8.77929 64.2478-9.26757L74.1111-18.3496C74.8923-19.082 75.4783-19.3749 76.1619-19.3749Z"/>
  </g>
  <g id="Ultralight-S" transform="matrix(1 0 0 1 519.288 696)">
   <path class="monochrome-0 multicolor-0:tintColor hierarchical-0:secondary SFSymbolsPreviewWireframe" d="M19.751 7.76857L61.0923 7.76857C67.6607 7.76857 71.0811 4.34815 71.0811-2.18507L71.0811-62.8764C71.0811-69.3926 67.6289-72.8755 61.1299-72.8755L57.3858-72.8755C57.3892-72.7153 57.3892-72.5063 57.3892-72.3462L57.3892-71.2065C57.3892-71.0644 57.3858-70.8349 57.4209-70.6543L61.0288-70.6543C66.2041-70.6543 68.9053-67.9575 68.9053-62.7788L68.9053-2.28272C68.9053 2.86765 66.1836 5.59616 60.9775 5.59616L19.8692 5.59616C14.6597 5.59616 11.9834 2.86765 11.9834-2.28272L11.9834-62.7788C11.9834-67.9575 14.6392-70.6543 19.8179-70.6543L23.4712-70.6543C23.4609-70.8349 23.4575-71.0644 23.4575-71.2065L23.4575-72.3462C23.4575-72.5063 23.4575-72.7153 23.4609-72.8755L19.7168-72.8755C13.2144-72.8755 9.76562-69.3926 9.76562-62.8764L9.76562-2.18507C9.76562 4.34815 13.228 7.76857 19.751 7.76857ZM28.9634-66.3681L51.8799-66.3681C53.4551-66.3681 54.375-67.2461 54.375-68.6987L54.375-72.3916C54.375-73.8897 53.4551-74.7222 51.8799-74.7222L46.9351-74.7222C46.9146-78.3516 44.0176-81.2837 40.4234-81.2837C36.8745-81.2837 33.9321-78.3516 33.9082-74.7222L28.9634-74.7222C27.4336-74.7222 26.4717-73.8897 26.4717-72.3916L26.4717-68.6987C26.4717-67.2461 27.4336-66.3681 28.9634-66.3681ZM40.4234-71.1963C38.4351-71.1963 36.876-72.8008 36.876-74.7437C36.876-76.7774 38.4351-78.333 40.4234-78.333C42.4116-78.333 43.9673-76.7774 43.9673-74.7437C43.9673-72.8008 42.4116-71.1963 40.4234-71.1963Z"/>
   <path class="monochrome-1 multicolor-1:tintColor hierarchical-1:secondary SFSymbolsPreviewWireframe" d="M22.2324-23.0879L58.6143-23.0879C59.1743-23.0879 59.6651-23.5332 59.6651-24.1387C59.6651-24.7407 59.1743-25.1861 58.6143-25.1861L22.2324-25.1861C21.6724-25.1861 21.1817-24.7407 21.1817-24.1387C21.1817-23.5332 21.6724-23.0879 22.2324-23.0879ZM22.2324-8.01954L43.0396-8.01954C43.6416-8.01954 44.0904-8.51369 44.0904-9.11575C44.0904-9.67239 43.645-10.1631 43.0396-10.1631L22.2324-10.1631C21.6724-10.1631 21.1817-9.67239 21.1817-9.11575C21.1817-8.51369 21.6758-8.01954 22.2324-8.01954ZM23.9639-43.2993C25.5254-43.2993 26.7383-44.5576 26.7383-46.0703C26.7383-47.6319 25.5254-48.8902 23.9639-48.8902C22.4058-48.8902 21.1475-47.6319 21.1475-46.0703C21.1475-44.5576 22.4058-43.2993 23.9639-43.2993ZM23.0166-45.5308L39.0132-37.4331L39.9287-39.2197L23.9741-47.3106ZM40.1372-35.5039C41.6988-35.5039 42.9536-36.7168 42.9536-38.2749C42.9536-39.8364 41.6988-41.0913 40.1372-41.0913C38.5757-41.0913 37.3662-39.8364 37.3662-38.2749C37.3662-36.7168 38.5757-35.5039 40.1372-35.5039ZM40.7852-39.2368L41.9902-37.6943L57.2964-50.0557L56.0459-51.5982ZM56.8794-47.9604C58.4409-47.9604 59.6958-49.2153 59.6958-50.7734C59.6958-52.293 58.4409-53.5479 56.8794-53.5479C55.3633-53.5479 54.1084-52.293 54.1084-50.7734C54.1084-49.2153 55.3633-47.9604 56.8794-47.9604Z"/>
   <path class="monochrome-2 multicolor-2:tintColor hierarchical-2:primary SFSymbolsPreviewWireframe" d="M72.7614 14.305C84.4454 14.305 94.1106 4.68529 94.1106-7.04764C94.1106-18.7839 84.4978-28.3967 72.7614-28.3967C61.0704-28.3967 51.4123-18.7385 51.4123-7.04764C51.4123 4.65013 61.067 14.305 72.7614 14.305Z"/>
   <path class="monochrome-3 multicolor-3:tintColor hierarchical-3:primary SFSymbolsPreviewWireframe" d="M72.7614 11.2259C82.7701 11.2259 91.0314 2.97141 91.0314-7.04764C91.0314-17.112 82.7805-25.363 72.7614-25.363C62.7423-25.363 54.4459-17.0666 54.4459-7.04764C54.4459 2.97483 62.7423 11.2259 72.7614 11.2259Z"/>
   <path class="monochrome-4 multicolor-4:white hierarchical-4:primary SFSymbolsPreviewWireframe" d="M72.8101-19.5793C73.2248-19.5793 73.5349-19.3738 73.7678-19.0989L83.5016-9.51736C84.0422-8.98367 84.2863-8.62137 84.2863-8.11257C84.2863-7.28689 83.7081-6.70876 82.9278-6.71559C82.5133-6.71901 82.1056-6.92116 81.8864-7.18239L79.877-9.2371L74.0812-15.0886L74.1402-9.44752L74.1402 3.70675C74.1402 4.44503 73.5519 5.03 72.8101 5.03C72.023 5.03 71.3893 4.44503 71.3893 3.70675L71.3893-9.44752L71.4972-15.0886L65.6491-9.2371L63.6886-7.18239C63.4728-6.92116 63.1037-6.71217 62.6891-6.71559C61.8634-6.71559 61.2365-7.28689 61.2432-8.11257C61.2467-8.66677 61.4909-8.98367 62.0314-9.51736L71.7584-19.0989C72.131-19.468 72.4898-19.5793 72.8101-19.5793Z"/>
  </g>
 </g>
</svg>
