<?xml version="1.0" encoding="UTF-8"?>
<!--Generator: Apple Native CoreSVG 326-->
<!DOCTYPE svg
PUBLIC "-//W3C//DTD SVG 1.1//EN"
       "http://www.w3.org/Graphics/SVG/1.1/DTD/svg11.dtd">
<svg version="1.1" xmlns="http://www.w3.org/2000/svg" xmlns:xlink="http://www.w3.org/1999/xlink" viewBox="0 0 3300 2200">
 <!--glyph: "", point size: 100.0, font version: "20.0d10e1", template writer version: "138.0.0"-->
 <style>.monochrome-0 {-sfsymbols-motion-group:5;-sfsymbols-layer-tags:3b438c8913de4e3c}
.monochrome-1 {-sfsymbols-motion-group:4;-sfsymbols-layer-tags:3b438c8913de4e3c}
.monochrome-2 {-sfsymbols-motion-group:3;-sfsymbols-layer-tags:3b438c8913de4e3c}
.monochrome-3 {-sfsymbols-motion-group:2;-sfsymbols-layer-tags:3b438c8913de4e3c}
.monochrome-4 {-sfsymbols-motion-group:1;-sfsymbols-layer-tags:3b438c8913de4e3c}
.monochrome-5 {-sfsymbols-motion-group:0;-sfsymbols-layer-tags:3b438c8913de4e3c}

.multicolor-0:tintColor {-sfsymbols-motion-group:5;-sfsymbols-layer-tags:3b438c8913de4e3c}
.multicolor-1:tintColor {-sfsymbols-motion-group:4;-sfsymbols-layer-tags:3b438c8913de4e3c}
.multicolor-2:tintColor {-sfsymbols-motion-group:3;-sfsymbols-layer-tags:3b438c8913de4e3c}
.multicolor-3:tintColor {-sfsymbols-motion-group:2;-sfsymbols-layer-tags:3b438c8913de4e3c}
.multicolor-4:tintColor {-sfsymbols-motion-group:1;-sfsymbols-layer-tags:3b438c8913de4e3c}
.multicolor-5:tintColor {-sfsymbols-motion-group:0;-sfsymbols-layer-tags:3b438c8913de4e3c}

.hierarchical-0:primary {-sfsymbols-motion-group:5;-sfsymbols-layer-tags:3b438c8913de4e3c}
.hierarchical-1:secondary {-sfsymbols-motion-group:4;-sfsymbols-layer-tags:3b438c8913de4e3c}
.hierarchical-2:primary {-sfsymbols-motion-group:3;-sfsymbols-layer-tags:3b438c8913de4e3c}
.hierarchical-3:tertiary {-sfsymbols-motion-group:2;-sfsymbols-layer-tags:3b438c8913de4e3c}
.hierarchical-4:primary {-sfsymbols-motion-group:1;-sfsymbols-layer-tags:3b438c8913de4e3c}
.hierarchical-5:tertiary {-sfsymbols-motion-group:0;-sfsymbols-layer-tags:3b438c8913de4e3c}

.SFSymbolsPreviewWireframe {fill:none;opacity:1.0;stroke:black;stroke-width:0.5}
</style>
 <g id="Notes">
  <rect height="2200" id="artboard" style="fill:white;opacity:1" width="3300" x="0" y="0"/>
  <line style="fill:none;stroke:black;opacity:1;stroke-width:0.5;" x1="263" x2="3036" y1="292" y2="292"/>
  <text style="stroke:none;fill:black;font-family:sans-serif;font-size:13;font-weight:bold;" transform="matrix(1 0 0 1 263 322)">Weight/Scale Variations</text>
  <text style="stroke:none;fill:black;font-family:sans-serif;font-size:13;text-anchor:middle;" transform="matrix(1 0 0 1 559.711 322)">Ultralight</text>
  <text style="stroke:none;fill:black;font-family:sans-serif;font-size:13;text-anchor:middle;" transform="matrix(1 0 0 1 856.422 322)">Thin</text>
  <text style="stroke:none;fill:black;font-family:sans-serif;font-size:13;text-anchor:middle;" transform="matrix(1 0 0 1 1153.13 322)">Light</text>
  <text style="stroke:none;fill:black;font-family:sans-serif;font-size:13;text-anchor:middle;" transform="matrix(1 0 0 1 1449.84 322)">Regular</text>
  <text style="stroke:none;fill:black;font-family:sans-serif;font-size:13;text-anchor:middle;" transform="matrix(1 0 0 1 1746.56 322)">Medium</text>
  <text style="stroke:none;fill:black;font-family:sans-serif;font-size:13;text-anchor:middle;" transform="matrix(1 0 0 1 2043.27 322)">Semibold</text>
  <text style="stroke:none;fill:black;font-family:sans-serif;font-size:13;text-anchor:middle;" transform="matrix(1 0 0 1 2339.98 322)">Bold</text>
  <text style="stroke:none;fill:black;font-family:sans-serif;font-size:13;text-anchor:middle;" transform="matrix(1 0 0 1 2636.69 322)">Heavy</text>
  <text style="stroke:none;fill:black;font-family:sans-serif;font-size:13;text-anchor:middle;" transform="matrix(1 0 0 1 2933.4 322)">Black</text>
  <line style="fill:none;stroke:black;opacity:1;stroke-width:0.5;" x1="263" x2="3036" y1="1903" y2="1903"/>
  <g transform="matrix(0.2 0 0 0.2 263 1933)">
   <path d="m46.2402 4.15039c21.7773 0 39.4531-17.627 39.4531-39.4043s-17.6758-39.4043-39.4531-39.4043c-21.7285 0-39.4043 17.627-39.4043 39.4043s17.6758 39.4043 39.4043 39.4043Zm0-7.42188c-17.6758 0-31.9336-14.3066-31.9336-31.9824s14.2578-31.9824 31.9336-31.9824 31.9824 14.3066 31.9824 31.9824-14.3066 31.9824-31.9824 31.9824Zm-17.9688-31.9824c0 2.14844 1.51367 3.61328 3.75977 3.61328h10.498v10.5957c0 2.19727 1.46484 3.71094 3.61328 3.71094 2.24609 0 3.71094-1.51367 3.71094-3.71094v-10.5957h10.5957c2.19727 0 3.71094-1.46484 3.71094-3.61328 0-2.19727-1.51367-3.71094-3.71094-3.71094h-10.5957v-10.5469c0-2.24609-1.46484-3.75977-3.71094-3.75977-2.14844 0-3.61328 1.51367-3.61328 3.75977v10.5469h-10.498c-2.24609 0-3.75977 1.51367-3.75977 3.71094Z"/>
  </g>
  <g transform="matrix(0.2 0 0 0.2 281.506 1933)">
   <path d="m58.5449 14.5508c27.4902 0 49.8047-22.3145 49.8047-49.8047s-22.3145-49.8047-49.8047-49.8047-49.8047 22.3145-49.8047 49.8047 22.3145 49.8047 49.8047 49.8047Zm0-8.30078c-22.9492 0-41.5039-18.5547-41.5039-41.5039s18.5547-41.5039 41.5039-41.5039 41.5039 18.5547 41.5039 41.5039-18.5547 41.5039-41.5039 41.5039Zm-22.6562-41.5039c0 2.39258 1.66016 4.00391 4.15039 4.00391h14.3555v14.4043c0 2.44141 1.66016 4.15039 4.05273 4.15039 2.44141 0 4.15039-1.66016 4.15039-4.15039v-14.4043h14.4043c2.44141 0 4.15039-1.61133 4.15039-4.00391 0-2.44141-1.70898-4.15039-4.15039-4.15039h-14.4043v-14.3555c0-2.49023-1.70898-4.19922-4.15039-4.19922-2.39258 0-4.05273 1.70898-4.05273 4.19922v14.3555h-14.3555c-2.49023 0-4.15039 1.70898-4.15039 4.15039Z"/>
  </g>
  <g transform="matrix(0.2 0 0 0.2 304.924 1933)">
   <path d="m74.8535 28.3203c35.1074 0 63.623-28.4668 63.623-63.5742s-28.5156-63.623-63.623-63.623-63.5742 28.5156-63.5742 63.623 28.4668 63.5742 63.5742 63.5742Zm0-9.08203c-30.127 0-54.4922-24.3652-54.4922-54.4922s24.3652-54.4922 54.4922-54.4922 54.4922 24.3652 54.4922 54.4922-24.3652 54.4922-54.4922 54.4922Zm-28.8574-54.4922c0 2.58789 1.85547 4.39453 4.58984 4.39453h19.7266v19.7754c0 2.68555 1.85547 4.58984 4.44336 4.58984 2.68555 0 4.54102-1.85547 4.54102-4.58984v-19.7754h19.7754c2.68555 0 4.58984-1.80664 4.58984-4.39453 0-2.73438-1.85547-4.58984-4.58984-4.58984h-19.7754v-19.7266c0-2.73438-1.85547-4.63867-4.54102-4.63867-2.58789 0-4.44336 1.9043-4.44336 4.63867v19.7266h-19.7266c-2.73438 0-4.58984 1.85547-4.58984 4.58984Z"/>
  </g>
  <text style="stroke:none;fill:black;font-family:sans-serif;font-size:13;font-weight:bold;" transform="matrix(1 0 0 1 263 1953)">Design Variations</text>
  <text style="stroke:none;fill:black;font-family:sans-serif;font-size:13;" transform="matrix(1 0 0 1 263 1971)">Symbols are supported in up to nine weights and three scales.</text>
  <text style="stroke:none;fill:black;font-family:sans-serif;font-size:13;" transform="matrix(1 0 0 1 263 1989)">For optimal layout with text and other symbols, vertically align</text>
  <text style="stroke:none;fill:black;font-family:sans-serif;font-size:13;" transform="matrix(1 0 0 1 263 2007)">symbols with the adjacent text.</text>
  <line style="fill:none;stroke:#00AEEF;stroke-width:0.5;opacity:1.0;" x1="776" x2="776" y1="1919" y2="1933"/>
  <g transform="matrix(0.2 0 0 0.2 776 1933)">
   <path d="m16.5527 0.78125c2.58789 0 3.85742-0.976562 4.78516-3.71094l6.29883-17.2363h28.8086l6.29883 17.2363c0.927734 2.73438 2.19727 3.71094 4.73633 3.71094 2.58789 0 4.24805-1.5625 4.24805-4.00391 0-0.830078-0.146484-1.61133-0.537109-2.63672l-22.9004-60.9863c-1.12305-2.97852-3.125-4.49219-6.25-4.49219-3.02734 0-5.07812 1.46484-6.15234 4.44336l-22.9004 61.084c-0.390625 1.02539-0.537109 1.80664-0.537109 2.63672 0 2.44141 1.5625 3.95508 4.10156 3.95508Zm13.4766-28.3691 11.8652-32.8613h0.244141l11.8652 32.8613Z"/>
  </g>
  <line style="fill:none;stroke:#00AEEF;stroke-width:0.5;opacity:1.0;" x1="792.836" x2="792.836" y1="1919" y2="1933"/>
  <text style="stroke:none;fill:black;font-family:sans-serif;font-size:13;font-weight:bold;" transform="matrix(1 0 0 1 776 1953)">Margins</text>
  <text style="stroke:none;fill:black;font-family:sans-serif;font-size:13;" transform="matrix(1 0 0 1 776 1971)">Leading and trailing margins on the left and right side of each symbol</text>
  <text style="stroke:none;fill:black;font-family:sans-serif;font-size:13;" transform="matrix(1 0 0 1 776 1989)">can be adjusted by modifying the x-location of the margin guidelines.</text>
  <text style="stroke:none;fill:black;font-family:sans-serif;font-size:13;" transform="matrix(1 0 0 1 776 2007)">Modifications are automatically applied proportionally to all</text>
  <text style="stroke:none;fill:black;font-family:sans-serif;font-size:13;" transform="matrix(1 0 0 1 776 2025)">scales and weights.</text>
  <g transform="matrix(0.2 0 0 0.2 1289 1933)">
   <path d="m14.209 9.32617 8.49609 8.54492c4.29688 4.3457 9.22852 4.05273 13.8672-1.07422l53.4668-58.9355-4.83398-4.88281-53.0762 58.3984c-1.75781 2.00195-3.41797 2.49023-5.76172 0.146484l-5.85938-5.81055c-2.34375-2.29492-1.80664-4.00391 0.195312-5.81055l57.373-54.0039-4.88281-4.83398-57.959 54.4434c-4.93164 4.58984-5.32227 9.47266-1.02539 13.8184Zm32.0801-90.9668c-2.09961 2.05078-2.24609 4.93164-1.07422 6.88477 1.17188 1.80664 3.4668 2.97852 6.68945 2.14844 7.32422-1.70898 14.9414-2.00195 22.0703 2.68555l-2.92969 7.27539c-1.70898 4.15039-0.830078 7.08008 1.85547 9.81445l11.4746 11.5723c2.44141 2.44141 4.49219 2.53906 7.32422 2.05078l5.32227-0.976562 3.32031 3.36914-0.195312 2.7832c-0.195312 2.49023 0.439453 4.39453 2.88086 6.78711l3.80859 3.71094c2.39258 2.39258 5.46875 2.53906 7.8125 0.195312l14.5508-14.5996c2.34375-2.34375 2.24609-5.32227-0.146484-7.71484l-3.85742-3.80859c-2.39258-2.39258-4.24805-3.17383-6.64062-2.97852l-2.88086 0.244141-3.22266-3.17383 1.2207-5.61523c0.634766-2.83203-0.146484-5.0293-3.07617-7.95898l-10.9863-10.9375c-16.6992-16.6016-38.8672-16.2109-53.3203-1.75781Zm7.4707 1.85547c12.1582-8.88672 28.6133-7.37305 39.7461 3.75977l12.1582 12.0605c1.17188 1.17188 1.36719 2.09961 1.02539 3.80859l-1.61133 7.42188 7.51953 7.42188 4.93164-0.292969c1.26953-0.0488281 1.66016 0.0488281 2.63672 1.02539l2.88086 2.88086-12.207 12.207-2.88086-2.88086c-0.976562-0.976562-1.12305-1.36719-1.07422-2.68555l0.341797-4.88281-7.4707-7.42188-7.61719 1.26953c-1.61133 0.341797-2.34375 0.195312-3.56445-0.976562l-10.0098-10.0098c-1.26953-1.17188-1.41602-2.00195-0.634766-3.85742l4.39453-10.4492c-7.8125-7.27539-17.9688-10.4004-28.125-7.42188-0.78125 0.195312-1.07422-0.439453-0.439453-0.976562Z"/>
  </g>
  <text style="stroke:none;fill:black;font-family:sans-serif;font-size:13;font-weight:bold;" transform="matrix(1 0 0 1 1289 1953)">Exporting</text>
  <text style="stroke:none;fill:black;font-family:sans-serif;font-size:13;" transform="matrix(1 0 0 1 1289 1971)">Symbols should be outlined when exporting to ensure the</text>
  <text style="stroke:none;fill:black;font-family:sans-serif;font-size:13;" transform="matrix(1 0 0 1 1289 1989)">design is preserved when submitting to Xcode.</text>
  <text id="template-version" style="stroke:none;fill:black;font-family:sans-serif;font-size:13;text-anchor:end;" transform="matrix(1 0 0 1 3036 1933)">Template v.5.0</text>
  <text style="stroke:none;fill:black;font-family:sans-serif;font-size:13;text-anchor:end;" transform="matrix(1 0 0 1 3036 1951)">Requires Xcode 15 or greater</text>
  <text id="descriptive-name" style="stroke:none;fill:black;font-family:sans-serif;font-size:13;text-anchor:end;" transform="matrix(1 0 0 1 3036 1969)">Generated from EPUB</text>
  <text style="stroke:none;fill:black;font-family:sans-serif;font-size:13;text-anchor:end;" transform="matrix(1 0 0 1 3036 1987)">Typeset at 100.0 points</text>
  <text style="stroke:none;fill:black;font-family:sans-serif;font-size:13;" transform="matrix(1 0 0 1 263 726)">Small</text>
  <text style="stroke:none;fill:black;font-family:sans-serif;font-size:13;" transform="matrix(1 0 0 1 263 1156)">Medium</text>
  <text style="stroke:none;fill:black;font-family:sans-serif;font-size:13;" transform="matrix(1 0 0 1 263 1586)">Large</text>
 </g>
 <g id="Guides">
  <g id="H-reference" style="fill:#27AAE1;stroke:none;" transform="matrix(1 0 0 1 339 696)">
   <path d="M0.993654 0L3.63775 0L29.3281-67.1323L30.0303-67.1323L30.0303-70.459L28.1226-70.459ZM11.6885-24.4799L46.9815-24.4799L46.2315-26.7285L12.4385-26.7285ZM55.1196 0L57.7637 0L30.6382-70.459L29.4326-70.459L29.4326-67.1323Z"/>
  </g>
  <line id="Baseline-S" style="fill:none;stroke:#27AAE1;opacity:1;stroke-width:0.5;" x1="263" x2="3036" y1="696" y2="696"/>
  <line id="Capline-S" style="fill:none;stroke:#27AAE1;opacity:1;stroke-width:0.5;" x1="263" x2="3036" y1="625.541" y2="625.541"/>
  <g id="H-reference" style="fill:#27AAE1;stroke:none;" transform="matrix(1 0 0 1 339 1126)">
   <path d="M0.993654 0L3.63775 0L29.3281-67.1323L30.0303-67.1323L30.0303-70.459L28.1226-70.459ZM11.6885-24.4799L46.9815-24.4799L46.2315-26.7285L12.4385-26.7285ZM55.1196 0L57.7637 0L30.6382-70.459L29.4326-70.459L29.4326-67.1323Z"/>
  </g>
  <line id="Baseline-M" style="fill:none;stroke:#27AAE1;opacity:1;stroke-width:0.5;" x1="263" x2="3036" y1="1126" y2="1126"/>
  <line id="Capline-M" style="fill:none;stroke:#27AAE1;opacity:1;stroke-width:0.5;" x1="263" x2="3036" y1="1055.54" y2="1055.54"/>
  <g id="H-reference" style="fill:#27AAE1;stroke:none;" transform="matrix(1 0 0 1 339 1556)">
   <path d="M0.993654 0L3.63775 0L29.3281-67.1323L30.0303-67.1323L30.0303-70.459L28.1226-70.459ZM11.6885-24.4799L46.9815-24.4799L46.2315-26.7285L12.4385-26.7285ZM55.1196 0L57.7637 0L30.6382-70.459L29.4326-70.459L29.4326-67.1323Z"/>
  </g>
  <line id="Baseline-L" style="fill:none;stroke:#27AAE1;opacity:1;stroke-width:0.5;" x1="263" x2="3036" y1="1556" y2="1556"/>
  <line id="Capline-L" style="fill:none;stroke:#27AAE1;opacity:1;stroke-width:0.5;" x1="263" x2="3036" y1="1485.54" y2="1485.54"/>
  <line id="right-margin-Black-S" style="fill:none;stroke:#00AEEF;stroke-width:0.5;opacity:1.0;" x1="2979.1" x2="2979.1" y1="600.785" y2="720.121"/>
  <line id="left-margin-Black-S" style="fill:none;stroke:#00AEEF;stroke-width:0.5;opacity:1.0;" x1="2887.7" x2="2887.7" y1="600.785" y2="720.121"/>
  <line id="right-margin-Regular-S" style="fill:none;stroke:#00AEEF;stroke-width:0.5;opacity:1.0;" x1="1492.13" x2="1492.13" y1="600.785" y2="720.121"/>
  <line id="left-margin-Regular-S" style="fill:none;stroke:#00AEEF;stroke-width:0.5;opacity:1.0;" x1="1407.56" x2="1407.56" y1="600.785" y2="720.121"/>
  <line id="right-margin-Ultralight-S" style="fill:none;stroke:#00AEEF;stroke-width:0.5;opacity:1.0;" x1="600.134" x2="600.134" y1="600.785" y2="720.121"/>
  <line id="left-margin-Ultralight-S" style="fill:none;stroke:#00AEEF;stroke-width:0.5;opacity:1.0;" x1="519.288" x2="519.288" y1="600.785" y2="720.121"/>
 </g>
 <g id="Symbols">
  <g id="Black-S" transform="matrix(1 0 0 1 2887.7 696)">
   <path class="monochrome-0 multicolor-0:tintColor hierarchical-0:primary SFSymbolsPreviewWireframe" d="M18.3-75L18.3 7L75.3 7L75.3-75L18.3-75ZM17.3-71L17.3-66L76.3-66L76.3-71L17.3-71ZM18.3-75L18.3-69L75.3-69L75.3-75L18.3-75ZM77.3-78.5L16.3-78.5C15.47-78.5 14.8-77.828 14.8-77L14.8 9C14.8 9.828 15.47 10.5 16.3 10.5L77.3 10.5C78.13 10.5 78.8 9.828 78.8 9L78.8-77C78.8-77.828 78.13-78.5 77.3-78.5ZM16.3-79C15.2-79 14.3-78.105 14.3-77L14.3 9C14.3 10.105 15.2 11 16.3 11L77.3 11C78.4 11 79.3 10.105 79.3 9L79.3-77C79.3-78.105 78.4-79 77.3-79L16.3-79Z"/>
   <path class="monochrome-1 multicolor-1:tintColor hierarchical-1:secondary SFSymbolsPreviewWireframe" d="M74.78-74.488L18.82-74.488L18.82 6.487L74.78 6.487L74.78-74.488Z"/>
   <path class="monochrome-2 multicolor-2:tintColor hierarchical-2:primary SFSymbolsPreviewWireframe" d="M75.76-70.503L17.84-70.503L17.84-66.497L75.76-66.497L75.76-70.503Z"/>
   <path class="monochrome-3 multicolor-3:tintColor hierarchical-3:tertiary SFSymbolsPreviewWireframe" d="M74.78-74.5L18.82-74.5L18.82-69.5L74.78-69.5L74.78-74.5Z"/>
   <path class="monochrome-4 multicolor-4:tintColor hierarchical-4:primary SFSymbolsPreviewWireframe" d="M60.8-2C60.47-2 60.19-2.108 59.95-2.324C59.71-2.54 59.59-2.798 59.59-3.098L59.59-13.502C59.59-13.802 59.7-14.06 59.93-14.276C60.17-14.492 60.46-14.6 60.8-14.6L65.64-14.6C66.79-14.6 67.71-14.276 68.39-13.628C69.09-12.992 69.44-12.134 69.44-11.054C69.44-10.538 69.3-10.046 69.02-9.578C68.75-9.122 68.38-8.768 67.92-8.516L67.92-8.462C68.55-8.246 69.04-7.892 69.4-7.4C69.77-6.908 69.96-6.344 69.96-5.708C69.96-4.988 69.79-4.346 69.45-3.782C69.12-3.218 68.65-2.78 68.05-2.468C67.45-2.156 66.77-2 66-2L60.8-2ZM65.6-9.308C66-9.308 66.33-9.47 66.61-9.794C66.9-10.118 67.04-10.508 67.04-10.964C67.04-11.456 66.91-11.846 66.65-12.134C66.39-12.422 66.05-12.566 65.6-12.566L61.93-12.566L61.93-9.308L65.6-9.308ZM65.96-4.034C66.45-4.034 66.84-4.178 67.13-4.466C67.42-4.766 67.56-5.174 67.56-5.69C67.56-6.194 67.42-6.584 67.13-6.86C66.86-7.148 66.47-7.292 65.96-7.292L61.93-7.292L61.93-4.034L65.96-4.034ZM52.26-1.838C51.25-1.838 50.34-2.042 49.52-2.45C48.72-2.858 48.09-3.422 47.63-4.142C47.18-4.862 46.95-5.678 46.95-6.59L46.95-12.98C46.95-13.556 47.15-13.994 47.56-14.294C47.97-14.606 48.57-14.762 49.36-14.762L49.36-6.59C49.36-5.786 49.63-5.144 50.15-4.664C50.68-4.184 51.38-3.944 52.26-3.944C53.14-3.944 53.84-4.184 54.37-4.664C54.89-5.144 55.16-5.786 55.16-6.59L55.16-12.98C55.16-13.568 55.36-14.012 55.77-14.312C56.18-14.612 56.78-14.762 57.57-14.762L57.57-6.59C57.57-5.678 57.34-4.862 56.89-4.142C56.43-3.422 55.79-2.858 54.98-2.45C54.17-2.042 53.27-1.838 52.26-1.838ZM34.7-13.502C34.7-13.814 34.81-14.072 35.04-14.276C35.27-14.492 35.56-14.6 35.91-14.6L40.91-14.6C41.77-14.6 42.54-14.426 43.2-14.078C43.87-13.742 44.38-13.256 44.74-12.62C45.12-11.996 45.3-11.27 45.3-10.442C45.3-9.602 45.12-8.864 44.76-8.228C44.4-7.604 43.89-7.118 43.23-6.77C42.57-6.434 41.8-6.266 40.91-6.266L37.11-6.266L37.11-3.62C37.11-3.044 36.9-2.6 36.48-2.288C36.07-1.988 35.48-1.838 34.7-1.838L34.7-13.502ZM40.91-8.354C41.55-8.354 42.04-8.54 42.39-8.912C42.73-9.284 42.91-9.8 42.91-10.46C42.91-11.108 42.73-11.612 42.37-11.972C42.02-12.332 41.53-12.512 40.91-12.512L37.11-12.512L37.11-8.354L40.91-8.354ZM23.36-13.502C23.36-13.802 23.48-14.06 23.7-14.276C23.94-14.492 24.23-14.6 24.57-14.6L32.6-14.6C32.6-13.88 32.47-13.352 32.22-13.016C31.98-12.692 31.58-12.53 31.03-12.53L25.77-12.53L25.77-9.398L30.56-9.398C30.56-8.678 30.44-8.15 30.18-7.814C29.94-7.49 29.55-7.328 29-7.328L25.77-7.328L25.77-4.07L31.41-4.07C31.95-4.07 32.34-3.902 32.58-3.566C32.83-3.242 32.96-2.72 32.96-2L24.57-2C24.23-2 23.94-2.102 23.7-2.306C23.48-2.522 23.36-2.786 23.36-3.098L23.36-13.502Z"/>
   <path class="monochrome-0 monochrome-5 multicolor-0:tintColor multicolor-5:tintColor hierarchical-0:primary hierarchical-5:tertiary SFSymbolsPreviewWireframe" d="M39-57.75L27.6-57.75C27.57-57.75 27.55-57.728 27.55-57.7L27.55-57.3C27.55-57.272 27.57-57.25 27.6-57.25L39-57.25C39.03-57.25 39.05-57.272 39.05-57.3L39.05-57.7C39.05-57.728 39.03-57.75 39-57.75Z"/>
   <path class="monochrome-5 multicolor-5:tintColor hierarchical-5:tertiary SFSymbolsPreviewWireframe" d="M27.6-58C27.43-58 27.3-57.866 27.3-57.7L27.3-57.3C27.3-57.134 27.43-57 27.6-57L39-57C39.17-57 39.3-57.134 39.3-57.3L39.3-57.7C39.3-57.866 39.17-58 39-58L27.6-58Z"/>
   <path class="monochrome-0 monochrome-5 multicolor-0:tintColor multicolor-5:tintColor hierarchical-0:primary hierarchical-5:tertiary SFSymbolsPreviewWireframe" d="M56-54.75L31.6-54.75C31.57-54.75 31.55-54.728 31.55-54.7L31.55-54.3C31.55-54.272 31.57-54.25 31.6-54.25L56-54.25C56.03-54.25 56.05-54.272 56.05-54.3L56.05-54.7C56.05-54.728 56.03-54.75 56-54.75ZM31.6-55C31.43-55 31.3-54.866 31.3-54.7L31.3-54.3C31.3-54.134 31.43-54 31.6-54L56-54C56.17-54 56.3-54.134 56.3-54.3L56.3-54.7C56.3-54.866 56.17-55 56-55L31.6-55ZM54-51.75L34.6-51.75C34.57-51.75 34.55-51.728 34.55-51.7L34.55-51.3C34.55-51.272 34.57-51.25 34.6-51.25L54-51.25C54.03-51.25 54.05-51.272 54.05-51.3L54.05-51.7C54.05-51.728 54.03-51.75 54-51.75ZM34.6-52C34.43-52 34.3-51.866 34.3-51.7L34.3-51.3C34.3-51.134 34.43-51 34.6-51L54-51C54.17-51 54.3-51.134 54.3-51.3L54.3-51.7C54.3-51.866 54.17-52 54-52L34.6-52ZM47-48.75L27.6-48.75C27.57-48.75 27.55-48.728 27.55-48.7L27.55-48.3C27.55-48.272 27.57-48.25 27.6-48.25L47-48.25C47.03-48.25 47.05-48.272 47.05-48.3L47.05-48.7C47.05-48.728 47.03-48.75 47-48.75ZM27.6-49C27.43-49 27.3-48.866 27.3-48.7L27.3-48.3C27.3-48.134 27.43-48 27.6-48L47-48C47.17-48 47.3-48.134 47.3-48.3L47.3-48.7C47.3-48.866 47.17-49 47-49L27.6-49ZM58-45.75L27.6-45.75C27.57-45.75 27.55-45.728 27.55-45.7L27.55-45.3C27.55-45.272 27.57-45.25 27.6-45.25L58-45.25C58.03-45.25 58.05-45.272 58.05-45.3L58.05-45.7C58.05-45.728 58.03-45.75 58-45.75ZM27.6-46C27.43-46 27.3-45.866 27.3-45.7L27.3-45.3C27.3-45.134 27.43-45 27.6-45L58-45C58.17-45 58.3-45.134 58.3-45.3L58.3-45.7C58.3-45.866 58.17-46 58-46L27.6-46ZM67-45.75L59.6-45.75C59.57-45.75 59.55-45.728 59.55-45.7L59.55-45.3C59.55-45.272 59.57-45.25 59.6-45.25L67-45.25C67.03-45.25 67.05-45.272 67.05-45.3L67.05-45.7C67.05-45.728 67.03-45.75 67-45.75ZM59.6-46C59.43-46 59.3-45.866 59.3-45.7L59.3-45.3C59.3-45.134 59.43-45 59.6-45L67-45C67.17-45 67.3-45.134 67.3-45.3L67.3-45.7C67.3-45.866 67.17-46 67-46L59.6-46ZM50-48.75L48.6-48.75C48.57-48.75 48.55-48.728 48.55-48.7L48.55-48.3C48.55-48.272 48.57-48.25 48.6-48.25L50-48.25C50.03-48.25 50.05-48.272 50.05-48.3L50.05-48.7C50.05-48.728 50.03-48.75 50-48.75ZM48.6-49C48.43-49 48.3-48.866 48.3-48.7L48.3-48.3C48.3-48.134 48.43-48 48.6-48L50-48C50.17-48 50.3-48.134 50.3-48.3L50.3-48.7C50.3-48.866 50.17-49 50-49L48.6-49ZM67-48.75L51.6-48.75C51.57-48.75 51.55-48.728 51.55-48.7L51.55-48.3C51.55-48.272 51.57-48.25 51.6-48.25L67-48.25C67.03-48.25 67.05-48.272 67.05-48.3L67.05-48.7C67.05-48.728 67.03-48.75 67-48.75ZM51.6-49C51.43-49 51.3-48.866 51.3-48.7L51.3-48.3C51.3-48.134 51.43-48 51.6-48L67-48C67.17-48 67.3-48.134 67.3-48.3L67.3-48.7C67.3-48.866 67.17-49 67-49L51.6-49ZM53-57.75L44.6-57.75C44.57-57.75 44.55-57.728 44.55-57.7L44.55-57.3C44.55-57.272 44.57-57.25 44.6-57.25L53-57.25C53.03-57.25 53.05-57.272 53.05-57.3L53.05-57.7C53.05-57.728 53.03-57.75 53-57.75ZM44.6-58C44.43-58 44.3-57.866 44.3-57.7L44.3-57.3C44.3-57.134 44.43-57 44.6-57L53-57C53.17-57 53.3-57.134 53.3-57.3L53.3-57.7C53.3-57.866 53.17-58 53-58L44.6-58ZM64-51.75L55.6-51.75C55.57-51.75 55.55-51.728 55.55-51.7L55.55-51.3C55.55-51.272 55.57-51.25 55.6-51.25L64-51.25C64.03-51.25 64.05-51.272 64.05-51.3L64.05-51.7C64.05-51.728 64.03-51.75 64-51.75ZM55.6-52C55.43-52 55.3-51.866 55.3-51.7L55.3-51.3C55.3-51.134 55.43-51 55.6-51L64-51C64.17-51 64.3-51.134 64.3-51.3L64.3-51.7C64.3-51.866 64.17-52 64-52L55.6-52ZM43-57.75L40.6-57.75C40.57-57.75 40.55-57.728 40.55-57.7L40.55-57.3C40.55-57.272 40.57-57.25 40.6-57.25L43-57.25C43.03-57.25 43.05-57.272 43.05-57.3L43.05-57.7C43.05-57.728 43.03-57.75 43-57.75ZM40.6-58C40.43-58 40.3-57.866 40.3-57.7L40.3-57.3C40.3-57.134 40.43-57 40.6-57L43-57C43.17-57 43.3-57.134 43.3-57.3L43.3-57.7C43.3-57.866 43.17-58 43-58L40.6-58ZM30-54.75L27.6-54.75C27.57-54.75 27.55-54.728 27.55-54.7L27.55-54.3C27.55-54.272 27.57-54.25 27.6-54.25L30-54.25C30.03-54.25 30.05-54.272 30.05-54.3L30.05-54.7C30.05-54.728 30.03-54.75 30-54.75ZM27.6-55C27.43-55 27.3-54.866 27.3-54.7L27.3-54.3C27.3-54.134 27.43-54 27.6-54L30-54C30.17-54 30.3-54.134 30.3-54.3L30.3-54.7C30.3-54.866 30.17-55 30-55L27.6-55ZM33-51.75L27.6-51.75C27.57-51.75 27.55-51.728 27.55-51.7L27.55-51.3C27.55-51.272 27.57-51.25 27.6-51.25L33-51.25C33.03-51.25 33.05-51.272 33.05-51.3L33.05-51.7C33.05-51.728 33.03-51.75 33-51.75ZM27.6-52C27.43-52 27.3-51.866 27.3-51.7L27.3-51.3C27.3-51.134 27.43-51 27.6-51L33-51C33.17-51 33.3-51.134 33.3-51.3L33.3-51.7C33.3-51.866 33.17-52 33-52L27.6-52Z"/>
  </g>
  <g id="Regular-S" transform="matrix(1 0 0 1 1407.56 696)">
   <path class="monochrome-0 multicolor-0:tintColor hierarchical-0:primary SFSymbolsPreviewWireframe" d="M14.44-77L14.44 5L71.44 5L71.44-77L14.44-77ZM13.44-73L13.44-68L72.44-68L72.44-73L13.44-73ZM14.44-77L14.44-71L71.44-71L71.44-77L14.44-77ZM73.44-80.5L12.44-80.5C11.61-80.5 10.94-79.828 10.94-79L10.94 7C10.94 7.828 11.61 8.5 12.44 8.5L73.44 8.5C74.27 8.5 74.94 7.828 74.94 7L74.94-79C74.94-79.828 74.27-80.5 73.44-80.5ZM12.44-81C11.34-81 10.44-80.105 10.44-79L10.44 7C10.44 8.105 11.34 9 12.44 9L73.44 9C74.54 9 75.44 8.105 75.44 7L75.44-79C75.44-80.105 74.54-81 73.44-81L12.44-81Z"/>
   <path class="monochrome-1 multicolor-1:tintColor hierarchical-1:secondary SFSymbolsPreviewWireframe" d="M70.92-76.488L14.96-76.488L14.96 4.487L70.92 4.487L70.92-76.488Z"/>
   <path class="monochrome-2 multicolor-2:tintColor hierarchical-2:primary SFSymbolsPreviewWireframe" d="M71.9-72.503L13.98-72.503L13.98-68.497L71.9-68.497L71.9-72.503Z"/>
   <path class="monochrome-3 multicolor-3:tintColor hierarchical-3:tertiary SFSymbolsPreviewWireframe" d="M70.92-76.5L14.96-76.5L14.96-71.5L70.92-71.5L70.92-76.5Z"/>
   <path class="monochrome-4 multicolor-4:tintColor hierarchical-4:primary SFSymbolsPreviewWireframe" d="M56.94-4C56.61-4 56.33-4.108 56.09-4.324C55.85-4.54 55.73-4.798 55.73-5.098L55.73-15.502C55.73-15.802 55.84-16.06 56.07-16.276C56.31-16.492 56.6-16.6 56.94-16.6L61.78-16.6C62.93-16.6 63.85-16.276 64.53-15.628C65.23-14.992 65.58-14.134 65.58-13.054C65.58-12.538 65.44-12.046 65.16-11.578C64.89-11.122 64.52-10.768 64.06-10.516L64.06-10.462C64.69-10.246 65.18-9.892 65.54-9.4C65.91-8.908 66.1-8.344 66.1-7.708C66.1-6.988 65.93-6.346 65.59-5.782C65.26-5.218 64.79-4.78 64.19-4.468C63.59-4.156 62.91-4 62.14-4L56.94-4ZM61.74-11.308C62.14-11.308 62.47-11.47 62.75-11.794C63.04-12.118 63.18-12.508 63.18-12.964C63.18-13.456 63.05-13.846 62.79-14.134C62.53-14.422 62.19-14.566 61.74-14.566L58.07-14.566L58.07-11.308L61.74-11.308ZM62.1-6.034C62.59-6.034 62.98-6.178 63.27-6.466C63.56-6.766 63.7-7.174 63.7-7.69C63.7-8.194 63.56-8.584 63.27-8.86C63-9.148 62.61-9.292 62.1-9.292L58.07-9.292L58.07-6.034L62.1-6.034ZM48.4-3.838C47.39-3.838 46.48-4.042 45.66-4.45C44.86-4.858 44.23-5.422 43.77-6.142C43.32-6.862 43.09-7.678 43.09-8.59L43.09-14.98C43.09-15.556 43.29-15.994 43.7-16.294C44.11-16.606 44.71-16.762 45.5-16.762L45.5-8.59C45.5-7.786 45.77-7.144 46.29-6.664C46.82-6.184 47.52-5.944 48.4-5.944C49.28-5.944 49.98-6.184 50.51-6.664C51.03-7.144 51.3-7.786 51.3-8.59L51.3-14.98C51.3-15.568 51.5-16.012 51.91-16.312C52.32-16.612 52.92-16.762 53.71-16.762L53.71-8.59C53.71-7.678 53.48-6.862 53.03-6.142C52.57-5.422 51.93-4.858 51.12-4.45C50.31-4.042 49.41-3.838 48.4-3.838ZM30.84-15.502C30.84-15.814 30.95-16.072 31.18-16.276C31.41-16.492 31.7-16.6 32.05-16.6L37.05-16.6C37.91-16.6 38.68-16.426 39.34-16.078C40.01-15.742 40.52-15.256 40.88-14.62C41.26-13.996 41.44-13.27 41.44-12.442C41.44-11.602 41.26-10.864 40.9-10.228C40.54-9.604 40.03-9.118 39.37-8.77C38.71-8.434 37.94-8.266 37.05-8.266L33.25-8.266L33.25-5.62C33.25-5.044 33.04-4.6 32.62-4.288C32.21-3.988 31.62-3.838 30.84-3.838L30.84-15.502ZM37.05-10.354C37.69-10.354 38.18-10.54 38.53-10.912C38.87-11.284 39.05-11.8 39.05-12.46C39.05-13.108 38.87-13.612 38.51-13.972C38.16-14.332 37.67-14.512 37.05-14.512L33.25-14.512L33.25-10.354L37.05-10.354ZM19.5-15.502C19.5-15.802 19.62-16.06 19.84-16.276C20.08-16.492 20.37-16.6 20.71-16.6L28.74-16.6C28.74-15.88 28.61-15.352 28.36-15.016C28.12-14.692 27.72-14.53 27.17-14.53L21.91-14.53L21.91-11.398L26.7-11.398C26.7-10.678 26.58-10.15 26.32-9.814C26.08-9.49 25.69-9.328 25.14-9.328L21.91-9.328L21.91-6.07L27.55-6.07C28.09-6.07 28.48-5.902 28.72-5.566C28.97-5.242 29.1-4.72 29.1-4L20.71-4C20.37-4 20.08-4.102 19.84-4.306C19.62-4.522 19.5-4.786 19.5-5.098L19.5-15.502Z"/>
   <path class="monochrome-0 monochrome-5 multicolor-0:tintColor multicolor-5:tintColor hierarchical-0:primary hierarchical-5:tertiary SFSymbolsPreviewWireframe" d="M35.14-59.75L23.74-59.75C23.71-59.75 23.69-59.728 23.69-59.7L23.69-59.3C23.69-59.272 23.71-59.25 23.74-59.25L35.14-59.25C35.17-59.25 35.19-59.272 35.19-59.3L35.19-59.7C35.19-59.728 35.17-59.75 35.14-59.75Z"/>
   <path class="monochrome-5 multicolor-5:tintColor hierarchical-5:tertiary SFSymbolsPreviewWireframe" d="M23.74-60C23.57-60 23.44-59.866 23.44-59.7L23.44-59.3C23.44-59.134 23.57-59 23.74-59L35.14-59C35.31-59 35.44-59.134 35.44-59.3L35.44-59.7C35.44-59.866 35.31-60 35.14-60L23.74-60Z"/>
   <path class="monochrome-0 monochrome-5 multicolor-0:tintColor multicolor-5:tintColor hierarchical-0:primary hierarchical-5:tertiary SFSymbolsPreviewWireframe" d="M52.14-56.75L27.74-56.75C27.71-56.75 27.69-56.728 27.69-56.7L27.69-56.3C27.69-56.272 27.71-56.25 27.74-56.25L52.14-56.25C52.17-56.25 52.19-56.272 52.19-56.3L52.19-56.7C52.19-56.728 52.17-56.75 52.14-56.75ZM27.74-57C27.57-57 27.44-56.866 27.44-56.7L27.44-56.3C27.44-56.134 27.57-56 27.74-56L52.14-56C52.31-56 52.44-56.134 52.44-56.3L52.44-56.7C52.44-56.866 52.31-57 52.14-57L27.74-57ZM50.14-53.75L30.74-53.75C30.71-53.75 30.69-53.728 30.69-53.7L30.69-53.3C30.69-53.272 30.71-53.25 30.74-53.25L50.14-53.25C50.17-53.25 50.19-53.272 50.19-53.3L50.19-53.7C50.19-53.728 50.17-53.75 50.14-53.75ZM30.74-54C30.57-54 30.44-53.866 30.44-53.7L30.44-53.3C30.44-53.134 30.57-53 30.74-53L50.14-53C50.31-53 50.44-53.134 50.44-53.3L50.44-53.7C50.44-53.866 50.31-54 50.14-54L30.74-54ZM43.14-50.75L23.74-50.75C23.71-50.75 23.69-50.728 23.69-50.7L23.69-50.3C23.69-50.272 23.71-50.25 23.74-50.25L43.14-50.25C43.17-50.25 43.19-50.272 43.19-50.3L43.19-50.7C43.19-50.728 43.17-50.75 43.14-50.75ZM23.74-51C23.57-51 23.44-50.866 23.44-50.7L23.44-50.3C23.44-50.134 23.57-50 23.74-50L43.14-50C43.31-50 43.44-50.134 43.44-50.3L43.44-50.7C43.44-50.866 43.31-51 43.14-51L23.74-51ZM54.14-47.75L23.74-47.75C23.71-47.75 23.69-47.728 23.69-47.7L23.69-47.3C23.69-47.272 23.71-47.25 23.74-47.25L54.14-47.25C54.17-47.25 54.19-47.272 54.19-47.3L54.19-47.7C54.19-47.728 54.17-47.75 54.14-47.75ZM23.74-48C23.57-48 23.44-47.866 23.44-47.7L23.44-47.3C23.44-47.134 23.57-47 23.74-47L54.14-47C54.31-47 54.44-47.134 54.44-47.3L54.44-47.7C54.44-47.866 54.31-48 54.14-48L23.74-48ZM63.14-47.75L55.74-47.75C55.71-47.75 55.69-47.728 55.69-47.7L55.69-47.3C55.69-47.272 55.71-47.25 55.74-47.25L63.14-47.25C63.17-47.25 63.19-47.272 63.19-47.3L63.19-47.7C63.19-47.728 63.17-47.75 63.14-47.75ZM55.74-48C55.57-48 55.44-47.866 55.44-47.7L55.44-47.3C55.44-47.134 55.57-47 55.74-47L63.14-47C63.31-47 63.44-47.134 63.44-47.3L63.44-47.7C63.44-47.866 63.31-48 63.14-48L55.74-48ZM46.14-50.75L44.74-50.75C44.71-50.75 44.69-50.728 44.69-50.7L44.69-50.3C44.69-50.272 44.71-50.25 44.74-50.25L46.14-50.25C46.17-50.25 46.19-50.272 46.19-50.3L46.19-50.7C46.19-50.728 46.17-50.75 46.14-50.75ZM44.74-51C44.57-51 44.44-50.866 44.44-50.7L44.44-50.3C44.44-50.134 44.57-50 44.74-50L46.14-50C46.31-50 46.44-50.134 46.44-50.3L46.44-50.7C46.44-50.866 46.31-51 46.14-51L44.74-51ZM63.14-50.75L47.74-50.75C47.71-50.75 47.69-50.728 47.69-50.7L47.69-50.3C47.69-50.272 47.71-50.25 47.74-50.25L63.14-50.25C63.17-50.25 63.19-50.272 63.19-50.3L63.19-50.7C63.19-50.728 63.17-50.75 63.14-50.75ZM47.74-51C47.57-51 47.44-50.866 47.44-50.7L47.44-50.3C47.44-50.134 47.57-50 47.74-50L63.14-50C63.31-50 63.44-50.134 63.44-50.3L63.44-50.7C63.44-50.866 63.31-51 63.14-51L47.74-51ZM49.14-59.75L40.74-59.75C40.71-59.75 40.69-59.728 40.69-59.7L40.69-59.3C40.69-59.272 40.71-59.25 40.74-59.25L49.14-59.25C49.17-59.25 49.19-59.272 49.19-59.3L49.19-59.7C49.19-59.728 49.17-59.75 49.14-59.75ZM40.74-60C40.57-60 40.44-59.866 40.44-59.7L40.44-59.3C40.44-59.134 40.57-59 40.74-59L49.14-59C49.31-59 49.44-59.134 49.44-59.3L49.44-59.7C49.44-59.866 49.31-60 49.14-60L40.74-60ZM60.14-53.75L51.74-53.75C51.71-53.75 51.69-53.728 51.69-53.7L51.69-53.3C51.69-53.272 51.71-53.25 51.74-53.25L60.14-53.25C60.17-53.25 60.19-53.272 60.19-53.3L60.19-53.7C60.19-53.728 60.17-53.75 60.14-53.75ZM51.74-54C51.57-54 51.44-53.866 51.44-53.7L51.44-53.3C51.44-53.134 51.57-53 51.74-53L60.14-53C60.31-53 60.44-53.134 60.44-53.3L60.44-53.7C60.44-53.866 60.31-54 60.14-54L51.74-54ZM39.14-59.75L36.74-59.75C36.71-59.75 36.69-59.728 36.69-59.7L36.69-59.3C36.69-59.272 36.71-59.25 36.74-59.25L39.14-59.25C39.17-59.25 39.19-59.272 39.19-59.3L39.19-59.7C39.19-59.728 39.17-59.75 39.14-59.75ZM36.74-60C36.57-60 36.44-59.866 36.44-59.7L36.44-59.3C36.44-59.134 36.57-59 36.74-59L39.14-59C39.31-59 39.44-59.134 39.44-59.3L39.44-59.7C39.44-59.866 39.31-60 39.14-60L36.74-60ZM26.14-56.75L23.74-56.75C23.71-56.75 23.69-56.728 23.69-56.7L23.69-56.3C23.69-56.272 23.71-56.25 23.74-56.25L26.14-56.25C26.17-56.25 26.19-56.272 26.19-56.3L26.19-56.7C26.19-56.728 26.17-56.75 26.14-56.75ZM23.74-57C23.57-57 23.44-56.866 23.44-56.7L23.44-56.3C23.44-56.134 23.57-56 23.74-56L26.14-56C26.31-56 26.44-56.134 26.44-56.3L26.44-56.7C26.44-56.866 26.31-57 26.14-57L23.74-57ZM29.14-53.75L23.74-53.75C23.71-53.75 23.69-53.728 23.69-53.7L23.69-53.3C23.69-53.272 23.71-53.25 23.74-53.25L29.14-53.25C29.17-53.25 29.19-53.272 29.19-53.3L29.19-53.7C29.19-53.728 29.17-53.75 29.14-53.75ZM23.74-54C23.57-54 23.44-53.866 23.44-53.7L23.44-53.3C23.44-53.134 23.57-53 23.74-53L29.14-53C29.31-53 29.44-53.134 29.44-53.3L29.44-53.7C29.44-53.866 29.31-54 29.14-54L23.74-54Z"/>
  </g>
  <g id="Ultralight-S" transform="matrix(1 0 0 1 519.288 696)">
   <path class="monochrome-0 multicolor-0:tintColor hierarchical-0:primary SFSymbolsPreviewWireframe" d="M11.712-75L11.712 7L68.712 7L68.712-75L11.712-75ZM10.712-71L10.712-66L69.712-66L69.712-71L10.712-71ZM11.712-75L11.712-69L68.712-69L68.712-75L11.712-75ZM70.712-78.5L9.712-78.5C8.884-78.5 8.212-77.828 8.212-77L8.212 9C8.212 9.828 8.884 10.5 9.712 10.5L70.712 10.5C71.54 10.5 72.212 9.828 72.212 9L72.212-77C72.212-77.828 71.54-78.5 70.712-78.5ZM9.712-79C8.607-79 7.712-78.105 7.712-77L7.712 9C7.712 10.105 8.607 11 9.712 11L70.712 11C71.817 11 72.712 10.105 72.712 9L72.712-77C72.712-78.105 71.817-79 70.712-79L9.712-79Z"/>
   <path class="monochrome-1 multicolor-1:tintColor hierarchical-1:secondary SFSymbolsPreviewWireframe" d="M68.194-74.488L12.23-74.488L12.23 6.487L68.194 6.487L68.194-74.488Z"/>
   <path class="monochrome-2 multicolor-2:tintColor hierarchical-2:primary SFSymbolsPreviewWireframe" d="M69.176-70.503L11.248-70.503L11.248-66.497L69.176-66.497L69.176-70.503Z"/>
   <path class="monochrome-3 multicolor-3:tintColor hierarchical-3:tertiary SFSymbolsPreviewWireframe" d="M68.194-74.5L12.23-74.5L12.23-69.5L68.194-69.5L68.194-74.5Z"/>
   <path class="monochrome-4 multicolor-4:tintColor hierarchical-4:primary SFSymbolsPreviewWireframe" d="M54.209-2C53.885-2 53.603-2.108 53.363-2.324C53.123-2.54 53.003-2.798 53.003-3.098L53.003-13.502C53.003-13.802 53.117-14.06 53.345-14.276C53.585-14.492 53.873-14.6 54.209-14.6L59.051-14.6C60.203-14.6 61.121-14.276 61.805-13.628C62.501-12.992 62.849-12.134 62.849-11.054C62.849-10.538 62.711-10.046 62.435-9.578C62.159-9.122 61.793-8.768 61.337-8.516L61.337-8.462C61.961-8.246 62.453-7.892 62.813-7.4C63.185-6.908 63.371-6.344 63.371-5.708C63.371-4.988 63.203-4.346 62.867-3.782C62.531-3.218 62.063-2.78 61.463-2.468C60.863-2.156 60.179-2 59.411-2L54.209-2ZM59.015-9.308C59.411-9.308 59.747-9.47 60.023-9.794C60.311-10.118 60.455-10.508 60.455-10.964C60.455-11.456 60.323-11.846 60.059-12.134C59.807-12.422 59.459-12.566 59.015-12.566L55.343-12.566L55.343-9.308L59.015-9.308ZM59.375-4.034C59.867-4.034 60.257-4.178 60.545-4.466C60.833-4.766 60.977-5.174 60.977-5.69C60.977-6.194 60.833-6.584 60.545-6.86C60.269-7.148 59.879-7.292 59.375-7.292L55.343-7.292L55.343-4.034L59.375-4.034ZM45.672-1.838C44.664-1.838 43.752-2.042 42.936-2.45C42.132-2.858 41.502-3.422 41.046-4.142C40.59-4.862 40.362-5.678 40.362-6.59L40.362-12.98C40.362-13.556 40.566-13.994 40.974-14.294C41.382-14.606 41.982-14.762 42.774-14.762L42.774-6.59C42.774-5.786 43.038-5.144 43.566-4.664C44.094-4.184 44.796-3.944 45.672-3.944C46.548-3.944 47.25-4.184 47.778-4.664C48.306-5.144 48.57-5.786 48.57-6.59L48.57-12.98C48.57-13.568 48.774-14.012 49.182-14.312C49.59-14.612 50.19-14.762 50.982-14.762L50.982-6.59C50.982-5.678 50.754-4.862 50.298-4.142C49.842-3.422 49.206-2.858 48.39-2.45C47.586-2.042 46.68-1.838 45.672-1.838ZM28.112-13.502C28.112-13.814 28.226-14.072 28.454-14.276C28.682-14.492 28.97-14.6 29.318-14.6L34.322-14.6C35.186-14.6 35.948-14.426 36.608-14.078C37.28-13.742 37.796-13.256 38.156-12.62C38.528-11.996 38.714-11.27 38.714-10.442C38.714-9.602 38.534-8.864 38.174-8.228C37.814-7.604 37.304-7.118 36.644-6.77C35.984-6.434 35.21-6.266 34.322-6.266L30.524-6.266L30.524-3.62C30.524-3.044 30.314-2.6 29.894-2.288C29.486-1.988 28.892-1.838 28.112-1.838L28.112-13.502ZM34.322-8.354C34.958-8.354 35.45-8.54 35.798-8.912C36.146-9.284 36.32-9.8 36.32-10.46C36.32-11.108 36.14-11.612 35.78-11.972C35.432-12.332 34.946-12.512 34.322-12.512L30.524-12.512L30.524-8.354L34.322-8.354ZM16.774-13.502C16.774-13.802 16.888-14.06 17.116-14.276C17.356-14.492 17.644-14.6 17.98-14.6L26.008-14.6C26.008-13.88 25.882-13.352 25.63-13.016C25.39-12.692 24.994-12.53 24.442-12.53L19.186-12.53L19.186-9.398L23.974-9.398C23.974-8.678 23.848-8.15 23.596-7.814C23.356-7.49 22.96-7.328 22.408-7.328L19.186-7.328L19.186-4.07L24.82-4.07C25.36-4.07 25.75-3.902 25.99-3.566C26.242-3.242 26.368-2.72 26.368-2L17.98-2C17.644-2 17.356-2.102 17.116-2.306C16.888-2.522 16.774-2.786 16.774-3.098L16.774-13.502Z"/>
   <path class="monochrome-0 monochrome-5 multicolor-0:tintColor multicolor-5:tintColor hierarchical-0:primary hierarchical-5:tertiary SFSymbolsPreviewWireframe" d="M32.412-57.75L21.012-57.75C20.984-57.75 20.962-57.728 20.962-57.7L20.962-57.3C20.962-57.272 20.984-57.25 21.012-57.25L32.412-57.25C32.44-57.25 32.462-57.272 32.462-57.3L32.462-57.7C32.462-57.728 32.44-57.75 32.412-57.75Z"/>
   <path class="monochrome-5 multicolor-5:tintColor hierarchical-5:tertiary SFSymbolsPreviewWireframe" d="M21.012-58C20.846-58 20.712-57.866 20.712-57.7L20.712-57.3C20.712-57.134 20.846-57 21.012-57L32.412-57C32.578-57 32.712-57.134 32.712-57.3L32.712-57.7C32.712-57.866 32.578-58 32.412-58L21.012-58Z"/>
   <path class="monochrome-0 monochrome-5 multicolor-0:tintColor multicolor-5:tintColor hierarchical-0:primary hierarchical-5:tertiary SFSymbolsPreviewWireframe" d="M49.412-54.75L25.012-54.75C24.984-54.75 24.962-54.728 24.962-54.7L24.962-54.3C24.962-54.272 24.984-54.25 25.012-54.25L49.412-54.25C49.44-54.25 49.462-54.272 49.462-54.3L49.462-54.7C49.462-54.728 49.44-54.75 49.412-54.75ZM25.012-55C24.846-55 24.712-54.866 24.712-54.7L24.712-54.3C24.712-54.134 24.846-54 25.012-54L49.412-54C49.578-54 49.712-54.134 49.712-54.3L49.712-54.7C49.712-54.866 49.578-55 49.412-55L25.012-55ZM47.412-51.75L28.012-51.75C27.984-51.75 27.962-51.728 27.962-51.7L27.962-51.3C27.962-51.272 27.984-51.25 28.012-51.25L47.412-51.25C47.44-51.25 47.462-51.272 47.462-51.3L47.462-51.7C47.462-51.728 47.44-51.75 47.412-51.75ZM28.012-52C27.846-52 27.712-51.866 27.712-51.7L27.712-51.3C27.712-51.134 27.846-51 28.012-51L47.412-51C47.578-51 47.712-51.134 47.712-51.3L47.712-51.7C47.712-51.866 47.578-52 47.412-52L28.012-52ZM40.412-48.75L21.012-48.75C20.984-48.75 20.962-48.728 20.962-48.7L20.962-48.3C20.962-48.272 20.984-48.25 21.012-48.25L40.412-48.25C40.44-48.25 40.462-48.272 40.462-48.3L40.462-48.7C40.462-48.728 40.44-48.75 40.412-48.75ZM21.012-49C20.846-49 20.712-48.866 20.712-48.7L20.712-48.3C20.712-48.134 20.846-48 21.012-48L40.412-48C40.578-48 40.712-48.134 40.712-48.3L40.712-48.7C40.712-48.866 40.578-49 40.412-49L21.012-49ZM51.412-45.75L21.012-45.75C20.984-45.75 20.962-45.728 20.962-45.7L20.962-45.3C20.962-45.272 20.984-45.25 21.012-45.25L51.412-45.25C51.44-45.25 51.462-45.272 51.462-45.3L51.462-45.7C51.462-45.728 51.44-45.75 51.412-45.75ZM21.012-46C20.846-46 20.712-45.866 20.712-45.7L20.712-45.3C20.712-45.134 20.846-45 21.012-45L51.412-45C51.578-45 51.712-45.134 51.712-45.3L51.712-45.7C51.712-45.866 51.578-46 51.412-46L21.012-46ZM60.412-45.75L53.012-45.75C52.984-45.75 52.962-45.728 52.962-45.7L52.962-45.3C52.962-45.272 52.984-45.25 53.012-45.25L60.412-45.25C60.44-45.25 60.462-45.272 60.462-45.3L60.462-45.7C60.462-45.728 60.44-45.75 60.412-45.75ZM53.012-46C52.846-46 52.712-45.866 52.712-45.7L52.712-45.3C52.712-45.134 52.846-45 53.012-45L60.412-45C60.578-45 60.712-45.134 60.712-45.3L60.712-45.7C60.712-45.866 60.578-46 60.412-46L53.012-46ZM43.412-48.75L42.012-48.75C41.984-48.75 41.962-48.728 41.962-48.7L41.962-48.3C41.962-48.272 41.984-48.25 42.012-48.25L43.412-48.25C43.44-48.25 43.462-48.272 43.462-48.3L43.462-48.7C43.462-48.728 43.44-48.75 43.412-48.75ZM42.012-49C41.846-49 41.712-48.866 41.712-48.7L41.712-48.3C41.712-48.134 41.846-48 42.012-48L43.412-48C43.578-48 43.712-48.134 43.712-48.3L43.712-48.7C43.712-48.866 43.578-49 43.412-49L42.012-49ZM60.412-48.75L45.012-48.75C44.984-48.75 44.962-48.728 44.962-48.7L44.962-48.3C44.962-48.272 44.984-48.25 45.012-48.25L60.412-48.25C60.44-48.25 60.462-48.272 60.462-48.3L60.462-48.7C60.462-48.728 60.44-48.75 60.412-48.75ZM45.012-49C44.846-49 44.712-48.866 44.712-48.7L44.712-48.3C44.712-48.134 44.846-48 45.012-48L60.412-48C60.578-48 60.712-48.134 60.712-48.3L60.712-48.7C60.712-48.866 60.578-49 60.412-49L45.012-49ZM46.412-57.75L38.012-57.75C37.984-57.75 37.962-57.728 37.962-57.7L37.962-57.3C37.962-57.272 37.984-57.25 38.012-57.25L46.412-57.25C46.44-57.25 46.462-57.272 46.462-57.3L46.462-57.7C46.462-57.728 46.44-57.75 46.412-57.75ZM38.012-58C37.846-58 37.712-57.866 37.712-57.7L37.712-57.3C37.712-57.134 37.846-57 38.012-57L46.412-57C46.578-57 46.712-57.134 46.712-57.3L46.712-57.7C46.712-57.866 46.578-58 46.412-58L38.012-58ZM57.412-51.75L49.012-51.75C48.984-51.75 48.962-51.728 48.962-51.7L48.962-51.3C48.962-51.272 48.984-51.25 49.012-51.25L57.412-51.25C57.44-51.25 57.462-51.272 57.462-51.3L57.462-51.7C57.462-51.728 57.44-51.75 57.412-51.75ZM49.012-52C48.846-52 48.712-51.866 48.712-51.7L48.712-51.3C48.712-51.134 48.846-51 49.012-51L57.412-51C57.578-51 57.712-51.134 57.712-51.3L57.712-51.7C57.712-51.866 57.578-52 57.412-52L49.012-52ZM36.412-57.75L34.012-57.75C33.984-57.75 33.962-57.728 33.962-57.7L33.962-57.3C33.962-57.272 33.984-57.25 34.012-57.25L36.412-57.25C36.44-57.25 36.462-57.272 36.462-57.3L36.462-57.7C36.462-57.728 36.44-57.75 36.412-57.75ZM34.012-58C33.846-58 33.712-57.866 33.712-57.7L33.712-57.3C33.712-57.134 33.846-57 34.012-57L36.412-57C36.578-57 36.712-57.134 36.712-57.3L36.712-57.7C36.712-57.866 36.578-58 36.412-58L34.012-58ZM23.412-54.75L21.012-54.75C20.984-54.75 20.962-54.728 20.962-54.7L20.962-54.3C20.962-54.272 20.984-54.25 21.012-54.25L23.412-54.25C23.44-54.25 23.462-54.272 23.462-54.3L23.462-54.7C23.462-54.728 23.44-54.75 23.412-54.75ZM21.012-55C20.846-55 20.712-54.866 20.712-54.7L20.712-54.3C20.712-54.134 20.846-54 21.012-54L23.412-54C23.578-54 23.712-54.134 23.712-54.3L23.712-54.7C23.712-54.866 23.578-55 23.412-55L21.012-55ZM26.412-51.75L21.012-51.75C20.984-51.75 20.962-51.728 20.962-51.7L20.962-51.3C20.962-51.272 20.984-51.25 21.012-51.25L26.412-51.25C26.44-51.25 26.462-51.272 26.462-51.3L26.462-51.7C26.462-51.728 26.44-51.75 26.412-51.75ZM21.012-52C20.846-52 20.712-51.866 20.712-51.7L20.712-51.3C20.712-51.134 20.846-51 21.012-51L26.412-51C26.578-51 26.712-51.134 26.712-51.3L26.712-51.7C26.712-51.866 26.578-52 26.412-52L21.012-52Z"/>
  </g>
 </g>
</svg>
