<?xml version="1.0" encoding="UTF-8"?>
<!--Generator: Apple Native CoreSVG 326-->
<!DOCTYPE svg
PUBLIC "-//W3C//DTD SVG 1.1//EN"
       "http://www.w3.org/Graphics/SVG/1.1/DTD/svg11.dtd">
<svg version="1.1" xmlns="http://www.w3.org/2000/svg" xmlns:xlink="http://www.w3.org/1999/xlink" viewBox="0 0 3300 2200">
 <!--glyph: "", point size: 100.0, font version: "20.0d10e1", template writer version: "138.0.0"-->
 <style>.monochrome-0 {-sfsymbols-motion-group:4;-sfsymbols-layer-tags:-543b7a8d044321f7}
.monochrome-1 {-sfsymbols-motion-group:3;-sfsymbols-layer-tags:-543b7a8d044321f7}
.monochrome-2 {-sfsymbols-motion-group:2;-sfsymbols-layer-tags:-543b7a8d044321f7}
.monochrome-3 {-sfsymbols-motion-group:1;-sfsymbols-layer-tags:-543b7a8d044321f7}
.monochrome-4 {-sfsymbols-motion-group:0;-sfsymbols-layer-tags:-543b7a8d044321f7}

.multicolor-0:tintColor {-sfsymbols-motion-group:4;-sfsymbols-layer-tags:-543b7a8d044321f7}
.multicolor-1:tintColor {-sfsymbols-motion-group:3;-sfsymbols-layer-tags:-543b7a8d044321f7}
.multicolor-2:tintColor {-sfsymbols-motion-group:2;-sfsymbols-layer-tags:-543b7a8d044321f7}
.multicolor-3:tintColor {-sfsymbols-motion-group:1;-sfsymbols-layer-tags:-543b7a8d044321f7}
.multicolor-4:tintColor {-sfsymbols-motion-group:0;-sfsymbols-layer-tags:-543b7a8d044321f7}

.hierarchical-0:tertiary {-sfsymbols-motion-group:4;-sfsymbols-layer-tags:-543b7a8d044321f7}
.hierarchical-1:primary {-sfsymbols-motion-group:3;-sfsymbols-layer-tags:-543b7a8d044321f7}
.hierarchical-2:primary {-sfsymbols-motion-group:2;-sfsymbols-layer-tags:-543b7a8d044321f7}
.hierarchical-3:secondary {-sfsymbols-motion-group:1;-sfsymbols-layer-tags:-543b7a8d044321f7}
.hierarchical-4:tertiary {-sfsymbols-motion-group:0;-sfsymbols-layer-tags:-543b7a8d044321f7}

.SFSymbolsPreviewWireframe {fill:none;opacity:1.0;stroke:black;stroke-width:0.5}
</style>
 <g id="Notes">
  <rect height="2200" id="artboard" style="fill:white;opacity:1" width="3300" x="0" y="0"/>
  <line style="fill:none;stroke:black;opacity:1;stroke-width:0.5;" x1="263" x2="3036" y1="292" y2="292"/>
  <text style="stroke:none;fill:black;font-family:sans-serif;font-size:13;font-weight:bold;" transform="matrix(1 0 0 1 263 322)">Weight/Scale Variations</text>
  <text style="stroke:none;fill:black;font-family:sans-serif;font-size:13;text-anchor:middle;" transform="matrix(1 0 0 1 559.711 322)">Ultralight</text>
  <text style="stroke:none;fill:black;font-family:sans-serif;font-size:13;text-anchor:middle;" transform="matrix(1 0 0 1 856.422 322)">Thin</text>
  <text style="stroke:none;fill:black;font-family:sans-serif;font-size:13;text-anchor:middle;" transform="matrix(1 0 0 1 1153.13 322)">Light</text>
  <text style="stroke:none;fill:black;font-family:sans-serif;font-size:13;text-anchor:middle;" transform="matrix(1 0 0 1 1449.84 322)">Regular</text>
  <text style="stroke:none;fill:black;font-family:sans-serif;font-size:13;text-anchor:middle;" transform="matrix(1 0 0 1 1746.56 322)">Medium</text>
  <text style="stroke:none;fill:black;font-family:sans-serif;font-size:13;text-anchor:middle;" transform="matrix(1 0 0 1 2043.27 322)">Semibold</text>
  <text style="stroke:none;fill:black;font-family:sans-serif;font-size:13;text-anchor:middle;" transform="matrix(1 0 0 1 2339.98 322)">Bold</text>
  <text style="stroke:none;fill:black;font-family:sans-serif;font-size:13;text-anchor:middle;" transform="matrix(1 0 0 1 2636.69 322)">Heavy</text>
  <text style="stroke:none;fill:black;font-family:sans-serif;font-size:13;text-anchor:middle;" transform="matrix(1 0 0 1 2933.4 322)">Black</text>
  <line style="fill:none;stroke:black;opacity:1;stroke-width:0.5;" x1="263" x2="3036" y1="1903" y2="1903"/>
  <g transform="matrix(0.2 0 0 0.2 263 1933)">
   <path d="m46.2402 4.15039c21.7773 0 39.4531-17.627 39.4531-39.4043s-17.6758-39.4043-39.4531-39.4043c-21.7285 0-39.4043 17.627-39.4043 39.4043s17.6758 39.4043 39.4043 39.4043Zm0-7.42188c-17.6758 0-31.9336-14.3066-31.9336-31.9824s14.2578-31.9824 31.9336-31.9824 31.9824 14.3066 31.9824 31.9824-14.3066 31.9824-31.9824 31.9824Zm-17.9688-31.9824c0 2.14844 1.51367 3.61328 3.75977 3.61328h10.498v10.5957c0 2.19727 1.46484 3.71094 3.61328 3.71094 2.24609 0 3.71094-1.51367 3.71094-3.71094v-10.5957h10.5957c2.19727 0 3.71094-1.46484 3.71094-3.61328 0-2.19727-1.51367-3.71094-3.71094-3.71094h-10.5957v-10.5469c0-2.24609-1.46484-3.75977-3.71094-3.75977-2.14844 0-3.61328 1.51367-3.61328 3.75977v10.5469h-10.498c-2.24609 0-3.75977 1.51367-3.75977 3.71094Z"/>
  </g>
  <g transform="matrix(0.2 0 0 0.2 281.506 1933)">
   <path d="m58.5449 14.5508c27.4902 0 49.8047-22.3145 49.8047-49.8047s-22.3145-49.8047-49.8047-49.8047-49.8047 22.3145-49.8047 49.8047 22.3145 49.8047 49.8047 49.8047Zm0-8.30078c-22.9492 0-41.5039-18.5547-41.5039-41.5039s18.5547-41.5039 41.5039-41.5039 41.5039 18.5547 41.5039 41.5039-18.5547 41.5039-41.5039 41.5039Zm-22.6562-41.5039c0 2.39258 1.66016 4.00391 4.15039 4.00391h14.3555v14.4043c0 2.44141 1.66016 4.15039 4.05273 4.15039 2.44141 0 4.15039-1.66016 4.15039-4.15039v-14.4043h14.4043c2.44141 0 4.15039-1.61133 4.15039-4.00391 0-2.44141-1.70898-4.15039-4.15039-4.15039h-14.4043v-14.3555c0-2.49023-1.70898-4.19922-4.15039-4.19922-2.39258 0-4.05273 1.70898-4.05273 4.19922v14.3555h-14.3555c-2.49023 0-4.15039 1.70898-4.15039 4.15039Z"/>
  </g>
  <g transform="matrix(0.2 0 0 0.2 304.924 1933)">
   <path d="m74.8535 28.3203c35.1074 0 63.623-28.4668 63.623-63.5742s-28.5156-63.623-63.623-63.623-63.5742 28.5156-63.5742 63.623 28.4668 63.5742 63.5742 63.5742Zm0-9.08203c-30.127 0-54.4922-24.3652-54.4922-54.4922s24.3652-54.4922 54.4922-54.4922 54.4922 24.3652 54.4922 54.4922-24.3652 54.4922-54.4922 54.4922Zm-28.8574-54.4922c0 2.58789 1.85547 4.39453 4.58984 4.39453h19.7266v19.7754c0 2.68555 1.85547 4.58984 4.44336 4.58984 2.68555 0 4.54102-1.85547 4.54102-4.58984v-19.7754h19.7754c2.68555 0 4.58984-1.80664 4.58984-4.39453 0-2.73438-1.85547-4.58984-4.58984-4.58984h-19.7754v-19.7266c0-2.73438-1.85547-4.63867-4.54102-4.63867-2.58789 0-4.44336 1.9043-4.44336 4.63867v19.7266h-19.7266c-2.73438 0-4.58984 1.85547-4.58984 4.58984Z"/>
  </g>
  <text style="stroke:none;fill:black;font-family:sans-serif;font-size:13;font-weight:bold;" transform="matrix(1 0 0 1 263 1953)">Design Variations</text>
  <text style="stroke:none;fill:black;font-family:sans-serif;font-size:13;" transform="matrix(1 0 0 1 263 1971)">Symbols are supported in up to nine weights and three scales.</text>
  <text style="stroke:none;fill:black;font-family:sans-serif;font-size:13;" transform="matrix(1 0 0 1 263 1989)">For optimal layout with text and other symbols, vertically align</text>
  <text style="stroke:none;fill:black;font-family:sans-serif;font-size:13;" transform="matrix(1 0 0 1 263 2007)">symbols with the adjacent text.</text>
  <line style="fill:none;stroke:#00AEEF;stroke-width:0.5;opacity:1.0;" x1="776" x2="776" y1="1919" y2="1933"/>
  <g transform="matrix(0.2 0 0 0.2 776 1933)">
   <path d="m16.5527 0.78125c2.58789 0 3.85742-0.976562 4.78516-3.71094l6.29883-17.2363h28.8086l6.29883 17.2363c0.927734 2.73438 2.19727 3.71094 4.73633 3.71094 2.58789 0 4.24805-1.5625 4.24805-4.00391 0-0.830078-0.146484-1.61133-0.537109-2.63672l-22.9004-60.9863c-1.12305-2.97852-3.125-4.49219-6.25-4.49219-3.02734 0-5.07812 1.46484-6.15234 4.44336l-22.9004 61.084c-0.390625 1.02539-0.537109 1.80664-0.537109 2.63672 0 2.44141 1.5625 3.95508 4.10156 3.95508Zm13.4766-28.3691 11.8652-32.8613h0.244141l11.8652 32.8613Z"/>
  </g>
  <line style="fill:none;stroke:#00AEEF;stroke-width:0.5;opacity:1.0;" x1="792.836" x2="792.836" y1="1919" y2="1933"/>
  <text style="stroke:none;fill:black;font-family:sans-serif;font-size:13;font-weight:bold;" transform="matrix(1 0 0 1 776 1953)">Margins</text>
  <text style="stroke:none;fill:black;font-family:sans-serif;font-size:13;" transform="matrix(1 0 0 1 776 1971)">Leading and trailing margins on the left and right side of each symbol</text>
  <text style="stroke:none;fill:black;font-family:sans-serif;font-size:13;" transform="matrix(1 0 0 1 776 1989)">can be adjusted by modifying the x-location of the margin guidelines.</text>
  <text style="stroke:none;fill:black;font-family:sans-serif;font-size:13;" transform="matrix(1 0 0 1 776 2007)">Modifications are automatically applied proportionally to all</text>
  <text style="stroke:none;fill:black;font-family:sans-serif;font-size:13;" transform="matrix(1 0 0 1 776 2025)">scales and weights.</text>
  <g transform="matrix(0.2 0 0 0.2 1289 1933)">
   <path d="m14.209 9.32617 8.49609 8.54492c4.29688 4.3457 9.22852 4.05273 13.8672-1.07422l53.4668-58.9355-4.83398-4.88281-53.0762 58.3984c-1.75781 2.00195-3.41797 2.49023-5.76172 0.146484l-5.85938-5.81055c-2.34375-2.29492-1.80664-4.00391 0.195312-5.81055l57.373-54.0039-4.88281-4.83398-57.959 54.4434c-4.93164 4.58984-5.32227 9.47266-1.02539 13.8184Zm32.0801-90.9668c-2.09961 2.05078-2.24609 4.93164-1.07422 6.88477 1.17188 1.80664 3.4668 2.97852 6.68945 2.14844 7.32422-1.70898 14.9414-2.00195 22.0703 2.68555l-2.92969 7.27539c-1.70898 4.15039-0.830078 7.08008 1.85547 9.81445l11.4746 11.5723c2.44141 2.44141 4.49219 2.53906 7.32422 2.05078l5.32227-0.976562 3.32031 3.36914-0.195312 2.7832c-0.195312 2.49023 0.439453 4.39453 2.88086 6.78711l3.80859 3.71094c2.39258 2.39258 5.46875 2.53906 7.8125 0.195312l14.5508-14.5996c2.34375-2.34375 2.24609-5.32227-0.146484-7.71484l-3.85742-3.80859c-2.39258-2.39258-4.24805-3.17383-6.64062-2.97852l-2.88086 0.244141-3.22266-3.17383 1.2207-5.61523c0.634766-2.83203-0.146484-5.0293-3.07617-7.95898l-10.9863-10.9375c-16.6992-16.6016-38.8672-16.2109-53.3203-1.75781Zm7.4707 1.85547c12.1582-8.88672 28.6133-7.37305 39.7461 3.75977l12.1582 12.0605c1.17188 1.17188 1.36719 2.09961 1.02539 3.80859l-1.61133 7.42188 7.51953 7.42188 4.93164-0.292969c1.26953-0.0488281 1.66016 0.0488281 2.63672 1.02539l2.88086 2.88086-12.207 12.207-2.88086-2.88086c-0.976562-0.976562-1.12305-1.36719-1.07422-2.68555l0.341797-4.88281-7.4707-7.42188-7.61719 1.26953c-1.61133 0.341797-2.34375 0.195312-3.56445-0.976562l-10.0098-10.0098c-1.26953-1.17188-1.41602-2.00195-0.634766-3.85742l4.39453-10.4492c-7.8125-7.27539-17.9688-10.4004-28.125-7.42188-0.78125 0.195312-1.07422-0.439453-0.439453-0.976562Z"/>
  </g>
  <text style="stroke:none;fill:black;font-family:sans-serif;font-size:13;font-weight:bold;" transform="matrix(1 0 0 1 1289 1953)">Exporting</text>
  <text style="stroke:none;fill:black;font-family:sans-serif;font-size:13;" transform="matrix(1 0 0 1 1289 1971)">Symbols should be outlined when exporting to ensure the</text>
  <text style="stroke:none;fill:black;font-family:sans-serif;font-size:13;" transform="matrix(1 0 0 1 1289 1989)">design is preserved when submitting to Xcode.</text>
  <text id="template-version" style="stroke:none;fill:black;font-family:sans-serif;font-size:13;text-anchor:end;" transform="matrix(1 0 0 1 3036 1933)">Template v.5.0</text>
  <text style="stroke:none;fill:black;font-family:sans-serif;font-size:13;text-anchor:end;" transform="matrix(1 0 0 1 3036 1951)">Requires Xcode 15 or greater</text>
  <text id="descriptive-name" style="stroke:none;fill:black;font-family:sans-serif;font-size:13;text-anchor:end;" transform="matrix(1 0 0 1 3036 1969)">Generated from custom-yy</text>
  <text style="stroke:none;fill:black;font-family:sans-serif;font-size:13;text-anchor:end;" transform="matrix(1 0 0 1 3036 1987)">Typeset at 100.0 points</text>
  <text style="stroke:none;fill:black;font-family:sans-serif;font-size:13;" transform="matrix(1 0 0 1 263 726)">Small</text>
  <text style="stroke:none;fill:black;font-family:sans-serif;font-size:13;" transform="matrix(1 0 0 1 263 1156)">Medium</text>
  <text style="stroke:none;fill:black;font-family:sans-serif;font-size:13;" transform="matrix(1 0 0 1 263 1586)">Large</text>
 </g>
 <g id="Guides">
  <g id="H-reference" style="fill:#27AAE1;stroke:none;" transform="matrix(1 0 0 1 339 696)">
   <path d="M0.993654 0L3.63775 0L29.3281-67.1323L30.0303-67.1323L30.0303-70.459L28.1226-70.459ZM11.6885-24.4799L46.9815-24.4799L46.2315-26.7285L12.4385-26.7285ZM55.1196 0L57.7637 0L30.6382-70.459L29.4326-70.459L29.4326-67.1323Z"/>
  </g>
  <line id="Baseline-S" style="fill:none;stroke:#27AAE1;opacity:1;stroke-width:0.5;" x1="263" x2="3036" y1="696" y2="696"/>
  <line id="Capline-S" style="fill:none;stroke:#27AAE1;opacity:1;stroke-width:0.5;" x1="263" x2="3036" y1="625.541" y2="625.541"/>
  <g id="H-reference" style="fill:#27AAE1;stroke:none;" transform="matrix(1 0 0 1 339 1126)">
   <path d="M0.993654 0L3.63775 0L29.3281-67.1323L30.0303-67.1323L30.0303-70.459L28.1226-70.459ZM11.6885-24.4799L46.9815-24.4799L46.2315-26.7285L12.4385-26.7285ZM55.1196 0L57.7637 0L30.6382-70.459L29.4326-70.459L29.4326-67.1323Z"/>
  </g>
  <line id="Baseline-M" style="fill:none;stroke:#27AAE1;opacity:1;stroke-width:0.5;" x1="263" x2="3036" y1="1126" y2="1126"/>
  <line id="Capline-M" style="fill:none;stroke:#27AAE1;opacity:1;stroke-width:0.5;" x1="263" x2="3036" y1="1055.54" y2="1055.54"/>
  <g id="H-reference" style="fill:#27AAE1;stroke:none;" transform="matrix(1 0 0 1 339 1556)">
   <path d="M0.993654 0L3.63775 0L29.3281-67.1323L30.0303-67.1323L30.0303-70.459L28.1226-70.459ZM11.6885-24.4799L46.9815-24.4799L46.2315-26.7285L12.4385-26.7285ZM55.1196 0L57.7637 0L30.6382-70.459L29.4326-70.459L29.4326-67.1323Z"/>
  </g>
  <line id="Baseline-L" style="fill:none;stroke:#27AAE1;opacity:1;stroke-width:0.5;" x1="263" x2="3036" y1="1556" y2="1556"/>
  <line id="Capline-L" style="fill:none;stroke:#27AAE1;opacity:1;stroke-width:0.5;" x1="263" x2="3036" y1="1485.54" y2="1485.54"/>
  <line id="right-margin-Black-S" style="fill:none;stroke:#00AEEF;stroke-width:0.5;opacity:1.0;" x1="2982.23" x2="2982.23" y1="600.785" y2="720.121"/>
  <line id="left-margin-Black-S" style="fill:none;stroke:#00AEEF;stroke-width:0.5;opacity:1.0;" x1="2884.57" x2="2884.57" y1="600.785" y2="720.121"/>
  <line id="right-margin-Regular-S" style="fill:none;stroke:#00AEEF;stroke-width:0.5;opacity:1.0;" x1="1496.11" x2="1496.11" y1="600.785" y2="720.121"/>
  <line id="left-margin-Regular-S" style="fill:none;stroke:#00AEEF;stroke-width:0.5;opacity:1.0;" x1="1403.58" x2="1403.58" y1="600.785" y2="720.121"/>
  <line id="right-margin-Ultralight-S" style="fill:none;stroke:#00AEEF;stroke-width:0.5;opacity:1.0;" x1="603.773" x2="603.773" y1="600.785" y2="720.121"/>
  <line id="left-margin-Ultralight-S" style="fill:none;stroke:#00AEEF;stroke-width:0.5;opacity:1.0;" x1="515.649" x2="515.649" y1="600.785" y2="720.121"/>
 </g>
 <g id="Symbols">
  <g id="Black-S" transform="matrix(1 0 0 1 2884.57 696)">
   <path class="monochrome-0 multicolor-0:tintColor hierarchical-0:tertiary SFSymbolsPreviewWireframe" d="M84.63-32.775C84.63-53.189 68.07-69.75 47.65-69.75C27.24-69.75 10.68-53.189 10.68-32.775C10.68-12.362 27.24 4.199 47.65 4.199C68.07 4.199 84.63-12.362 84.63-32.775ZM83.08-32.775C83.08-13.34 67.5 2.393 48.12 2.643C47.97 2.647 47.81 2.649 47.65 2.649L47.65 2.454L46.74 2.442C27.67 1.961 12.38-13.586 12.38-32.775C12.38-51.065 26.27-66.045 44.09-67.827C45.25-68.072 46.44-68.2 47.65-68.2C67.25-68.2 83.08-52.367 83.08-32.775Z"/>
   <path class="monochrome-0 monochrome-1 multicolor-0:tintColor multicolor-1:tintColor hierarchical-0:tertiary hierarchical-1:primary SFSymbolsPreviewWireframe" d="M30.35-50.387C30.35-42.932 36.59-36.428 46.73-33.308L47.72-33.017L47.72-33.016C58.59-29.947 65.56-23.09 65.56-15.164C65.56-7.8 61.05-1.44 54.6 1.263C70.47-1.942 82.38-15.935 82.38-32.775C82.38-51.993 66.87-67.505 47.65-67.505C46.47-67.505 45.31-67.446 44.16-67.332C36.56-65.722 30.35-58.992 30.35-50.387Z"/>
   <path class="monochrome-0 monochrome-2 multicolor-0:tintColor multicolor-2:tintColor hierarchical-0:tertiary hierarchical-2:primary SFSymbolsPreviewWireframe" d="M85.13-32.775C85.13-12.086 68.34 4.699 47.65 4.699C26.97 4.699 10.18-12.086 10.18-32.775C10.18-53.465 26.97-70.25 47.65-70.25C68.34-70.25 85.13-53.465 85.13-32.775Z"/>
   <path class="monochrome-0 monochrome-3 multicolor-0:tintColor multicolor-3:tintColor hierarchical-0:tertiary hierarchical-3:secondary SFSymbolsPreviewWireframe" d="M29.85-50.387C29.85-58.038 34.62-64.244 40.95-66.86C24.95-63.749 12.88-49.7 12.88-32.775C12.88-13.558 28.44 1.954 47.65 1.954C48.9 1.954 50.13 1.888 51.34 1.761C59.21 0.077 65.06-6.893 65.06-15.164C65.06-22.76 58.36-29.493 47.59-32.535C36.77-35.555 29.85-42.364 29.85-50.387Z"/>
   <path class="monochrome-4 multicolor-4:tintColor hierarchical-4:tertiary SFSymbolsPreviewWireframe" d="M60.95-30.521L89.95-30.521L89.95 5.479L60.95 5.479L60.95-30.521Z"/>
  </g>
  <g id="Regular-S" transform="matrix(1 0 0 1 1403.58 696)">
   <path class="monochrome-0 multicolor-0:tintColor hierarchical-0:tertiary SFSymbolsPreviewWireframe" d="M80.62-32.775C80.62-53.189 64.06-69.75 43.64-69.75C23.23-69.75 6.67-53.189 6.67-32.775C6.67-12.362 23.23 4.199 43.64 4.199C64.06 4.199 80.62-12.362 80.62-32.775ZM79.07-32.775C79.07-13.34 63.49 2.393 44.11 2.643C43.96 2.647 43.8 2.649 43.64 2.649L43.64 2.454L42.73 2.442C23.66 1.961 8.37-13.586 8.37-32.775C8.37-51.065 22.26-66.045 40.08-67.827C41.24-68.072 42.43-68.2 43.64-68.2C63.24-68.2 79.07-52.367 79.07-32.775Z"/>
   <path class="monochrome-0 monochrome-1 multicolor-0:tintColor multicolor-1:tintColor hierarchical-0:tertiary hierarchical-1:primary SFSymbolsPreviewWireframe" d="M26.34-50.387C26.34-42.932 32.58-36.428 42.72-33.308L43.71-33.017L43.71-33.016C54.58-29.947 61.55-23.09 61.55-15.164C61.55-7.8 57.04-1.44 50.59 1.263C66.46-1.942 78.37-15.935 78.37-32.775C78.37-51.993 62.86-67.505 43.64-67.505C42.46-67.505 41.3-67.446 40.15-67.332C32.55-65.722 26.34-58.992 26.34-50.387Z"/>
   <path class="monochrome-0 monochrome-2 multicolor-0:tintColor multicolor-2:tintColor hierarchical-0:tertiary hierarchical-2:primary SFSymbolsPreviewWireframe" d="M81.12-32.775C81.12-12.086 64.33 4.699 43.64 4.699C22.96 4.699 6.17-12.086 6.17-32.775C6.17-53.465 22.96-70.25 43.64-70.25C64.33-70.25 81.12-53.465 81.12-32.775Z"/>
   <path class="monochrome-0 monochrome-3 multicolor-0:tintColor multicolor-3:tintColor hierarchical-0:tertiary hierarchical-3:secondary SFSymbolsPreviewWireframe" d="M25.84-50.387C25.84-58.038 30.61-64.244 36.94-66.86C20.94-63.749 8.87-49.7 8.87-32.775C8.87-13.558 24.43 1.954 43.64 1.954C44.89 1.954 46.12 1.888 47.33 1.761C55.2 0.077 61.05-6.893 61.05-15.164C61.05-22.76 54.35-29.493 43.58-32.535C32.76-35.555 25.84-42.364 25.84-50.387Z"/>
   <path class="monochrome-4 multicolor-4:tintColor hierarchical-4:tertiary SFSymbolsPreviewWireframe" d="M56.94-30.521L85.94-30.521L85.94 5.479L56.94 5.479L56.94-30.521Z"/>
  </g>
  <g id="Ultralight-S" transform="matrix(1 0 0 1 515.649 696)">
   <path class="monochrome-0 multicolor-0:tintColor hierarchical-0:tertiary SFSymbolsPreviewWireframe" d="M81.039-35.254C81.039-55.667 64.474-72.229 44.061-72.229C23.651-72.228 7.086-55.667 7.086-35.254C7.086-14.841 23.651 1.721 44.061 1.721C64.474 1.721 81.039-14.841 81.039-35.254ZM79.485-35.254C79.485-15.818 63.903-0.085 44.527 0.164C44.372 0.168 44.217 0.171 44.061 0.171L44.061-0.024L43.149-0.036C24.078-0.517 8.789-16.064 8.789-35.254C8.789-53.543 22.677-68.524 40.491-70.306C41.655-70.55 42.85-70.679 44.061-70.679C63.652-70.679 79.485-54.846 79.485-35.254Z"/>
   <path class="monochrome-0 monochrome-1 multicolor-0:tintColor multicolor-1:tintColor hierarchical-0:tertiary hierarchical-1:primary SFSymbolsPreviewWireframe" d="M26.751-52.865C26.751-45.411 32.996-38.907 43.135-35.786L44.128-35.495L44.129-35.494C54.995-32.425 61.967-25.568 61.968-17.643C61.968-10.279 57.461-3.919 51.001-1.216C66.879-4.421 78.79-18.414 78.79-35.254C78.79-54.472 63.278-69.983 44.061-69.983C42.88-69.983 41.713-69.925 40.563-69.811C32.966-68.201 26.751-61.471 26.751-52.865Z"/>
   <path class="monochrome-0 monochrome-2 multicolor-0:tintColor multicolor-2:tintColor hierarchical-0:tertiary hierarchical-2:primary SFSymbolsPreviewWireframe" d="M81.539-35.254C81.539-14.565 64.75 2.221 44.061 2.221C23.375 2.221 6.586-14.565 6.586-35.254C6.586-55.943 23.375-72.728 44.061-72.729C64.75-72.729 81.539-55.943 81.539-35.254Z"/>
   <path class="monochrome-0 monochrome-3 multicolor-0:tintColor multicolor-3:tintColor hierarchical-0:tertiary hierarchical-3:secondary SFSymbolsPreviewWireframe" d="M26.251-52.865C26.251-60.517 31.023-66.723 37.359-69.339C21.353-66.227 9.289-52.179 9.289-35.254C9.289-16.036 24.842-0.524 44.061-0.524C45.305-0.524 46.533-0.591 47.743-0.718C55.617-2.401 61.468-9.372 61.468-17.643C61.467-25.239 54.766-31.971 43.993-35.014C33.174-38.034 26.251-44.843 26.251-52.865Z"/>
   <path class="monochrome-4 multicolor-4:tintColor hierarchical-4:tertiary SFSymbolsPreviewWireframe" d="M57.351-33L86.351-33L86.351 3L57.351 3L57.351-33Z"/>
  </g>
 </g>
</svg>
