<?xml version="1.0" encoding="UTF-8"?>
<!--Generator: Apple Native CoreSVG 326-->
<!DOCTYPE svg
PUBLIC "-//W3C//DTD SVG 1.1//EN"
       "http://www.w3.org/Graphics/SVG/1.1/DTD/svg11.dtd">
<svg version="1.1" xmlns="http://www.w3.org/2000/svg" xmlns:xlink="http://www.w3.org/1999/xlink" viewBox="0 0 3300 2200">
 <!--glyph: "", point size: 100.0, font version: "20.0d10e1", template writer version: "138.0.0"-->
 <style>.monochrome-0 {-sfsymbols-motion-group:1;-sfsymbols-layer-tags:72146493761cd86}
.monochrome-1 {-sfsymbols-motion-group:0;-sfsymbols-layer-tags:72146493761cd86}

.multicolor-0:tintColor {-sfsymbols-motion-group:1;-sfsymbols-layer-tags:72146493761cd86}
.multicolor-1:tintColor {-sfsymbols-motion-group:0;-sfsymbols-layer-tags:72146493761cd86}

.hierarchical-0:secondary {-sfsymbols-motion-group:1;-sfsymbols-layer-tags:72146493761cd86}
.hierarchical-1:primary {-sfsymbols-motion-group:0;-sfsymbols-layer-tags:72146493761cd86}

.SFSymbolsPreviewWireframe {fill:none;opacity:1.0;stroke:black;stroke-width:0.5}
</style>
 <g id="Notes">
  <rect height="2200" id="artboard" style="fill:white;opacity:1" width="3300" x="0" y="0"/>
  <line style="fill:none;stroke:black;opacity:1;stroke-width:0.5;" x1="263" x2="3036" y1="292" y2="292"/>
  <text style="stroke:none;fill:black;font-family:sans-serif;font-size:13;font-weight:bold;" transform="matrix(1 0 0 1 263 322)">Weight/Scale Variations</text>
  <text style="stroke:none;fill:black;font-family:sans-serif;font-size:13;text-anchor:middle;" transform="matrix(1 0 0 1 559.711 322)">Ultralight</text>
  <text style="stroke:none;fill:black;font-family:sans-serif;font-size:13;text-anchor:middle;" transform="matrix(1 0 0 1 856.422 322)">Thin</text>
  <text style="stroke:none;fill:black;font-family:sans-serif;font-size:13;text-anchor:middle;" transform="matrix(1 0 0 1 1153.13 322)">Light</text>
  <text style="stroke:none;fill:black;font-family:sans-serif;font-size:13;text-anchor:middle;" transform="matrix(1 0 0 1 1449.84 322)">Regular</text>
  <text style="stroke:none;fill:black;font-family:sans-serif;font-size:13;text-anchor:middle;" transform="matrix(1 0 0 1 1746.56 322)">Medium</text>
  <text style="stroke:none;fill:black;font-family:sans-serif;font-size:13;text-anchor:middle;" transform="matrix(1 0 0 1 2043.27 322)">Semibold</text>
  <text style="stroke:none;fill:black;font-family:sans-serif;font-size:13;text-anchor:middle;" transform="matrix(1 0 0 1 2339.98 322)">Bold</text>
  <text style="stroke:none;fill:black;font-family:sans-serif;font-size:13;text-anchor:middle;" transform="matrix(1 0 0 1 2636.69 322)">Heavy</text>
  <text style="stroke:none;fill:black;font-family:sans-serif;font-size:13;text-anchor:middle;" transform="matrix(1 0 0 1 2933.4 322)">Black</text>
  <line style="fill:none;stroke:black;opacity:1;stroke-width:0.5;" x1="263" x2="3036" y1="1903" y2="1903"/>
  <g transform="matrix(0.2 0 0 0.2 263 1933)">
   <path d="m46.2402 4.15039c21.7773 0 39.4531-17.627 39.4531-39.4043s-17.6758-39.4043-39.4531-39.4043c-21.7285 0-39.4043 17.627-39.4043 39.4043s17.6758 39.4043 39.4043 39.4043Zm0-7.42188c-17.6758 0-31.9336-14.3066-31.9336-31.9824s14.2578-31.9824 31.9336-31.9824 31.9824 14.3066 31.9824 31.9824-14.3066 31.9824-31.9824 31.9824Zm-17.9688-31.9824c0 2.14844 1.51367 3.61328 3.75977 3.61328h10.498v10.5957c0 2.19727 1.46484 3.71094 3.61328 3.71094 2.24609 0 3.71094-1.51367 3.71094-3.71094v-10.5957h10.5957c2.19727 0 3.71094-1.46484 3.71094-3.61328 0-2.19727-1.51367-3.71094-3.71094-3.71094h-10.5957v-10.5469c0-2.24609-1.46484-3.75977-3.71094-3.75977-2.14844 0-3.61328 1.51367-3.61328 3.75977v10.5469h-10.498c-2.24609 0-3.75977 1.51367-3.75977 3.71094Z"/>
  </g>
  <g transform="matrix(0.2 0 0 0.2 281.506 1933)">
   <path d="m58.5449 14.5508c27.4902 0 49.8047-22.3145 49.8047-49.8047s-22.3145-49.8047-49.8047-49.8047-49.8047 22.3145-49.8047 49.8047 22.3145 49.8047 49.8047 49.8047Zm0-8.30078c-22.9492 0-41.5039-18.5547-41.5039-41.5039s18.5547-41.5039 41.5039-41.5039 41.5039 18.5547 41.5039 41.5039-18.5547 41.5039-41.5039 41.5039Zm-22.6562-41.5039c0 2.39258 1.66016 4.00391 4.15039 4.00391h14.3555v14.4043c0 2.44141 1.66016 4.15039 4.05273 4.15039 2.44141 0 4.15039-1.66016 4.15039-4.15039v-14.4043h14.4043c2.44141 0 4.15039-1.61133 4.15039-4.00391 0-2.44141-1.70898-4.15039-4.15039-4.15039h-14.4043v-14.3555c0-2.49023-1.70898-4.19922-4.15039-4.19922-2.39258 0-4.05273 1.70898-4.05273 4.19922v14.3555h-14.3555c-2.49023 0-4.15039 1.70898-4.15039 4.15039Z"/>
  </g>
  <g transform="matrix(0.2 0 0 0.2 304.924 1933)">
   <path d="m74.8535 28.3203c35.1074 0 63.623-28.4668 63.623-63.5742s-28.5156-63.623-63.623-63.623-63.5742 28.5156-63.5742 63.623 28.4668 63.5742 63.5742 63.5742Zm0-9.08203c-30.127 0-54.4922-24.3652-54.4922-54.4922s24.3652-54.4922 54.4922-54.4922 54.4922 24.3652 54.4922 54.4922-24.3652 54.4922-54.4922 54.4922Zm-28.8574-54.4922c0 2.58789 1.85547 4.39453 4.58984 4.39453h19.7266v19.7754c0 2.68555 1.85547 4.58984 4.44336 4.58984 2.68555 0 4.54102-1.85547 4.54102-4.58984v-19.7754h19.7754c2.68555 0 4.58984-1.80664 4.58984-4.39453 0-2.73438-1.85547-4.58984-4.58984-4.58984h-19.7754v-19.7266c0-2.73438-1.85547-4.63867-4.54102-4.63867-2.58789 0-4.44336 1.9043-4.44336 4.63867v19.7266h-19.7266c-2.73438 0-4.58984 1.85547-4.58984 4.58984Z"/>
  </g>
  <text style="stroke:none;fill:black;font-family:sans-serif;font-size:13;font-weight:bold;" transform="matrix(1 0 0 1 263 1953)">Design Variations</text>
  <text style="stroke:none;fill:black;font-family:sans-serif;font-size:13;" transform="matrix(1 0 0 1 263 1971)">Symbols are supported in up to nine weights and three scales.</text>
  <text style="stroke:none;fill:black;font-family:sans-serif;font-size:13;" transform="matrix(1 0 0 1 263 1989)">For optimal layout with text and other symbols, vertically align</text>
  <text style="stroke:none;fill:black;font-family:sans-serif;font-size:13;" transform="matrix(1 0 0 1 263 2007)">symbols with the adjacent text.</text>
  <line style="fill:none;stroke:#00AEEF;stroke-width:0.5;opacity:1.0;" x1="776" x2="776" y1="1919" y2="1933"/>
  <g transform="matrix(0.2 0 0 0.2 776 1933)">
   <path d="m16.5527 0.78125c2.58789 0 3.85742-0.976562 4.78516-3.71094l6.29883-17.2363h28.8086l6.29883 17.2363c0.927734 2.73438 2.19727 3.71094 4.73633 3.71094 2.58789 0 4.24805-1.5625 4.24805-4.00391 0-0.830078-0.146484-1.61133-0.537109-2.63672l-22.9004-60.9863c-1.12305-2.97852-3.125-4.49219-6.25-4.49219-3.02734 0-5.07812 1.46484-6.15234 4.44336l-22.9004 61.084c-0.390625 1.02539-0.537109 1.80664-0.537109 2.63672 0 2.44141 1.5625 3.95508 4.10156 3.95508Zm13.4766-28.3691 11.8652-32.8613h0.244141l11.8652 32.8613Z"/>
  </g>
  <line style="fill:none;stroke:#00AEEF;stroke-width:0.5;opacity:1.0;" x1="792.836" x2="792.836" y1="1919" y2="1933"/>
  <text style="stroke:none;fill:black;font-family:sans-serif;font-size:13;font-weight:bold;" transform="matrix(1 0 0 1 776 1953)">Margins</text>
  <text style="stroke:none;fill:black;font-family:sans-serif;font-size:13;" transform="matrix(1 0 0 1 776 1971)">Leading and trailing margins on the left and right side of each symbol</text>
  <text style="stroke:none;fill:black;font-family:sans-serif;font-size:13;" transform="matrix(1 0 0 1 776 1989)">can be adjusted by modifying the x-location of the margin guidelines.</text>
  <text style="stroke:none;fill:black;font-family:sans-serif;font-size:13;" transform="matrix(1 0 0 1 776 2007)">Modifications are automatically applied proportionally to all</text>
  <text style="stroke:none;fill:black;font-family:sans-serif;font-size:13;" transform="matrix(1 0 0 1 776 2025)">scales and weights.</text>
  <g transform="matrix(0.2 0 0 0.2 1289 1933)">
   <path d="m14.209 9.32617 8.49609 8.54492c4.29688 4.3457 9.22852 4.05273 13.8672-1.07422l53.4668-58.9355-4.83398-4.88281-53.0762 58.3984c-1.75781 2.00195-3.41797 2.49023-5.76172 0.146484l-5.85938-5.81055c-2.34375-2.29492-1.80664-4.00391 0.195312-5.81055l57.373-54.0039-4.88281-4.83398-57.959 54.4434c-4.93164 4.58984-5.32227 9.47266-1.02539 13.8184Zm32.0801-90.9668c-2.09961 2.05078-2.24609 4.93164-1.07422 6.88477 1.17188 1.80664 3.4668 2.97852 6.68945 2.14844 7.32422-1.70898 14.9414-2.00195 22.0703 2.68555l-2.92969 7.27539c-1.70898 4.15039-0.830078 7.08008 1.85547 9.81445l11.4746 11.5723c2.44141 2.44141 4.49219 2.53906 7.32422 2.05078l5.32227-0.976562 3.32031 3.36914-0.195312 2.7832c-0.195312 2.49023 0.439453 4.39453 2.88086 6.78711l3.80859 3.71094c2.39258 2.39258 5.46875 2.53906 7.8125 0.195312l14.5508-14.5996c2.34375-2.34375 2.24609-5.32227-0.146484-7.71484l-3.85742-3.80859c-2.39258-2.39258-4.24805-3.17383-6.64062-2.97852l-2.88086 0.244141-3.22266-3.17383 1.2207-5.61523c0.634766-2.83203-0.146484-5.0293-3.07617-7.95898l-10.9863-10.9375c-16.6992-16.6016-38.8672-16.2109-53.3203-1.75781Zm7.4707 1.85547c12.1582-8.88672 28.6133-7.37305 39.7461 3.75977l12.1582 12.0605c1.17188 1.17188 1.36719 2.09961 1.02539 3.80859l-1.61133 7.42188 7.51953 7.42188 4.93164-0.292969c1.26953-0.0488281 1.66016 0.0488281 2.63672 1.02539l2.88086 2.88086-12.207 12.207-2.88086-2.88086c-0.976562-0.976562-1.12305-1.36719-1.07422-2.68555l0.341797-4.88281-7.4707-7.42188-7.61719 1.26953c-1.61133 0.341797-2.34375 0.195312-3.56445-0.976562l-10.0098-10.0098c-1.26953-1.17188-1.41602-2.00195-0.634766-3.85742l4.39453-10.4492c-7.8125-7.27539-17.9688-10.4004-28.125-7.42188-0.78125 0.195312-1.07422-0.439453-0.439453-0.976562Z"/>
  </g>
  <text style="stroke:none;fill:black;font-family:sans-serif;font-size:13;font-weight:bold;" transform="matrix(1 0 0 1 1289 1953)">Exporting</text>
  <text style="stroke:none;fill:black;font-family:sans-serif;font-size:13;" transform="matrix(1 0 0 1 1289 1971)">Symbols should be outlined when exporting to ensure the</text>
  <text style="stroke:none;fill:black;font-family:sans-serif;font-size:13;" transform="matrix(1 0 0 1 1289 1989)">design is preserved when submitting to Xcode.</text>
  <text id="template-version" style="stroke:none;fill:black;font-family:sans-serif;font-size:13;text-anchor:end;" transform="matrix(1 0 0 1 3036 1933)">Template v.5.0</text>
  <text style="stroke:none;fill:black;font-family:sans-serif;font-size:13;text-anchor:end;" transform="matrix(1 0 0 1 3036 1951)">Requires Xcode 15 or greater</text>
  <text id="descriptive-name" style="stroke:none;fill:black;font-family:sans-serif;font-size:13;text-anchor:end;" transform="matrix(1 0 0 1 3036 1969)">Generated from custom.hand.grid</text>
  <text style="stroke:none;fill:black;font-family:sans-serif;font-size:13;text-anchor:end;" transform="matrix(1 0 0 1 3036 1987)">Typeset at 100.0 points</text>
  <text style="stroke:none;fill:black;font-family:sans-serif;font-size:13;" transform="matrix(1 0 0 1 263 726)">Small</text>
  <text style="stroke:none;fill:black;font-family:sans-serif;font-size:13;" transform="matrix(1 0 0 1 263 1156)">Medium</text>
  <text style="stroke:none;fill:black;font-family:sans-serif;font-size:13;" transform="matrix(1 0 0 1 263 1586)">Large</text>
 </g>
 <g id="Guides">
  <g id="H-reference" style="fill:#27AAE1;stroke:none;" transform="matrix(1 0 0 1 339 696)">
   <path d="M0.993654 0L3.63775 0L29.3281-67.1323L30.0303-67.1323L30.0303-70.459L28.1226-70.459ZM11.6885-24.4799L46.9815-24.4799L46.2315-26.7285L12.4385-26.7285ZM55.1196 0L57.7637 0L30.6382-70.459L29.4326-70.459L29.4326-67.1323Z"/>
  </g>
  <line id="Baseline-S" style="fill:none;stroke:#27AAE1;opacity:1;stroke-width:0.5;" x1="263" x2="3036" y1="696" y2="696"/>
  <line id="Capline-S" style="fill:none;stroke:#27AAE1;opacity:1;stroke-width:0.5;" x1="263" x2="3036" y1="625.541" y2="625.541"/>
  <g id="H-reference" style="fill:#27AAE1;stroke:none;" transform="matrix(1 0 0 1 339 1126)">
   <path d="M0.993654 0L3.63775 0L29.3281-67.1323L30.0303-67.1323L30.0303-70.459L28.1226-70.459ZM11.6885-24.4799L46.9815-24.4799L46.2315-26.7285L12.4385-26.7285ZM55.1196 0L57.7637 0L30.6382-70.459L29.4326-70.459L29.4326-67.1323Z"/>
  </g>
  <line id="Baseline-M" style="fill:none;stroke:#27AAE1;opacity:1;stroke-width:0.5;" x1="263" x2="3036" y1="1126" y2="1126"/>
  <line id="Capline-M" style="fill:none;stroke:#27AAE1;opacity:1;stroke-width:0.5;" x1="263" x2="3036" y1="1055.54" y2="1055.54"/>
  <g id="H-reference" style="fill:#27AAE1;stroke:none;" transform="matrix(1 0 0 1 339 1556)">
   <path d="M0.993654 0L3.63775 0L29.3281-67.1323L30.0303-67.1323L30.0303-70.459L28.1226-70.459ZM11.6885-24.4799L46.9815-24.4799L46.2315-26.7285L12.4385-26.7285ZM55.1196 0L57.7637 0L30.6382-70.459L29.4326-70.459L29.4326-67.1323Z"/>
  </g>
  <line id="Baseline-L" style="fill:none;stroke:#27AAE1;opacity:1;stroke-width:0.5;" x1="263" x2="3036" y1="1556" y2="1556"/>
  <line id="Capline-L" style="fill:none;stroke:#27AAE1;opacity:1;stroke-width:0.5;" x1="263" x2="3036" y1="1485.54" y2="1485.54"/>
  <line id="right-margin-Black-S" style="fill:none;stroke:#00AEEF;stroke-width:0.5;opacity:1.0;" x1="2976.86" x2="2976.86" y1="600.785" y2="720.121"/>
  <line id="left-margin-Black-S" style="fill:none;stroke:#00AEEF;stroke-width:0.5;opacity:1.0;" x1="2889.94" x2="2889.94" y1="600.785" y2="720.121"/>
  <line id="right-margin-Regular-S" style="fill:none;stroke:#00AEEF;stroke-width:0.5;opacity:1.0;" x1="1487.47" x2="1487.47" y1="600.785" y2="720.121"/>
  <line id="left-margin-Regular-S" style="fill:none;stroke:#00AEEF;stroke-width:0.5;opacity:1.0;" x1="1412.22" x2="1412.22" y1="600.785" y2="720.121"/>
  <line id="right-margin-Ultralight-S" style="fill:none;stroke:#00AEEF;stroke-width:0.5;opacity:1.0;" x1="593.837" x2="593.837" y1="600.785" y2="720.121"/>
  <line id="left-margin-Ultralight-S" style="fill:none;stroke:#00AEEF;stroke-width:0.5;opacity:1.0;" x1="525.586" x2="525.586" y1="600.785" y2="720.121"/>
 </g>
 <g id="Symbols">
  <g id="Black-S" transform="matrix(1 0 0 1 2889.94 696)">
   <path class="monochrome-0 multicolor-0:tintColor hierarchical-0:secondary SFSymbolsPreviewWireframe" d="M17.06-43.307C17.06-41.291 18.49-39.909 20.46-39.909L27.75-39.909C29.77-39.909 31.15-41.291 31.15-43.307L31.15-50.602C31.15-52.569 29.77-54 27.75-54L20.46-54C18.49-54 17.06-52.569 17.06-50.602L17.06-43.307ZM36.06-43.307C36.06-41.291 37.48-39.909 39.46-39.909L46.75-39.909C48.77-39.909 50.15-41.291 50.15-43.307L50.15-50.602C50.15-52.569 48.77-54 46.75-54L39.46-54C37.48-54 36.06-52.569 36.06-50.602L36.06-43.307ZM55.01-43.307C55.01-41.291 56.39-39.909 58.41-39.909L65.7-39.909C67.67-39.909 69.1-41.291 69.1-43.307L69.1-50.602C69.1-52.569 67.67-54 65.7-54L58.41-54C56.39-54 55.01-52.569 55.01-50.602L55.01-43.307ZM17.06-24.31C17.06-22.297 18.49-20.912 20.46-20.912L27.75-20.912C29.77-20.912 31.15-22.297 31.15-24.31L31.15-31.608C31.15-33.576 29.77-35.006 27.75-35.006L20.46-35.006C18.49-35.006 17.06-33.576 17.06-31.608L17.06-24.31ZM36.06-24.31C36.06-22.297 37.48-20.912 39.46-20.912L46.75-20.912C48.77-20.912 50.15-22.297 50.15-24.31L50.15-31.608C50.15-33.576 48.77-35.006 46.75-35.006L39.46-35.006C37.48-35.006 36.06-33.576 36.06-31.608L36.06-24.31ZM55.01-24.31C55.01-22.297 56.39-20.912 58.41-20.912L65.7-20.912C67.67-20.912 69.1-22.297 69.1-24.31L69.1-31.608C69.1-33.576 67.67-35.006 65.7-35.006L58.41-35.006C56.39-35.006 55.01-33.576 55.01-31.608L55.01-24.31ZM17.06-5.362C17.06-3.391 18.49-1.963 20.46-1.963L27.75-1.963C29.77-1.963 31.15-3.391 31.15-5.362L31.15-12.656C31.15-14.673 29.77-16.055 27.75-16.055L20.46-16.055C18.49-16.055 17.06-14.673 17.06-12.656L17.06-5.362ZM36.06-5.362C36.06-3.391 37.48-1.963 39.46-1.963L46.75-1.963C48.77-1.963 50.15-3.391 50.15-5.362L50.15-12.656C50.15-14.673 48.77-16.055 46.75-16.055L39.46-16.055C37.48-16.055 36.06-14.673 36.06-12.656L36.06-5.362ZM55.01-5.362C55.01-3.391 56.39-1.963 58.41-1.963L65.7-1.963C67.67-1.963 69.1-3.391 69.1-5.362L69.1-12.656C69.1-14.673 67.67-16.055 65.7-16.055L58.41-16.055C56.39-16.055 55.01-14.673 55.01-12.656L55.01-5.362Z"/>
   <path class="monochrome-1 multicolor-1:tintColor hierarchical-1:primary SFSymbolsPreviewWireframe" d="M37.31-40.79C38.65-41.345 39.97-40.794 40.62-39.206L46.89-23.993C47.07-23.543 47.45-23.366 47.77-23.5C48.09-23.632 48.21-24.017 48.02-24.466L45.87-29.691C45.58-30.403 45.86-30.968 46.67-31.308C48.52-32.079 50.45-31.503 51.48-29.011L52.57-26.36C52.75-25.911 53.13-25.734 53.45-25.868C53.77-26 53.89-26.385 53.7-26.834L52.53-29.676C52.23-30.415 52.46-30.931 53.33-31.294C55.24-32.087 57.25-31.226 58.17-29.007L58.81-27.452C58.99-27.003 59.37-26.826 59.69-26.96C60.01-27.092 60.15-27.487 59.97-27.936L59.07-30.121C58.89-30.559 59.03-30.908 59.49-31.101C61.54-31.951 64.25-30.474 65.75-26.823L67.11-23.516C71.3-13.347 68.66-6.735 59.95-3.107C53.8-0.541 47.15-2.472 42.03-8.52L34-18.002C33.69-18.351 33.45-18.701 33.29-19.094C32.77-20.35 33.09-21.641 34.59-22.264C35.39-22.598 36.3-22.487 37.25-21.57L43.21-15.856C43.58-15.514 43.91-15.483 44.17-15.589C44.52-15.737 44.75-16.127 44.57-16.551L36.03-37.293C35.38-38.881 36-40.241 37.31-40.79Z"/>
  </g>
  <g id="Regular-S" transform="matrix(1 0 0 1 1412.22 696)">
   <path class="monochrome-0 multicolor-0:tintColor hierarchical-0:secondary SFSymbolsPreviewWireframe" d="M13.78-43.307C13.78-41.291 15.21-39.909 17.18-39.909L24.47-39.909C26.49-39.909 27.87-41.291 27.87-43.307L27.87-50.602C27.87-52.569 26.49-54 24.47-54L17.18-54C15.21-54 13.78-52.569 13.78-50.602L13.78-43.307ZM32.78-43.307C32.78-41.291 34.2-39.909 36.18-39.909L43.47-39.909C45.49-39.909 46.87-41.291 46.87-43.307L46.87-50.602C46.87-52.569 45.49-54 43.47-54L36.18-54C34.2-54 32.78-52.569 32.78-50.602L32.78-43.307ZM51.73-43.307C51.73-41.291 53.11-39.909 55.13-39.909L62.42-39.909C64.39-39.909 65.82-41.291 65.82-43.307L65.82-50.602C65.82-52.569 64.39-54 62.42-54L55.13-54C53.11-54 51.73-52.569 51.73-50.602L51.73-43.307ZM13.78-24.31C13.78-22.297 15.21-20.912 17.18-20.912L24.47-20.912C26.49-20.912 27.87-22.297 27.87-24.31L27.87-31.608C27.87-33.576 26.49-35.006 24.47-35.006L17.18-35.006C15.21-35.006 13.78-33.576 13.78-31.608L13.78-24.31ZM32.78-24.31C32.78-22.297 34.2-20.912 36.18-20.912L43.47-20.912C45.49-20.912 46.87-22.297 46.87-24.31L46.87-31.608C46.87-33.576 45.49-35.006 43.47-35.006L36.18-35.006C34.2-35.006 32.78-33.576 32.78-31.608L32.78-24.31ZM51.73-24.31C51.73-22.297 53.11-20.912 55.13-20.912L62.42-20.912C64.39-20.912 65.82-22.297 65.82-24.31L65.82-31.608C65.82-33.576 64.39-35.006 62.42-35.006L55.13-35.006C53.11-35.006 51.73-33.576 51.73-31.608L51.73-24.31ZM13.78-5.362C13.78-3.391 15.21-1.963 17.18-1.963L24.47-1.963C26.49-1.963 27.87-3.391 27.87-5.362L27.87-12.656C27.87-14.673 26.49-16.055 24.47-16.055L17.18-16.055C15.21-16.055 13.78-14.673 13.78-12.656L13.78-5.362ZM32.78-5.362C32.78-3.391 34.2-1.963 36.18-1.963L43.47-1.963C45.49-1.963 46.87-3.391 46.87-5.362L46.87-12.656C46.87-14.673 45.49-16.055 43.47-16.055L36.18-16.055C34.2-16.055 32.78-14.673 32.78-12.656L32.78-5.362ZM51.73-5.362C51.73-3.391 53.11-1.963 55.13-1.963L62.42-1.963C64.39-1.963 65.82-3.391 65.82-5.362L65.82-12.656C65.82-14.673 64.39-16.055 62.42-16.055L55.13-16.055C53.11-16.055 51.73-14.673 51.73-12.656L51.73-5.362Z"/>
   <path class="monochrome-1 multicolor-1:tintColor hierarchical-1:primary SFSymbolsPreviewWireframe" d="M34.03-40.79C35.37-41.345 36.69-40.794 37.34-39.206L43.61-23.993C43.79-23.543 44.17-23.366 44.49-23.5C44.81-23.632 44.93-24.017 44.74-24.466L42.59-29.691C42.3-30.403 42.58-30.968 43.39-31.308C45.24-32.079 47.17-31.503 48.2-29.011L49.29-26.36C49.47-25.911 49.85-25.734 50.17-25.868C50.49-26 50.61-26.385 50.42-26.834L49.25-29.676C48.95-30.415 49.18-30.931 50.05-31.294C51.96-32.087 53.97-31.226 54.89-29.007L55.53-27.452C55.71-27.003 56.09-26.826 56.41-26.96C56.73-27.092 56.87-27.487 56.69-27.936L55.79-30.121C55.61-30.559 55.75-30.908 56.21-31.101C58.26-31.951 60.97-30.474 62.47-26.823L63.83-23.516C68.02-13.347 65.38-6.735 56.67-3.107C50.52-0.541 43.87-2.472 38.75-8.52L30.72-18.002C30.41-18.351 30.17-18.701 30.01-19.094C29.49-20.35 29.81-21.641 31.31-22.264C32.11-22.598 33.02-22.487 33.97-21.57L39.93-15.856C40.3-15.514 40.63-15.483 40.89-15.589C41.24-15.737 41.47-16.127 41.29-16.551L32.75-37.293C32.1-38.881 32.72-40.241 34.03-40.79Z"/>
  </g>
  <g id="Ultralight-S" transform="matrix(1 0 0 1 525.586 696)">
   <path class="monochrome-0 multicolor-0:tintColor hierarchical-0:secondary SFSymbolsPreviewWireframe" d="M8.414-43.307C8.414-41.291 9.841-39.909 11.816-39.909L19.103-39.909C21.123-39.909 22.505-41.291 22.505-43.307L22.505-50.602C22.505-52.569 21.123-54 19.103-54L11.816-54C9.841-54 8.414-52.569 8.414-50.602L8.414-43.307ZM27.411-43.307C27.411-41.291 28.838-39.909 30.813-39.909L38.101-39.909C40.121-39.909 41.502-41.291 41.502-43.307L41.502-50.602C41.502-52.569 40.121-54 38.101-54L30.813-54C28.838-54 27.411-52.569 27.411-50.602L27.411-43.307ZM46.359-43.307C46.359-41.291 47.744-39.909 49.761-39.909L57.052-39.909C59.023-39.909 60.454-41.291 60.454-43.307L60.454-50.602C60.454-52.569 59.023-54 57.052-54L49.761-54C47.744-54 46.359-52.569 46.359-50.602L46.359-43.307ZM8.414-24.31C8.414-22.297 9.841-20.912 11.816-20.912L19.103-20.912C21.123-20.912 22.505-22.297 22.505-24.31L22.505-31.608C22.505-33.576 21.123-35.006 19.103-35.006L11.816-35.006C9.841-35.006 8.414-33.576 8.414-31.608L8.414-24.31ZM27.411-24.31C27.411-22.297 28.838-20.912 30.813-20.912L38.101-20.912C40.121-20.912 41.502-22.297 41.502-24.31L41.502-31.608C41.502-33.576 40.121-35.006 38.101-35.006L30.813-35.006C28.838-35.006 27.411-33.576 27.411-31.608L27.411-24.31ZM46.359-24.31C46.359-22.297 47.744-20.912 49.761-20.912L57.052-20.912C59.023-20.912 60.454-22.297 60.454-24.31L60.454-31.608C60.454-33.576 59.023-35.006 57.052-35.006L49.761-35.006C47.744-35.006 46.359-33.576 46.359-31.608L46.359-24.31ZM8.414-5.362C8.414-3.391 9.841-1.963 11.816-1.963L19.103-1.963C21.123-1.963 22.505-3.391 22.505-5.362L22.505-12.656C22.505-14.673 21.123-16.055 19.103-16.055L11.816-16.055C9.841-16.055 8.414-14.673 8.414-12.656L8.414-5.362ZM27.411-5.362C27.411-3.391 28.838-1.963 30.813-1.963L38.101-1.963C40.121-1.963 41.502-3.391 41.502-5.362L41.502-12.656C41.502-14.673 40.121-16.055 38.101-16.055L30.813-16.055C28.838-16.055 27.411-14.673 27.411-12.656L27.411-5.362ZM46.359-5.362C46.359-3.391 47.744-1.963 49.761-1.963L57.052-1.963C59.023-1.963 60.454-3.391 60.454-5.362L60.454-12.656C60.454-14.673 59.023-16.055 57.052-16.055L49.761-16.055C47.744-16.055 46.359-14.673 46.359-12.656L46.359-5.362Z"/>
   <path class="monochrome-1 multicolor-1:tintColor hierarchical-1:primary SFSymbolsPreviewWireframe" d="M28.668-40.79C30.002-41.345 31.324-40.794 31.978-39.206L38.241-23.993C38.426-23.543 38.804-23.366 39.127-23.5C39.443-23.632 39.562-24.017 39.378-24.466L37.226-29.691C36.933-30.403 37.211-30.968 38.027-31.308C39.878-32.079 41.805-31.503 42.831-29.011L43.922-26.36C44.107-25.911 44.485-25.734 44.807-25.868C45.124-26 45.243-26.385 45.058-26.834L43.888-29.676C43.584-30.415 43.818-30.931 44.689-31.294C46.594-32.087 48.607-31.226 49.52-29.007L50.161-27.452C50.346-27.003 50.723-26.826 51.045-26.96C51.362-27.092 51.506-27.487 51.321-27.936L50.422-30.121C50.242-30.559 50.385-30.908 50.848-31.101C52.889-31.951 55.602-30.474 57.105-26.823L58.466-23.516C62.652-13.347 60.012-6.735 51.308-3.107C45.15-0.541 38.503-2.472 33.389-8.52L25.35-18.002C25.049-18.351 24.806-18.701 24.644-19.094C24.127-20.35 24.448-21.641 25.943-22.264C26.745-22.598 27.65-22.487 28.599-21.57L34.561-15.856C34.931-15.514 35.265-15.483 35.52-15.589C35.876-15.737 36.1-16.127 35.925-16.551L27.387-37.293C26.733-38.881 27.353-40.241 28.668-40.79Z"/>
  </g>
 </g>
</svg>
