<?xml version="1.0" encoding="UTF-8"?>
<!--Generator: Apple Native CoreSVG 326-->
<!DOCTYPE svg
PUBLIC "-//W3C//DTD SVG 1.1//EN"
       "http://www.w3.org/Graphics/SVG/1.1/DTD/svg11.dtd">
<svg version="1.1" xmlns="http://www.w3.org/2000/svg" xmlns:xlink="http://www.w3.org/1999/xlink" viewBox="0 0 3300 2200">
 <!--glyph: "", point size: 100.0, font version: "20.0d10e1", template writer version: "138.0.0"-->
 <style>.monochrome-0 {-sfsymbols-motion-group:5;-sfsymbols-layer-tags:-6221d87f5f31eb67}
.monochrome-1 {-sfsymbols-motion-group:4;-sfsymbols-layer-tags:-6221d87f5f31eb67}
.monochrome-2 {-sfsymbols-motion-group:3;-sfsymbols-layer-tags:-6221d87f5f31eb67}
.monochrome-3 {-sfsymbols-motion-group:2;-sfsymbols-layer-tags:-6221d87f5f31eb67}
.monochrome-4 {-sfsymbols-motion-group:1;-sfsymbols-layer-tags:-6221d87f5f31eb67}
.monochrome-5 {-sfsymbols-motion-group:0;-sfsymbols-layer-tags:-6221d87f5f31eb67}

.multicolor-0:tintColor {-sfsymbols-motion-group:5;-sfsymbols-layer-tags:-6221d87f5f31eb67}
.multicolor-1:tintColor {-sfsymbols-motion-group:4;-sfsymbols-layer-tags:-6221d87f5f31eb67}
.multicolor-2:tintColor {-sfsymbols-motion-group:3;-sfsymbols-layer-tags:-6221d87f5f31eb67}
.multicolor-3:tintColor {-sfsymbols-motion-group:2;-sfsymbols-layer-tags:-6221d87f5f31eb67}
.multicolor-4:tintColor {-sfsymbols-motion-group:1;-sfsymbols-layer-tags:-6221d87f5f31eb67}
.multicolor-5:tintColor {-sfsymbols-motion-group:0;-sfsymbols-layer-tags:-6221d87f5f31eb67}

.hierarchical-0:primary {-sfsymbols-motion-group:5;-sfsymbols-layer-tags:-6221d87f5f31eb67}
.hierarchical-1:secondary {-sfsymbols-motion-group:4;-sfsymbols-layer-tags:-6221d87f5f31eb67}
.hierarchical-2:primary {-sfsymbols-motion-group:3;-sfsymbols-layer-tags:-6221d87f5f31eb67}
.hierarchical-3:primary {-sfsymbols-motion-group:2;-sfsymbols-layer-tags:-6221d87f5f31eb67}
.hierarchical-4:tertiary {-sfsymbols-motion-group:1;-sfsymbols-layer-tags:-6221d87f5f31eb67}
.hierarchical-5:tertiary {-sfsymbols-motion-group:0;-sfsymbols-layer-tags:-6221d87f5f31eb67}

.SFSymbolsPreviewWireframe {fill:none;opacity:1.0;stroke:black;stroke-width:0.5}
</style>
 <g id="Notes">
  <rect height="2200" id="artboard" style="fill:white;opacity:1" width="3300" x="0" y="0"/>
  <line style="fill:none;stroke:black;opacity:1;stroke-width:0.5;" x1="263" x2="3036" y1="292" y2="292"/>
  <text style="stroke:none;fill:black;font-family:sans-serif;font-size:13;font-weight:bold;" transform="matrix(1 0 0 1 263 322)">Weight/Scale Variations</text>
  <text style="stroke:none;fill:black;font-family:sans-serif;font-size:13;text-anchor:middle;" transform="matrix(1 0 0 1 559.711 322)">Ultralight</text>
  <text style="stroke:none;fill:black;font-family:sans-serif;font-size:13;text-anchor:middle;" transform="matrix(1 0 0 1 856.422 322)">Thin</text>
  <text style="stroke:none;fill:black;font-family:sans-serif;font-size:13;text-anchor:middle;" transform="matrix(1 0 0 1 1153.13 322)">Light</text>
  <text style="stroke:none;fill:black;font-family:sans-serif;font-size:13;text-anchor:middle;" transform="matrix(1 0 0 1 1449.84 322)">Regular</text>
  <text style="stroke:none;fill:black;font-family:sans-serif;font-size:13;text-anchor:middle;" transform="matrix(1 0 0 1 1746.56 322)">Medium</text>
  <text style="stroke:none;fill:black;font-family:sans-serif;font-size:13;text-anchor:middle;" transform="matrix(1 0 0 1 2043.27 322)">Semibold</text>
  <text style="stroke:none;fill:black;font-family:sans-serif;font-size:13;text-anchor:middle;" transform="matrix(1 0 0 1 2339.98 322)">Bold</text>
  <text style="stroke:none;fill:black;font-family:sans-serif;font-size:13;text-anchor:middle;" transform="matrix(1 0 0 1 2636.69 322)">Heavy</text>
  <text style="stroke:none;fill:black;font-family:sans-serif;font-size:13;text-anchor:middle;" transform="matrix(1 0 0 1 2933.4 322)">Black</text>
  <line style="fill:none;stroke:black;opacity:1;stroke-width:0.5;" x1="263" x2="3036" y1="1903" y2="1903"/>
  <g transform="matrix(0.2 0 0 0.2 263 1933)">
   <path d="m46.2402 4.15039c21.7773 0 39.4531-17.627 39.4531-39.4043s-17.6758-39.4043-39.4531-39.4043c-21.7285 0-39.4043 17.627-39.4043 39.4043s17.6758 39.4043 39.4043 39.4043Zm0-7.42188c-17.6758 0-31.9336-14.3066-31.9336-31.9824s14.2578-31.9824 31.9336-31.9824 31.9824 14.3066 31.9824 31.9824-14.3066 31.9824-31.9824 31.9824Zm-17.9688-31.9824c0 2.14844 1.51367 3.61328 3.75977 3.61328h10.498v10.5957c0 2.19727 1.46484 3.71094 3.61328 3.71094 2.24609 0 3.71094-1.51367 3.71094-3.71094v-10.5957h10.5957c2.19727 0 3.71094-1.46484 3.71094-3.61328 0-2.19727-1.51367-3.71094-3.71094-3.71094h-10.5957v-10.5469c0-2.24609-1.46484-3.75977-3.71094-3.75977-2.14844 0-3.61328 1.51367-3.61328 3.75977v10.5469h-10.498c-2.24609 0-3.75977 1.51367-3.75977 3.71094Z"/>
  </g>
  <g transform="matrix(0.2 0 0 0.2 281.506 1933)">
   <path d="m58.5449 14.5508c27.4902 0 49.8047-22.3145 49.8047-49.8047s-22.3145-49.8047-49.8047-49.8047-49.8047 22.3145-49.8047 49.8047 22.3145 49.8047 49.8047 49.8047Zm0-8.30078c-22.9492 0-41.5039-18.5547-41.5039-41.5039s18.5547-41.5039 41.5039-41.5039 41.5039 18.5547 41.5039 41.5039-18.5547 41.5039-41.5039 41.5039Zm-22.6562-41.5039c0 2.39258 1.66016 4.00391 4.15039 4.00391h14.3555v14.4043c0 2.44141 1.66016 4.15039 4.05273 4.15039 2.44141 0 4.15039-1.66016 4.15039-4.15039v-14.4043h14.4043c2.44141 0 4.15039-1.61133 4.15039-4.00391 0-2.44141-1.70898-4.15039-4.15039-4.15039h-14.4043v-14.3555c0-2.49023-1.70898-4.19922-4.15039-4.19922-2.39258 0-4.05273 1.70898-4.05273 4.19922v14.3555h-14.3555c-2.49023 0-4.15039 1.70898-4.15039 4.15039Z"/>
  </g>
  <g transform="matrix(0.2 0 0 0.2 304.924 1933)">
   <path d="m74.8535 28.3203c35.1074 0 63.623-28.4668 63.623-63.5742s-28.5156-63.623-63.623-63.623-63.5742 28.5156-63.5742 63.623 28.4668 63.5742 63.5742 63.5742Zm0-9.08203c-30.127 0-54.4922-24.3652-54.4922-54.4922s24.3652-54.4922 54.4922-54.4922 54.4922 24.3652 54.4922 54.4922-24.3652 54.4922-54.4922 54.4922Zm-28.8574-54.4922c0 2.58789 1.85547 4.39453 4.58984 4.39453h19.7266v19.7754c0 2.68555 1.85547 4.58984 4.44336 4.58984 2.68555 0 4.54102-1.85547 4.54102-4.58984v-19.7754h19.7754c2.68555 0 4.58984-1.80664 4.58984-4.39453 0-2.73438-1.85547-4.58984-4.58984-4.58984h-19.7754v-19.7266c0-2.73438-1.85547-4.63867-4.54102-4.63867-2.58789 0-4.44336 1.9043-4.44336 4.63867v19.7266h-19.7266c-2.73438 0-4.58984 1.85547-4.58984 4.58984Z"/>
  </g>
  <text style="stroke:none;fill:black;font-family:sans-serif;font-size:13;font-weight:bold;" transform="matrix(1 0 0 1 263 1953)">Design Variations</text>
  <text style="stroke:none;fill:black;font-family:sans-serif;font-size:13;" transform="matrix(1 0 0 1 263 1971)">Symbols are supported in up to nine weights and three scales.</text>
  <text style="stroke:none;fill:black;font-family:sans-serif;font-size:13;" transform="matrix(1 0 0 1 263 1989)">For optimal layout with text and other symbols, vertically align</text>
  <text style="stroke:none;fill:black;font-family:sans-serif;font-size:13;" transform="matrix(1 0 0 1 263 2007)">symbols with the adjacent text.</text>
  <line style="fill:none;stroke:#00AEEF;stroke-width:0.5;opacity:1.0;" x1="776" x2="776" y1="1919" y2="1933"/>
  <g transform="matrix(0.2 0 0 0.2 776 1933)">
   <path d="m16.5527 0.78125c2.58789 0 3.85742-0.976562 4.78516-3.71094l6.29883-17.2363h28.8086l6.29883 17.2363c0.927734 2.73438 2.19727 3.71094 4.73633 3.71094 2.58789 0 4.24805-1.5625 4.24805-4.00391 0-0.830078-0.146484-1.61133-0.537109-2.63672l-22.9004-60.9863c-1.12305-2.97852-3.125-4.49219-6.25-4.49219-3.02734 0-5.07812 1.46484-6.15234 4.44336l-22.9004 61.084c-0.390625 1.02539-0.537109 1.80664-0.537109 2.63672 0 2.44141 1.5625 3.95508 4.10156 3.95508Zm13.4766-28.3691 11.8652-32.8613h0.244141l11.8652 32.8613Z"/>
  </g>
  <line style="fill:none;stroke:#00AEEF;stroke-width:0.5;opacity:1.0;" x1="792.836" x2="792.836" y1="1919" y2="1933"/>
  <text style="stroke:none;fill:black;font-family:sans-serif;font-size:13;font-weight:bold;" transform="matrix(1 0 0 1 776 1953)">Margins</text>
  <text style="stroke:none;fill:black;font-family:sans-serif;font-size:13;" transform="matrix(1 0 0 1 776 1971)">Leading and trailing margins on the left and right side of each symbol</text>
  <text style="stroke:none;fill:black;font-family:sans-serif;font-size:13;" transform="matrix(1 0 0 1 776 1989)">can be adjusted by modifying the x-location of the margin guidelines.</text>
  <text style="stroke:none;fill:black;font-family:sans-serif;font-size:13;" transform="matrix(1 0 0 1 776 2007)">Modifications are automatically applied proportionally to all</text>
  <text style="stroke:none;fill:black;font-family:sans-serif;font-size:13;" transform="matrix(1 0 0 1 776 2025)">scales and weights.</text>
  <g transform="matrix(0.2 0 0 0.2 1289 1933)">
   <path d="m14.209 9.32617 8.49609 8.54492c4.29688 4.3457 9.22852 4.05273 13.8672-1.07422l53.4668-58.9355-4.83398-4.88281-53.0762 58.3984c-1.75781 2.00195-3.41797 2.49023-5.76172 0.146484l-5.85938-5.81055c-2.34375-2.29492-1.80664-4.00391 0.195312-5.81055l57.373-54.0039-4.88281-4.83398-57.959 54.4434c-4.93164 4.58984-5.32227 9.47266-1.02539 13.8184Zm32.0801-90.9668c-2.09961 2.05078-2.24609 4.93164-1.07422 6.88477 1.17188 1.80664 3.4668 2.97852 6.68945 2.14844 7.32422-1.70898 14.9414-2.00195 22.0703 2.68555l-2.92969 7.27539c-1.70898 4.15039-0.830078 7.08008 1.85547 9.81445l11.4746 11.5723c2.44141 2.44141 4.49219 2.53906 7.32422 2.05078l5.32227-0.976562 3.32031 3.36914-0.195312 2.7832c-0.195312 2.49023 0.439453 4.39453 2.88086 6.78711l3.80859 3.71094c2.39258 2.39258 5.46875 2.53906 7.8125 0.195312l14.5508-14.5996c2.34375-2.34375 2.24609-5.32227-0.146484-7.71484l-3.85742-3.80859c-2.39258-2.39258-4.24805-3.17383-6.64062-2.97852l-2.88086 0.244141-3.22266-3.17383 1.2207-5.61523c0.634766-2.83203-0.146484-5.0293-3.07617-7.95898l-10.9863-10.9375c-16.6992-16.6016-38.8672-16.2109-53.3203-1.75781Zm7.4707 1.85547c12.1582-8.88672 28.6133-7.37305 39.7461 3.75977l12.1582 12.0605c1.17188 1.17188 1.36719 2.09961 1.02539 3.80859l-1.61133 7.42188 7.51953 7.42188 4.93164-0.292969c1.26953-0.0488281 1.66016 0.0488281 2.63672 1.02539l2.88086 2.88086-12.207 12.207-2.88086-2.88086c-0.976562-0.976562-1.12305-1.36719-1.07422-2.68555l0.341797-4.88281-7.4707-7.42188-7.61719 1.26953c-1.61133 0.341797-2.34375 0.195312-3.56445-0.976562l-10.0098-10.0098c-1.26953-1.17188-1.41602-2.00195-0.634766-3.85742l4.39453-10.4492c-7.8125-7.27539-17.9688-10.4004-28.125-7.42188-0.78125 0.195312-1.07422-0.439453-0.439453-0.976562Z"/>
  </g>
  <text style="stroke:none;fill:black;font-family:sans-serif;font-size:13;font-weight:bold;" transform="matrix(1 0 0 1 1289 1953)">Exporting</text>
  <text style="stroke:none;fill:black;font-family:sans-serif;font-size:13;" transform="matrix(1 0 0 1 1289 1971)">Symbols should be outlined when exporting to ensure the</text>
  <text style="stroke:none;fill:black;font-family:sans-serif;font-size:13;" transform="matrix(1 0 0 1 1289 1989)">design is preserved when submitting to Xcode.</text>
  <text id="template-version" style="stroke:none;fill:black;font-family:sans-serif;font-size:13;text-anchor:end;" transform="matrix(1 0 0 1 3036 1933)">Template v.5.0</text>
  <text style="stroke:none;fill:black;font-family:sans-serif;font-size:13;text-anchor:end;" transform="matrix(1 0 0 1 3036 1951)">Requires Xcode 15 or greater</text>
  <text id="descriptive-name" style="stroke:none;fill:black;font-family:sans-serif;font-size:13;text-anchor:end;" transform="matrix(1 0 0 1 3036 1969)">Generated from PDF</text>
  <text style="stroke:none;fill:black;font-family:sans-serif;font-size:13;text-anchor:end;" transform="matrix(1 0 0 1 3036 1987)">Typeset at 100.0 points</text>
  <text style="stroke:none;fill:black;font-family:sans-serif;font-size:13;" transform="matrix(1 0 0 1 263 726)">Small</text>
  <text style="stroke:none;fill:black;font-family:sans-serif;font-size:13;" transform="matrix(1 0 0 1 263 1156)">Medium</text>
  <text style="stroke:none;fill:black;font-family:sans-serif;font-size:13;" transform="matrix(1 0 0 1 263 1586)">Large</text>
 </g>
 <g id="Guides">
  <g id="H-reference" style="fill:#27AAE1;stroke:none;" transform="matrix(1 0 0 1 339 696)">
   <path d="M0.993654 0L3.63775 0L29.3281-67.1323L30.0303-67.1323L30.0303-70.459L28.1226-70.459ZM11.6885-24.4799L46.9815-24.4799L46.2315-26.7285L12.4385-26.7285ZM55.1196 0L57.7637 0L30.6382-70.459L29.4326-70.459L29.4326-67.1323Z"/>
  </g>
  <line id="Baseline-S" style="fill:none;stroke:#27AAE1;opacity:1;stroke-width:0.5;" x1="263" x2="3036" y1="696" y2="696"/>
  <line id="Capline-S" style="fill:none;stroke:#27AAE1;opacity:1;stroke-width:0.5;" x1="263" x2="3036" y1="625.541" y2="625.541"/>
  <g id="H-reference" style="fill:#27AAE1;stroke:none;" transform="matrix(1 0 0 1 339 1126)">
   <path d="M0.993654 0L3.63775 0L29.3281-67.1323L30.0303-67.1323L30.0303-70.459L28.1226-70.459ZM11.6885-24.4799L46.9815-24.4799L46.2315-26.7285L12.4385-26.7285ZM55.1196 0L57.7637 0L30.6382-70.459L29.4326-70.459L29.4326-67.1323Z"/>
  </g>
  <line id="Baseline-M" style="fill:none;stroke:#27AAE1;opacity:1;stroke-width:0.5;" x1="263" x2="3036" y1="1126" y2="1126"/>
  <line id="Capline-M" style="fill:none;stroke:#27AAE1;opacity:1;stroke-width:0.5;" x1="263" x2="3036" y1="1055.54" y2="1055.54"/>
  <g id="H-reference" style="fill:#27AAE1;stroke:none;" transform="matrix(1 0 0 1 339 1556)">
   <path d="M0.993654 0L3.63775 0L29.3281-67.1323L30.0303-67.1323L30.0303-70.459L28.1226-70.459ZM11.6885-24.4799L46.9815-24.4799L46.2315-26.7285L12.4385-26.7285ZM55.1196 0L57.7637 0L30.6382-70.459L29.4326-70.459L29.4326-67.1323Z"/>
  </g>
  <line id="Baseline-L" style="fill:none;stroke:#27AAE1;opacity:1;stroke-width:0.5;" x1="263" x2="3036" y1="1556" y2="1556"/>
  <line id="Capline-L" style="fill:none;stroke:#27AAE1;opacity:1;stroke-width:0.5;" x1="263" x2="3036" y1="1485.54" y2="1485.54"/>
  <line id="right-margin-Black-S" style="fill:none;stroke:#00AEEF;stroke-width:0.5;opacity:1.0;" x1="2979.1" x2="2979.1" y1="600.785" y2="720.121"/>
  <line id="left-margin-Black-S" style="fill:none;stroke:#00AEEF;stroke-width:0.5;opacity:1.0;" x1="2887.7" x2="2887.7" y1="600.785" y2="720.121"/>
  <line id="right-margin-Regular-S" style="fill:none;stroke:#00AEEF;stroke-width:0.5;opacity:1.0;" x1="1492.13" x2="1492.13" y1="600.785" y2="720.121"/>
  <line id="left-margin-Regular-S" style="fill:none;stroke:#00AEEF;stroke-width:0.5;opacity:1.0;" x1="1407.56" x2="1407.56" y1="600.785" y2="720.121"/>
  <line id="right-margin-Ultralight-S" style="fill:none;stroke:#00AEEF;stroke-width:0.5;opacity:1.0;" x1="600.134" x2="600.134" y1="600.785" y2="720.121"/>
  <line id="left-margin-Ultralight-S" style="fill:none;stroke:#00AEEF;stroke-width:0.5;opacity:1.0;" x1="519.288" x2="519.288" y1="600.785" y2="720.121"/>
 </g>
 <g id="Symbols">
  <g id="Black-S" transform="matrix(1 0 0 1 2887.7 696)">
   <path class="monochrome-0 multicolor-0:tintColor hierarchical-0:primary SFSymbolsPreviewWireframe" d="M18.3-75L18.3 7L75.3 7L75.3-75L18.3-75ZM17.3-71L17.3-66L76.3-66L76.3-71L17.3-71ZM18.3-75L18.3-69L75.3-69L75.3-75L18.3-75ZM28.3-28C28.3-28.552 28.75-29 29.3-29L29.3-30C28.2-30 27.3-29.105 27.3-28L28.3-28ZM27.3-28L27.3-15L28.3-15L28.3-28L27.3-28ZM29.3-14C28.75-14 28.3-14.448 28.3-15L27.3-15C27.3-13.895 28.2-13 29.3-13L29.3-14ZM29.3-13L64.3-13L64.3-14L29.3-14L29.3-13ZM65.3-15C65.3-14.448 64.85-14 64.3-14L64.3-13C65.4-13 66.3-13.895 66.3-15L65.3-15ZM66.3-15L66.3-28L65.3-28L65.3-15L66.3-15ZM64.3-29C64.85-29 65.3-28.552 65.3-28L66.3-28C66.3-29.105 65.4-30 64.3-30L64.3-29ZM64.3-30L29.3-30L29.3-29L64.3-29L64.3-30ZM77.3-78.5L16.3-78.5C15.47-78.5 14.8-77.828 14.8-77L14.8 9C14.8 9.828 15.47 10.5 16.3 10.5L77.3 10.5C78.13 10.5 78.8 9.828 78.8 9L78.8-77C78.8-77.828 78.13-78.5 77.3-78.5ZM16.3-79C15.2-79 14.3-78.105 14.3-77L14.3 9C14.3 10.105 15.2 11 16.3 11L77.3 11C78.4 11 79.3 10.105 79.3 9L79.3-77C79.3-78.105 78.4-79 77.3-79L16.3-79Z"/>
   <path class="monochrome-1 multicolor-1:tintColor hierarchical-1:secondary SFSymbolsPreviewWireframe" d="M74.78-74.488L18.82-74.488L18.82 6.487L74.78 6.487L74.78-74.488Z"/>
   <path class="monochrome-2 multicolor-2:tintColor hierarchical-2:primary SFSymbolsPreviewWireframe" d="M54.79-26.7C54.79-26.952 54.89-27.162 55.08-27.33C55.27-27.51 55.5-27.6 55.78-27.6L63.84-27.6C63.84-27.024 63.74-26.598 63.52-26.322C63.3-26.058 62.96-25.926 62.49-25.926L56.73-25.926L56.73-22.29L61.68-22.29C61.68-21.714 61.58-21.288 61.36-21.012C61.14-20.748 60.8-20.616 60.33-20.616L56.73-20.616L56.73-16.314C56.73-15.81 56.57-15.438 56.25-15.198C55.94-14.958 55.45-14.838 54.79-14.838L54.79-26.7ZM43.23-15C42.95-15 42.72-15.084 42.53-15.252C42.34-15.432 42.24-15.648 42.24-15.9L42.24-26.7C42.24-26.964 42.33-27.18 42.51-27.348C42.7-27.516 42.94-27.6 43.23-27.6L47.37-27.6C48.4-27.6 49.31-27.402 50.11-27.006C50.91-26.622 51.53-26.076 51.96-25.368C52.4-24.66 52.63-23.85 52.63-22.938L52.63-19.698C52.63-18.786 52.4-17.97 51.96-17.25C51.52-16.542 50.89-15.99 50.09-15.594C49.3-15.198 48.39-15 47.37-15L43.23-15ZM47.19-16.674C48.31-16.674 49.17-16.932 49.78-17.448C50.39-17.976 50.7-18.72 50.7-19.68L50.7-22.974C50.7-23.91 50.39-24.636 49.78-25.152C49.17-25.668 48.31-25.926 47.19-25.926L44.18-25.926L44.18-16.674L47.19-16.674ZM29.99-26.7C29.99-26.964 30.08-27.18 30.26-27.348C30.45-27.516 30.69-27.6 30.98-27.6L36.14-27.6C36.96-27.6 37.68-27.432 38.3-27.096C38.94-26.772 39.43-26.304 39.78-25.692C40.13-25.092 40.3-24.396 40.3-23.604C40.3-22.8 40.13-22.092 39.78-21.48C39.44-20.868 38.96-20.394 38.32-20.058C37.7-19.734 36.97-19.572 36.14-19.572L31.93-19.572L31.93-16.368C31.93-15.876 31.76-15.498 31.43-15.234C31.09-14.97 30.61-14.838 29.99-14.838L29.99-26.7ZM36.14-21.264C36.84-21.264 37.39-21.468 37.78-21.876C38.18-22.296 38.38-22.872 38.38-23.604C38.38-24.312 38.17-24.87 37.76-25.278C37.37-25.698 36.83-25.908 36.14-25.908L31.93-25.908L31.93-21.264L36.14-21.264Z"/>
   <path class="monochrome-3 multicolor-3:tintColor hierarchical-3:primary SFSymbolsPreviewWireframe" d="M75.76-70.503L17.84-70.503L17.84-66.497L75.76-66.497L75.76-70.503Z"/>
   <path class="monochrome-4 multicolor-4:tintColor hierarchical-4:tertiary SFSymbolsPreviewWireframe" d="M29.3-30.5C27.92-30.5 26.8-29.381 26.8-28L27.8-28C27.8-28.828 28.47-29.5 29.3-29.5L29.3-30.5ZM64.3-30.5L29.3-30.5L29.3-29.5L64.3-29.5L64.3-30.5ZM66.8-28C66.8-29.381 65.68-30.5 64.3-30.5L64.3-29.5C65.13-29.5 65.8-28.828 65.8-28L66.8-28ZM66.8-15L66.8-28L65.8-28L65.8-15L66.8-15ZM64.3-12.5C65.68-12.5 66.8-13.619 66.8-15L65.8-15C65.8-14.172 65.13-13.5 64.3-13.5L64.3-12.5ZM29.3-12.5L64.3-12.5L64.3-13.5L29.3-13.5L29.3-12.5ZM26.8-15C26.8-13.619 27.92-12.5 29.3-12.5L29.3-13.5C28.47-13.5 27.8-14.172 27.8-15L26.8-15ZM26.8-28L26.8-15L27.8-15L27.8-28L26.8-28Z"/>
   <path class="monochrome-5 multicolor-5:tintColor hierarchical-5:tertiary SFSymbolsPreviewWireframe" d="M74.78-74.5L18.82-74.5L18.82-69.5L74.78-69.5L74.78-74.5Z"/>
  </g>
  <g id="Regular-S" transform="matrix(1 0 0 1 1407.56 696)">
   <path class="monochrome-0 multicolor-0:tintColor hierarchical-0:primary SFSymbolsPreviewWireframe" d="M14.44-77L14.44 5L71.44 5L71.44-77L14.44-77ZM13.44-73L13.44-68L72.44-68L72.44-73L13.44-73ZM14.44-77L14.44-71L71.44-71L71.44-77L14.44-77ZM24.44-30C24.44-30.552 24.89-31 25.44-31L25.44-32C24.34-32 23.44-31.105 23.44-30L24.44-30ZM23.44-30L23.44-17L24.44-17L24.44-30L23.44-30ZM25.44-16C24.89-16 24.44-16.448 24.44-17L23.44-17C23.44-15.895 24.34-15 25.44-15L25.44-16ZM25.44-15L60.44-15L60.44-16L25.44-16L25.44-15ZM61.44-17C61.44-16.448 60.99-16 60.44-16L60.44-15C61.54-15 62.44-15.895 62.44-17L61.44-17ZM62.44-17L62.44-30L61.44-30L61.44-17L62.44-17ZM60.44-31C60.99-31 61.44-30.552 61.44-30L62.44-30C62.44-31.105 61.54-32 60.44-32L60.44-31ZM60.44-32L25.44-32L25.44-31L60.44-31L60.44-32ZM73.44-80.5L12.44-80.5C11.61-80.5 10.94-79.828 10.94-79L10.94 7C10.94 7.828 11.61 8.5 12.44 8.5L73.44 8.5C74.27 8.5 74.94 7.828 74.94 7L74.94-79C74.94-79.828 74.27-80.5 73.44-80.5ZM12.44-81C11.34-81 10.44-80.105 10.44-79L10.44 7C10.44 8.105 11.34 9 12.44 9L73.44 9C74.54 9 75.44 8.105 75.44 7L75.44-79C75.44-80.105 74.54-81 73.44-81L12.44-81Z"/>
   <path class="monochrome-1 multicolor-1:tintColor hierarchical-1:secondary SFSymbolsPreviewWireframe" d="M70.92-76.488L14.96-76.488L14.96 4.487L70.92 4.487L70.92-76.488Z"/>
   <path class="monochrome-2 multicolor-2:tintColor hierarchical-2:primary SFSymbolsPreviewWireframe" d="M50.93-28.7C50.93-28.952 51.03-29.162 51.22-29.33C51.41-29.51 51.64-29.6 51.92-29.6L59.98-29.6C59.98-29.024 59.88-28.598 59.66-28.322C59.44-28.058 59.1-27.926 58.63-27.926L52.87-27.926L52.87-24.29L57.82-24.29C57.82-23.714 57.72-23.288 57.5-23.012C57.28-22.748 56.94-22.616 56.47-22.616L52.87-22.616L52.87-18.314C52.87-17.81 52.71-17.438 52.39-17.198C52.08-16.958 51.59-16.838 50.93-16.838L50.93-28.7ZM39.37-17C39.09-17 38.86-17.084 38.67-17.252C38.48-17.432 38.38-17.648 38.38-17.9L38.38-28.7C38.38-28.964 38.47-29.18 38.65-29.348C38.84-29.516 39.08-29.6 39.37-29.6L43.51-29.6C44.54-29.6 45.45-29.402 46.25-29.006C47.05-28.622 47.67-28.076 48.1-27.368C48.54-26.66 48.77-25.85 48.77-24.938L48.77-21.698C48.77-20.786 48.54-19.97 48.1-19.25C47.66-18.542 47.03-17.99 46.23-17.594C45.44-17.198 44.53-17 43.51-17L39.37-17ZM43.33-18.674C44.45-18.674 45.31-18.932 45.92-19.448C46.53-19.976 46.84-20.72 46.84-21.68L46.84-24.974C46.84-25.91 46.53-26.636 45.92-27.152C45.31-27.668 44.45-27.926 43.33-27.926L40.32-27.926L40.32-18.674L43.33-18.674ZM26.13-28.7C26.13-28.964 26.22-29.18 26.4-29.348C26.59-29.516 26.83-29.6 27.12-29.6L32.28-29.6C33.1-29.6 33.82-29.432 34.44-29.096C35.08-28.772 35.57-28.304 35.92-27.692C36.27-27.092 36.44-26.396 36.44-25.604C36.44-24.8 36.27-24.092 35.92-23.48C35.58-22.868 35.1-22.394 34.46-22.058C33.84-21.734 33.11-21.572 32.28-21.572L28.07-21.572L28.07-18.368C28.07-17.876 27.9-17.498 27.57-17.234C27.23-16.97 26.75-16.838 26.13-16.838L26.13-28.7ZM32.28-23.264C32.98-23.264 33.53-23.468 33.92-23.876C34.32-24.296 34.52-24.872 34.52-25.604C34.52-26.312 34.31-26.87 33.9-27.278C33.51-27.698 32.97-27.908 32.28-27.908L28.07-27.908L28.07-23.264L32.28-23.264Z"/>
   <path class="monochrome-3 multicolor-3:tintColor hierarchical-3:primary SFSymbolsPreviewWireframe" d="M71.9-72.503L13.98-72.503L13.98-68.497L71.9-68.497L71.9-72.503Z"/>
   <path class="monochrome-4 multicolor-4:tintColor hierarchical-4:tertiary SFSymbolsPreviewWireframe" d="M25.44-32.5C24.06-32.5 22.94-31.381 22.94-30L23.94-30C23.94-30.828 24.61-31.5 25.44-31.5L25.44-32.5ZM60.44-32.5L25.44-32.5L25.44-31.5L60.44-31.5L60.44-32.5ZM62.94-30C62.94-31.381 61.82-32.5 60.44-32.5L60.44-31.5C61.27-31.5 61.94-30.828 61.94-30L62.94-30ZM62.94-17L62.94-30L61.94-30L61.94-17L62.94-17ZM60.44-14.5C61.82-14.5 62.94-15.619 62.94-17L61.94-17C61.94-16.172 61.27-15.5 60.44-15.5L60.44-14.5ZM25.44-14.5L60.44-14.5L60.44-15.5L25.44-15.5L25.44-14.5ZM22.94-17C22.94-15.619 24.06-14.5 25.44-14.5L25.44-15.5C24.61-15.5 23.94-16.172 23.94-17L22.94-17ZM22.94-30L22.94-17L23.94-17L23.94-30L22.94-30Z"/>
   <path class="monochrome-5 multicolor-5:tintColor hierarchical-5:tertiary SFSymbolsPreviewWireframe" d="M70.92-76.5L14.96-76.5L14.96-71.5L70.92-71.5L70.92-76.5Z"/>
  </g>
  <g id="Ultralight-S" transform="matrix(1 0 0 1 519.288 696)">
   <path class="monochrome-0 multicolor-0:tintColor hierarchical-0:primary SFSymbolsPreviewWireframe" d="M11.712-75L11.712 7L68.712 7L68.712-75L11.712-75ZM10.712-71L10.712-66L69.712-66L69.712-71L10.712-71ZM11.712-75L11.712-69L68.712-69L68.712-75L11.712-75ZM21.712-28C21.712-28.552 22.16-29 22.712-29L22.712-30C21.607-30 20.712-29.105 20.712-28L21.712-28ZM20.712-28L20.712-15L21.712-15L21.712-28L20.712-28ZM22.712-14C22.16-14 21.712-14.448 21.712-15L20.712-15C20.712-13.895 21.607-13 22.712-13L22.712-14ZM22.712-13L57.712-13L57.712-14L22.712-14L22.712-13ZM58.712-15C58.712-14.448 58.264-14 57.712-14L57.712-13C58.817-13 59.712-13.895 59.712-15L58.712-15ZM59.712-15L59.712-28L58.712-28L58.712-15L59.712-15ZM57.712-29C58.264-29 58.712-28.552 58.712-28L59.712-28C59.712-29.105 58.817-30 57.712-30L57.712-29ZM57.712-30L22.712-30L22.712-29L57.712-29L57.712-30ZM70.712-78.5L9.712-78.5C8.884-78.5 8.212-77.828 8.212-77L8.212 9C8.212 9.828 8.884 10.5 9.712 10.5L70.712 10.5C71.54 10.5 72.212 9.828 72.212 9L72.212-77C72.212-77.828 71.54-78.5 70.712-78.5ZM9.712-79C8.607-79 7.712-78.105 7.712-77L7.712 9C7.712 10.105 8.607 11 9.712 11L70.712 11C71.817 11 72.712 10.105 72.712 9L72.712-77C72.712-78.105 71.817-79 70.712-79L9.712-79Z"/>
   <path class="monochrome-1 multicolor-1:tintColor hierarchical-1:secondary SFSymbolsPreviewWireframe" d="M68.194-74.488L12.23-74.488L12.23 6.487L68.194 6.487L68.194-74.488Z"/>
   <path class="monochrome-2 multicolor-2:tintColor hierarchical-2:primary SFSymbolsPreviewWireframe" d="M48.203-26.7C48.203-26.952 48.299-27.162 48.491-27.33C48.683-27.51 48.917-27.6 49.193-27.6L57.257-27.6C57.257-27.024 57.149-26.598 56.933-26.322C56.717-26.058 56.375-25.926 55.907-25.926L50.147-25.926L50.147-22.29L55.097-22.29C55.097-21.714 54.989-21.288 54.773-21.012C54.557-20.748 54.215-20.616 53.747-20.616L50.147-20.616L50.147-16.314C50.147-15.81 49.985-15.438 49.661-15.198C49.349-14.958 48.863-14.838 48.203-14.838L48.203-26.7ZM36.642-15C36.366-15 36.132-15.084 35.94-15.252C35.748-15.432 35.652-15.648 35.652-15.9L35.652-26.7C35.652-26.964 35.742-27.18 35.922-27.348C36.114-27.516 36.354-27.6 36.642-27.6L40.782-27.6C41.814-27.6 42.726-27.402 43.518-27.006C44.322-26.622 44.94-26.076 45.372-25.368C45.816-24.66 46.038-23.85 46.038-22.938L46.038-19.698C46.038-18.786 45.816-17.97 45.372-17.25C44.928-16.542 44.304-15.99 43.5-15.594C42.708-15.198 41.802-15 40.782-15L36.642-15ZM40.602-16.674C41.718-16.674 42.582-16.932 43.194-17.448C43.806-17.976 44.112-18.72 44.112-19.68L44.112-22.974C44.112-23.91 43.806-24.636 43.194-25.152C42.582-25.668 41.718-25.926 40.602-25.926L37.596-25.926L37.596-16.674L40.602-16.674ZM23.4-26.7C23.4-26.964 23.49-27.18 23.67-27.348C23.862-27.516 24.102-27.6 24.39-27.6L29.556-27.6C30.372-27.6 31.092-27.432 31.716-27.096C32.352-26.772 32.844-26.304 33.192-25.692C33.54-25.092 33.714-24.396 33.714-23.604C33.714-22.8 33.54-22.092 33.192-21.48C32.856-20.868 32.37-20.394 31.734-20.058C31.11-19.734 30.384-19.572 29.556-19.572L25.344-19.572L25.344-16.368C25.344-15.876 25.176-15.498 24.84-15.234C24.504-14.97 24.024-14.838 23.4-14.838L23.4-26.7ZM29.556-21.264C30.252-21.264 30.798-21.468 31.194-21.876C31.59-22.296 31.788-22.872 31.788-23.604C31.788-24.312 31.584-24.87 31.176-25.278C30.78-25.698 30.24-25.908 29.556-25.908L25.344-25.908L25.344-21.264L29.556-21.264Z"/>
   <path class="monochrome-3 multicolor-3:tintColor hierarchical-3:primary SFSymbolsPreviewWireframe" d="M69.176-70.503L11.248-70.503L11.248-66.497L69.176-66.497L69.176-70.503Z"/>
   <path class="monochrome-4 multicolor-4:tintColor hierarchical-4:tertiary SFSymbolsPreviewWireframe" d="M22.712-30.5C21.331-30.5 20.212-29.381 20.212-28L21.212-28C21.212-28.828 21.884-29.5 22.712-29.5L22.712-30.5ZM57.712-30.5L22.712-30.5L22.712-29.5L57.712-29.5L57.712-30.5ZM60.212-28C60.212-29.381 59.093-30.5 57.712-30.5L57.712-29.5C58.54-29.5 59.212-28.828 59.212-28L60.212-28ZM60.212-15L60.212-28L59.212-28L59.212-15L60.212-15ZM57.712-12.5C59.093-12.5 60.212-13.619 60.212-15L59.212-15C59.212-14.172 58.54-13.5 57.712-13.5L57.712-12.5ZM22.712-12.5L57.712-12.5L57.712-13.5L22.712-13.5L22.712-12.5ZM20.212-15C20.212-13.619 21.331-12.5 22.712-12.5L22.712-13.5C21.884-13.5 21.212-14.172 21.212-15L20.212-15ZM20.212-28L20.212-15L21.212-15L21.212-28L20.212-28Z"/>
   <path class="monochrome-5 multicolor-5:tintColor hierarchical-5:tertiary SFSymbolsPreviewWireframe" d="M68.194-74.5L12.23-74.5L12.23-69.5L68.194-69.5L68.194-74.5Z"/>
  </g>
 </g>
</svg>
