<?xml version="1.0" encoding="UTF-8"?>
<!--Generator: Apple Native CoreSVG 326-->
<!DOCTYPE svg
PUBLIC "-//W3C//DTD SVG 1.1//EN"
       "http://www.w3.org/Graphics/SVG/1.1/DTD/svg11.dtd">
<svg version="1.1" xmlns="http://www.w3.org/2000/svg" xmlns:xlink="http://www.w3.org/1999/xlink" viewBox="0 0 3300 2200">
 <!--glyph: "", point size: 100.0, font version: "20.0d10e1", template writer version: "138.0.0"-->
 <style>.monochrome-0 {-sfsymbols-motion-group:1;-sfsymbols-layer-tags:-3cd332ba5426cbf7 folder folder.badge.gearshape}
.monochrome-1 {opacity:0.0;-sfsymbols-clear-behind:true;-sfsymbols-motion-group:0;-sfsymbols-layer-tags:-3cd332ba5426cbf7 _badge folder.badge.gearshape gearshape}
.monochrome-2 {-sfsymbols-motion-group:0;-sfsymbols-always-pulses:true;-sfsymbols-always-rotates:true;-sfsymbols-layer-tags:-3cd332ba5426cbf7 _badge folder.badge.gearshape gearshape}

.multicolor-0:tintColor {-sfsymbols-motion-group:1;-sfsymbols-layer-tags:-3cd332ba5426cbf7 folder folder.badge.gearshape}
.multicolor-1:tintColor {opacity:0.0;-sfsymbols-clear-behind:true;-sfsymbols-motion-group:0;-sfsymbols-layer-tags:-3cd332ba5426cbf7 _badge folder.badge.gearshape gearshape}
.multicolor-2:tintColor {-sfsymbols-motion-group:0;-sfsymbols-always-pulses:true;-sfsymbols-always-rotates:true;-sfsymbols-layer-tags:-3cd332ba5426cbf7 _badge folder.badge.gearshape gearshape}

.hierarchical-0:secondary {-sfsymbols-motion-group:1;-sfsymbols-layer-tags:-3cd332ba5426cbf7 folder folder.badge.gearshape}
.hierarchical-1:primary {opacity:0.0;-sfsymbols-clear-behind:true;-sfsymbols-motion-group:0;-sfsymbols-layer-tags:-3cd332ba5426cbf7 _badge folder.badge.gearshape gearshape}
.hierarchical-2:primary {-sfsymbols-motion-group:0;-sfsymbols-always-rotates:true;-sfsymbols-layer-tags:-3cd332ba5426cbf7 _badge folder.badge.gearshape gearshape}

.SFSymbolsPreviewWireframe {fill:none;opacity:1.0;stroke:black;stroke-width:0.5}
</style>
 <g id="Notes">
  <rect height="2200" id="artboard" style="fill:white;opacity:1" width="3300" x="0" y="0"/>
  <line style="fill:none;stroke:black;opacity:1;stroke-width:0.5;" x1="263" x2="3036" y1="292" y2="292"/>
  <text style="stroke:none;fill:black;font-family:sans-serif;font-size:13;font-weight:bold;" transform="matrix(1 0 0 1 263 322)">Weight/Scale Variations</text>
  <text style="stroke:none;fill:black;font-family:sans-serif;font-size:13;text-anchor:middle;" transform="matrix(1 0 0 1 559.711 322)">Ultralight</text>
  <text style="stroke:none;fill:black;font-family:sans-serif;font-size:13;text-anchor:middle;" transform="matrix(1 0 0 1 856.422 322)">Thin</text>
  <text style="stroke:none;fill:black;font-family:sans-serif;font-size:13;text-anchor:middle;" transform="matrix(1 0 0 1 1153.13 322)">Light</text>
  <text style="stroke:none;fill:black;font-family:sans-serif;font-size:13;text-anchor:middle;" transform="matrix(1 0 0 1 1449.84 322)">Regular</text>
  <text style="stroke:none;fill:black;font-family:sans-serif;font-size:13;text-anchor:middle;" transform="matrix(1 0 0 1 1746.56 322)">Medium</text>
  <text style="stroke:none;fill:black;font-family:sans-serif;font-size:13;text-anchor:middle;" transform="matrix(1 0 0 1 2043.27 322)">Semibold</text>
  <text style="stroke:none;fill:black;font-family:sans-serif;font-size:13;text-anchor:middle;" transform="matrix(1 0 0 1 2339.98 322)">Bold</text>
  <text style="stroke:none;fill:black;font-family:sans-serif;font-size:13;text-anchor:middle;" transform="matrix(1 0 0 1 2636.69 322)">Heavy</text>
  <text style="stroke:none;fill:black;font-family:sans-serif;font-size:13;text-anchor:middle;" transform="matrix(1 0 0 1 2933.4 322)">Black</text>
  <line style="fill:none;stroke:black;opacity:1;stroke-width:0.5;" x1="263" x2="3036" y1="1903" y2="1903"/>
  <g transform="matrix(0.2 0 0 0.2 263 1933)">
   <path d="m46.2402 4.15039c21.7773 0 39.4531-17.627 39.4531-39.4043s-17.6758-39.4043-39.4531-39.4043c-21.7285 0-39.4043 17.627-39.4043 39.4043s17.6758 39.4043 39.4043 39.4043Zm0-7.42188c-17.6758 0-31.9336-14.3066-31.9336-31.9824s14.2578-31.9824 31.9336-31.9824 31.9824 14.3066 31.9824 31.9824-14.3066 31.9824-31.9824 31.9824Zm-17.9688-31.9824c0 2.14844 1.51367 3.61328 3.75977 3.61328h10.498v10.5957c0 2.19727 1.46484 3.71094 3.61328 3.71094 2.24609 0 3.71094-1.51367 3.71094-3.71094v-10.5957h10.5957c2.19727 0 3.71094-1.46484 3.71094-3.61328 0-2.19727-1.51367-3.71094-3.71094-3.71094h-10.5957v-10.5469c0-2.24609-1.46484-3.75977-3.71094-3.75977-2.14844 0-3.61328 1.51367-3.61328 3.75977v10.5469h-10.498c-2.24609 0-3.75977 1.51367-3.75977 3.71094Z"/>
  </g>
  <g transform="matrix(0.2 0 0 0.2 281.506 1933)">
   <path d="m58.5449 14.5508c27.4902 0 49.8047-22.3145 49.8047-49.8047s-22.3145-49.8047-49.8047-49.8047-49.8047 22.3145-49.8047 49.8047 22.3145 49.8047 49.8047 49.8047Zm0-8.30078c-22.9492 0-41.5039-18.5547-41.5039-41.5039s18.5547-41.5039 41.5039-41.5039 41.5039 18.5547 41.5039 41.5039-18.5547 41.5039-41.5039 41.5039Zm-22.6562-41.5039c0 2.39258 1.66016 4.00391 4.15039 4.00391h14.3555v14.4043c0 2.44141 1.66016 4.15039 4.05273 4.15039 2.44141 0 4.15039-1.66016 4.15039-4.15039v-14.4043h14.4043c2.44141 0 4.15039-1.61133 4.15039-4.00391 0-2.44141-1.70898-4.15039-4.15039-4.15039h-14.4043v-14.3555c0-2.49023-1.70898-4.19922-4.15039-4.19922-2.39258 0-4.05273 1.70898-4.05273 4.19922v14.3555h-14.3555c-2.49023 0-4.15039 1.70898-4.15039 4.15039Z"/>
  </g>
  <g transform="matrix(0.2 0 0 0.2 304.924 1933)">
   <path d="m74.8535 28.3203c35.1074 0 63.623-28.4668 63.623-63.5742s-28.5156-63.623-63.623-63.623-63.5742 28.5156-63.5742 63.623 28.4668 63.5742 63.5742 63.5742Zm0-9.08203c-30.127 0-54.4922-24.3652-54.4922-54.4922s24.3652-54.4922 54.4922-54.4922 54.4922 24.3652 54.4922 54.4922-24.3652 54.4922-54.4922 54.4922Zm-28.8574-54.4922c0 2.58789 1.85547 4.39453 4.58984 4.39453h19.7266v19.7754c0 2.68555 1.85547 4.58984 4.44336 4.58984 2.68555 0 4.54102-1.85547 4.54102-4.58984v-19.7754h19.7754c2.68555 0 4.58984-1.80664 4.58984-4.39453 0-2.73438-1.85547-4.58984-4.58984-4.58984h-19.7754v-19.7266c0-2.73438-1.85547-4.63867-4.54102-4.63867-2.58789 0-4.44336 1.9043-4.44336 4.63867v19.7266h-19.7266c-2.73438 0-4.58984 1.85547-4.58984 4.58984Z"/>
  </g>
  <text style="stroke:none;fill:black;font-family:sans-serif;font-size:13;font-weight:bold;" transform="matrix(1 0 0 1 263 1953)">Design Variations</text>
  <text style="stroke:none;fill:black;font-family:sans-serif;font-size:13;" transform="matrix(1 0 0 1 263 1971)">Symbols are supported in up to nine weights and three scales.</text>
  <text style="stroke:none;fill:black;font-family:sans-serif;font-size:13;" transform="matrix(1 0 0 1 263 1989)">For optimal layout with text and other symbols, vertically align</text>
  <text style="stroke:none;fill:black;font-family:sans-serif;font-size:13;" transform="matrix(1 0 0 1 263 2007)">symbols with the adjacent text.</text>
  <line style="fill:none;stroke:#00AEEF;stroke-width:0.5;opacity:1.0;" x1="776" x2="776" y1="1919" y2="1933"/>
  <g transform="matrix(0.2 0 0 0.2 776 1933)">
   <path d="m16.5527 0.78125c2.58789 0 3.85742-0.976562 4.78516-3.71094l6.29883-17.2363h28.8086l6.29883 17.2363c0.927734 2.73438 2.19727 3.71094 4.73633 3.71094 2.58789 0 4.24805-1.5625 4.24805-4.00391 0-0.830078-0.146484-1.61133-0.537109-2.63672l-22.9004-60.9863c-1.12305-2.97852-3.125-4.49219-6.25-4.49219-3.02734 0-5.07812 1.46484-6.15234 4.44336l-22.9004 61.084c-0.390625 1.02539-0.537109 1.80664-0.537109 2.63672 0 2.44141 1.5625 3.95508 4.10156 3.95508Zm13.4766-28.3691 11.8652-32.8613h0.244141l11.8652 32.8613Z"/>
  </g>
  <line style="fill:none;stroke:#00AEEF;stroke-width:0.5;opacity:1.0;" x1="792.836" x2="792.836" y1="1919" y2="1933"/>
  <text style="stroke:none;fill:black;font-family:sans-serif;font-size:13;font-weight:bold;" transform="matrix(1 0 0 1 776 1953)">Margins</text>
  <text style="stroke:none;fill:black;font-family:sans-serif;font-size:13;" transform="matrix(1 0 0 1 776 1971)">Leading and trailing margins on the left and right side of each symbol</text>
  <text style="stroke:none;fill:black;font-family:sans-serif;font-size:13;" transform="matrix(1 0 0 1 776 1989)">can be adjusted by modifying the x-location of the margin guidelines.</text>
  <text style="stroke:none;fill:black;font-family:sans-serif;font-size:13;" transform="matrix(1 0 0 1 776 2007)">Modifications are automatically applied proportionally to all</text>
  <text style="stroke:none;fill:black;font-family:sans-serif;font-size:13;" transform="matrix(1 0 0 1 776 2025)">scales and weights.</text>
  <g transform="matrix(0.2 0 0 0.2 1289 1933)">
   <path d="m14.209 9.32617 8.49609 8.54492c4.29688 4.3457 9.22852 4.05273 13.8672-1.07422l53.4668-58.9355-4.83398-4.88281-53.0762 58.3984c-1.75781 2.00195-3.41797 2.49023-5.76172 0.146484l-5.85938-5.81055c-2.34375-2.29492-1.80664-4.00391 0.195312-5.81055l57.373-54.0039-4.88281-4.83398-57.959 54.4434c-4.93164 4.58984-5.32227 9.47266-1.02539 13.8184Zm32.0801-90.9668c-2.09961 2.05078-2.24609 4.93164-1.07422 6.88477 1.17188 1.80664 3.4668 2.97852 6.68945 2.14844 7.32422-1.70898 14.9414-2.00195 22.0703 2.68555l-2.92969 7.27539c-1.70898 4.15039-0.830078 7.08008 1.85547 9.81445l11.4746 11.5723c2.44141 2.44141 4.49219 2.53906 7.32422 2.05078l5.32227-0.976562 3.32031 3.36914-0.195312 2.7832c-0.195312 2.49023 0.439453 4.39453 2.88086 6.78711l3.80859 3.71094c2.39258 2.39258 5.46875 2.53906 7.8125 0.195312l14.5508-14.5996c2.34375-2.34375 2.24609-5.32227-0.146484-7.71484l-3.85742-3.80859c-2.39258-2.39258-4.24805-3.17383-6.64062-2.97852l-2.88086 0.244141-3.22266-3.17383 1.2207-5.61523c0.634766-2.83203-0.146484-5.0293-3.07617-7.95898l-10.9863-10.9375c-16.6992-16.6016-38.8672-16.2109-53.3203-1.75781Zm7.4707 1.85547c12.1582-8.88672 28.6133-7.37305 39.7461 3.75977l12.1582 12.0605c1.17188 1.17188 1.36719 2.09961 1.02539 3.80859l-1.61133 7.42188 7.51953 7.42188 4.93164-0.292969c1.26953-0.0488281 1.66016 0.0488281 2.63672 1.02539l2.88086 2.88086-12.207 12.207-2.88086-2.88086c-0.976562-0.976562-1.12305-1.36719-1.07422-2.68555l0.341797-4.88281-7.4707-7.42188-7.61719 1.26953c-1.61133 0.341797-2.34375 0.195312-3.56445-0.976562l-10.0098-10.0098c-1.26953-1.17188-1.41602-2.00195-0.634766-3.85742l4.39453-10.4492c-7.8125-7.27539-17.9688-10.4004-28.125-7.42188-0.78125 0.195312-1.07422-0.439453-0.439453-0.976562Z"/>
  </g>
  <text style="stroke:none;fill:black;font-family:sans-serif;font-size:13;font-weight:bold;" transform="matrix(1 0 0 1 1289 1953)">Exporting</text>
  <text style="stroke:none;fill:black;font-family:sans-serif;font-size:13;" transform="matrix(1 0 0 1 1289 1971)">Symbols should be outlined when exporting to ensure the</text>
  <text style="stroke:none;fill:black;font-family:sans-serif;font-size:13;" transform="matrix(1 0 0 1 1289 1989)">design is preserved when submitting to Xcode.</text>
  <text id="template-version" style="stroke:none;fill:black;font-family:sans-serif;font-size:13;text-anchor:end;" transform="matrix(1 0 0 1 3036 1933)">Template v.5.0</text>
  <text style="stroke:none;fill:black;font-family:sans-serif;font-size:13;text-anchor:end;" transform="matrix(1 0 0 1 3036 1951)">Requires Xcode 15 or greater</text>
  <text id="descriptive-name" style="stroke:none;fill:black;font-family:sans-serif;font-size:13;text-anchor:end;" transform="matrix(1 0 0 1 3036 1969)">Generated from custom-folder-gear-top</text>
  <text style="stroke:none;fill:black;font-family:sans-serif;font-size:13;text-anchor:end;" transform="matrix(1 0 0 1 3036 1987)">Typeset at 100.0 points</text>
  <text style="stroke:none;fill:black;font-family:sans-serif;font-size:13;" transform="matrix(1 0 0 1 263 726)">Small</text>
  <text style="stroke:none;fill:black;font-family:sans-serif;font-size:13;" transform="matrix(1 0 0 1 263 1156)">Medium</text>
  <text style="stroke:none;fill:black;font-family:sans-serif;font-size:13;" transform="matrix(1 0 0 1 263 1586)">Large</text>
 </g>
 <g id="Guides">
  <g id="H-reference" style="fill:#27AAE1;stroke:none;" transform="matrix(1 0 0 1 339 696)">
   <path d="M0.993654 0L3.63775 0L29.3281-67.1323L30.0303-67.1323L30.0303-70.459L28.1226-70.459ZM11.6885-24.4799L46.9815-24.4799L46.2315-26.7285L12.4385-26.7285ZM55.1196 0L57.7637 0L30.6382-70.459L29.4326-70.459L29.4326-67.1323Z"/>
  </g>
  <line id="Baseline-S" style="fill:none;stroke:#27AAE1;opacity:1;stroke-width:0.5;" x1="263" x2="3036" y1="696" y2="696"/>
  <line id="Capline-S" style="fill:none;stroke:#27AAE1;opacity:1;stroke-width:0.5;" x1="263" x2="3036" y1="625.541" y2="625.541"/>
  <g id="H-reference" style="fill:#27AAE1;stroke:none;" transform="matrix(1 0 0 1 339 1126)">
   <path d="M0.993654 0L3.63775 0L29.3281-67.1323L30.0303-67.1323L30.0303-70.459L28.1226-70.459ZM11.6885-24.4799L46.9815-24.4799L46.2315-26.7285L12.4385-26.7285ZM55.1196 0L57.7637 0L30.6382-70.459L29.4326-70.459L29.4326-67.1323Z"/>
  </g>
  <line id="Baseline-M" style="fill:none;stroke:#27AAE1;opacity:1;stroke-width:0.5;" x1="263" x2="3036" y1="1126" y2="1126"/>
  <line id="Capline-M" style="fill:none;stroke:#27AAE1;opacity:1;stroke-width:0.5;" x1="263" x2="3036" y1="1055.54" y2="1055.54"/>
  <g id="H-reference" style="fill:#27AAE1;stroke:none;" transform="matrix(1 0 0 1 339 1556)">
   <path d="M0.993654 0L3.63775 0L29.3281-67.1323L30.0303-67.1323L30.0303-70.459L28.1226-70.459ZM11.6885-24.4799L46.9815-24.4799L46.2315-26.7285L12.4385-26.7285ZM55.1196 0L57.7637 0L30.6382-70.459L29.4326-70.459L29.4326-67.1323Z"/>
  </g>
  <line id="Baseline-L" style="fill:none;stroke:#27AAE1;opacity:1;stroke-width:0.5;" x1="263" x2="3036" y1="1556" y2="1556"/>
  <line id="Capline-L" style="fill:none;stroke:#27AAE1;opacity:1;stroke-width:0.5;" x1="263" x2="3036" y1="1485.54" y2="1485.54"/>
  <line id="right-margin-Black-S" style="fill:none;stroke:#FF3B30;stroke-width:0.5;opacity:1.0;" x1="2988.97" x2="2988.97" y1="600.785" y2="720.121"/>
  <line id="left-margin-Black-S" style="fill:none;stroke:#00AEEF;stroke-width:0.5;opacity:1.0;" x1="2877.83" x2="2877.83" y1="600.785" y2="720.121"/>
  <line id="right-margin-Regular-S" style="fill:none;stroke:#FF3B30;stroke-width:0.5;opacity:1.0;" x1="1503.38" x2="1503.38" y1="600.785" y2="720.121"/>
  <line id="left-margin-Regular-S" style="fill:none;stroke:#00AEEF;stroke-width:0.5;opacity:1.0;" x1="1396.3" x2="1396.3" y1="600.785" y2="720.121"/>
  <line id="right-margin-Ultralight-S" style="fill:none;stroke:#FF3B30;stroke-width:0.5;opacity:1.0;" x1="611.321" x2="611.321" y1="600.785" y2="720.121"/>
  <line id="left-margin-Ultralight-S" style="fill:none;stroke:#00AEEF;stroke-width:0.5;opacity:1.0;" x1="508.101" x2="508.101" y1="600.785" y2="720.121"/>
 </g>
 <g id="Symbols">
  <g id="Black-S" transform="matrix(1 0 0 1 2877.83 696)">
   <path class="monochrome-0 multicolor-0:tintColor hierarchical-0:secondary SFSymbolsPreviewWireframe" d="M25 2.44141L86.1328 2.44141C95.7031 2.44141 101.367-3.22266 101.367-12.793L101.367-52.3926C101.367-61.9629 95.7031-67.627 86.1328-67.627L56.25-67.627C52.832-67.627 50.7324-68.3594 47.7051-70.5566L46.2402-71.6309C42.7734-74.1699 40.6738-75 35.5469-75L25.0977-75C15.8203-75 9.76562-69.1406 9.76562-59.4727L9.76562-12.793C9.76562-3.22266 15.4297 2.44141 25 2.44141ZM27.2461-11.7188C25-11.7188 23.9258-12.5977 23.9258-15.0391L23.9258-57.2754C23.9258-59.4238 25.4395-60.8398 27.7344-60.8398L31.6406-60.8398C35.0586-60.8398 37.0605-60.1562 40.1367-57.9102L41.6016-56.8359C45.1172-54.248 47.2168-53.4668 52.3438-53.4668L83.8867-53.4668C86.1328-53.4668 87.207-52.5879 87.207-50.1465L87.207-15.0391C87.207-12.5977 86.1328-11.7188 83.8867-11.7188ZM19.0918-36.8652L92.4316-36.8652L92.4316-47.6074L19.0918-47.6074Z"/>
   <path class="monochrome-1 multicolor-1:tintColor hierarchical-1:primary SFSymbolsPreviewWireframe" d="M94.2383-28.1738C109.18-28.1738 121.533-40.5762 121.533-55.5176C121.533-70.459 109.18-82.7637 94.2383-82.7637C79.2969-82.7637 66.9434-70.459 66.9434-55.5176C66.9434-40.5762 79.2969-28.1738 94.2383-28.1738Z"/>
   <path class="monochrome-2 multicolor-2:tintColor hierarchical-2:primary SFSymbolsPreviewWireframe" d="M92.627-34.5215L95.8496-34.5215C97.5586-34.5215 98.9746-35.6445 99.3652-37.2559L100.098-40.4785C100.342-40.5762 100.488-40.625 100.684-40.7227L103.418-38.9648C104.834-38.0371 106.689-38.2324 107.959-39.502L110.205-41.748C111.426-42.9688 111.572-44.8242 110.645-46.2891L108.936-49.0234C109.033-49.2188 109.082-49.3164 109.18-49.5117L112.402-50.293C114.062-50.6836 115.186-52.0996 115.186-53.8086L115.186-56.9824C115.186-58.7402 114.062-60.1562 112.402-60.5469L109.229-61.2793C109.18-61.4258 109.082-61.6211 108.984-61.7676L110.742-64.5996C111.621-66.0645 111.475-67.9199 110.205-69.1406L107.861-71.3867C106.738-72.4609 105.029-72.8027 103.564-71.9238L100.684-70.166C100.488-70.2148 100.342-70.2637 100.146-70.3613L99.3652-73.6328C98.9746-75.293 97.5586-76.416 95.8496-76.416L92.627-76.416C90.8691-76.416 89.5508-75.293 89.1113-73.584L88.3301-70.4102C88.1348-70.3613 87.9395-70.2148 87.7441-70.166L84.8633-71.9238C83.4961-72.7539 81.7383-72.5098 80.5664-71.3867L78.2227-69.1406C76.9531-67.9688 76.8066-66.0645 77.7344-64.5996L79.4922-61.7676C79.3457-61.6211 79.2969-61.4258 79.1992-61.2793L76.0742-60.5469C74.3652-60.1562 73.291-58.7402 73.291-56.9824L73.291-53.8086C73.291-52.0996 74.4141-50.6836 76.0742-50.293L79.2969-49.5117C79.3457-49.3164 79.4434-49.2188 79.4922-49.0234L77.7832-46.2891C76.8555-44.8242 77.002-42.9688 78.2227-41.748L80.5176-39.502C81.7383-38.2812 83.5449-38.0371 85.0098-38.9648L87.793-40.7227C87.9395-40.625 88.1348-40.5762 88.3301-40.4785L89.1113-37.2559C89.502-35.6445 90.8691-34.5215 92.627-34.5215ZM94.2383-49.6094C91.0156-49.6094 88.3789-52.2461 88.3789-55.4688C88.3789-58.6914 91.0156-61.3281 94.2383-61.3281C97.4609-61.3281 100.098-58.6914 100.098-55.4688C100.098-52.2461 97.4609-49.6094 94.2383-49.6094Z"/>
  </g>
  <g id="Regular-S" transform="matrix(1 0 0 1 1396.3 696)">
   <path class="monochrome-0 multicolor-0:tintColor hierarchical-0:secondary SFSymbolsPreviewWireframe" d="M22.2168-0.0976562L86.2793-0.0976562C93.2129-0.0976562 97.3145-4.19922 97.3145-12.4023L97.3145-51.6602C97.3145-59.8633 93.1641-63.916 84.8633-63.916L48.291-63.916C45.8984-63.916 44.3359-64.5996 42.4805-66.1133L40.0391-68.0664C37.5-70.166 35.4004-70.8984 31.6895-70.8984L20.752-70.8984C13.8672-70.8984 9.76562-66.8945 9.76562-58.7402L9.76562-12.4023C9.76562-4.19922 13.916-0.0976562 22.2168-0.0976562ZM22.3145-7.17773C18.7988-7.17773 16.7969-9.0332 16.7969-12.7441L16.7969-58.3984C16.7969-62.0117 18.75-63.8672 22.2656-63.8672L29.834-63.8672C32.2266-63.8672 33.7891-63.1836 35.6445-61.6699L38.0859-59.7168C40.5762-57.666 42.7246-56.8848 46.4355-56.8848L84.7656-56.8848C88.2812-56.8848 90.2832-54.9805 90.2832-51.2695L90.2832-12.6953C90.2832-9.0332 88.2812-7.17773 84.7656-7.17773ZM14.0625-42.9688L92.9688-42.9688L92.9688-49.5605L14.0625-49.5605Z"/>
   <path class="monochrome-1 multicolor-1:tintColor hierarchical-1:primary SFSymbolsPreviewWireframe" d="M93.3594-26.8555C107.178-26.8555 118.75-38.4277 118.75-52.2461C118.75-66.1621 107.275-77.6367 93.3594-77.6367C79.3945-77.6367 67.9688-66.1621 67.9688-52.2461C67.9688-38.2812 79.3945-26.8555 93.3594-26.8555Z"/>
   <path class="monochrome-2 multicolor-2:tintColor hierarchical-2:primary SFSymbolsPreviewWireframe" d="M91.6992-32.1777L95.0684-32.1777C96.2402-32.1777 97.168-32.9102 97.4609-34.1309L98.3887-37.9395C98.9258-38.0859 99.5605-38.3301 100.098-38.623L103.467-36.6211C104.492-35.9863 105.566-35.9863 106.494-36.9141L108.789-39.209C109.619-40.0879 109.717-41.2109 109.033-42.334L107.031-45.7031C107.373-46.2402 107.52-46.7285 107.715-47.2656L111.572-48.1445C112.793-48.4375 113.574-49.3652 113.574-50.5859L113.574-53.9062C113.574-55.0781 112.744-55.957 111.572-56.25L107.764-57.1777C107.52-57.8125 107.275-58.3008 107.08-58.7402L109.18-62.207C109.814-63.2324 109.717-64.502 108.887-65.2832L106.494-67.5781C105.615-68.4082 104.492-68.6035 103.516-67.9688L100.098-65.8691C99.4629-66.2109 98.9258-66.3574 98.3887-66.5527L97.4609-70.4102C97.168-71.582 96.2402-72.3633 95.0684-72.3633L91.6992-72.3633C90.4785-72.3633 89.502-71.5332 89.2578-70.4102L88.3789-66.6016C87.6953-66.3574 87.1582-66.2109 86.5723-65.8691L83.252-67.9688C82.3242-68.5547 81.1035-68.4082 80.2246-67.5781L77.9297-65.2832C77.0996-64.4531 76.8555-63.2324 77.4902-62.207L79.6387-58.7402C79.4434-58.3008 79.1992-57.7637 78.9551-57.1777L75.1953-56.25C74.0234-55.957 73.2422-55.0293 73.2422-53.9062L73.2422-50.5859C73.2422-49.3652 74.0234-48.4375 75.1953-48.1445L79.0039-47.2656C79.248-46.7285 79.4434-46.2402 79.6875-45.7031L77.6855-42.2852C77.0508-41.2109 77.1484-40.0391 77.9785-39.209L80.2246-36.9141C81.1035-35.9863 82.2754-35.9863 83.3008-36.6211L86.6699-38.623C87.3047-38.2812 87.8418-38.0859 88.3789-37.9395L89.2578-34.1309C89.502-32.959 90.4785-32.1777 91.6992-32.1777ZM93.3594-45.8008C89.7949-45.8008 86.8652-48.6816 86.8652-52.2461C86.8652-55.8105 89.7949-58.6914 93.3594-58.6914C96.875-58.6914 99.8047-55.8105 99.8047-52.2461C99.8047-48.6816 96.875-45.8008 93.3594-45.8008Z"/>
  </g>
  <g id="Ultralight-S" transform="matrix(1 0 0 1 508.101 696)">
   <path class="monochrome-0 multicolor-0:tintColor hierarchical-0:secondary SFSymbolsPreviewWireframe" d="M19.7647-2.05028L83.5547-2.05028C89.9888-2.05028 93.4546-5.60692 93.4546-12.0391L93.4546-51.4785C93.4546-57.9107 89.9854-61.4639 83.4556-61.4639L46.0205-61.4639C42.5381-61.4639 41.0664-61.875 38.9385-63.8882L36.9966-65.7505C34.503-68.1226 33.1299-68.5825 29.1919-68.5825L18.3452-68.5825C12.5957-68.5825 9.76562-65.7139 9.76562-60.0117L9.76562-12.0391C9.76562-5.5161 13.2349-2.05028 19.7647-2.05028ZM19.8623-4.27151C14.6665-4.27151 11.9834-6.94435 11.9834-12.1538L11.9834-59.7607C11.9834-64.2822 14.1636-66.4555 18.6328-66.4555L28.835-66.4555C32.0903-66.4555 33.4712-65.999 35.7354-63.8496L37.7227-61.9873C39.9858-59.8457 41.6348-59.2461 45.6636-59.2461L83.3579-59.2461C88.3721-59.2461 91.2368-56.5698 91.2368-51.3604L91.2368-12.1504C91.2368-6.94435 88.3721-4.27151 83.3579-4.27151ZM11.02-44.9214L92.3784-44.9214L92.3784-47.1084L11.02-47.1084Z"/>
   <path class="monochrome-1 multicolor-1:tintColor hierarchical-1:primary SFSymbolsPreviewWireframe" d="M92.3604-30.9424C103.999-30.9424 113.71-40.562 113.71-52.2915C113.71-64.0278 104.051-73.6407 92.3604-73.6407C80.666-73.6407 70.9658-63.9824 70.9658-52.2915C70.9658-40.5517 80.666-30.9424 92.3604-30.9424Z"/>
   <path class="monochrome-2 multicolor-2:tintColor hierarchical-2:primary SFSymbolsPreviewWireframe" d="M90.8364-33.9033L93.7969-33.9033C94.9234-33.9033 95.7603-34.5903 96.0078-35.7202L96.8447-39.2109C97.3364-39.3574 97.9258-39.6016 98.4175-39.8491L101.514-37.9834C102.449-37.394 103.478-37.394 104.314-38.2309L106.428-40.3896C107.167-41.1777 107.265-42.1645 106.626-43.1968L104.806-46.2935C105.103-46.7852 105.249-47.228 105.444-47.7197L108.938-48.5532C110.068-48.8008 110.759-49.6831 110.759-50.7676L110.759-53.8154C110.759-54.8965 110.02-55.6392 108.938-55.9321L105.493-56.8145C105.249-57.4038 105.005-57.8467 104.855-58.2861L106.773-61.4351C107.362-62.3696 107.219-63.5029 106.48-64.1934L104.314-66.3067C103.526-67.0913 102.449-67.2412 101.563-66.6973L98.4175-64.7339C97.8281-65.0303 97.3364-65.1768 96.8447-65.3721L96.0078-68.9116C95.7603-69.9927 94.9234-70.7285 93.7969-70.7285L90.8364-70.7285C89.752-70.7285 88.8662-69.9439 88.6221-68.9116L87.834-65.4209C87.1958-65.1768 86.7041-65.0303 86.1636-64.7339L83.0703-66.6973C82.2334-67.2378 81.1035-67.0913 80.3154-66.3067L78.2476-64.1934C77.5083-63.4541 77.2187-62.3696 77.8081-61.4351L79.7749-58.2861C79.625-57.8467 79.3809-57.355 79.1821-56.8145L75.6948-55.9321C74.6138-55.6392 73.9233-54.8477 73.9233-53.8154L73.9233-50.7676C73.9233-49.6831 74.6138-48.8008 75.6948-48.5532L79.1855-47.7197C79.4297-47.228 79.625-46.7852 79.8237-46.2935L78.0034-43.1479C77.4141-42.1645 77.5117-41.1289 78.251-40.3896L80.3154-38.2309C81.1035-37.394 82.1846-37.4394 83.1191-37.9834L86.2612-39.8491C86.8506-39.5527 87.3423-39.3574 87.834-39.2109L88.6221-35.7202C88.8662-34.6391 89.752-33.9033 90.8364-33.9033ZM92.3604-46.3003C89.0684-46.3003 86.3657-48.9995 86.3657-52.2915C86.3657-55.5835 89.0684-58.2827 92.3604-58.2827C95.6035-58.2827 98.3062-55.5835 98.3062-52.2915C98.3062-48.9995 95.6035-46.3003 92.3604-46.3003Z"/>
  </g>
 </g>
 <g id="Anchors">
  <circle cx="2972.07" cy="640.531" id="Black-S-rotate-anchor" r="1" style="fill:#FFCC00; opacity:1.0;"/>
  <circle cx="1489.66" cy="643.754" id="Regular-S-rotate-anchor" r="1" style="fill:#FFCC00; opacity:1.0;"/>
  <circle cx="600.479" cy="643.708" id="Ultralight-S-rotate-anchor" r="1" style="fill:#FFCC00; opacity:1.0;"/>
 </g>
</svg>
