<?xml version="1.0" encoding="UTF-8"?>
<!--Generator: Apple Native CoreSVG 326-->
<!DOCTYPE svg
PUBLIC "-//W3C//DTD SVG 1.1//EN"
       "http://www.w3.org/Graphics/SVG/1.1/DTD/svg11.dtd">
<svg version="1.1" xmlns="http://www.w3.org/2000/svg" xmlns:xlink="http://www.w3.org/1999/xlink" viewBox="0 0 3300 2200">
 <!--glyph: "", point size: 100.0, font version: "20.0d10e1", template writer version: "138.0.0"-->
 <style>.monochrome-0 {-sfsymbols-motion-group:1;-sfsymbols-layer-tags:-48d4abfcd0553d3c -73a2d4027dec010f book}
.monochrome-1 {opacity:0.0;-sfsymbols-clear-behind:true;-sfsymbols-motion-group:0;-sfsymbols-layer-tags:-48d4abfcd0553d3c _badge sparkles.alt}
.monochrome-2 {-sfsymbols-motion-group:0;-sfsymbols-always-pulses:true;-sfsymbols-layer-tags:-48d4abfcd0553d3c _badge sparkles.alt}

.multicolor-0:tintColor {-sfsymbols-motion-group:1;-sfsymbols-layer-tags:-48d4abfcd0553d3c -73a2d4027dec010f book}
.multicolor-1:tintColor {opacity:0.0;-sfsymbols-clear-behind:true;-sfsymbols-motion-group:0;-sfsymbols-layer-tags:-48d4abfcd0553d3c _badge sparkles.alt}
.multicolor-2:tintColor {-sfsymbols-motion-group:0;-sfsymbols-always-pulses:true;-sfsymbols-layer-tags:-48d4abfcd0553d3c _badge sparkles.alt}

.hierarchical-0:secondary {-sfsymbols-motion-group:1;-sfsymbols-layer-tags:-48d4abfcd0553d3c -73a2d4027dec010f book}
.hierarchical-1:primary {opacity:0.0;-sfsymbols-clear-behind:true;-sfsymbols-motion-group:0;-sfsymbols-layer-tags:-48d4abfcd0553d3c _badge sparkles.alt}
.hierarchical-2:primary {-sfsymbols-motion-group:0;-sfsymbols-layer-tags:-48d4abfcd0553d3c _badge sparkles.alt}

.SFSymbolsPreviewWireframe {fill:none;opacity:1.0;stroke:black;stroke-width:0.5}
</style>
 <g id="Notes">
  <rect height="2200" id="artboard" style="fill:white;opacity:1" width="3300" x="0" y="0"/>
  <line style="fill:none;stroke:black;opacity:1;stroke-width:0.5;" x1="263" x2="3036" y1="292" y2="292"/>
  <text style="stroke:none;fill:black;font-family:sans-serif;font-size:13;font-weight:bold;" transform="matrix(1 0 0 1 263 322)">Weight/Scale Variations</text>
  <text style="stroke:none;fill:black;font-family:sans-serif;font-size:13;text-anchor:middle;" transform="matrix(1 0 0 1 559.711 322)">Ultralight</text>
  <text style="stroke:none;fill:black;font-family:sans-serif;font-size:13;text-anchor:middle;" transform="matrix(1 0 0 1 856.422 322)">Thin</text>
  <text style="stroke:none;fill:black;font-family:sans-serif;font-size:13;text-anchor:middle;" transform="matrix(1 0 0 1 1153.13 322)">Light</text>
  <text style="stroke:none;fill:black;font-family:sans-serif;font-size:13;text-anchor:middle;" transform="matrix(1 0 0 1 1449.84 322)">Regular</text>
  <text style="stroke:none;fill:black;font-family:sans-serif;font-size:13;text-anchor:middle;" transform="matrix(1 0 0 1 1746.56 322)">Medium</text>
  <text style="stroke:none;fill:black;font-family:sans-serif;font-size:13;text-anchor:middle;" transform="matrix(1 0 0 1 2043.27 322)">Semibold</text>
  <text style="stroke:none;fill:black;font-family:sans-serif;font-size:13;text-anchor:middle;" transform="matrix(1 0 0 1 2339.98 322)">Bold</text>
  <text style="stroke:none;fill:black;font-family:sans-serif;font-size:13;text-anchor:middle;" transform="matrix(1 0 0 1 2636.69 322)">Heavy</text>
  <text style="stroke:none;fill:black;font-family:sans-serif;font-size:13;text-anchor:middle;" transform="matrix(1 0 0 1 2933.4 322)">Black</text>
  <line style="fill:none;stroke:black;opacity:1;stroke-width:0.5;" x1="263" x2="3036" y1="1903" y2="1903"/>
  <g transform="matrix(0.2 0 0 0.2 263 1933)">
   <path d="m46.2402 4.15039c21.7773 0 39.4531-17.627 39.4531-39.4043s-17.6758-39.4043-39.4531-39.4043c-21.7285 0-39.4043 17.627-39.4043 39.4043s17.6758 39.4043 39.4043 39.4043Zm0-7.42188c-17.6758 0-31.9336-14.3066-31.9336-31.9824s14.2578-31.9824 31.9336-31.9824 31.9824 14.3066 31.9824 31.9824-14.3066 31.9824-31.9824 31.9824Zm-17.9688-31.9824c0 2.14844 1.51367 3.61328 3.75977 3.61328h10.498v10.5957c0 2.19727 1.46484 3.71094 3.61328 3.71094 2.24609 0 3.71094-1.51367 3.71094-3.71094v-10.5957h10.5957c2.19727 0 3.71094-1.46484 3.71094-3.61328 0-2.19727-1.51367-3.71094-3.71094-3.71094h-10.5957v-10.5469c0-2.24609-1.46484-3.75977-3.71094-3.75977-2.14844 0-3.61328 1.51367-3.61328 3.75977v10.5469h-10.498c-2.24609 0-3.75977 1.51367-3.75977 3.71094Z"/>
  </g>
  <g transform="matrix(0.2 0 0 0.2 281.506 1933)">
   <path d="m58.5449 14.5508c27.4902 0 49.8047-22.3145 49.8047-49.8047s-22.3145-49.8047-49.8047-49.8047-49.8047 22.3145-49.8047 49.8047 22.3145 49.8047 49.8047 49.8047Zm0-8.30078c-22.9492 0-41.5039-18.5547-41.5039-41.5039s18.5547-41.5039 41.5039-41.5039 41.5039 18.5547 41.5039 41.5039-18.5547 41.5039-41.5039 41.5039Zm-22.6562-41.5039c0 2.39258 1.66016 4.00391 4.15039 4.00391h14.3555v14.4043c0 2.44141 1.66016 4.15039 4.05273 4.15039 2.44141 0 4.15039-1.66016 4.15039-4.15039v-14.4043h14.4043c2.44141 0 4.15039-1.61133 4.15039-4.00391 0-2.44141-1.70898-4.15039-4.15039-4.15039h-14.4043v-14.3555c0-2.49023-1.70898-4.19922-4.15039-4.19922-2.39258 0-4.05273 1.70898-4.05273 4.19922v14.3555h-14.3555c-2.49023 0-4.15039 1.70898-4.15039 4.15039Z"/>
  </g>
  <g transform="matrix(0.2 0 0 0.2 304.924 1933)">
   <path d="m74.8535 28.3203c35.1074 0 63.623-28.4668 63.623-63.5742s-28.5156-63.623-63.623-63.623-63.5742 28.5156-63.5742 63.623 28.4668 63.5742 63.5742 63.5742Zm0-9.08203c-30.127 0-54.4922-24.3652-54.4922-54.4922s24.3652-54.4922 54.4922-54.4922 54.4922 24.3652 54.4922 54.4922-24.3652 54.4922-54.4922 54.4922Zm-28.8574-54.4922c0 2.58789 1.85547 4.39453 4.58984 4.39453h19.7266v19.7754c0 2.68555 1.85547 4.58984 4.44336 4.58984 2.68555 0 4.54102-1.85547 4.54102-4.58984v-19.7754h19.7754c2.68555 0 4.58984-1.80664 4.58984-4.39453 0-2.73438-1.85547-4.58984-4.58984-4.58984h-19.7754v-19.7266c0-2.73438-1.85547-4.63867-4.54102-4.63867-2.58789 0-4.44336 1.9043-4.44336 4.63867v19.7266h-19.7266c-2.73438 0-4.58984 1.85547-4.58984 4.58984Z"/>
  </g>
  <text style="stroke:none;fill:black;font-family:sans-serif;font-size:13;font-weight:bold;" transform="matrix(1 0 0 1 263 1953)">Design Variations</text>
  <text style="stroke:none;fill:black;font-family:sans-serif;font-size:13;" transform="matrix(1 0 0 1 263 1971)">Symbols are supported in up to nine weights and three scales.</text>
  <text style="stroke:none;fill:black;font-family:sans-serif;font-size:13;" transform="matrix(1 0 0 1 263 1989)">For optimal layout with text and other symbols, vertically align</text>
  <text style="stroke:none;fill:black;font-family:sans-serif;font-size:13;" transform="matrix(1 0 0 1 263 2007)">symbols with the adjacent text.</text>
  <line style="fill:none;stroke:#00AEEF;stroke-width:0.5;opacity:1.0;" x1="776" x2="776" y1="1919" y2="1933"/>
  <g transform="matrix(0.2 0 0 0.2 776 1933)">
   <path d="m16.5527 0.78125c2.58789 0 3.85742-0.976562 4.78516-3.71094l6.29883-17.2363h28.8086l6.29883 17.2363c0.927734 2.73438 2.19727 3.71094 4.73633 3.71094 2.58789 0 4.24805-1.5625 4.24805-4.00391 0-0.830078-0.146484-1.61133-0.537109-2.63672l-22.9004-60.9863c-1.12305-2.97852-3.125-4.49219-6.25-4.49219-3.02734 0-5.07812 1.46484-6.15234 4.44336l-22.9004 61.084c-0.390625 1.02539-0.537109 1.80664-0.537109 2.63672 0 2.44141 1.5625 3.95508 4.10156 3.95508Zm13.4766-28.3691 11.8652-32.8613h0.244141l11.8652 32.8613Z"/>
  </g>
  <line style="fill:none;stroke:#00AEEF;stroke-width:0.5;opacity:1.0;" x1="792.836" x2="792.836" y1="1919" y2="1933"/>
  <text style="stroke:none;fill:black;font-family:sans-serif;font-size:13;font-weight:bold;" transform="matrix(1 0 0 1 776 1953)">Margins</text>
  <text style="stroke:none;fill:black;font-family:sans-serif;font-size:13;" transform="matrix(1 0 0 1 776 1971)">Leading and trailing margins on the left and right side of each symbol</text>
  <text style="stroke:none;fill:black;font-family:sans-serif;font-size:13;" transform="matrix(1 0 0 1 776 1989)">can be adjusted by modifying the x-location of the margin guidelines.</text>
  <text style="stroke:none;fill:black;font-family:sans-serif;font-size:13;" transform="matrix(1 0 0 1 776 2007)">Modifications are automatically applied proportionally to all</text>
  <text style="stroke:none;fill:black;font-family:sans-serif;font-size:13;" transform="matrix(1 0 0 1 776 2025)">scales and weights.</text>
  <g transform="matrix(0.2 0 0 0.2 1289 1933)">
   <path d="m14.209 9.32617 8.49609 8.54492c4.29688 4.3457 9.22852 4.05273 13.8672-1.07422l53.4668-58.9355-4.83398-4.88281-53.0762 58.3984c-1.75781 2.00195-3.41797 2.49023-5.76172 0.146484l-5.85938-5.81055c-2.34375-2.29492-1.80664-4.00391 0.195312-5.81055l57.373-54.0039-4.88281-4.83398-57.959 54.4434c-4.93164 4.58984-5.32227 9.47266-1.02539 13.8184Zm32.0801-90.9668c-2.09961 2.05078-2.24609 4.93164-1.07422 6.88477 1.17188 1.80664 3.4668 2.97852 6.68945 2.14844 7.32422-1.70898 14.9414-2.00195 22.0703 2.68555l-2.92969 7.27539c-1.70898 4.15039-0.830078 7.08008 1.85547 9.81445l11.4746 11.5723c2.44141 2.44141 4.49219 2.53906 7.32422 2.05078l5.32227-0.976562 3.32031 3.36914-0.195312 2.7832c-0.195312 2.49023 0.439453 4.39453 2.88086 6.78711l3.80859 3.71094c2.39258 2.39258 5.46875 2.53906 7.8125 0.195312l14.5508-14.5996c2.34375-2.34375 2.24609-5.32227-0.146484-7.71484l-3.85742-3.80859c-2.39258-2.39258-4.24805-3.17383-6.64062-2.97852l-2.88086 0.244141-3.22266-3.17383 1.2207-5.61523c0.634766-2.83203-0.146484-5.0293-3.07617-7.95898l-10.9863-10.9375c-16.6992-16.6016-38.8672-16.2109-53.3203-1.75781Zm7.4707 1.85547c12.1582-8.88672 28.6133-7.37305 39.7461 3.75977l12.1582 12.0605c1.17188 1.17188 1.36719 2.09961 1.02539 3.80859l-1.61133 7.42188 7.51953 7.42188 4.93164-0.292969c1.26953-0.0488281 1.66016 0.0488281 2.63672 1.02539l2.88086 2.88086-12.207 12.207-2.88086-2.88086c-0.976562-0.976562-1.12305-1.36719-1.07422-2.68555l0.341797-4.88281-7.4707-7.42188-7.61719 1.26953c-1.61133 0.341797-2.34375 0.195312-3.56445-0.976562l-10.0098-10.0098c-1.26953-1.17188-1.41602-2.00195-0.634766-3.85742l4.39453-10.4492c-7.8125-7.27539-17.9688-10.4004-28.125-7.42188-0.78125 0.195312-1.07422-0.439453-0.439453-0.976562Z"/>
  </g>
  <text style="stroke:none;fill:black;font-family:sans-serif;font-size:13;font-weight:bold;" transform="matrix(1 0 0 1 1289 1953)">Exporting</text>
  <text style="stroke:none;fill:black;font-family:sans-serif;font-size:13;" transform="matrix(1 0 0 1 1289 1971)">Symbols should be outlined when exporting to ensure the</text>
  <text style="stroke:none;fill:black;font-family:sans-serif;font-size:13;" transform="matrix(1 0 0 1 1289 1989)">design is preserved when submitting to Xcode.</text>
  <text id="template-version" style="stroke:none;fill:black;font-family:sans-serif;font-size:13;text-anchor:end;" transform="matrix(1 0 0 1 3036 1933)">Template v.5.0</text>
  <text style="stroke:none;fill:black;font-family:sans-serif;font-size:13;text-anchor:end;" transform="matrix(1 0 0 1 3036 1951)">Requires Xcode 15 or greater</text>
  <text id="descriptive-name" style="stroke:none;fill:black;font-family:sans-serif;font-size:13;text-anchor:end;" transform="matrix(1 0 0 1 3036 1969)">Generated from </text>
  <text style="stroke:none;fill:black;font-family:sans-serif;font-size:13;text-anchor:end;" transform="matrix(1 0 0 1 3036 1987)">Typeset at 100.0 points</text>
  <text style="stroke:none;fill:black;font-family:sans-serif;font-size:13;" transform="matrix(1 0 0 1 263 726)">Small</text>
  <text style="stroke:none;fill:black;font-family:sans-serif;font-size:13;" transform="matrix(1 0 0 1 263 1156)">Medium</text>
  <text style="stroke:none;fill:black;font-family:sans-serif;font-size:13;" transform="matrix(1 0 0 1 263 1586)">Large</text>
 </g>
 <g id="Guides">
  <g id="H-reference" style="fill:#27AAE1;stroke:none;" transform="matrix(1 0 0 1 339 696)">
   <path d="M0.993654 0L3.63775 0L29.3281-67.1323L30.0303-67.1323L30.0303-70.459L28.1226-70.459ZM11.6885-24.4799L46.9815-24.4799L46.2315-26.7285L12.4385-26.7285ZM55.1196 0L57.7637 0L30.6382-70.459L29.4326-70.459L29.4326-67.1323Z"/>
  </g>
  <line id="Baseline-S" style="fill:none;stroke:#27AAE1;opacity:1;stroke-width:0.5;" x1="263" x2="3036" y1="696" y2="696"/>
  <line id="Capline-S" style="fill:none;stroke:#27AAE1;opacity:1;stroke-width:0.5;" x1="263" x2="3036" y1="625.541" y2="625.541"/>
  <g id="H-reference" style="fill:#27AAE1;stroke:none;" transform="matrix(1 0 0 1 339 1126)">
   <path d="M0.993654 0L3.63775 0L29.3281-67.1323L30.0303-67.1323L30.0303-70.459L28.1226-70.459ZM11.6885-24.4799L46.9815-24.4799L46.2315-26.7285L12.4385-26.7285ZM55.1196 0L57.7637 0L30.6382-70.459L29.4326-70.459L29.4326-67.1323Z"/>
  </g>
  <line id="Baseline-M" style="fill:none;stroke:#27AAE1;opacity:1;stroke-width:0.5;" x1="263" x2="3036" y1="1126" y2="1126"/>
  <line id="Capline-M" style="fill:none;stroke:#27AAE1;opacity:1;stroke-width:0.5;" x1="263" x2="3036" y1="1055.54" y2="1055.54"/>
  <g id="H-reference" style="fill:#27AAE1;stroke:none;" transform="matrix(1 0 0 1 339 1556)">
   <path d="M0.993654 0L3.63775 0L29.3281-67.1323L30.0303-67.1323L30.0303-70.459L28.1226-70.459ZM11.6885-24.4799L46.9815-24.4799L46.2315-26.7285L12.4385-26.7285ZM55.1196 0L57.7637 0L30.6382-70.459L29.4326-70.459L29.4326-67.1323Z"/>
  </g>
  <line id="Baseline-L" style="fill:none;stroke:#27AAE1;opacity:1;stroke-width:0.5;" x1="263" x2="3036" y1="1556" y2="1556"/>
  <line id="Capline-L" style="fill:none;stroke:#27AAE1;opacity:1;stroke-width:0.5;" x1="263" x2="3036" y1="1485.54" y2="1485.54"/>
  <line id="right-margin-Black-S" style="fill:none;stroke:#FF3B30;stroke-width:0.5;opacity:1.0;" x1="2989.65" x2="2989.65" y1="600.785" y2="720.121"/>
  <line id="left-margin-Black-S" style="fill:none;stroke:#00AEEF;stroke-width:0.5;opacity:1.0;" x1="2877.15" x2="2877.15" y1="600.785" y2="720.121"/>
  <line id="right-margin-Regular-S" style="fill:none;stroke:#FF3B30;stroke-width:0.5;opacity:1.0;" x1="1502.53" x2="1502.53" y1="600.785" y2="720.121"/>
  <line id="left-margin-Regular-S" style="fill:none;stroke:#00AEEF;stroke-width:0.5;opacity:1.0;" x1="1397.16" x2="1397.16" y1="600.785" y2="720.121"/>
  <line id="right-margin-Ultralight-S" style="fill:none;stroke:#FF3B30;stroke-width:0.5;opacity:1.0;" x1="609.99" x2="609.99" y1="600.785" y2="720.121"/>
  <line id="left-margin-Ultralight-S" style="fill:none;stroke:#00AEEF;stroke-width:0.5;opacity:1.0;" x1="509.432" x2="509.432" y1="600.785" y2="720.121"/>
 </g>
 <g id="Symbols">
  <g id="Black-S" transform="matrix(1 0 0 1 2877.15 696)">
   <path class="monochrome-0 multicolor-0:tintColor hierarchical-0:secondary SFSymbolsPreviewWireframe" d="M9.76562-6.39648C9.76562-1.2207 13.2324 2.24609 18.3594 2.24609C20.459 2.24609 21.875 1.51367 24.7559-0.0976562C28.8086-2.53906 32.7637-3.71094 36.6211-3.66211C41.2109-3.61328 45.3125-2.00195 48.8281 1.12305C51.2207 3.41797 53.6133 4.49219 56.25 4.49219C58.8867 4.49219 61.2793 3.41797 63.6719 1.12305C67.1875-2.00195 71.2891-3.61328 75.8789-3.66211C79.7363-3.71094 83.6914-2.53906 87.7441-0.0976562C90.625 1.51367 92.041 2.24609 94.1406 2.24609C99.2676 2.24609 102.734-1.2207 102.734-6.39648L102.734-58.3496C102.734-59.668 102.393-60.9375 101.855-61.9141C97.4121-69.8242 86.9141-75.0488 75.6836-75.0488C68.4082-75.0488 61.1816-72.7051 56.25-68.75C51.3184-72.7051 44.0918-75.0488 36.8164-75.0488C25.5859-75.0488 15.0879-69.8242 10.6445-61.9141C10.1074-60.9375 9.76562-59.668 9.76562-58.3496ZM23.9258-15.5273L23.9258-56.0547C26.6113-58.9844 31.5918-60.8887 36.8164-60.8887C42.1387-60.8887 46.9727-58.9844 49.1699-56.0547L49.1699-15.332C45.3613-16.9434 41.0156-17.8223 36.8164-17.8223C32.3242-17.8223 27.832-17.041 23.9258-15.5273ZM63.3301-15.332L63.3301-56.0547C65.5273-58.9844 70.3613-60.8887 75.6836-60.8887C80.9082-60.8887 85.8887-58.9844 88.5742-56.0547L88.5742-15.5273C84.668-17.041 80.1758-17.8223 75.6836-17.8223C71.4844-17.8223 67.1387-16.9434 63.3301-15.332Z"/>
   <path class="monochrome-1 multicolor-1:tintColor hierarchical-1:primary SFSymbolsPreviewWireframe" d="M96.7087 16.5381C100.81 16.5381 102.275 14.1455 105.254 14.1455C106.377 14.1455 107.744 14.6827 108.281 16.8311L108.33 17.0264C109.306 20.835 112.187 23.8623 116.093 23.8623C120.097 23.8623 123.369 20.8838 123.857 16.9287C124.101 14.9756 124.101 14.9756 126.249 14.6338C130.253 13.9991 133.037 10.8252 133.037 6.919C133.037-1.04 122.929-1.9677 122.929-5.1416C122.929-7.0947 123.954-9.0966 123.954-10.708C123.954-14.956 120.732-18.5205 116.484-19.1064C106.377-20.4248 106.377-20.4248 105.058-30.5322C104.472-34.7802 100.957-37.9541 96.7087-37.9541C92.5583-37.9541 89.0916-34.9267 88.3591-30.7763C86.5525-20.3271 86.5525-20.3271 76.9821-19.1064C72.6364-18.5693 69.4626-15.0048 69.4626-10.708C69.4626-6.4111 72.6364-2.7978 76.9821-2.2607C86.9432-1.04 86.9432-1.04 88.3102 9.2139C88.8962 13.4131 92.4606 16.5381 96.7087 16.5381Z"/>
   <path class="monochrome-2 multicolor-2:tintColor hierarchical-2:primary SFSymbolsPreviewWireframe" d="M96.7087 10.1905C97.7341 10.1905 98.5642 9.4092 98.7595 8.335C101.201-5.1416 103.008-6.3623 115.654-8.5595C116.777-8.7548 117.607-9.6338 117.607-10.708C117.607-11.7822 116.777-12.6611 115.654-12.8076C102.568-14.5166 100.468-16.4697 98.7595-29.7021C98.613-30.8252 97.7829-31.6064 96.7087-31.6064C95.6345-31.6064 94.8045-30.8252 94.6091-29.7021C92.2654-16.2256 90.5075-14.4189 77.7634-12.8076C76.5916-12.6611 75.8102-11.7822 75.8102-10.708C75.8102-9.6338 76.5916-8.706 77.7634-8.5595C91.0446-6.8994 92.8025-4.8974 94.6091 8.335C94.7555 9.4092 95.6345 10.1905 96.7087 10.1905ZM116.093 17.5147C116.875 17.5147 117.461 16.9287 117.558 16.1475C118.388 9.6045 118.486 9.458 125.273 8.3838C126.201 8.2373 126.689 7.7002 126.689 6.919C126.689 6.1866 126.201 5.6006 125.419 5.4541C118.437 4.1358 118.34 4.1358 117.558-2.3095C117.461-3.0908 116.875-3.6767 116.093-3.6767C115.312-3.6767 114.726-3.0908 114.629-2.3095C113.799 4.4287 113.652 4.5264 106.767 5.4541C106.035 5.5518 105.498 6.1866 105.498 6.919C105.498 7.6514 105.986 8.2373 106.767 8.3838C113.75 9.7022 113.75 9.7022 114.629 16.1963C114.726 16.9287 115.361 17.5147 116.093 17.5147Z"/>
  </g>
  <g id="Regular-S" transform="matrix(1 0 0 1 1397.16 696)">
   <path class="monochrome-0 multicolor-0:tintColor hierarchical-0:secondary SFSymbolsPreviewWireframe" d="M9.76562-6.29883C9.76562-2.68555 12.1582-1.31836 14.7461-1.31836C16.2109-1.31836 17.4805-2.14844 19.1895-3.17383C23.4863-5.71289 28.2715-7.32422 33.0566-7.27539C38.3301-7.27539 43.5059-5.37109 47.7539-1.46484C49.707 0.292969 51.0742 0.878906 52.6855 0.878906C54.2969 0.878906 55.7129 0.292969 57.6172-1.46484C61.8652-5.37109 67.041-7.27539 72.3145-7.27539C77.0996-7.32422 81.9336-5.71289 86.1816-3.17383C87.8906-2.14844 89.1602-1.31836 90.6738-1.31836C93.2129-1.31836 95.6055-2.68555 95.6055-6.29883L95.6055-58.252C95.6055-58.8867 95.5566-59.4727 95.166-60.1562C91.748-66.1621 83.0566-71.4355 72.1191-71.4355C63.916-71.4355 56.5918-68.2617 52.6855-63.7207C48.7793-68.2617 41.4551-71.4355 33.252-71.4355C22.3633-71.4355 13.623-66.1621 10.2051-60.1562C9.81445-59.4727 9.76562-58.8867 9.76562-58.252ZM16.7969-9.86328L16.7969-57.2266C19.873-61.5234 26.416-64.4043 33.252-64.4043C40.332-64.4043 46.6309-61.4746 49.1699-57.0312L49.1699-9.27734C45.2148-12.3535 39.2578-14.3555 33.252-14.3555C27.002-14.3555 20.9473-12.6465 16.7969-9.86328ZM56.2012-9.27734L56.2012-57.0312C58.7402-61.4746 65.0879-64.4043 72.1191-64.4043C78.9551-64.4043 85.5469-61.5234 88.5742-57.2266L88.5742-9.86328C84.4727-12.6465 78.3691-14.3555 72.1191-14.3555C66.1133-14.3555 60.2051-12.3535 56.2012-9.27734Z"/>
   <path class="monochrome-1 multicolor-1:tintColor hierarchical-1:primary SFSymbolsPreviewWireframe" d="M91.244 15.3908C94.4178 15.3908 96.3221 14.0236 98.2264 14.0236C99.9354 14.0236 100.961 15.0002 101.351 16.8556L101.449 17.3927C102.181 20.8107 105.111 23.2033 108.529 23.2033C111.996 23.2033 114.779 20.8107 115.56 17.3927C116.195 14.4142 116.195 14.5119 118.637 14.0724C122.25 13.4865 124.789 10.6056 124.789 6.9924C124.789-0.234198 115.56 1.4748 115.56-3.701C115.56-5.2635 117.611-8.4862 117.611-10.9276C117.611-14.7362 114.779-17.91 110.922-18.4471C100.961-19.7655 100.961-19.7655 98.7147-31.0448C97.9823-34.5604 95.0037-37.2951 91.244-37.2951C87.4842-37.2951 84.3104-34.5116 83.7244-30.7518C82.0643-19.8631 82.0643-19.8631 71.5662-18.4471C67.7088-17.91 64.8768-14.7362 64.8768-10.9276C64.8768-7.119 67.7088-3.9451 71.5662-3.408C81.3319-2.0897 81.4295-1.9432 83.8221 9.2873C84.5057 12.7052 87.4354 15.3908 91.244 15.3908Z"/>
   <path class="monochrome-2 multicolor-2:tintColor hierarchical-2:primary SFSymbolsPreviewWireframe" d="M91.244 9.6779C92.2205 9.6779 92.953 9.0431 93.0994 8.0177C95.0037-4.3358 96.9569-7.2655 110.14-9.0721C111.166-9.2186 111.898-9.951 111.898-10.9276C111.898-11.9041 111.166-12.6366 110.14-12.783C96.908-14.5897 95.5897-17.4705 93.0994-29.9217C92.9041-30.8983 92.1717-31.5819 91.244-31.5819C90.3162-31.5819 89.535-30.8983 89.3885-29.8729C87.533-17.7147 85.5311-14.5897 72.3475-12.783C71.3221-12.6366 70.5897-11.9041 70.5897-10.9276C70.5897-9.951 71.3221-9.2186 72.3475-9.0721C85.5799-7.2655 86.8006-4.3358 89.3885 8.0666C89.5838 9.0431 90.3162 9.6779 91.244 9.6779ZM108.529 17.4904C109.31 17.4904 109.799 16.9045 109.994 16.1232C111.41 9.5802 110.824 9.5802 117.709 8.4572C118.588 8.3107 119.076 7.7736 119.076 6.9924C119.076 6.2599 118.588 5.674 117.806 5.5275C110.824 4.258 111.41 4.258 109.994-2.1873C109.799-3.0174 109.31-3.5057 108.529-3.5057C107.748-3.5057 107.211-2.9686 107.064-2.1873C105.697 4.258 106.283 4.258 99.2518 5.5275C98.4705 5.674 97.9823 6.2599 97.9823 6.9924C97.9823 7.6759 98.4705 8.3107 99.2518 8.4572C106.283 9.5802 105.697 9.5802 107.064 16.2697C107.211 16.9533 107.797 17.4904 108.529 17.4904Z"/>
  </g>
  <g id="Ultralight-S" transform="matrix(1 0 0 1 509.432 696)">
   <path class="monochrome-0 multicolor-0:tintColor hierarchical-0:secondary SFSymbolsPreviewWireframe" d="M9.76562-5.02735C9.76562-4.22948 10.3418-3.72508 11.1133-3.72508C11.6245-3.72508 12.0313-3.96483 12.5142-4.4453C16.4024-8.57371 23.231-11.0478 30.8316-11.0444C37.6035-11.0444 44.3686-8.1865 48.8437-3.23583C49.2983-2.70408 49.7573-2.57224 50.2788-2.57224C50.8003-2.57224 51.3081-2.74949 51.7139-3.23583C56.2344-8.09568 62.9541-11.0444 69.7261-11.0444C77.3267-11.0478 84.1587-8.57371 88.0434-4.4453C88.481-3.96483 88.9331-3.72508 89.4024-3.72508C90.2158-3.72508 90.792-4.22948 90.792-5.02735L90.792-56.7988C90.792-57.5244 90.6978-57.8379 90.3072-58.4307C86.8438-63.937 78.6065-67.8482 69.7124-67.8482C60.7373-67.8482 54.0034-63.9932 50.2788-58.544C46.5542-63.9932 39.7749-67.8482 30.8452-67.8482C21.9546-67.8482 13.7139-63.937 10.2505-58.4307C9.85986-57.8379 9.76562-57.5244 9.76562-56.7988ZM11.9834-7.04787L11.9834-56.8179C15.2867-62.1138 22.8741-65.6758 30.8452-65.6758C39.0606-65.6758 45.6773-62.1103 49.1699-56.2593L49.1699-6.00784C45.6689-9.35647 38.8491-13.2202 30.8452-13.2202C22.3702-13.2202 15.6797-10.5122 11.9834-7.04787ZM51.3877-6.00784L51.3877-56.2593C54.8804-62.1103 61.4551-65.6758 69.7124-65.6758C77.6382-65.6758 85.2744-62.1138 88.5742-56.8179L88.5742-7.04787C84.8813-10.5122 78.1875-13.2202 69.7124-13.2202C61.7085-13.2202 54.8467-9.35647 51.3877-6.00784Z"/>
   <path class="monochrome-1 multicolor-1:tintColor hierarchical-1:primary SFSymbolsPreviewWireframe" d="M87.2085 11.8033C89.2017 11.8033 91.333 10.7086 94.6904 10.7086C98.3975 10.7086 100.149 11.7306 100.495 14.0401L100.774 16.0758C101.052 17.9952 102.574 19.2979 104.494 19.2979C106.371 19.2979 107.883 17.9498 108.165 16.0758C108.845 10.2364 108.845 11.4239 113.239 10.9391C115.172 10.671 116.53 9.10695 116.53 7.26465C116.53 1.71825 108.165 5.60695 108.165-2.33885C108.165-6.08105 109.898-7.75975 109.898-10.7914C109.898-12.7382 108.473-14.3681 106.478-14.5874C93.0655-16.269 93.0655-16.269 91.0464-30.0912C90.7681-31.9721 89.2427-33.3896 87.2085-33.3896C85.1289-33.3896 83.5898-31.9687 83.3218-30.0707C81.3437-16.2304 81.3437-16.2304 67.894-14.5874C65.9438-14.3681 64.4741-12.7382 64.4741-10.7914C64.4741-8.84465 65.9438-7.26025 67.894-6.99555C79.9302-5.40475 81.708-3.53265 83.3286 8.46975C83.6035 10.3892 85.1255 11.8033 87.2085 11.8033Z"/>
   <path class="monochrome-2 multicolor-2:tintColor hierarchical-2:primary SFSymbolsPreviewWireframe" d="M87.2085 8.72415C87.6856 8.72415 87.9639 8.40725 88.0195 8.06305C90.2417-7.56005 91.0142-8.17385 106.15-10.0712C106.54-10.1269 106.818-10.3598 106.818-10.7914C106.818-11.2231 106.54-11.5014 106.15-11.5571C91.0108-13.4545 90.2827-14.0649 88.0195-29.6493C87.9605-30.0356 87.6821-30.3559 87.2085-30.3559C86.6895-30.3559 86.4077-30.0356 86.3521-29.6459C84.1333-14.0366 83.4028-13.4545 68.2666-11.5571C67.8315-11.5014 67.5532-11.2231 67.5532-10.7914C67.5532-10.3598 67.8315-10.1269 68.2666-10.0712C83.3608-8.17385 84.082-7.56005 86.3521 8.06645C86.4111 8.40725 86.6895 8.72415 87.2085 8.72415ZM104.494 16.2188C104.821 16.2188 105.037 15.9962 105.096 15.669C105.831 9.85255 105.79 8.67185 112.856 7.91215C113.281 7.85645 113.451 7.59185 113.451 7.26465C113.451 6.94095 113.281 6.67285 112.863 6.61715C105.79 5.84715 105.831 4.66655 105.096-1.14305C105.037-1.47365 104.821-1.68945 104.494-1.68945C104.121-1.68945 103.902-1.51565 103.846-1.14305C103.115 4.66655 103.156 5.84715 96.0791 6.61715C95.6611 6.67285 95.4907 6.94095 95.4907 7.26465C95.4907 7.58495 95.6611 7.85645 96.0791 7.91215C103.156 8.67185 103.115 9.85255 103.846 15.6339C103.902 15.9996 104.124 16.2188 104.494 16.2188Z"/>
  </g>
 </g>
</svg>
