<?xml version="1.0" encoding="UTF-8"?>
<!--Generator: Apple Native CoreSVG 326-->
<!DOCTYPE svg
PUBLIC "-//W3C//DTD SVG 1.1//EN"
       "http://www.w3.org/Graphics/SVG/1.1/DTD/svg11.dtd">
<svg version="1.1" xmlns="http://www.w3.org/2000/svg" xmlns:xlink="http://www.w3.org/1999/xlink" viewBox="0 0 3300 2200">
 <!--glyph: "", point size: 100.0, font version: "20.0d10e1", template writer version: "138.0.0"-->
 <style>.monochrome-0 {-sfsymbols-motion-group:1;-sfsymbols-layer-tags:-632a9b2f7dbdd148 479efd3f8cab8b90 globe}
.monochrome-1 {opacity:0.0;-sfsymbols-clear-behind:true;-sfsymbols-motion-group:0;-sfsymbols-layer-tags:479efd3f8cab8b90 _badge arrow.down}
.monochrome-2 {-sfsymbols-motion-group:0;-sfsymbols-always-pulses:true;-sfsymbols-layer-tags:479efd3f8cab8b90 _badge arrow.down}
.monochrome-3 {opacity:0.0;-sfsymbols-clear-behind:true;-sfsymbols-motion-group:0;-sfsymbols-always-pulses:true;-sfsymbols-layer-tags:479efd3f8cab8b90 _badge arrow.down}

.multicolor-0:tintColor {-sfsymbols-motion-group:1;-sfsymbols-layer-tags:-632a9b2f7dbdd148 479efd3f8cab8b90 globe}
.multicolor-1:tintColor {opacity:0.0;-sfsymbols-clear-behind:true;-sfsymbols-motion-group:0;-sfsymbols-layer-tags:479efd3f8cab8b90 _badge arrow.down}
.multicolor-2:tintColor {-sfsymbols-motion-group:0;-sfsymbols-always-pulses:true;-sfsymbols-layer-tags:479efd3f8cab8b90 _badge arrow.down}
.multicolor-3:white {-sfsymbols-motion-group:0;-sfsymbols-always-pulses:true;-sfsymbols-layer-tags:479efd3f8cab8b90 _badge arrow.down}

.hierarchical-0:secondary {-sfsymbols-motion-group:1;-sfsymbols-layer-tags:-632a9b2f7dbdd148 479efd3f8cab8b90 globe}
.hierarchical-1:primary {opacity:0.0;-sfsymbols-clear-behind:true;-sfsymbols-motion-group:0;-sfsymbols-layer-tags:479efd3f8cab8b90 _badge arrow.down}
.hierarchical-2:primary {-sfsymbols-motion-group:0;-sfsymbols-layer-tags:479efd3f8cab8b90 _badge arrow.down}
.hierarchical-3:primary {opacity:0.0;-sfsymbols-clear-behind:true;-sfsymbols-motion-group:0;-sfsymbols-layer-tags:479efd3f8cab8b90 _badge arrow.down}

.SFSymbolsPreviewWireframe {fill:none;opacity:1.0;stroke:black;stroke-width:0.5}
</style>
 <g id="Notes">
  <rect height="2200" id="artboard" style="fill:white;opacity:1" width="3300" x="0" y="0"/>
  <line style="fill:none;stroke:black;opacity:1;stroke-width:0.5;" x1="263" x2="3036" y1="292" y2="292"/>
  <text style="stroke:none;fill:black;font-family:sans-serif;font-size:13;font-weight:bold;" transform="matrix(1 0 0 1 263 322)">Weight/Scale Variations</text>
  <text style="stroke:none;fill:black;font-family:sans-serif;font-size:13;text-anchor:middle;" transform="matrix(1 0 0 1 559.711 322)">Ultralight</text>
  <text style="stroke:none;fill:black;font-family:sans-serif;font-size:13;text-anchor:middle;" transform="matrix(1 0 0 1 856.422 322)">Thin</text>
  <text style="stroke:none;fill:black;font-family:sans-serif;font-size:13;text-anchor:middle;" transform="matrix(1 0 0 1 1153.13 322)">Light</text>
  <text style="stroke:none;fill:black;font-family:sans-serif;font-size:13;text-anchor:middle;" transform="matrix(1 0 0 1 1449.84 322)">Regular</text>
  <text style="stroke:none;fill:black;font-family:sans-serif;font-size:13;text-anchor:middle;" transform="matrix(1 0 0 1 1746.56 322)">Medium</text>
  <text style="stroke:none;fill:black;font-family:sans-serif;font-size:13;text-anchor:middle;" transform="matrix(1 0 0 1 2043.27 322)">Semibold</text>
  <text style="stroke:none;fill:black;font-family:sans-serif;font-size:13;text-anchor:middle;" transform="matrix(1 0 0 1 2339.98 322)">Bold</text>
  <text style="stroke:none;fill:black;font-family:sans-serif;font-size:13;text-anchor:middle;" transform="matrix(1 0 0 1 2636.69 322)">Heavy</text>
  <text style="stroke:none;fill:black;font-family:sans-serif;font-size:13;text-anchor:middle;" transform="matrix(1 0 0 1 2933.4 322)">Black</text>
  <line style="fill:none;stroke:black;opacity:1;stroke-width:0.5;" x1="263" x2="3036" y1="1903" y2="1903"/>
  <g transform="matrix(0.2 0 0 0.2 263 1933)">
   <path d="m46.2402 4.15039c21.7773 0 39.4531-17.627 39.4531-39.4043s-17.6758-39.4043-39.4531-39.4043c-21.7285 0-39.4043 17.627-39.4043 39.4043s17.6758 39.4043 39.4043 39.4043Zm0-7.42188c-17.6758 0-31.9336-14.3066-31.9336-31.9824s14.2578-31.9824 31.9336-31.9824 31.9824 14.3066 31.9824 31.9824-14.3066 31.9824-31.9824 31.9824Zm-17.9688-31.9824c0 2.14844 1.51367 3.61328 3.75977 3.61328h10.498v10.5957c0 2.19727 1.46484 3.71094 3.61328 3.71094 2.24609 0 3.71094-1.51367 3.71094-3.71094v-10.5957h10.5957c2.19727 0 3.71094-1.46484 3.71094-3.61328 0-2.19727-1.51367-3.71094-3.71094-3.71094h-10.5957v-10.5469c0-2.24609-1.46484-3.75977-3.71094-3.75977-2.14844 0-3.61328 1.51367-3.61328 3.75977v10.5469h-10.498c-2.24609 0-3.75977 1.51367-3.75977 3.71094Z"/>
  </g>
  <g transform="matrix(0.2 0 0 0.2 281.506 1933)">
   <path d="m58.5449 14.5508c27.4902 0 49.8047-22.3145 49.8047-49.8047s-22.3145-49.8047-49.8047-49.8047-49.8047 22.3145-49.8047 49.8047 22.3145 49.8047 49.8047 49.8047Zm0-8.30078c-22.9492 0-41.5039-18.5547-41.5039-41.5039s18.5547-41.5039 41.5039-41.5039 41.5039 18.5547 41.5039 41.5039-18.5547 41.5039-41.5039 41.5039Zm-22.6562-41.5039c0 2.39258 1.66016 4.00391 4.15039 4.00391h14.3555v14.4043c0 2.44141 1.66016 4.15039 4.05273 4.15039 2.44141 0 4.15039-1.66016 4.15039-4.15039v-14.4043h14.4043c2.44141 0 4.15039-1.61133 4.15039-4.00391 0-2.44141-1.70898-4.15039-4.15039-4.15039h-14.4043v-14.3555c0-2.49023-1.70898-4.19922-4.15039-4.19922-2.39258 0-4.05273 1.70898-4.05273 4.19922v14.3555h-14.3555c-2.49023 0-4.15039 1.70898-4.15039 4.15039Z"/>
  </g>
  <g transform="matrix(0.2 0 0 0.2 304.924 1933)">
   <path d="m74.8535 28.3203c35.1074 0 63.623-28.4668 63.623-63.5742s-28.5156-63.623-63.623-63.623-63.5742 28.5156-63.5742 63.623 28.4668 63.5742 63.5742 63.5742Zm0-9.08203c-30.127 0-54.4922-24.3652-54.4922-54.4922s24.3652-54.4922 54.4922-54.4922 54.4922 24.3652 54.4922 54.4922-24.3652 54.4922-54.4922 54.4922Zm-28.8574-54.4922c0 2.58789 1.85547 4.39453 4.58984 4.39453h19.7266v19.7754c0 2.68555 1.85547 4.58984 4.44336 4.58984 2.68555 0 4.54102-1.85547 4.54102-4.58984v-19.7754h19.7754c2.68555 0 4.58984-1.80664 4.58984-4.39453 0-2.73438-1.85547-4.58984-4.58984-4.58984h-19.7754v-19.7266c0-2.73438-1.85547-4.63867-4.54102-4.63867-2.58789 0-4.44336 1.9043-4.44336 4.63867v19.7266h-19.7266c-2.73438 0-4.58984 1.85547-4.58984 4.58984Z"/>
  </g>
  <text style="stroke:none;fill:black;font-family:sans-serif;font-size:13;font-weight:bold;" transform="matrix(1 0 0 1 263 1953)">Design Variations</text>
  <text style="stroke:none;fill:black;font-family:sans-serif;font-size:13;" transform="matrix(1 0 0 1 263 1971)">Symbols are supported in up to nine weights and three scales.</text>
  <text style="stroke:none;fill:black;font-family:sans-serif;font-size:13;" transform="matrix(1 0 0 1 263 1989)">For optimal layout with text and other symbols, vertically align</text>
  <text style="stroke:none;fill:black;font-family:sans-serif;font-size:13;" transform="matrix(1 0 0 1 263 2007)">symbols with the adjacent text.</text>
  <line style="fill:none;stroke:#00AEEF;stroke-width:0.5;opacity:1.0;" x1="776" x2="776" y1="1919" y2="1933"/>
  <g transform="matrix(0.2 0 0 0.2 776 1933)">
   <path d="m16.5527 0.78125c2.58789 0 3.85742-0.976562 4.78516-3.71094l6.29883-17.2363h28.8086l6.29883 17.2363c0.927734 2.73438 2.19727 3.71094 4.73633 3.71094 2.58789 0 4.24805-1.5625 4.24805-4.00391 0-0.830078-0.146484-1.61133-0.537109-2.63672l-22.9004-60.9863c-1.12305-2.97852-3.125-4.49219-6.25-4.49219-3.02734 0-5.07812 1.46484-6.15234 4.44336l-22.9004 61.084c-0.390625 1.02539-0.537109 1.80664-0.537109 2.63672 0 2.44141 1.5625 3.95508 4.10156 3.95508Zm13.4766-28.3691 11.8652-32.8613h0.244141l11.8652 32.8613Z"/>
  </g>
  <line style="fill:none;stroke:#00AEEF;stroke-width:0.5;opacity:1.0;" x1="792.836" x2="792.836" y1="1919" y2="1933"/>
  <text style="stroke:none;fill:black;font-family:sans-serif;font-size:13;font-weight:bold;" transform="matrix(1 0 0 1 776 1953)">Margins</text>
  <text style="stroke:none;fill:black;font-family:sans-serif;font-size:13;" transform="matrix(1 0 0 1 776 1971)">Leading and trailing margins on the left and right side of each symbol</text>
  <text style="stroke:none;fill:black;font-family:sans-serif;font-size:13;" transform="matrix(1 0 0 1 776 1989)">can be adjusted by modifying the x-location of the margin guidelines.</text>
  <text style="stroke:none;fill:black;font-family:sans-serif;font-size:13;" transform="matrix(1 0 0 1 776 2007)">Modifications are automatically applied proportionally to all</text>
  <text style="stroke:none;fill:black;font-family:sans-serif;font-size:13;" transform="matrix(1 0 0 1 776 2025)">scales and weights.</text>
  <g transform="matrix(0.2 0 0 0.2 1289 1933)">
   <path d="m14.209 9.32617 8.49609 8.54492c4.29688 4.3457 9.22852 4.05273 13.8672-1.07422l53.4668-58.9355-4.83398-4.88281-53.0762 58.3984c-1.75781 2.00195-3.41797 2.49023-5.76172 0.146484l-5.85938-5.81055c-2.34375-2.29492-1.80664-4.00391 0.195312-5.81055l57.373-54.0039-4.88281-4.83398-57.959 54.4434c-4.93164 4.58984-5.32227 9.47266-1.02539 13.8184Zm32.0801-90.9668c-2.09961 2.05078-2.24609 4.93164-1.07422 6.88477 1.17188 1.80664 3.4668 2.97852 6.68945 2.14844 7.32422-1.70898 14.9414-2.00195 22.0703 2.68555l-2.92969 7.27539c-1.70898 4.15039-0.830078 7.08008 1.85547 9.81445l11.4746 11.5723c2.44141 2.44141 4.49219 2.53906 7.32422 2.05078l5.32227-0.976562 3.32031 3.36914-0.195312 2.7832c-0.195312 2.49023 0.439453 4.39453 2.88086 6.78711l3.80859 3.71094c2.39258 2.39258 5.46875 2.53906 7.8125 0.195312l14.5508-14.5996c2.34375-2.34375 2.24609-5.32227-0.146484-7.71484l-3.85742-3.80859c-2.39258-2.39258-4.24805-3.17383-6.64062-2.97852l-2.88086 0.244141-3.22266-3.17383 1.2207-5.61523c0.634766-2.83203-0.146484-5.0293-3.07617-7.95898l-10.9863-10.9375c-16.6992-16.6016-38.8672-16.2109-53.3203-1.75781Zm7.4707 1.85547c12.1582-8.88672 28.6133-7.37305 39.7461 3.75977l12.1582 12.0605c1.17188 1.17188 1.36719 2.09961 1.02539 3.80859l-1.61133 7.42188 7.51953 7.42188 4.93164-0.292969c1.26953-0.0488281 1.66016 0.0488281 2.63672 1.02539l2.88086 2.88086-12.207 12.207-2.88086-2.88086c-0.976562-0.976562-1.12305-1.36719-1.07422-2.68555l0.341797-4.88281-7.4707-7.42188-7.61719 1.26953c-1.61133 0.341797-2.34375 0.195312-3.56445-0.976562l-10.0098-10.0098c-1.26953-1.17188-1.41602-2.00195-0.634766-3.85742l4.39453-10.4492c-7.8125-7.27539-17.9688-10.4004-28.125-7.42188-0.78125 0.195312-1.07422-0.439453-0.439453-0.976562Z"/>
  </g>
  <text style="stroke:none;fill:black;font-family:sans-serif;font-size:13;font-weight:bold;" transform="matrix(1 0 0 1 1289 1953)">Exporting</text>
  <text style="stroke:none;fill:black;font-family:sans-serif;font-size:13;" transform="matrix(1 0 0 1 1289 1971)">Symbols should be outlined when exporting to ensure the</text>
  <text style="stroke:none;fill:black;font-family:sans-serif;font-size:13;" transform="matrix(1 0 0 1 1289 1989)">design is preserved when submitting to Xcode.</text>
  <text id="template-version" style="stroke:none;fill:black;font-family:sans-serif;font-size:13;text-anchor:end;" transform="matrix(1 0 0 1 3036 1933)">Template v.5.0</text>
  <text style="stroke:none;fill:black;font-family:sans-serif;font-size:13;text-anchor:end;" transform="matrix(1 0 0 1 3036 1951)">Requires Xcode 15 or greater</text>
  <text id="descriptive-name" style="stroke:none;fill:black;font-family:sans-serif;font-size:13;text-anchor:end;" transform="matrix(1 0 0 1 3036 1969)">Generated from </text>
  <text style="stroke:none;fill:black;font-family:sans-serif;font-size:13;text-anchor:end;" transform="matrix(1 0 0 1 3036 1987)">Typeset at 100.0 points</text>
  <text style="stroke:none;fill:black;font-family:sans-serif;font-size:13;" transform="matrix(1 0 0 1 263 726)">Small</text>
  <text style="stroke:none;fill:black;font-family:sans-serif;font-size:13;" transform="matrix(1 0 0 1 263 1156)">Medium</text>
  <text style="stroke:none;fill:black;font-family:sans-serif;font-size:13;" transform="matrix(1 0 0 1 263 1586)">Large</text>
 </g>
 <g id="Guides">
  <g id="H-reference" style="fill:#27AAE1;stroke:none;" transform="matrix(1 0 0 1 339 696)">
   <path d="M0.993654 0L3.63775 0L29.3281-67.1323L30.0303-67.1323L30.0303-70.459L28.1226-70.459ZM11.6885-24.4799L46.9815-24.4799L46.2315-26.7285L12.4385-26.7285ZM55.1196 0L57.7637 0L30.6382-70.459L29.4326-70.459L29.4326-67.1323Z"/>
  </g>
  <line id="Baseline-S" style="fill:none;stroke:#27AAE1;opacity:1;stroke-width:0.5;" x1="263" x2="3036" y1="696" y2="696"/>
  <line id="Capline-S" style="fill:none;stroke:#27AAE1;opacity:1;stroke-width:0.5;" x1="263" x2="3036" y1="625.541" y2="625.541"/>
  <g id="H-reference" style="fill:#27AAE1;stroke:none;" transform="matrix(1 0 0 1 339 1126)">
   <path d="M0.993654 0L3.63775 0L29.3281-67.1323L30.0303-67.1323L30.0303-70.459L28.1226-70.459ZM11.6885-24.4799L46.9815-24.4799L46.2315-26.7285L12.4385-26.7285ZM55.1196 0L57.7637 0L30.6382-70.459L29.4326-70.459L29.4326-67.1323Z"/>
  </g>
  <line id="Baseline-M" style="fill:none;stroke:#27AAE1;opacity:1;stroke-width:0.5;" x1="263" x2="3036" y1="1126" y2="1126"/>
  <line id="Capline-M" style="fill:none;stroke:#27AAE1;opacity:1;stroke-width:0.5;" x1="263" x2="3036" y1="1055.54" y2="1055.54"/>
  <g id="H-reference" style="fill:#27AAE1;stroke:none;" transform="matrix(1 0 0 1 339 1556)">
   <path d="M0.993654 0L3.63775 0L29.3281-67.1323L30.0303-67.1323L30.0303-70.459L28.1226-70.459ZM11.6885-24.4799L46.9815-24.4799L46.2315-26.7285L12.4385-26.7285ZM55.1196 0L57.7637 0L30.6382-70.459L29.4326-70.459L29.4326-67.1323Z"/>
  </g>
  <line id="Baseline-L" style="fill:none;stroke:#27AAE1;opacity:1;stroke-width:0.5;" x1="263" x2="3036" y1="1556" y2="1556"/>
  <line id="Capline-L" style="fill:none;stroke:#27AAE1;opacity:1;stroke-width:0.5;" x1="263" x2="3036" y1="1485.54" y2="1485.54"/>
  <line id="right-margin-Black-S" style="fill:none;stroke:#FF3B30;stroke-width:0.5;opacity:1.0;" x1="2982.23" x2="2982.23" y1="600.785" y2="720.121"/>
  <line id="left-margin-Black-S" style="fill:none;stroke:#00AEEF;stroke-width:0.5;opacity:1.0;" x1="2884.57" x2="2884.57" y1="600.785" y2="720.121"/>
  <line id="right-margin-Regular-S" style="fill:none;stroke:#FF3B30;stroke-width:0.5;opacity:1.0;" x1="1496.11" x2="1496.11" y1="600.785" y2="720.121"/>
  <line id="left-margin-Regular-S" style="fill:none;stroke:#00AEEF;stroke-width:0.5;opacity:1.0;" x1="1403.58" x2="1403.58" y1="600.785" y2="720.121"/>
  <line id="right-margin-Ultralight-S" style="fill:none;stroke:#FF3B30;stroke-width:0.5;opacity:1.0;" x1="603.773" x2="603.773" y1="600.785" y2="720.121"/>
  <line id="left-margin-Ultralight-S" style="fill:none;stroke:#00AEEF;stroke-width:0.5;opacity:1.0;" x1="515.649" x2="515.649" y1="600.785" y2="720.121"/>
 </g>
 <g id="Symbols">
  <g id="Black-S" transform="matrix(1 0 0 1 2884.57 696)">
   <path class="monochrome-0 multicolor-0:tintColor hierarchical-0:secondary SFSymbolsPreviewWireframe" d="M48.8281-1.2207C60.3516-1.2207 69.5312-16.3574 69.5312-35.1562C69.5312-54.0039 60.3516-69.1895 48.8281-69.1895C37.3047-69.1895 28.125-54.0039 28.125-35.1562C28.125-16.3574 37.3047-1.2207 48.8281-1.2207ZM48.8281-62.5488C55.7129-62.5488 62.5-49.0234 62.5-35.1562C62.5-21.3867 55.7129-7.86133 48.8281-7.86133C41.9434-7.86133 35.1562-21.2891 35.1562-35.1562C35.1562-49.0234 41.9434-62.5488 48.8281-62.5488ZM45.3613-68.7012L45.3613-1.9043L52.2949-1.9043L52.2949-68.7012ZM48.8281-26.5625C35.9863-26.5625 24.4141-23.5352 19.5312-18.7988L24.7559-14.4043C29.1504-17.5781 38.7207-19.6289 48.8281-19.6289C58.9355-19.6289 68.5059-17.5781 72.9004-14.4043L78.125-18.7988C73.2422-23.5352 61.6699-26.5625 48.8281-26.5625ZM82.666-38.7207L14.9902-38.7207L14.9902-31.7871L82.666-31.7871ZM48.8281-43.75C61.6699-43.75 73.2422-46.7773 78.125-51.5137L72.9004-55.9082C68.5059-52.7344 58.9355-50.6836 48.8281-50.6836C38.7695-50.6836 29.248-52.7344 24.7559-55.9082L19.5312-51.5137C24.4141-46.7773 35.9863-43.75 48.8281-43.75ZM48.8281 6.73828C72.0215 6.73828 90.8203-12.0605 90.8203-35.2539C90.8203-58.4473 72.0215-77.2461 48.8281-77.2461C25.6348-77.2461 6.83594-58.4473 6.83594-35.2539C6.83594-12.0605 25.6348 6.73828 48.8281 6.73828ZM48.8281-4.00391C31.5918-4.00391 17.5781-18.0176 17.5781-35.2539C17.5781-52.4902 31.5918-66.5039 48.8281-66.5039C66.0645-66.5039 80.0781-52.4902 80.0781-35.2539C80.0781-18.0176 66.0645-4.00391 48.8281-4.00391Z"/>
   <path class="monochrome-1 multicolor-1:tintColor hierarchical-1:primary SFSymbolsPreviewWireframe" d="M87.8939 20.249C102.835 20.249 115.189 7.84668 115.189-7.0947C115.189-22.0361 102.835-34.3408 87.8939-34.3408C72.9525-34.3408 60.599-22.0361 60.599-7.0947C60.599 7.84668 72.9525 20.249 87.8939 20.249Z"/>
   <path class="monochrome-2 multicolor-2:tintColor hierarchical-2:primary SFSymbolsPreviewWireframe" d="M87.8939 13.9014C99.3685 13.9014 108.841 4.33105 108.841-7.0947C108.841-18.5205 99.3685-27.9932 87.8939-27.9932C76.4193-27.9932 66.9466-18.5205 66.9466-7.0947C66.9466 4.33105 76.4193 13.9014 87.8939 13.9014Z"/>
   <path class="monochrome-3 multicolor-3:white hierarchical-3:primary SFSymbolsPreviewWireframe" d="M87.8939 6.08886C86.722 6.08886 85.6478 5.69824 84.5736 4.62402L75.4427-4.16504C74.6615-4.8975 74.222-5.874 74.222-6.9482C74.222-9.2432 76.0775-11.1475 78.4212-11.1475C79.5443-11.1475 80.7162-10.708 81.3021-9.8779L83.4505-6.9482L83.4994-6.8994L83.3529-9.5361L83.3529-15.7861C83.3529-18.4229 85.1595-20.1807 87.8939-20.1807C90.6283-20.1807 92.4349-18.4229 92.4349-15.7861L92.4349-9.5361L92.2884-6.8994L92.3373-6.9482L94.4857-9.8779C95.0716-10.708 96.2435-11.1475 97.3666-11.1475C99.7103-11.1475 101.566-9.2432 101.566-6.9482C101.566-5.874 101.126-4.8975 100.345-4.16504L91.2142 4.62402C90.14 5.69824 89.0658 6.08886 87.8939 6.08886Z"/>
  </g>
  <g id="Regular-S" transform="matrix(1 0 0 1 1403.58 696)">
   <path class="monochrome-0 multicolor-0:tintColor hierarchical-0:secondary SFSymbolsPreviewWireframe" d="M46.2402 1.66016C57.1777 1.66016 65.8203-14.4043 65.8203-35.1562C65.8203-56.0547 57.2266-72.168 46.2402-72.168C35.2539-72.168 26.709-56.0547 26.709-35.1562C26.709-14.4043 35.3027 1.66016 46.2402 1.66016ZM46.2402-66.8457C53.5156-66.8457 60.0586-52.002 60.0586-35.1562C60.0586-18.5059 53.5156-3.66211 46.2402-3.66211C39.0137-3.66211 32.4707-18.5059 32.4707-35.1562C32.4707-52.002 39.0137-66.8457 46.2402-66.8457ZM43.4082-71.6309L43.4082 0.927734L49.0723 0.927734L49.0723-71.6309ZM46.2402-21.4355C34.375-21.4355 23.7305-18.2617 18.4082-13.1348L22.7539-9.57031C27.7344-13.5742 35.9375-15.7715 46.2402-15.7715C56.5918-15.7715 64.7461-13.5742 69.7754-9.57031L74.1211-13.1348C68.75-18.2617 58.1543-21.4355 46.2402-21.4355ZM81.3965-38.0859L11.084-38.0859L11.084-32.4219L81.3965-32.4219ZM46.2402-48.877C58.1543-48.877 68.75-52.0508 74.1211-57.1777L69.7754-60.7422C64.7461-56.7383 56.5918-54.541 46.2402-54.541C35.9375-54.541 27.7344-56.7383 22.7539-60.7422L18.4082-57.1777C23.7305-52.0508 34.375-48.877 46.2402-48.877ZM46.2402 4.15039C68.0176 4.15039 85.6934-13.4766 85.6934-35.2539C85.6934-57.0312 68.0176-74.6582 46.2402-74.6582C24.5117-74.6582 6.83594-57.0312 6.83594-35.2539C6.83594-13.4766 24.5117 4.15039 46.2402 4.15039ZM46.2402-1.70898C27.7344-1.70898 12.7441-16.748 12.7441-35.2539C12.7441-53.7598 27.7344-68.7988 46.2402-68.7988C64.7461-68.7988 79.7852-53.7598 79.7852-35.2539C79.7852-16.748 64.7461-1.70898 46.2402-1.70898Z"/>
   <path class="monochrome-1 multicolor-1:tintColor hierarchical-1:primary SFSymbolsPreviewWireframe" d="M83.2771 18.3448C97.1443 18.3448 108.667 6.82131 108.667-7.04585C108.667-20.9618 97.2419-32.4365 83.2771-32.4365C69.3611-32.4365 57.8865-20.9618 57.8865-7.04585C57.8865 6.91896 69.3122 18.3448 83.2771 18.3448Z"/>
   <path class="monochrome-2 multicolor-2:tintColor hierarchical-2:primary SFSymbolsPreviewWireframe" d="M83.2771 12.6319C93.9216 12.6319 103.004 3.69631 103.004-7.04585C103.004-17.8368 94.0681-26.7236 83.2771-26.7236C72.4861-26.7236 63.5993-17.8368 63.5993-7.04585C63.5993 3.79396 72.4861 12.6319 83.2771 12.6319Z"/>
   <path class="monochrome-3 multicolor-3:white hierarchical-3:primary SFSymbolsPreviewWireframe" d="M83.3259 5.25881C82.6423 5.25881 82.0564 4.96584 81.324 4.28225L71.4118-4.84865C70.8259-5.33685 70.5818-5.97165 70.5329-6.70405C70.4353-8.16895 71.6072-9.19435 73.072-9.19435C73.7556-9.24315 74.488-8.85255 74.9763-8.36425L78.9802-4.31151L80.7868-2.45604L80.5427-7.14355L80.5427-16.665C80.5427-18.1298 81.8122-19.3505 83.3259-19.3505C84.8396-19.3505 86.1579-18.1298 86.1579-16.665L86.1579-7.14355L85.9138-2.45604L87.6716-4.31151L91.6755-8.36425C92.2126-8.85255 92.8962-9.14545 93.5798-9.19435C94.9958-9.29195 96.1189-8.16895 96.1189-6.70405C96.1189-5.97165 95.8747-5.33685 95.2888-4.84865L85.3279 4.28225C84.5954 4.91701 84.0583 5.25881 83.3259 5.25881Z"/>
  </g>
  <g id="Ultralight-S" transform="matrix(1 0 0 1 515.649 696)">
   <path class="monochrome-0 multicolor-0:tintColor hierarchical-0:secondary SFSymbolsPreviewWireframe" d="M44.0606 1.56934C53.3633 1.56934 62.2783-12.6333 62.2783-35.1562C62.2783-57.6894 53.3667-71.8955 44.0606-71.8955C34.7544-71.8955 25.8462-57.6894 25.8462-35.1562C25.8462-12.6333 34.7578 1.56934 44.0606 1.56934ZM44.0606-70.1606C52.6074-70.1606 60.0586-54.8174 60.0586-35.1562C60.0586-16.417 52.6074-0.165555 44.0606-0.165555C35.5171-0.165555 28.066-16.417 28.066-35.1562C28.066-54.8174 35.5171-70.1606 44.0606-70.1606ZM42.9995-71.313L42.9995 0.791505L45.1216 0.791505L45.1216-71.313ZM44.0606-18.3477C32.7402-18.3477 23.1401-15.5825 17.7271-11.4546L19.3028-10.1152C24.7373-13.9375 33.1675-16.1802 44.0606-16.1802C54.957-16.1802 63.3838-13.9375 68.8218-10.1152L70.3975-11.4546C64.981-15.5825 55.3843-18.3477 44.0606-18.3477ZM80.0342-36.315L8.08694-36.315L8.08694-34.1929L80.0342-34.1929ZM44.0606-51.9648C55.3843-51.9648 64.981-54.73 70.3975-58.8579L68.8218-60.1973C63.3838-56.375 54.957-54.1323 44.0606-54.1323C33.1675-54.1323 24.7373-56.375 19.3028-60.1973L17.7271-58.8579C23.1401-54.73 32.7402-51.9648 44.0606-51.9648ZM44.0606 1.97072C64.6118 1.97072 81.2886-14.7026 81.2886-35.2539C81.2886-55.8052 64.6118-72.4785 44.0606-72.4785C23.5127-72.4785 6.83594-55.8052 6.83594-35.2539C6.83594-14.7026 23.5127 1.97072 44.0606 1.97072ZM44.0606-0.165051C24.6919-0.165051 8.97513-15.8853 8.97513-35.2539C8.97513-54.6226 24.6919-70.3428 44.0606-70.3428C63.4292-70.3428 79.1494-54.6226 79.1494-35.2539C79.1494-15.8853 63.4292-0.165051 44.0606-0.165051Z"/>
   <path class="monochrome-1 multicolor-1:tintColor hierarchical-1:primary SFSymbolsPreviewWireframe" d="M79.3117 14.3033C90.9992 14.3033 100.661 4.68705 100.661-7.04587C100.661-18.7822 91.0513-28.3951 79.3117-28.3951C67.6207-28.3951 57.9625-18.7368 57.9625-7.04587C57.9625 4.69389 67.6173 14.3033 79.3117 14.3033Z"/>
   <path class="monochrome-2 multicolor-2:tintColor hierarchical-2:primary SFSymbolsPreviewWireframe" d="M79.3117 11.2242C89.3203 11.2242 97.6305 3.01517 97.6305-7.04587C97.6305-17.1104 89.376-25.3159 79.3117-25.3159C69.338-25.3159 61.0416-17.065 61.0416-7.04587C61.0416 3.02201 69.338 11.2242 79.3117 11.2242Z"/>
   <path class="monochrome-3 multicolor-3:white hierarchical-3:primary SFSymbolsPreviewWireframe" d="M79.3605 5.07717C79.0402 5.07717 78.7267 4.96584 78.3575 4.60012L68.6271-4.98487C68.0865-5.51857 67.8424-5.83547 67.8389-6.38617C67.8321-7.16987 68.4591-7.74117 69.2428-7.74117C69.6539-7.74457 70.0231-7.53567 70.2843-7.27437L72.2448-5.21967L78.0929 0.631837L77.985-5.05467L77.985-18.209C77.985-18.9019 78.6188-19.5322 79.3605-19.5322C80.1476-19.5322 80.7394-18.9019 80.7394-18.209L80.7394-5.05467L80.6769 0.631837L86.4761-5.21967L88.482-7.27437C88.6559-7.53567 89.067-7.73777 89.4782-7.74117C90.3038-7.74807 90.8819-7.16987 90.8819-6.38617C90.8819-5.88087 90.6378-5.51857 90.0973-4.98487L80.3633 4.60012C80.0851 4.87161 79.775 5.07717 79.3605 5.07717Z"/>
  </g>
 </g>
</svg>
