<?xml version="1.0" encoding="UTF-8"?>
<!--Generator: Apple Native CoreSVG 326-->
<!DOCTYPE svg
PUBLIC "-//W3C//DTD SVG 1.1//EN"
       "http://www.w3.org/Graphics/SVG/1.1/DTD/svg11.dtd">
<svg version="1.1" xmlns="http://www.w3.org/2000/svg" xmlns:xlink="http://www.w3.org/1999/xlink" viewBox="0 0 3300 2200">
 <!--glyph: "", point size: 100.0, font version: "20.0d10e1", template writer version: "138.0.0"-->
 <style>.monochrome-0 {-sfsymbols-motion-group:0;-sfsymbols-layer-tags:-2faa8936fb10057}

.multicolor-0:tintColor {-sfsymbols-motion-group:0;-sfsymbols-layer-tags:-2faa8936fb10057}

.hierarchical-0:primary {-sfsymbols-motion-group:0;-sfsymbols-layer-tags:-2faa8936fb10057}

.SFSymbolsPreviewWireframe {fill:none;opacity:1.0;stroke:black;stroke-width:0.5}
</style>
 <g id="Notes">
  <rect height="2200" id="artboard" style="fill:white;opacity:1" width="3300" x="0" y="0"/>
  <line style="fill:none;stroke:black;opacity:1;stroke-width:0.5;" x1="263" x2="3036" y1="292" y2="292"/>
  <text style="stroke:none;fill:black;font-family:sans-serif;font-size:13;font-weight:bold;" transform="matrix(1 0 0 1 263 322)">Weight/Scale Variations</text>
  <text style="stroke:none;fill:black;font-family:sans-serif;font-size:13;text-anchor:middle;" transform="matrix(1 0 0 1 559.711 322)">Ultralight</text>
  <text style="stroke:none;fill:black;font-family:sans-serif;font-size:13;text-anchor:middle;" transform="matrix(1 0 0 1 856.422 322)">Thin</text>
  <text style="stroke:none;fill:black;font-family:sans-serif;font-size:13;text-anchor:middle;" transform="matrix(1 0 0 1 1153.13 322)">Light</text>
  <text style="stroke:none;fill:black;font-family:sans-serif;font-size:13;text-anchor:middle;" transform="matrix(1 0 0 1 1449.84 322)">Regular</text>
  <text style="stroke:none;fill:black;font-family:sans-serif;font-size:13;text-anchor:middle;" transform="matrix(1 0 0 1 1746.56 322)">Medium</text>
  <text style="stroke:none;fill:black;font-family:sans-serif;font-size:13;text-anchor:middle;" transform="matrix(1 0 0 1 2043.27 322)">Semibold</text>
  <text style="stroke:none;fill:black;font-family:sans-serif;font-size:13;text-anchor:middle;" transform="matrix(1 0 0 1 2339.98 322)">Bold</text>
  <text style="stroke:none;fill:black;font-family:sans-serif;font-size:13;text-anchor:middle;" transform="matrix(1 0 0 1 2636.69 322)">Heavy</text>
  <text style="stroke:none;fill:black;font-family:sans-serif;font-size:13;text-anchor:middle;" transform="matrix(1 0 0 1 2933.4 322)">Black</text>
  <line style="fill:none;stroke:black;opacity:1;stroke-width:0.5;" x1="263" x2="3036" y1="1903" y2="1903"/>
  <g transform="matrix(0.2 0 0 0.2 263 1933)">
   <path d="m46.2402 4.15039c21.7773 0 39.4531-17.627 39.4531-39.4043s-17.6758-39.4043-39.4531-39.4043c-21.7285 0-39.4043 17.627-39.4043 39.4043s17.6758 39.4043 39.4043 39.4043Zm0-7.42188c-17.6758 0-31.9336-14.3066-31.9336-31.9824s14.2578-31.9824 31.9336-31.9824 31.9824 14.3066 31.9824 31.9824-14.3066 31.9824-31.9824 31.9824Zm-17.9688-31.9824c0 2.14844 1.51367 3.61328 3.75977 3.61328h10.498v10.5957c0 2.19727 1.46484 3.71094 3.61328 3.71094 2.24609 0 3.71094-1.51367 3.71094-3.71094v-10.5957h10.5957c2.19727 0 3.71094-1.46484 3.71094-3.61328 0-2.19727-1.51367-3.71094-3.71094-3.71094h-10.5957v-10.5469c0-2.24609-1.46484-3.75977-3.71094-3.75977-2.14844 0-3.61328 1.51367-3.61328 3.75977v10.5469h-10.498c-2.24609 0-3.75977 1.51367-3.75977 3.71094Z"/>
  </g>
  <g transform="matrix(0.2 0 0 0.2 281.506 1933)">
   <path d="m58.5449 14.5508c27.4902 0 49.8047-22.3145 49.8047-49.8047s-22.3145-49.8047-49.8047-49.8047-49.8047 22.3145-49.8047 49.8047 22.3145 49.8047 49.8047 49.8047Zm0-8.30078c-22.9492 0-41.5039-18.5547-41.5039-41.5039s18.5547-41.5039 41.5039-41.5039 41.5039 18.5547 41.5039 41.5039-18.5547 41.5039-41.5039 41.5039Zm-22.6562-41.5039c0 2.39258 1.66016 4.00391 4.15039 4.00391h14.3555v14.4043c0 2.44141 1.66016 4.15039 4.05273 4.15039 2.44141 0 4.15039-1.66016 4.15039-4.15039v-14.4043h14.4043c2.44141 0 4.15039-1.61133 4.15039-4.00391 0-2.44141-1.70898-4.15039-4.15039-4.15039h-14.4043v-14.3555c0-2.49023-1.70898-4.19922-4.15039-4.19922-2.39258 0-4.05273 1.70898-4.05273 4.19922v14.3555h-14.3555c-2.49023 0-4.15039 1.70898-4.15039 4.15039Z"/>
  </g>
  <g transform="matrix(0.2 0 0 0.2 304.924 1933)">
   <path d="m74.8535 28.3203c35.1074 0 63.623-28.4668 63.623-63.5742s-28.5156-63.623-63.623-63.623-63.5742 28.5156-63.5742 63.623 28.4668 63.5742 63.5742 63.5742Zm0-9.08203c-30.127 0-54.4922-24.3652-54.4922-54.4922s24.3652-54.4922 54.4922-54.4922 54.4922 24.3652 54.4922 54.4922-24.3652 54.4922-54.4922 54.4922Zm-28.8574-54.4922c0 2.58789 1.85547 4.39453 4.58984 4.39453h19.7266v19.7754c0 2.68555 1.85547 4.58984 4.44336 4.58984 2.68555 0 4.54102-1.85547 4.54102-4.58984v-19.7754h19.7754c2.68555 0 4.58984-1.80664 4.58984-4.39453 0-2.73438-1.85547-4.58984-4.58984-4.58984h-19.7754v-19.7266c0-2.73438-1.85547-4.63867-4.54102-4.63867-2.58789 0-4.44336 1.9043-4.44336 4.63867v19.7266h-19.7266c-2.73438 0-4.58984 1.85547-4.58984 4.58984Z"/>
  </g>
  <text style="stroke:none;fill:black;font-family:sans-serif;font-size:13;font-weight:bold;" transform="matrix(1 0 0 1 263 1953)">Design Variations</text>
  <text style="stroke:none;fill:black;font-family:sans-serif;font-size:13;" transform="matrix(1 0 0 1 263 1971)">Symbols are supported in up to nine weights and three scales.</text>
  <text style="stroke:none;fill:black;font-family:sans-serif;font-size:13;" transform="matrix(1 0 0 1 263 1989)">For optimal layout with text and other symbols, vertically align</text>
  <text style="stroke:none;fill:black;font-family:sans-serif;font-size:13;" transform="matrix(1 0 0 1 263 2007)">symbols with the adjacent text.</text>
  <line style="fill:none;stroke:#00AEEF;stroke-width:0.5;opacity:1.0;" x1="776" x2="776" y1="1919" y2="1933"/>
  <g transform="matrix(0.2 0 0 0.2 776 1933)">
   <path d="m16.5527 0.78125c2.58789 0 3.85742-0.976562 4.78516-3.71094l6.29883-17.2363h28.8086l6.29883 17.2363c0.927734 2.73438 2.19727 3.71094 4.73633 3.71094 2.58789 0 4.24805-1.5625 4.24805-4.00391 0-0.830078-0.146484-1.61133-0.537109-2.63672l-22.9004-60.9863c-1.12305-2.97852-3.125-4.49219-6.25-4.49219-3.02734 0-5.07812 1.46484-6.15234 4.44336l-22.9004 61.084c-0.390625 1.02539-0.537109 1.80664-0.537109 2.63672 0 2.44141 1.5625 3.95508 4.10156 3.95508Zm13.4766-28.3691 11.8652-32.8613h0.244141l11.8652 32.8613Z"/>
  </g>
  <line style="fill:none;stroke:#00AEEF;stroke-width:0.5;opacity:1.0;" x1="792.836" x2="792.836" y1="1919" y2="1933"/>
  <text style="stroke:none;fill:black;font-family:sans-serif;font-size:13;font-weight:bold;" transform="matrix(1 0 0 1 776 1953)">Margins</text>
  <text style="stroke:none;fill:black;font-family:sans-serif;font-size:13;" transform="matrix(1 0 0 1 776 1971)">Leading and trailing margins on the left and right side of each symbol</text>
  <text style="stroke:none;fill:black;font-family:sans-serif;font-size:13;" transform="matrix(1 0 0 1 776 1989)">can be adjusted by modifying the x-location of the margin guidelines.</text>
  <text style="stroke:none;fill:black;font-family:sans-serif;font-size:13;" transform="matrix(1 0 0 1 776 2007)">Modifications are automatically applied proportionally to all</text>
  <text style="stroke:none;fill:black;font-family:sans-serif;font-size:13;" transform="matrix(1 0 0 1 776 2025)">scales and weights.</text>
  <g transform="matrix(0.2 0 0 0.2 1289 1933)">
   <path d="m14.209 9.32617 8.49609 8.54492c4.29688 4.3457 9.22852 4.05273 13.8672-1.07422l53.4668-58.9355-4.83398-4.88281-53.0762 58.3984c-1.75781 2.00195-3.41797 2.49023-5.76172 0.146484l-5.85938-5.81055c-2.34375-2.29492-1.80664-4.00391 0.195312-5.81055l57.373-54.0039-4.88281-4.83398-57.959 54.4434c-4.93164 4.58984-5.32227 9.47266-1.02539 13.8184Zm32.0801-90.9668c-2.09961 2.05078-2.24609 4.93164-1.07422 6.88477 1.17188 1.80664 3.4668 2.97852 6.68945 2.14844 7.32422-1.70898 14.9414-2.00195 22.0703 2.68555l-2.92969 7.27539c-1.70898 4.15039-0.830078 7.08008 1.85547 9.81445l11.4746 11.5723c2.44141 2.44141 4.49219 2.53906 7.32422 2.05078l5.32227-0.976562 3.32031 3.36914-0.195312 2.7832c-0.195312 2.49023 0.439453 4.39453 2.88086 6.78711l3.80859 3.71094c2.39258 2.39258 5.46875 2.53906 7.8125 0.195312l14.5508-14.5996c2.34375-2.34375 2.24609-5.32227-0.146484-7.71484l-3.85742-3.80859c-2.39258-2.39258-4.24805-3.17383-6.64062-2.97852l-2.88086 0.244141-3.22266-3.17383 1.2207-5.61523c0.634766-2.83203-0.146484-5.0293-3.07617-7.95898l-10.9863-10.9375c-16.6992-16.6016-38.8672-16.2109-53.3203-1.75781Zm7.4707 1.85547c12.1582-8.88672 28.6133-7.37305 39.7461 3.75977l12.1582 12.0605c1.17188 1.17188 1.36719 2.09961 1.02539 3.80859l-1.61133 7.42188 7.51953 7.42188 4.93164-0.292969c1.26953-0.0488281 1.66016 0.0488281 2.63672 1.02539l2.88086 2.88086-12.207 12.207-2.88086-2.88086c-0.976562-0.976562-1.12305-1.36719-1.07422-2.68555l0.341797-4.88281-7.4707-7.42188-7.61719 1.26953c-1.61133 0.341797-2.34375 0.195312-3.56445-0.976562l-10.0098-10.0098c-1.26953-1.17188-1.41602-2.00195-0.634766-3.85742l4.39453-10.4492c-7.8125-7.27539-17.9688-10.4004-28.125-7.42188-0.78125 0.195312-1.07422-0.439453-0.439453-0.976562Z"/>
  </g>
  <text style="stroke:none;fill:black;font-family:sans-serif;font-size:13;font-weight:bold;" transform="matrix(1 0 0 1 1289 1953)">Exporting</text>
  <text style="stroke:none;fill:black;font-family:sans-serif;font-size:13;" transform="matrix(1 0 0 1 1289 1971)">Symbols should be outlined when exporting to ensure the</text>
  <text style="stroke:none;fill:black;font-family:sans-serif;font-size:13;" transform="matrix(1 0 0 1 1289 1989)">design is preserved when submitting to Xcode.</text>
  <text id="template-version" style="stroke:none;fill:black;font-family:sans-serif;font-size:13;text-anchor:end;" transform="matrix(1 0 0 1 3036 1933)">Template v.5.0</text>
  <text style="stroke:none;fill:black;font-family:sans-serif;font-size:13;text-anchor:end;" transform="matrix(1 0 0 1 3036 1951)">Requires Xcode 15 or greater</text>
  <text id="descriptive-name" style="stroke:none;fill:black;font-family:sans-serif;font-size:13;text-anchor:end;" transform="matrix(1 0 0 1 3036 1969)">Generated from bandeja</text>
  <text style="stroke:none;fill:black;font-family:sans-serif;font-size:13;text-anchor:end;" transform="matrix(1 0 0 1 3036 1987)">Typeset at 100.0 points</text>
  <text style="stroke:none;fill:black;font-family:sans-serif;font-size:13;" transform="matrix(1 0 0 1 263 726)">Small</text>
  <text style="stroke:none;fill:black;font-family:sans-serif;font-size:13;" transform="matrix(1 0 0 1 263 1156)">Medium</text>
  <text style="stroke:none;fill:black;font-family:sans-serif;font-size:13;" transform="matrix(1 0 0 1 263 1586)">Large</text>
 </g>
 <g id="Guides">
  <g id="H-reference" style="fill:#27AAE1;stroke:none;" transform="matrix(1 0 0 1 339 696)">
   <path d="M0.993654 0L3.63775 0L29.3281-67.1323L30.0303-67.1323L30.0303-70.459L28.1226-70.459ZM11.6885-24.4799L46.9815-24.4799L46.2315-26.7285L12.4385-26.7285ZM55.1196 0L57.7637 0L30.6382-70.459L29.4326-70.459L29.4326-67.1323Z"/>
  </g>
  <line id="Baseline-S" style="fill:none;stroke:#27AAE1;opacity:1;stroke-width:0.5;" x1="263" x2="3036" y1="696" y2="696"/>
  <line id="Capline-S" style="fill:none;stroke:#27AAE1;opacity:1;stroke-width:0.5;" x1="263" x2="3036" y1="625.541" y2="625.541"/>
  <g id="H-reference" style="fill:#27AAE1;stroke:none;" transform="matrix(1 0 0 1 339 1126)">
   <path d="M0.993654 0L3.63775 0L29.3281-67.1323L30.0303-67.1323L30.0303-70.459L28.1226-70.459ZM11.6885-24.4799L46.9815-24.4799L46.2315-26.7285L12.4385-26.7285ZM55.1196 0L57.7637 0L30.6382-70.459L29.4326-70.459L29.4326-67.1323Z"/>
  </g>
  <line id="Baseline-M" style="fill:none;stroke:#27AAE1;opacity:1;stroke-width:0.5;" x1="263" x2="3036" y1="1126" y2="1126"/>
  <line id="Capline-M" style="fill:none;stroke:#27AAE1;opacity:1;stroke-width:0.5;" x1="263" x2="3036" y1="1055.54" y2="1055.54"/>
  <g id="H-reference" style="fill:#27AAE1;stroke:none;" transform="matrix(1 0 0 1 339 1556)">
   <path d="M0.993654 0L3.63775 0L29.3281-67.1323L30.0303-67.1323L30.0303-70.459L28.1226-70.459ZM11.6885-24.4799L46.9815-24.4799L46.2315-26.7285L12.4385-26.7285ZM55.1196 0L57.7637 0L30.6382-70.459L29.4326-70.459L29.4326-67.1323Z"/>
  </g>
  <line id="Baseline-L" style="fill:none;stroke:#27AAE1;opacity:1;stroke-width:0.5;" x1="263" x2="3036" y1="1556" y2="1556"/>
  <line id="Capline-L" style="fill:none;stroke:#27AAE1;opacity:1;stroke-width:0.5;" x1="263" x2="3036" y1="1485.54" y2="1485.54"/>
  <line id="right-margin-Black-S" style="fill:none;stroke:#00AEEF;stroke-width:0.5;opacity:1.0;" x1="2990.43" x2="2990.43" y1="600.785" y2="720.121"/>
  <line id="left-margin-Black-S" style="fill:none;stroke:#00AEEF;stroke-width:0.5;opacity:1.0;" x1="2876.37" x2="2876.37" y1="600.785" y2="720.121"/>
  <line id="right-margin-Regular-S" style="fill:none;stroke:#00AEEF;stroke-width:0.5;opacity:1.0;" x1="1504.9" x2="1504.9" y1="600.785" y2="720.121"/>
  <line id="left-margin-Regular-S" style="fill:none;stroke:#00AEEF;stroke-width:0.5;opacity:1.0;" x1="1394.79" x2="1394.79" y1="600.785" y2="720.121"/>
  <line id="right-margin-Ultralight-S" style="fill:none;stroke:#00AEEF;stroke-width:0.5;opacity:1.0;" x1="613.72" x2="613.72" y1="600.785" y2="720.121"/>
  <line id="left-margin-Ultralight-S" style="fill:none;stroke:#00AEEF;stroke-width:0.5;opacity:1.0;" x1="505.702" x2="505.702" y1="600.785" y2="720.121"/>
 </g>
 <g id="Symbols">
  <g id="Black-S" transform="matrix(1 0 0 1 2876.37 696)">
   <path class="monochrome-0 multicolor-0:tintColor hierarchical-0:primary SFSymbolsPreviewWireframe" d="M14.88-36.5L14.88-15.5L14.38-15.5L14.38-36.5L14.88-36.5ZM103.38-36.5L103.38-15.5L102.88-15.5L102.88-36.5L103.38-36.5ZM101.83-40.154L101.43-39.846L82.93-63.346L83.33-63.654L101.83-40.154ZM33.83-62.847L16.33-40.347L15.93-40.653L33.43-63.153L33.83-62.847ZM77.13-65.75L38.13-65.25L38.13-65.75L77.13-66.25L77.13-65.75ZM16.31-40.323C15.6-39.62 15.24-38.672 15.06-37.881C14.97-37.488 14.93-37.141 14.9-36.892C14.89-36.767 14.89-36.667 14.88-36.6C14.88-36.566 14.88-36.54 14.88-36.523L14.88-36.5L14.38-36.5L14.38-36.533C14.38-36.554 14.38-36.584 14.38-36.621C14.39-36.696 14.39-36.803 14.4-36.937C14.43-37.203 14.48-37.575 14.57-37.994C14.77-38.828 15.16-39.88 15.95-40.677L16.31-40.323ZM94.13-5.75L94.13-5.25L23.63-5.25L23.63-5.75L94.13-5.75ZM101.83-40.151C102.31-39.518 102.66-38.997 102.9-38.438C103.15-37.878 103.29-37.291 103.38-36.529L102.88-36.471C102.79-37.2 102.66-37.736 102.44-38.238C102.22-38.743 101.9-39.227 101.43-39.849L101.83-40.151ZM38.16-65.748L38.1-65.252C37.9-65.276 37.58-65.228 37.17-65.101C36.76-64.976 36.31-64.783 35.86-64.548C35.41-64.312 34.98-64.036 34.62-63.745C34.26-63.452 33.99-63.156 33.85-62.886L33.41-63.114C33.59-63.473 33.92-63.82 34.31-64.133C34.69-64.448 35.16-64.743 35.63-64.99C36.1-65.238 36.58-65.443 37.02-65.578C37.44-65.711 37.85-65.786 38.16-65.748ZM77.15-66.249C78.58-66.139 79.64-65.938 80.59-65.538C81.53-65.138 82.35-64.546 83.3-63.685L82.96-63.315C82.03-64.158 81.27-64.708 80.39-65.077C79.52-65.447 78.51-65.643 77.11-65.751L77.15-66.249ZM14.88-15.521C15.18-12.002 15.74-9.675 17.01-8.171C18.27-6.68 20.28-5.948 23.64-5.75L23.62-5.25C20.21-5.451 18.02-6.199 16.63-7.849C15.24-9.485 14.68-11.958 14.38-15.479L14.88-15.521ZM103.38-15.485C103.17-11.948 102.54-9.604 101.08-8.035C99.63-6.466 97.41-5.719 94.17-5.253L94.09-5.747C97.32-6.211 99.39-6.939 100.72-8.374C102.04-9.809 102.68-12.002 102.88-15.515L103.38-15.485ZM77.15-64.25L77.18-64.246C78.41-64.014 79.33-63.762 80.13-63.368C80.82-63.022 81.42-62.572 82.04-61.949L82.31-61.672L82.33-61.654L100.33-38.654L100.34-38.643L100.34-38.643C100.52-38.377 100.65-38.079 100.49-37.79C100.42-37.662 100.3-37.567 100.18-37.49C100.05-37.412 99.9-37.34 99.72-37.269L99.68-37.25L71.14-37.25L70.86-37.229C70.62-37.195 70.46-37.123 70.34-37.004C70.16-36.835 70.02-36.532 69.88-35.956C69.79-34.607 69.65-33.557 69.34-32.545C69.04-31.525 68.57-30.557 67.84-29.369L67.84-29.361C67.08-28.223 66.33-27.408 65.38-26.709C64.43-26.013 63.28-25.439 61.73-24.771L61.69-24.755L61.65-24.751C58.93-24.498 57.37-24.619 54.57-25.256L54.53-25.266L54.5-25.287C52.58-26.479 51.5-27.219 49.94-29.338L49.75-29.562C48.86-30.68 48.43-31.731 47.89-33.94L47.88-33.97L47.88-36.449C47.75-36.761 47.64-36.934 47.48-37.043C47.36-37.13 47.19-37.191 46.92-37.226L46.62-37.25L18.07-37.25L18.01-37.278C17.75-37.419 17.53-37.556 17.39-37.701C17.24-37.85 17.14-38.032 17.16-38.246C17.18-38.446 17.3-38.614 17.43-38.755C17.57-38.892 17.75-39.031 17.95-39.179L35.43-62.151L35.45-62.181L35.48-62.202C36.32-62.813 37-63.227 37.71-63.538C38.42-63.849 39.15-64.051 40.08-64.245L40.1-64.25L77.15-64.25ZM40.16-63.75C39.25-63.561 38.57-63.369 37.91-63.08C37.25-62.792 36.61-62.406 35.8-61.818L18.33-38.849L18.31-38.818L18.27-38.796C18.06-38.643 17.9-38.517 17.79-38.407C17.68-38.294 17.66-38.229 17.66-38.199C17.66-38.184 17.66-38.14 17.74-38.054C17.83-37.97 17.97-37.87 18.19-37.75L46.64-37.75C47.12-37.728 47.49-37.65 47.77-37.452C48.05-37.252 48.22-36.956 48.36-36.592L48.38-36.548L48.38-34.033C48.95-31.73 49.37-30.779 50.32-29.662L50.33-29.655L50.33-29.647C51.83-27.603 52.85-26.9 54.73-25.736C57.44-25.121 58.94-25.004 61.57-25.246C63.09-25.904 64.19-26.456 65.08-27.112C65.98-27.77 66.69-28.539 67.42-29.639C68.13-30.8 68.58-31.726 68.87-32.688C69.15-33.655 69.29-34.67 69.38-36.017L69.38-36.038L69.39-36.059C69.53-36.657 69.7-37.087 69.99-37.363C70.29-37.651 70.67-37.735 71.12-37.75L99.58-37.75C99.72-37.811 99.83-37.863 99.92-37.914C100.01-37.97 100.04-38.012 100.05-38.034C100.06-38.047 100.1-38.109 99.93-38.351L81.94-61.338C81.24-62.074 80.63-62.56 79.9-62.92C79.17-63.281 78.31-63.522 77.1-63.75L40.16-63.75Z"/>
  </g>
  <g id="Regular-S" transform="matrix(1 0 0 1 1394.79 696)">
   <path class="monochrome-0 multicolor-0:tintColor hierarchical-0:primary SFSymbolsPreviewWireframe" d="M10.46-35.5L10.46-14.5L9.96-14.5L9.96-35.5L10.46-35.5ZM98.96-35.5L98.96-14.5L98.46-14.5L98.46-35.5L98.96-35.5ZM97.41-39.154L97.01-38.846L78.51-62.346L78.91-62.654L97.41-39.154ZM29.41-61.847L11.91-39.347L11.51-39.653L29.01-62.153L29.41-61.847ZM72.71-64.75L33.71-64.25L33.71-64.75L72.71-65.25L72.71-64.75ZM11.89-39.323C11.18-38.62 10.82-37.672 10.64-36.881C10.55-36.488 10.51-36.141 10.48-35.892C10.47-35.767 10.47-35.667 10.46-35.6C10.46-35.566 10.46-35.54 10.46-35.523L10.46-35.5L9.96-35.5L9.96-35.533C9.96-35.554 9.96-35.584 9.96-35.621C9.97-35.696 9.97-35.803 9.98-35.937C10.01-36.203 10.06-36.575 10.15-36.994C10.35-37.828 10.74-38.88 11.53-39.677L11.89-39.323ZM89.71-4.75L89.71-4.25L19.21-4.25L19.21-4.75L89.71-4.75ZM97.41-39.151C97.89-38.518 98.24-37.997 98.48-37.438C98.73-36.878 98.87-36.291 98.96-35.529L98.46-35.471C98.37-36.2 98.24-36.736 98.02-37.238C97.8-37.743 97.48-38.227 97.01-38.849L97.41-39.151ZM33.74-64.748L33.68-64.252C33.48-64.276 33.16-64.228 32.75-64.101C32.34-63.976 31.89-63.783 31.44-63.548C30.99-63.312 30.56-63.036 30.2-62.745C29.84-62.452 29.57-62.156 29.43-61.886L28.99-62.114C29.17-62.473 29.5-62.82 29.89-63.133C30.27-63.448 30.74-63.743 31.21-63.99C31.68-64.238 32.16-64.443 32.6-64.578C33.02-64.711 33.43-64.786 33.74-64.748ZM72.73-65.249C74.16-65.139 75.22-64.938 76.17-64.538C77.11-64.138 77.93-63.546 78.88-62.685L78.54-62.315C77.61-63.158 76.85-63.708 75.97-64.077C75.1-64.447 74.09-64.643 72.69-64.751L72.73-65.249ZM10.46-14.521C10.76-11.002 11.32-8.675 12.59-7.171C13.85-5.68 15.86-4.948 19.22-4.75L19.2-4.25C15.79-4.451 13.6-5.199 12.21-6.849C10.82-8.485 10.26-10.958 9.96-14.479L10.46-14.521ZM98.96-14.485C98.75-10.948 98.12-8.604 96.66-7.035C95.21-5.466 92.99-4.719 89.75-4.253L89.67-4.747C92.9-5.211 94.97-5.939 96.3-7.374C97.62-8.809 98.26-11.002 98.46-14.515L98.96-14.485ZM72.73-63.25L72.76-63.246C73.99-63.014 74.91-62.762 75.71-62.368C76.4-62.022 77-61.572 77.62-60.949L77.89-60.672L77.91-60.654L95.91-37.654L95.92-37.643L95.92-37.643C96.1-37.377 96.23-37.079 96.07-36.79C96-36.662 95.88-36.567 95.76-36.49C95.63-36.412 95.48-36.34 95.3-36.269L95.26-36.25L66.72-36.25L66.44-36.229C66.2-36.195 66.04-36.123 65.92-36.004C65.74-35.835 65.6-35.532 65.46-34.956C65.37-33.607 65.23-32.557 64.92-31.545C64.62-30.525 64.15-29.557 63.42-28.369L63.42-28.361C62.66-27.223 61.91-26.408 60.96-25.709C60.01-25.013 58.86-24.439 57.31-23.771L57.27-23.755L57.23-23.751C54.51-23.498 52.95-23.619 50.15-24.256L50.11-24.266L50.08-24.287C48.16-25.479 47.08-26.219 45.52-28.338L45.33-28.562C44.44-29.68 44.01-30.731 43.47-32.94L43.46-32.97L43.46-35.449C43.33-35.761 43.22-35.934 43.06-36.043C42.94-36.13 42.77-36.191 42.5-36.226L42.2-36.25L13.65-36.25L13.59-36.278C13.33-36.419 13.11-36.556 12.97-36.701C12.82-36.85 12.72-37.032 12.74-37.246C12.76-37.446 12.88-37.614 13.01-37.755C13.15-37.892 13.33-38.031 13.53-38.179L31.01-61.151L31.03-61.181L31.06-61.202C31.9-61.813 32.58-62.227 33.29-62.538C34-62.849 34.73-63.051 35.66-63.245L35.68-63.25L72.73-63.25ZM35.74-62.75C34.83-62.561 34.15-62.369 33.49-62.08C32.83-61.792 32.19-61.406 31.38-60.818L13.91-37.849L13.89-37.818L13.85-37.796C13.64-37.643 13.48-37.517 13.37-37.407C13.26-37.294 13.24-37.229 13.24-37.199C13.24-37.184 13.24-37.14 13.32-37.054C13.41-36.97 13.55-36.87 13.77-36.75L42.22-36.75C42.7-36.728 43.07-36.65 43.35-36.452C43.63-36.252 43.8-35.956 43.94-35.592L43.96-35.548L43.96-33.033C44.53-30.73 44.95-29.779 45.9-28.662L45.91-28.655L45.91-28.647C47.41-26.603 48.43-25.9 50.31-24.736C53.02-24.121 54.52-24.004 57.15-24.246C58.67-24.904 59.77-25.456 60.66-26.112C61.56-26.77 62.27-27.539 63-28.639C63.71-29.8 64.16-30.726 64.45-31.688C64.73-32.655 64.87-33.67 64.96-35.017L64.96-35.038L64.97-35.059C65.11-35.657 65.28-36.087 65.57-36.363C65.87-36.651 66.25-36.735 66.7-36.75L95.16-36.75C95.3-36.811 95.41-36.863 95.5-36.914C95.59-36.97 95.62-37.012 95.63-37.034C95.64-37.047 95.68-37.109 95.51-37.351L77.52-60.338C76.82-61.074 76.21-61.56 75.48-61.92C74.75-62.281 73.89-62.522 72.68-62.75L35.74-62.75Z"/>
  </g>
  <g id="Ultralight-S" transform="matrix(1 0 0 1 505.702 696)">
   <path class="monochrome-0 multicolor-0:tintColor hierarchical-0:primary SFSymbolsPreviewWireframe" d="M10.048-36L10.048-15L9.548-15L9.548-36L10.048-36ZM98.548-36L98.548-15L98.048-15L98.048-36L98.548-36ZM96.994-39.654L96.602-39.346L78.102-62.846L78.494-63.154L96.994-39.654ZM28.995-62.347L11.495-39.847L11.101-40.153L28.601-62.653L28.995-62.347ZM72.301-65.25L33.301-64.75L33.295-65.25L72.295-65.75L72.301-65.25ZM11.475-39.823C10.772-39.12 10.411-38.172 10.229-37.381C10.138-36.988 10.093-36.641 10.07-36.392C10.059-36.267 10.054-36.167 10.051-36.1C10.05-36.066 10.048-36.04 10.048-36.023L10.048-36L9.548-36L9.548-36.033C9.548-36.054 9.549-36.084 9.551-36.121C9.554-36.196 9.56-36.303 9.572-36.437C9.597-36.703 9.646-37.075 9.742-37.494C9.935-38.328 10.324-39.38 11.121-40.177L11.475-39.823ZM89.298-5.25L89.298-4.75L18.798-4.75L18.798-5.25L89.298-5.25ZM96.997-39.651C97.479-39.018 97.823-38.497 98.069-37.938C98.315-37.378 98.455-36.791 98.546-36.029L98.05-35.971C97.963-36.7 97.831-37.236 97.61-37.738C97.389-38.243 97.072-38.727 96.599-39.349L96.997-39.651ZM33.328-65.248L33.268-64.752C33.07-64.776 32.745-64.728 32.334-64.601C31.932-64.476 31.476-64.283 31.028-64.048C30.581-63.812 30.147-63.536 29.789-63.245C29.428-62.952 29.159-62.656 29.021-62.386L28.575-62.614C28.759-62.973 29.089-63.32 29.474-63.633C29.862-63.948 30.325-64.243 30.795-64.49C31.266-64.738 31.75-64.943 32.186-65.078C32.612-65.211 33.021-65.286 33.328-65.248ZM72.318-65.749C73.747-65.639 74.808-65.438 75.754-65.038C76.702-64.638 77.517-64.046 78.466-63.185L78.13-62.815C77.202-63.658 76.435-64.208 75.56-64.577C74.684-64.947 73.682-65.143 72.278-65.251L72.318-65.749ZM10.047-15.021C10.349-11.502 10.905-9.175 12.177-7.671C13.438-6.18 15.449-5.448 18.813-5.25L18.783-4.75C15.377-4.951 13.19-5.699 11.795-7.349C10.411-8.985 9.851-11.458 9.549-14.979L10.047-15.021ZM98.548-14.985C98.342-11.448 97.704-9.104 96.251-7.535C94.798-5.966 92.574-5.219 89.333-4.753L89.263-5.247C92.484-5.711 94.555-6.439 95.884-7.874C97.213-9.309 97.843-11.502 98.048-15.015L98.548-14.985ZM72.321-63.75L72.344-63.746C73.581-63.514 74.5-63.262 75.294-62.868C75.992-62.522 76.584-62.072 77.209-61.449L77.48-61.172L77.495-61.154L95.495-38.154L95.504-38.143L95.503-38.143C95.688-37.877 95.82-37.579 95.658-37.29C95.587-37.162 95.471-37.067 95.348-36.99C95.223-36.912 95.068-36.84 94.893-36.769L94.847-36.75L66.306-36.75L66.03-36.729C65.785-36.695 65.626-36.623 65.503-36.504C65.328-36.335 65.184-36.032 65.044-35.456C64.955-34.107 64.815-33.057 64.512-32.045C64.206-31.025 63.74-30.057 63.011-28.869L63.006-28.861C62.245-27.723 61.499-26.908 60.544-26.209C59.594-25.513 58.446-24.939 56.897-24.271L56.86-24.255L56.821-24.251C54.099-23.998 52.54-24.119 49.742-24.756L49.701-24.766L49.666-24.787C47.743-25.979 46.664-26.719 45.108-28.838L44.922-29.062C44.026-30.18 43.601-31.231 43.055-33.44L43.048-33.47L43.048-35.949C42.921-36.261 42.806-36.434 42.651-36.543C42.527-36.63 42.356-36.691 42.089-36.726L41.786-36.75L13.236-36.75L13.183-36.778C12.914-36.919 12.7-37.056 12.556-37.201C12.408-37.35 12.309-37.532 12.329-37.746C12.348-37.946 12.466-38.114 12.603-38.255C12.735-38.392 12.913-38.531 13.119-38.679L30.599-61.651L30.621-61.681L30.651-61.702C31.488-62.313 32.167-62.727 32.876-63.038C33.585-63.349 34.314-63.551 35.247-63.745L35.273-63.75L72.321-63.75ZM35.327-63.25C34.422-63.061 33.735-62.869 33.076-62.58C32.42-62.292 31.78-61.906 30.973-61.318L13.497-38.349L13.474-38.318L13.443-38.296C13.227-38.143 13.068-38.017 12.962-37.907C12.853-37.794 12.829-37.729 12.826-37.699C12.825-37.684 12.824-37.64 12.91-37.554C12.994-37.47 13.137-37.37 13.361-37.25L41.81-37.25C42.29-37.228 42.655-37.15 42.938-36.952C43.223-36.752 43.387-36.456 43.53-36.092L43.548-36.048L43.548-33.533C44.119-31.23 44.539-30.279 45.488-29.162L45.494-29.155L45.499-29.147C46.999-27.103 48.018-26.4 49.894-25.236C52.606-24.621 54.108-24.504 56.736-24.746C58.259-25.404 59.353-25.956 60.249-26.612C61.148-27.27 61.855-28.039 62.59-29.139C63.302-30.3 63.745-31.226 64.033-32.188C64.323-33.155 64.461-34.17 64.549-35.517L64.55-35.538L64.555-35.559C64.699-36.157 64.87-36.587 65.156-36.863C65.454-37.151 65.835-37.235 66.29-37.25L94.745-37.25C94.891-37.311 95.003-37.363 95.084-37.414C95.175-37.47 95.209-37.512 95.222-37.534C95.229-37.547 95.263-37.609 95.097-37.851L77.107-60.838C76.408-61.574 75.798-62.06 75.071-62.42C74.343-62.781 73.483-63.022 72.273-63.25L35.327-63.25Z"/>
  </g>
 </g>
</svg>
