<?xml version="1.0" encoding="UTF-8"?>
<!--Generator: Apple Native CoreSVG 326-->
<!DOCTYPE svg
PUBLIC "-//W3C//DTD SVG 1.1//EN"
       "http://www.w3.org/Graphics/SVG/1.1/DTD/svg11.dtd">
<svg version="1.1" xmlns="http://www.w3.org/2000/svg" xmlns:xlink="http://www.w3.org/1999/xlink" viewBox="0 0 3300 2200">
 <!--glyph: "", point size: 100.0, font version: "20.0d10e1", template writer version: "138.0.0"-->
 <style>.monochrome-0 {-sfsymbols-motion-group:1;-sfsymbols-layer-tags:-48d5c2a41f2a0fe6 e8951cf714e502e folder}
.monochrome-1 {opacity:0.0;-sfsymbols-clear-behind:true;-sfsymbols-motion-group:0;-sfsymbols-layer-tags:-48d5c2a41f2a0fe6 _badge gearshape.fill}
.monochrome-2 {-sfsymbols-motion-group:0;-sfsymbols-always-pulses:true;-sfsymbols-layer-tags:-48d5c2a41f2a0fe6 _badge gearshape.fill}

.multicolor-0:tintColor {-sfsymbols-motion-group:1;-sfsymbols-layer-tags:-48d5c2a41f2a0fe6 e8951cf714e502e folder}
.multicolor-1:tintColor {opacity:0.0;-sfsymbols-clear-behind:true;-sfsymbols-motion-group:0;-sfsymbols-layer-tags:-48d5c2a41f2a0fe6 _badge gearshape.fill}
.multicolor-2:tintColor {-sfsymbols-motion-group:0;-sfsymbols-always-pulses:true;-sfsymbols-layer-tags:-48d5c2a41f2a0fe6 _badge gearshape.fill}

.hierarchical-0:secondary {-sfsymbols-motion-group:1;-sfsymbols-layer-tags:-48d5c2a41f2a0fe6 e8951cf714e502e folder}
.hierarchical-1:primary {opacity:0.0;-sfsymbols-clear-behind:true;-sfsymbols-motion-group:0;-sfsymbols-layer-tags:-48d5c2a41f2a0fe6 _badge gearshape.fill}
.hierarchical-2:primary {-sfsymbols-motion-group:0;-sfsymbols-layer-tags:-48d5c2a41f2a0fe6 _badge gearshape.fill}

.SFSymbolsPreviewWireframe {fill:none;opacity:1.0;stroke:black;stroke-width:0.5}
</style>
 <g id="Notes">
  <rect height="2200" id="artboard" style="fill:white;opacity:1" width="3300" x="0" y="0"/>
  <line style="fill:none;stroke:black;opacity:1;stroke-width:0.5;" x1="263" x2="3036" y1="292" y2="292"/>
  <text style="stroke:none;fill:black;font-family:sans-serif;font-size:13;font-weight:bold;" transform="matrix(1 0 0 1 263 322)">Weight/Scale Variations</text>
  <text style="stroke:none;fill:black;font-family:sans-serif;font-size:13;text-anchor:middle;" transform="matrix(1 0 0 1 559.711 322)">Ultralight</text>
  <text style="stroke:none;fill:black;font-family:sans-serif;font-size:13;text-anchor:middle;" transform="matrix(1 0 0 1 856.422 322)">Thin</text>
  <text style="stroke:none;fill:black;font-family:sans-serif;font-size:13;text-anchor:middle;" transform="matrix(1 0 0 1 1153.13 322)">Light</text>
  <text style="stroke:none;fill:black;font-family:sans-serif;font-size:13;text-anchor:middle;" transform="matrix(1 0 0 1 1449.84 322)">Regular</text>
  <text style="stroke:none;fill:black;font-family:sans-serif;font-size:13;text-anchor:middle;" transform="matrix(1 0 0 1 1746.56 322)">Medium</text>
  <text style="stroke:none;fill:black;font-family:sans-serif;font-size:13;text-anchor:middle;" transform="matrix(1 0 0 1 2043.27 322)">Semibold</text>
  <text style="stroke:none;fill:black;font-family:sans-serif;font-size:13;text-anchor:middle;" transform="matrix(1 0 0 1 2339.98 322)">Bold</text>
  <text style="stroke:none;fill:black;font-family:sans-serif;font-size:13;text-anchor:middle;" transform="matrix(1 0 0 1 2636.69 322)">Heavy</text>
  <text style="stroke:none;fill:black;font-family:sans-serif;font-size:13;text-anchor:middle;" transform="matrix(1 0 0 1 2933.4 322)">Black</text>
  <line style="fill:none;stroke:black;opacity:1;stroke-width:0.5;" x1="263" x2="3036" y1="1903" y2="1903"/>
  <g transform="matrix(0.2 0 0 0.2 263 1933)">
   <path d="m46.2402 4.15039c21.7773 0 39.4531-17.627 39.4531-39.4043s-17.6758-39.4043-39.4531-39.4043c-21.7285 0-39.4043 17.627-39.4043 39.4043s17.6758 39.4043 39.4043 39.4043Zm0-7.42188c-17.6758 0-31.9336-14.3066-31.9336-31.9824s14.2578-31.9824 31.9336-31.9824 31.9824 14.3066 31.9824 31.9824-14.3066 31.9824-31.9824 31.9824Zm-17.9688-31.9824c0 2.14844 1.51367 3.61328 3.75977 3.61328h10.498v10.5957c0 2.19727 1.46484 3.71094 3.61328 3.71094 2.24609 0 3.71094-1.51367 3.71094-3.71094v-10.5957h10.5957c2.19727 0 3.71094-1.46484 3.71094-3.61328 0-2.19727-1.51367-3.71094-3.71094-3.71094h-10.5957v-10.5469c0-2.24609-1.46484-3.75977-3.71094-3.75977-2.14844 0-3.61328 1.51367-3.61328 3.75977v10.5469h-10.498c-2.24609 0-3.75977 1.51367-3.75977 3.71094Z"/>
  </g>
  <g transform="matrix(0.2 0 0 0.2 281.506 1933)">
   <path d="m58.5449 14.5508c27.4902 0 49.8047-22.3145 49.8047-49.8047s-22.3145-49.8047-49.8047-49.8047-49.8047 22.3145-49.8047 49.8047 22.3145 49.8047 49.8047 49.8047Zm0-8.30078c-22.9492 0-41.5039-18.5547-41.5039-41.5039s18.5547-41.5039 41.5039-41.5039 41.5039 18.5547 41.5039 41.5039-18.5547 41.5039-41.5039 41.5039Zm-22.6562-41.5039c0 2.39258 1.66016 4.00391 4.15039 4.00391h14.3555v14.4043c0 2.44141 1.66016 4.15039 4.05273 4.15039 2.44141 0 4.15039-1.66016 4.15039-4.15039v-14.4043h14.4043c2.44141 0 4.15039-1.61133 4.15039-4.00391 0-2.44141-1.70898-4.15039-4.15039-4.15039h-14.4043v-14.3555c0-2.49023-1.70898-4.19922-4.15039-4.19922-2.39258 0-4.05273 1.70898-4.05273 4.19922v14.3555h-14.3555c-2.49023 0-4.15039 1.70898-4.15039 4.15039Z"/>
  </g>
  <g transform="matrix(0.2 0 0 0.2 304.924 1933)">
   <path d="m74.8535 28.3203c35.1074 0 63.623-28.4668 63.623-63.5742s-28.5156-63.623-63.623-63.623-63.5742 28.5156-63.5742 63.623 28.4668 63.5742 63.5742 63.5742Zm0-9.08203c-30.127 0-54.4922-24.3652-54.4922-54.4922s24.3652-54.4922 54.4922-54.4922 54.4922 24.3652 54.4922 54.4922-24.3652 54.4922-54.4922 54.4922Zm-28.8574-54.4922c0 2.58789 1.85547 4.39453 4.58984 4.39453h19.7266v19.7754c0 2.68555 1.85547 4.58984 4.44336 4.58984 2.68555 0 4.54102-1.85547 4.54102-4.58984v-19.7754h19.7754c2.68555 0 4.58984-1.80664 4.58984-4.39453 0-2.73438-1.85547-4.58984-4.58984-4.58984h-19.7754v-19.7266c0-2.73438-1.85547-4.63867-4.54102-4.63867-2.58789 0-4.44336 1.9043-4.44336 4.63867v19.7266h-19.7266c-2.73438 0-4.58984 1.85547-4.58984 4.58984Z"/>
  </g>
  <text style="stroke:none;fill:black;font-family:sans-serif;font-size:13;font-weight:bold;" transform="matrix(1 0 0 1 263 1953)">Design Variations</text>
  <text style="stroke:none;fill:black;font-family:sans-serif;font-size:13;" transform="matrix(1 0 0 1 263 1971)">Symbols are supported in up to nine weights and three scales.</text>
  <text style="stroke:none;fill:black;font-family:sans-serif;font-size:13;" transform="matrix(1 0 0 1 263 1989)">For optimal layout with text and other symbols, vertically align</text>
  <text style="stroke:none;fill:black;font-family:sans-serif;font-size:13;" transform="matrix(1 0 0 1 263 2007)">symbols with the adjacent text.</text>
  <line style="fill:none;stroke:#00AEEF;stroke-width:0.5;opacity:1.0;" x1="776" x2="776" y1="1919" y2="1933"/>
  <g transform="matrix(0.2 0 0 0.2 776 1933)">
   <path d="m16.5527 0.78125c2.58789 0 3.85742-0.976562 4.78516-3.71094l6.29883-17.2363h28.8086l6.29883 17.2363c0.927734 2.73438 2.19727 3.71094 4.73633 3.71094 2.58789 0 4.24805-1.5625 4.24805-4.00391 0-0.830078-0.146484-1.61133-0.537109-2.63672l-22.9004-60.9863c-1.12305-2.97852-3.125-4.49219-6.25-4.49219-3.02734 0-5.07812 1.46484-6.15234 4.44336l-22.9004 61.084c-0.390625 1.02539-0.537109 1.80664-0.537109 2.63672 0 2.44141 1.5625 3.95508 4.10156 3.95508Zm13.4766-28.3691 11.8652-32.8613h0.244141l11.8652 32.8613Z"/>
  </g>
  <line style="fill:none;stroke:#00AEEF;stroke-width:0.5;opacity:1.0;" x1="792.836" x2="792.836" y1="1919" y2="1933"/>
  <text style="stroke:none;fill:black;font-family:sans-serif;font-size:13;font-weight:bold;" transform="matrix(1 0 0 1 776 1953)">Margins</text>
  <text style="stroke:none;fill:black;font-family:sans-serif;font-size:13;" transform="matrix(1 0 0 1 776 1971)">Leading and trailing margins on the left and right side of each symbol</text>
  <text style="stroke:none;fill:black;font-family:sans-serif;font-size:13;" transform="matrix(1 0 0 1 776 1989)">can be adjusted by modifying the x-location of the margin guidelines.</text>
  <text style="stroke:none;fill:black;font-family:sans-serif;font-size:13;" transform="matrix(1 0 0 1 776 2007)">Modifications are automatically applied proportionally to all</text>
  <text style="stroke:none;fill:black;font-family:sans-serif;font-size:13;" transform="matrix(1 0 0 1 776 2025)">scales and weights.</text>
  <g transform="matrix(0.2 0 0 0.2 1289 1933)">
   <path d="m14.209 9.32617 8.49609 8.54492c4.29688 4.3457 9.22852 4.05273 13.8672-1.07422l53.4668-58.9355-4.83398-4.88281-53.0762 58.3984c-1.75781 2.00195-3.41797 2.49023-5.76172 0.146484l-5.85938-5.81055c-2.34375-2.29492-1.80664-4.00391 0.195312-5.81055l57.373-54.0039-4.88281-4.83398-57.959 54.4434c-4.93164 4.58984-5.32227 9.47266-1.02539 13.8184Zm32.0801-90.9668c-2.09961 2.05078-2.24609 4.93164-1.07422 6.88477 1.17188 1.80664 3.4668 2.97852 6.68945 2.14844 7.32422-1.70898 14.9414-2.00195 22.0703 2.68555l-2.92969 7.27539c-1.70898 4.15039-0.830078 7.08008 1.85547 9.81445l11.4746 11.5723c2.44141 2.44141 4.49219 2.53906 7.32422 2.05078l5.32227-0.976562 3.32031 3.36914-0.195312 2.7832c-0.195312 2.49023 0.439453 4.39453 2.88086 6.78711l3.80859 3.71094c2.39258 2.39258 5.46875 2.53906 7.8125 0.195312l14.5508-14.5996c2.34375-2.34375 2.24609-5.32227-0.146484-7.71484l-3.85742-3.80859c-2.39258-2.39258-4.24805-3.17383-6.64062-2.97852l-2.88086 0.244141-3.22266-3.17383 1.2207-5.61523c0.634766-2.83203-0.146484-5.0293-3.07617-7.95898l-10.9863-10.9375c-16.6992-16.6016-38.8672-16.2109-53.3203-1.75781Zm7.4707 1.85547c12.1582-8.88672 28.6133-7.37305 39.7461 3.75977l12.1582 12.0605c1.17188 1.17188 1.36719 2.09961 1.02539 3.80859l-1.61133 7.42188 7.51953 7.42188 4.93164-0.292969c1.26953-0.0488281 1.66016 0.0488281 2.63672 1.02539l2.88086 2.88086-12.207 12.207-2.88086-2.88086c-0.976562-0.976562-1.12305-1.36719-1.07422-2.68555l0.341797-4.88281-7.4707-7.42188-7.61719 1.26953c-1.61133 0.341797-2.34375 0.195312-3.56445-0.976562l-10.0098-10.0098c-1.26953-1.17188-1.41602-2.00195-0.634766-3.85742l4.39453-10.4492c-7.8125-7.27539-17.9688-10.4004-28.125-7.42188-0.78125 0.195312-1.07422-0.439453-0.439453-0.976562Z"/>
  </g>
  <text style="stroke:none;fill:black;font-family:sans-serif;font-size:13;font-weight:bold;" transform="matrix(1 0 0 1 1289 1953)">Exporting</text>
  <text style="stroke:none;fill:black;font-family:sans-serif;font-size:13;" transform="matrix(1 0 0 1 1289 1971)">Symbols should be outlined when exporting to ensure the</text>
  <text style="stroke:none;fill:black;font-family:sans-serif;font-size:13;" transform="matrix(1 0 0 1 1289 1989)">design is preserved when submitting to Xcode.</text>
  <text id="template-version" style="stroke:none;fill:black;font-family:sans-serif;font-size:13;text-anchor:end;" transform="matrix(1 0 0 1 3036 1933)">Template v.5.0</text>
  <text style="stroke:none;fill:black;font-family:sans-serif;font-size:13;text-anchor:end;" transform="matrix(1 0 0 1 3036 1951)">Requires Xcode 15 or greater</text>
  <text id="descriptive-name" style="stroke:none;fill:black;font-family:sans-serif;font-size:13;text-anchor:end;" transform="matrix(1 0 0 1 3036 1969)">Generated from </text>
  <text style="stroke:none;fill:black;font-family:sans-serif;font-size:13;text-anchor:end;" transform="matrix(1 0 0 1 3036 1987)">Typeset at 100.0 points</text>
  <text style="stroke:none;fill:black;font-family:sans-serif;font-size:13;" transform="matrix(1 0 0 1 263 726)">Small</text>
  <text style="stroke:none;fill:black;font-family:sans-serif;font-size:13;" transform="matrix(1 0 0 1 263 1156)">Medium</text>
  <text style="stroke:none;fill:black;font-family:sans-serif;font-size:13;" transform="matrix(1 0 0 1 263 1586)">Large</text>
 </g>
 <g id="Guides">
  <g id="H-reference" style="fill:#27AAE1;stroke:none;" transform="matrix(1 0 0 1 339 696)">
   <path d="M0.993654 0L3.63775 0L29.3281-67.1323L30.0303-67.1323L30.0303-70.459L28.1226-70.459ZM11.6885-24.4799L46.9815-24.4799L46.2315-26.7285L12.4385-26.7285ZM55.1196 0L57.7637 0L30.6382-70.459L29.4326-70.459L29.4326-67.1323Z"/>
  </g>
  <line id="Baseline-S" style="fill:none;stroke:#27AAE1;opacity:1;stroke-width:0.5;" x1="263" x2="3036" y1="696" y2="696"/>
  <line id="Capline-S" style="fill:none;stroke:#27AAE1;opacity:1;stroke-width:0.5;" x1="263" x2="3036" y1="625.541" y2="625.541"/>
  <g id="H-reference" style="fill:#27AAE1;stroke:none;" transform="matrix(1 0 0 1 339 1126)">
   <path d="M0.993654 0L3.63775 0L29.3281-67.1323L30.0303-67.1323L30.0303-70.459L28.1226-70.459ZM11.6885-24.4799L46.9815-24.4799L46.2315-26.7285L12.4385-26.7285ZM55.1196 0L57.7637 0L30.6382-70.459L29.4326-70.459L29.4326-67.1323Z"/>
  </g>
  <line id="Baseline-M" style="fill:none;stroke:#27AAE1;opacity:1;stroke-width:0.5;" x1="263" x2="3036" y1="1126" y2="1126"/>
  <line id="Capline-M" style="fill:none;stroke:#27AAE1;opacity:1;stroke-width:0.5;" x1="263" x2="3036" y1="1055.54" y2="1055.54"/>
  <g id="H-reference" style="fill:#27AAE1;stroke:none;" transform="matrix(1 0 0 1 339 1556)">
   <path d="M0.993654 0L3.63775 0L29.3281-67.1323L30.0303-67.1323L30.0303-70.459L28.1226-70.459ZM11.6885-24.4799L46.9815-24.4799L46.2315-26.7285L12.4385-26.7285ZM55.1196 0L57.7637 0L30.6382-70.459L29.4326-70.459L29.4326-67.1323Z"/>
  </g>
  <line id="Baseline-L" style="fill:none;stroke:#27AAE1;opacity:1;stroke-width:0.5;" x1="263" x2="3036" y1="1556" y2="1556"/>
  <line id="Capline-L" style="fill:none;stroke:#27AAE1;opacity:1;stroke-width:0.5;" x1="263" x2="3036" y1="1485.54" y2="1485.54"/>
  <line id="right-margin-Black-S" style="fill:none;stroke:#FF3B30;stroke-width:0.5;opacity:1.0;" x1="2988.97" x2="2988.97" y1="600.785" y2="720.121"/>
  <line id="left-margin-Black-S" style="fill:none;stroke:#00AEEF;stroke-width:0.5;opacity:1.0;" x1="2877.83" x2="2877.83" y1="600.785" y2="720.121"/>
  <line id="right-margin-Regular-S" style="fill:none;stroke:#FF3B30;stroke-width:0.5;opacity:1.0;" x1="1503.38" x2="1503.38" y1="600.785" y2="720.121"/>
  <line id="left-margin-Regular-S" style="fill:none;stroke:#00AEEF;stroke-width:0.5;opacity:1.0;" x1="1396.3" x2="1396.3" y1="600.785" y2="720.121"/>
  <line id="right-margin-Ultralight-S" style="fill:none;stroke:#FF3B30;stroke-width:0.5;opacity:1.0;" x1="611.321" x2="611.321" y1="600.785" y2="720.121"/>
  <line id="left-margin-Ultralight-S" style="fill:none;stroke:#00AEEF;stroke-width:0.5;opacity:1.0;" x1="508.101" x2="508.101" y1="600.785" y2="720.121"/>
 </g>
 <g id="Symbols">
  <g id="Black-S" transform="matrix(1 0 0 1 2877.83 696)">
   <path class="monochrome-0 multicolor-0:tintColor hierarchical-0:secondary SFSymbolsPreviewWireframe" d="M25 2.44141L86.1328 2.44141C95.7031 2.44141 101.367-3.22266 101.367-12.793L101.367-52.3926C101.367-61.9629 95.7031-67.627 86.1328-67.627L56.25-67.627C52.832-67.627 50.7324-68.3594 47.7051-70.5566L46.2402-71.6309C42.7734-74.1699 40.6738-75 35.5469-75L25.0977-75C15.8203-75 9.76562-69.1406 9.76562-59.4727L9.76562-12.793C9.76562-3.22266 15.4297 2.44141 25 2.44141ZM27.2461-11.7188C25-11.7188 23.9258-12.5977 23.9258-15.0391L23.9258-57.2754C23.9258-59.4238 25.4395-60.8398 27.7344-60.8398L31.6406-60.8398C35.0586-60.8398 37.0605-60.1562 40.1367-57.9102L41.6016-56.8359C45.1172-54.248 47.2168-53.4668 52.3438-53.4668L83.8867-53.4668C86.1328-53.4668 87.207-52.5879 87.207-50.1465L87.207-15.0391C87.207-12.5977 86.1328-11.7188 83.8867-11.7188ZM19.0918-36.8652L92.4316-36.8652L92.4316-47.6074L19.0918-47.6074Z"/>
   <path class="monochrome-1 multicolor-1:tintColor hierarchical-1:primary SFSymbolsPreviewWireframe" d="M100.026 20.2491C114.968 20.2491 127.321 7.84665 127.321-7.09475C127.321-22.0361 114.968-34.3408 100.026-34.3408C85.0847-34.3408 72.7312-22.0361 72.7312-7.09475C72.7312 7.84665 85.0847 20.2491 100.026 20.2491Z"/>
   <path class="monochrome-2 multicolor-2:tintColor hierarchical-2:primary SFSymbolsPreviewWireframe" d="M98.2683 14.9756L101.686 14.9756C103.493 14.9756 104.958 13.8038 105.348 12.0948L106.13 8.72555C106.374 8.62795 106.569 8.57905 106.765 8.48145L109.645 10.2881C111.159 11.2159 113.063 11.0694 114.382 9.75095L116.774 7.35835C118.044 6.08885 118.142 4.13575 117.214 2.62205L115.456-0.258748C115.554-0.454148 115.602-0.600548 115.7-0.795948L119.069-1.62595C120.827-2.06545 121.999-3.48145 121.999-5.28805L121.999-8.65725C121.999-10.4638 120.827-11.9775 119.069-12.3681L115.749-13.1494C115.7-13.2959 115.602-13.54 115.505-13.6865L117.311-16.665C118.239-18.1787 118.093-20.1318 116.774-21.4013L114.284-23.7939C113.112-24.9169 111.306-25.2587 109.792-24.331L106.765-22.4755C106.569-22.5732 106.374-22.622 106.179-22.7197L105.348-26.1376C104.909-27.8955 103.493-29.0673 101.686-29.0673L98.2683-29.0673C96.4128-29.0673 95.0456-27.8955 94.6062-26.0888L93.7761-22.7685C93.5808-22.7197 93.3366-22.5732 93.1413-22.4755L90.114-24.331C88.698-25.2099 86.8425-24.9658 85.6218-23.7939L83.1316-21.4013C81.8132-20.1806 81.7155-18.2275 82.6433-16.665L84.4499-13.6865C84.3034-13.54 84.2546-13.2959 84.1569-13.1494L80.8855-12.3681C79.0788-11.9287 77.9558-10.4638 77.9558-8.65725L77.9558-5.28805C77.9558-3.48145 79.1276-2.06545 80.8855-1.62595L84.2546-0.795948C84.3034-0.600548 84.4011-0.454148 84.4499-0.258748L82.6921 2.62205C81.7644 4.13575 81.862 6.08885 83.1316 7.35835L85.573 9.75095C86.8425 11.0206 88.7468 11.2159 90.2605 10.2881L93.1901 8.48145C93.3366 8.57905 93.5808 8.62795 93.7761 8.72555L94.6062 12.0948C95.0456 13.8038 96.4128 14.9756 98.2683 14.9756ZM99.9773-0.893548C96.6569-0.893548 93.8737-3.67675 93.8737-7.04595C93.8737-10.3662 96.6569-13.1494 99.9773-13.1494C103.298-13.1494 106.13-10.3662 106.13-7.04595C106.13-3.67675 103.298-0.893548 99.9773-0.893548Z"/>
  </g>
  <g id="Regular-S" transform="matrix(1 0 0 1 1396.3 696)">
   <path class="monochrome-0 multicolor-0:tintColor hierarchical-0:secondary SFSymbolsPreviewWireframe" d="M22.2168-0.0976562L86.2793-0.0976562C93.2129-0.0976562 97.3145-4.19922 97.3145-12.4023L97.3145-51.6602C97.3145-59.8633 93.1641-63.916 84.8633-63.916L48.291-63.916C45.8984-63.916 44.3359-64.5996 42.4805-66.1133L40.0391-68.0664C37.5-70.166 35.4004-70.8984 31.6895-70.8984L20.752-70.8984C13.8672-70.8984 9.76562-66.8945 9.76562-58.7402L9.76562-12.4023C9.76562-4.19922 13.916-0.0976562 22.2168-0.0976562ZM22.3145-7.17773C18.7988-7.17773 16.7969-9.0332 16.7969-12.7441L16.7969-58.3984C16.7969-62.0117 18.75-63.8672 22.2656-63.8672L29.834-63.8672C32.2266-63.8672 33.7891-63.1836 35.6445-61.6699L38.0859-59.7168C40.5762-57.666 42.7246-56.8848 46.4355-56.8848L84.7656-56.8848C88.2812-56.8848 90.2832-54.9805 90.2832-51.2695L90.2832-12.6953C90.2832-9.0332 88.2812-7.17773 84.7656-7.17773ZM14.0625-42.9688L92.9688-42.9688L92.9688-49.5605L14.0625-49.5605Z"/>
   <path class="monochrome-1 multicolor-1:tintColor hierarchical-1:primary SFSymbolsPreviewWireframe" d="M96.372 18.3447C110.191 18.3447 121.763 6.7725 121.763-7.0459C121.763-20.9619 110.288-32.4365 96.372-32.4365C82.4071-32.4365 70.9814-20.9619 70.9814-7.0459C70.9814 6.919 82.4071 18.3447 96.372 18.3447Z"/>
   <path class="monochrome-2 multicolor-2:tintColor hierarchical-2:primary SFSymbolsPreviewWireframe" d="M94.663 13.0713L98.0321 13.0713C99.204 13.0713 100.132 12.3389 100.425 11.1182L101.352 7.2607C101.89 7.1143 102.524 6.8701 103.062 6.626L106.431 8.6279C107.456 9.2627 108.579 9.2627 109.458 8.335L111.753 6.04C112.583 5.1611 112.681 4.0381 111.997 2.915L109.995-0.454098C110.337-0.991198 110.484-1.4795 110.679-2.0166L114.536-2.9443C115.757-3.1885 116.538-4.1162 116.538-5.3369L116.538-8.6572C116.538-9.8291 115.708-10.708 114.536-11.001L110.728-11.9287C110.484-12.6123 110.24-13.0518 110.044-13.4912L112.144-16.958C112.779-17.9834 112.681-19.2529 111.851-20.0342L109.458-22.3291C108.628-23.1592 107.456-23.3545 106.48-22.7686L103.062-20.6201C102.427-20.9619 101.89-21.1084 101.352-21.3037L100.425-25.1611C100.132-26.333 99.204-27.1143 98.0321-27.1143L94.663-27.1143C93.4423-27.1143 92.4657-26.2842 92.2216-25.1611L91.3427-21.3525C90.6591-21.1084 90.122-20.9619 89.5849-20.6201L86.2157-22.7686C85.288-23.3057 84.0673-23.1592 83.1884-22.3291L80.8935-20.0342C80.1122-19.2041 79.8192-17.9834 80.454-16.958L82.6024-13.4912C82.4071-13.0518 82.163-12.5146 81.9188-11.9287L78.1591-11.001C76.9872-10.708 76.206-9.7803 76.206-8.6572L76.206-5.3369C76.206-4.1162 76.9872-3.1885 78.1591-2.9443L81.9677-2.0166C82.2118-1.4795 82.4071-0.991198 82.6513-0.454098L80.6493 2.9639C80.0146 4.0381 80.1122 5.21 80.9423 6.04L83.1884 8.335C84.0673 9.2627 85.2392 9.2627 86.2646 8.6279L89.6825 6.626C90.2685 6.919 90.8056 7.1143 91.3427 7.2607L92.2216 11.1182C92.4657 12.29 93.4423 13.0713 94.663 13.0713ZM96.372-0.551798C92.7099-0.551798 89.8778-3.3838 89.8778-6.9971C89.8778-10.5615 92.7099-13.4424 96.372-13.4912C99.8388-13.54 102.817-10.5615 102.817-6.9971C102.817-3.3838 99.8388-0.551798 96.372-0.551798Z"/>
  </g>
  <g id="Ultralight-S" transform="matrix(1 0 0 1 508.101 696)">
   <path class="monochrome-0 multicolor-0:tintColor hierarchical-0:secondary SFSymbolsPreviewWireframe" d="M19.7647-2.05028L83.5547-2.05028C89.9888-2.05028 93.4546-5.60692 93.4546-12.0391L93.4546-51.4785C93.4546-57.9107 89.9854-61.4639 83.4556-61.4639L46.0205-61.4639C42.5381-61.4639 41.0664-61.875 38.9385-63.8882L36.9966-65.7505C34.503-68.1226 33.1299-68.5825 29.1919-68.5825L18.3452-68.5825C12.5957-68.5825 9.76562-65.7139 9.76562-60.0117L9.76562-12.0391C9.76562-5.5161 13.2349-2.05028 19.7647-2.05028ZM19.8623-4.27151C14.6665-4.27151 11.9834-6.94435 11.9834-12.1538L11.9834-59.7607C11.9834-64.2822 14.1636-66.4555 18.6328-66.4555L28.835-66.4555C32.0903-66.4555 33.4712-65.999 35.7354-63.8496L37.7227-61.9873C39.9858-59.8457 41.6348-59.2461 45.6636-59.2461L83.3579-59.2461C88.3721-59.2461 91.2368-56.5698 91.2368-51.3604L91.2368-12.1504C91.2368-6.94435 88.3721-4.27151 83.3579-4.27151ZM11.02-44.9214L92.3784-44.9214L92.3784-47.1084L11.02-47.1084Z"/>
   <path class="monochrome-1 multicolor-1:tintColor hierarchical-1:primary SFSymbolsPreviewWireframe" d="M92.9205 14.3033C104.559 14.3033 114.27 4.68365 114.27-7.04585C114.27-18.7821 104.611-28.395 92.9205-28.395C81.2261-28.395 71.5259-18.7367 71.5259-7.04585C71.5259 4.69395 81.2261 14.3033 92.9205 14.3033Z"/>
   <path class="monochrome-2 multicolor-2:tintColor hierarchical-2:primary SFSymbolsPreviewWireframe" d="M91.3931 11.3458L94.3536 11.3458C95.48 11.3458 96.3169 10.6588 96.5645 9.52885L97.4014 6.03475C97.8931 5.88825 98.4825 5.64405 98.9742 5.39995L102.071 7.26565C103.005 7.85505 104.038 7.85505 104.871 7.01815L106.984 4.85945C107.724 4.07135 107.821 3.08455 107.183 2.05225L105.363-1.04435C105.659-1.53605 105.806-1.97895 106.001-2.47065L109.495-3.30755C110.625-3.55175 111.315-4.43405 111.315-5.51855L111.315-8.56635C111.315-9.64745 110.576-10.39 109.495-10.683L106.05-11.5653C105.806-12.1581 105.561-12.5976 105.412-13.037L107.33-16.1859C107.919-17.1205 107.776-18.2538 107.037-18.9897L104.871-21.0575C104.086-21.8422 103.005-21.9921 102.12-21.4516L98.9742-19.4848C98.3848-19.7812 97.8931-19.9276 97.4014-20.123L96.5645-23.6625C96.3169-24.7436 95.48-25.4794 94.3536-25.4794L91.3931-25.4794C90.3086-25.4794 89.4229-24.6947 89.1788-23.6625L88.3907-20.1718C87.7525-19.9276 87.2608-19.7812 86.7237-19.4848L83.627-21.4516C82.7901-21.9887 81.6602-21.8422 80.8721-21.0575L78.8042-18.9897C78.0684-18.205 77.7754-17.1205 78.3648-16.1859L80.3316-13.037C80.1817-12.5976 79.9375-12.1059 79.7388-11.5653L76.2515-10.683C75.1704-10.39 74.48-9.59855 74.48-8.56635L74.48-5.51855C74.48-4.43405 75.1704-3.55175 76.2515-3.30755L79.7422-2.47065C79.9864-1.97895 80.1817-1.53605 80.3804-1.04435L78.5601 2.10115C77.9707 3.08455 78.0684 4.12015 78.8077 4.85945L80.8721 7.01815C81.6602 7.85505 82.7413 7.80965 83.6758 7.26565L86.8213 5.39995C87.4073 5.69295 87.899 5.88825 88.3907 6.03475L89.1788 9.52885C89.4229 10.61 90.3086 11.3458 91.3931 11.3458ZM92.9205-1.09665C89.5762-1.09665 86.9712-3.74705 86.9712-7.04245C86.9712-10.289 89.5762-12.9882 92.9205-13.037C96.0694-13.0858 98.8209-10.289 98.8209-7.04245C98.8209-3.74705 96.0694-1.09665 92.9205-1.09665Z"/>
  </g>
 </g>
</svg>
